0
SECTION
2
HEADER
9
$INSUNITS
70
4
9
$ACADVER
1
AC1014
9
$HANDSEED
5
FFFF
0
ENDSEC
0
SECTION
2
TABLES
0
TABLE
2
VPORT
5
8
100
AcDbSymbolTable
0
ENDTAB
0
TABLE
2
LTYPE
5
5
100
AcDbSymbolTable
0
LTYPE
5
14
100
AcDbSymbolTableRecord
100
AcDbLinetypeTableRecord
2
BYBLOCK
70
0
0
LTYPE
5
15
100
AcDbSymbolTableRecord
100
AcDbLinetypeTableRecord
2
BYLAYER
70
0
0
ENDTAB
0
TABLE
2
LAYER
5
2
100
AcDbSymbolTable
70
2
0
LAYER
5
50
100
AcDbSymbolTableRecord
100
AcDbLayerTableRecord
2
0
70
0
6
CONTINUOUS
0
ENDTAB
0
TABLE
2
STYLE
5
3
100
AcDbSymbolTable
70
1
0
STYLE
5
11
100
AcDbSymbolTableRecord
100
AcDbTextStyleTableRecord
2
STANDARD
70
0
0
ENDTAB
0
TABLE
2
VIEW
5
6
100
AcDbSymbolTable
70
0
0
ENDTAB
0
TABLE
2
UCS
5
7
100
AcDbSymbolTable
70
0
0
ENDTAB
0
TABLE
2
APPID
5
9
100
AcDbSymbolTable
70
2
0
APPID
5
12
100
AcDbSymbolTableRecord
100
AcDbRegAppTableRecord
2
ACAD
70
0
0
ENDTAB
0
TABLE
2
DIMSTYLE
5
A
100
AcDbSymbolTable
70
1
0
ENDTAB
0
TABLE
2
BLOCK_RECORD
5
1
100
AcDbSymbolTable
70
1
0
BLOCK_RECORD
5
1F
100
AcDbSymbolTableRecord
100
AcDbBlockTableRecord
2
*MODEL_SPACE
0
BLOCK_RECORD
5
1B
100
AcDbSymbolTableRecord
100
AcDbBlockTableRecord
2
*PAPER_SPACE
0
ENDTAB
0
ENDSEC
0
SECTION
2
BLOCKS
0
BLOCK
5
20
100
AcDbEntity
100
AcDbBlockBegin
2
*MODEL_SPACE
0
ENDBLK
5
21
100
AcDbEntity
100
AcDbBlockEnd
0
BLOCK
5
1C
100
AcDbEntity
100
AcDbBlockBegin
2
*PAPER_SPACE
0
ENDBLK
5
1D
100
AcDbEntity
100
AcDbBlockEnd
0
ENDSEC
0
SECTION
2
ENTITIES
0
LWPOLYLINE
5
100
100
AcDbEntity
8
0
100
AcDbPolyline
90
4
70
1
43
0.0
10
19.993366041086496
20
10.520502355543384
42
0.99999999999999989
10
23.122762464908746
20
13.754211993493044
10
-19.993366041086688
20
55.479497644456387
42
1.0000000074505806
10
-23.122762464908931
20
52.245788006506722
0
LWPOLYLINE
5
101
100
AcDbEntity
8
0
100
AcDbPolyline
90
4
70
1
43
0.0
10
23.2880111619518
20
27.704972595275294
42
0.9999999925494194
10
26.5217207999018
20
30.834369019095856
10
-1.2951363007275776
20
59.578454689771931
42
0.99999999999999989
10
-4.5288459386829194
20
56.449058265946221
0
LWPOLYLINE
5
102
100
AcDbEntity
8
0
100
AcDbPolyline
90
4
70
1
43
0.0
10
3.0337982768759666
20
6.563515745302146
42
0.99999999999999989
10
6.0555183523245759
20
9.8980633586608846
10
-23.584904877442163
20
36.757797362561703
42
0.99999999999999989
10
-26.60662495287724
20
33.423249749217888
0
LWPOLYLINE
5
103
100
AcDbEntity
8
0
100
AcDbPolyline
90
20
70
1
43
0.0
10
-34.000000506639495
20
22.999999999999972
10
-31.000000000000064
20
22.999999999999964
10
-31.000000000000071
20
2.9999999999999627
10
-13.000000000000064
20
3.0000000000000053
10
-13.00000000000005
20
9.9920072216264089e-15
10
12.999999999999947
20
8.8817841970012523e-15
10
12.999999999999947
20
2.9999999999999529
10
30.999999999999936
20
2.9999999999999432
10
30.999999999999947
20
22.999999999999936
10
34.000000506639381
20
22.999999999999936
10
34.000000506639395
20
42.999999999999929
10
30.99999999999995
20
42.999999999999929
10
30.999999999999961
20
62.999999999999915
10
12.999999999999963
20
62.999999999999929
10
12.999999999999963
20
65.999999999999858
10
-13.000000000000043
20
65.999999999999872
10
-13.000000000000041
20
62.999999999999872
10
-31.000000000000032
20
62.999999999999936
10
-31.000000000000043
20
42.999999999999943
10
-34.000000506639488
20
42.999999999999943
0
ENDSEC
0
SECTION
2
OBJECTS
0
DICTIONARY
5
C
100
AcDbDictionary
3
ACAD_GROUP
350
D
3
ACAD_MLINESTYLE
350
17
0
DICTIONARY
5
D
100
AcDbDictionary
0
DICTIONARY
5
1A
330
C
100
AcDbDictionary
0
DICTIONARY
5
17
100
AcDbDictionary
0
ENDSEC
0
EOF
