0
SECTION
2
HEADER
9
$INSUNITS
70
4
9
$ACADVER
1
AC1014
9
$HANDSEED
5
FFFF
0
ENDSEC
0
SECTION
2
TABLES
0
TABLE
2
VPORT
5
8
100
AcDbSymbolTable
0
ENDTAB
0
TABLE
2
LTYPE
5
5
100
AcDbSymbolTable
0
LTYPE
5
14
100
AcDbSymbolTableRecord
100
AcDbLinetypeTableRecord
2
BYBLOCK
70
0
0
LTYPE
5
15
100
AcDbSymbolTableRecord
100
AcDbLinetypeTableRecord
2
BYLAYER
70
0
0
ENDTAB
0
TABLE
2
LAYER
5
2
100
AcDbSymbolTable
70
2
0
LAYER
5
50
100
AcDbSymbolTableRecord
100
AcDbLayerTableRecord
2
0
70
0
6
CONTINUOUS
0
ENDTAB
0
TABLE
2
STYLE
5
3
100
AcDbSymbolTable
70
1
0
STYLE
5
11
100
AcDbSymbolTableRecord
100
AcDbTextStyleTableRecord
2
STANDARD
70
0
0
ENDTAB
0
TABLE
2
VIEW
5
6
100
AcDbSymbolTable
70
0
0
ENDTAB
0
TABLE
2
UCS
5
7
100
AcDbSymbolTable
70
0
0
ENDTAB
0
TABLE
2
APPID
5
9
100
AcDbSymbolTable
70
2
0
APPID
5
12
100
AcDbSymbolTableRecord
100
AcDbRegAppTableRecord
2
ACAD
70
0
0
ENDTAB
0
TABLE
2
DIMSTYLE
5
A
100
AcDbSymbolTable
70
1
0
ENDTAB
0
TABLE
2
BLOCK_RECORD
5
1
100
AcDbSymbolTable
70
1
0
BLOCK_RECORD
5
1F
100
AcDbSymbolTableRecord
100
AcDbBlockTableRecord
2
*MODEL_SPACE
0
BLOCK_RECORD
5
1B
100
AcDbSymbolTableRecord
100
AcDbBlockTableRecord
2
*PAPER_SPACE
0
ENDTAB
0
ENDSEC
0
SECTION
2
BLOCKS
0
BLOCK
5
20
100
AcDbEntity
100
AcDbBlockBegin
2
*MODEL_SPACE
0
ENDBLK
5
21
100
AcDbEntity
100
AcDbBlockEnd
0
BLOCK
5
1C
100
AcDbEntity
100
AcDbBlockBegin
2
*PAPER_SPACE
0
ENDBLK
5
1D
100
AcDbEntity
100
AcDbBlockEnd
0
ENDSEC
0
SECTION
2
ENTITIES
0
CIRCLE
5
100
100
AcDbEntity
8
0
100
AcDbCircle
10
3.7999117741271959e-14
20
0
30
0
40
7.4999999999999982
210
4.9303806576313238e-31
220
4.3140830754273946e-32
230
1
0
LWPOLYLINE
5
101
100
AcDbEntity
8
0
100
AcDbPolyline
90
4
70
1
43
0.0
10
8.7500000000000338
20
-15.155444566227665
42
0.5773502691896264
10
8.7500000000000071
20
15.155444566227683
10
6.2500000000000373
20
10.825317547305463
42
-0.57735026918962573
10
6.2500000000000222
20
-10.825317547305474
0
LWPOLYLINE
5
102
100
AcDbEntity
8
0
100
AcDbPolyline
90
4
70
1
43
0.0
10
-8.7499999999999538
20
15.155444566227656
42
0.57735026918962618
10
-8.7499999999999307
20
-15.155444566227674
10
-6.2499999999999662
20
-10.825317547305467
42
-0.57735026918962573
10
-6.2499999999999467
20
10.825317547305477
0
LWPOLYLINE
5
103
100
AcDbEntity
8
0
100
AcDbPolyline
90
4
70
1
43
0.0
10
13.750000000000052
20
-23.815698604072036
42
0.5773502691896264
10
13.749999999999964
20
23.815698604072089
10
11.250000000000039
20
19.485571585149849
42
-0.57735026918962584
10
11.250000000000011
20
-19.485571585149863
0
LWPOLYLINE
5
104
100
AcDbEntity
8
0
100
AcDbPolyline
90
4
70
1
43
0.0
10
-13.749999999999929
20
23.815698604072054
10
-11.249999999999936
20
19.485571585149867
42
0.57735026918962551
10
-11.249999999999982
20
-19.485571585149838
10
-13.749999999999936
20
-23.815698604072058
42
-0.57735026918962629
0
LWPOLYLINE
5
105
100
AcDbEntity
8
0
100
AcDbPolyline
90
4
70
1
43
0.0
10
-36.5616723062437
20
-10.127412888713396
10
-39.561672306243693
20
-10.127412888713396
10
-39.561672306243693
20
9.8725871112865971
10
-36.561672306243693
20
9.8725871112865953
0
LWPOLYLINE
5
106
100
AcDbEntity
8
0
100
AcDbPolyline
90
4
70
1
43
0.0
10
9.9383276937526865
20
33.872587111286606
10
9.9383276937526865
20
30.872587111286602
10
-10.061672306247267
20
30.872587111286602
10
-10.061672306247267
20
33.872587111286599
0
LWPOLYLINE
5
107
100
AcDbEntity
8
0
100
AcDbPolyline
90
4
70
1
43
0.0
10
-10.061672306240006
20
-34.12741288871338
10
-10.061672306240004
20
-31.12741288871338
10
9.9383276937599501
20
-31.127412888713391
10
9.9383276937599483
20
-34.127412888713394
0
LWPOLYLINE
5
108
100
AcDbEntity
8
0
100
AcDbPolyline
90
4
70
1
43
0.0
10
36.438327693756264
20
-10.127412888713398
10
36.4383276937563
20
9.8725871112865971
10
39.438327693756293
20
9.8725871112865917
10
39.438327693756257
20
-10.127412888713398
0
LWPOLYLINE
5
109
100
AcDbEntity
8
0
100
AcDbPolyline
90
8
70
1
43
0.0
10
44.938327693756293
20
26.872587111286563
42
0.41421356237309648
10
26.938327693756328
20
44.872587111286578
10
-27.061672306243519
20
44.87258711128657
42
0.41421356237309664
10
-45.061672306243487
20
26.872587111286556
10
-45.061672306243487
20
-27.127412888713373
42
0.41421356237309614
10
-27.06167230624354
20
-45.127412888713359
10
26.938327693756229
20
-45.127412888713366
42
0.41421356237309609
10
44.938327693756207
20
-27.127412888713401
0
ENDSEC
0
SECTION
2
OBJECTS
0
DICTIONARY
5
C
100
AcDbDictionary
3
ACAD_GROUP
350
D
3
ACAD_MLINESTYLE
350
17
0
DICTIONARY
5
D
100
AcDbDictionary
0
DICTIONARY
5
1A
330
C
100
AcDbDictionary
0
DICTIONARY
5
17
100
AcDbDictionary
0
ENDSEC
0
EOF
