0
SECTION
2
HEADER
9
$INSUNITS
70
4
9
$ACADVER
1
AC1014
9
$HANDSEED
5
FFFF
0
ENDSEC
0
SECTION
2
TABLES
0
TABLE
2
VPORT
5
8
100
AcDbSymbolTable
0
ENDTAB
0
TABLE
2
LTYPE
5
5
100
AcDbSymbolTable
0
LTYPE
5
14
100
AcDbSymbolTableRecord
100
AcDbLinetypeTableRecord
2
BYBLOCK
70
0
0
LTYPE
5
15
100
AcDbSymbolTableRecord
100
AcDbLinetypeTableRecord
2
BYLAYER
70
0
0
ENDTAB
0
TABLE
2
LAYER
5
2
100
AcDbSymbolTable
70
2
0
LAYER
5
50
100
AcDbSymbolTableRecord
100
AcDbLayerTableRecord
2
0
70
0
6
CONTINUOUS
0
ENDTAB
0
TABLE
2
STYLE
5
3
100
AcDbSymbolTable
70
1
0
STYLE
5
11
100
AcDbSymbolTableRecord
100
AcDbTextStyleTableRecord
2
STANDARD
70
0
0
ENDTAB
0
TABLE
2
VIEW
5
6
100
AcDbSymbolTable
70
0
0
ENDTAB
0
TABLE
2
UCS
5
7
100
AcDbSymbolTable
70
0
0
ENDTAB
0
TABLE
2
APPID
5
9
100
AcDbSymbolTable
70
2
0
APPID
5
12
100
AcDbSymbolTableRecord
100
AcDbRegAppTableRecord
2
ACAD
70
0
0
ENDTAB
0
TABLE
2
DIMSTYLE
5
A
100
AcDbSymbolTable
70
1
0
ENDTAB
0
TABLE
2
BLOCK_RECORD
5
1
100
AcDbSymbolTable
70
1
0
BLOCK_RECORD
5
1F
100
AcDbSymbolTableRecord
100
AcDbBlockTableRecord
2
*MODEL_SPACE
0
BLOCK_RECORD
5
1B
100
AcDbSymbolTableRecord
100
AcDbBlockTableRecord
2
*PAPER_SPACE
0
ENDTAB
0
ENDSEC
0
SECTION
2
BLOCKS
0
BLOCK
5
20
100
AcDbEntity
100
AcDbBlockBegin
2
*MODEL_SPACE
0
ENDBLK
5
21
100
AcDbEntity
100
AcDbBlockEnd
0
BLOCK
5
1C
100
AcDbEntity
100
AcDbBlockBegin
2
*PAPER_SPACE
0
ENDBLK
5
1D
100
AcDbEntity
100
AcDbBlockEnd
0
ENDSEC
0
SECTION
2
ENTITIES
0
LWPOLYLINE
5
100
100
AcDbEntity
8
0
100
AcDbPolyline
90
4
70
1
43
0.0
10
-17.22722775428981
20
33.011440312083977
10
18.459058591860114
20
14.942434567197839
42
-0.9999999925494194
10
17.103883141809657
20
12.265963102829016
10
-18.582403184399013
20
30.334968837618341
42
-0.99999999999999989
0
LWPOLYLINE
5
101
100
AcDbEntity
8
0
100
AcDbPolyline
90
4
70
1
43
0.0
10
2.7630214808937517
20
34.0985826270608
10
20.606164643998085
20
25.064079759666136
42
-0.99999999999999989
10
19.250989213888889
20
22.387608285200482
10
1.4078460507845592
20
31.422111152595129
42
-0.99999999999999989
0
LWPOLYLINE
5
102
100
AcDbEntity
8
0
100
AcDbPolyline
90
4
70
1
43
0.0
10
-19.374333826369039
20
22.889795129712496
10
-1.5311906632647154
20
13.855292262317853
42
-0.99999999999999989
10
-2.8863660933739075
20
11.178820787852199
10
-20.729509236536963
20
20.213323645150027
42
-1.0000000074505806
0
LWPOLYLINE
5
103
100
AcDbEntity
8
0
100
AcDbPolyline
90
4
70
1
43
0.0
10
18.292484925301249
20
37.444350658886265
10
27.214056526794657
20
32.927099215092127
42
-0.9999999925494194
10
25.858881076744218
20
30.250627750723297
10
16.937309495192039
20
34.767879184420664
42
-0.99999999999999989
0
LWPOLYLINE
5
104
100
AcDbEntity
8
0
100
AcDbPolyline
90
4
70
1
43
0.0
10
-18.415829537781395
20
7.833052756026726
10
-27.33740111933357
20
12.350304189724053
42
-0.99999999999999989
10
-25.982225689224371
20
15.026775664189707
10
-17.060654107672207
20
10.509524230492378
42
-0.99999999999999989
0
LWPOLYLINE
5
105
100
AcDbEntity
8
0
100
AcDbPolyline
90
20
70
1
43
0.0
10
36.43832769375625
20
32.638701707454139
10
39.438327693756243
20
32.638701707454139
10
39.438327693759859
20
42.638701707456484
10
9.9383276937599128
20
42.638701707456505
10
9.9383276937599128
20
45.638701707456491
10
-10.061672306240048
20
45.638701707456505
10
-10.06167230624005
20
42.638701707456505
10
-39.561672306239991
20
42.638701707456519
10
-39.561672306243672
20
32.638701707454139
10
-36.561672306243679
20
32.638701707454139
10
-36.561672306243679
20
12.638701707454141
10
-39.561672306243672
20
12.638701707454125
10
-39.56167230624002
20
2.6387017074565122
10
-10.061672306254428
20
2.6387017074551204
10
-10.06167230624807
20
-0.36129829254635482
10
9.9383276937608862
20
-0.36129829254542334
10
9.9383276937636449
20
2.638701707454576
10
39.438327693759831
20
2.6387017074564705
10
39.438327693756243
20
12.638701707454141
10
36.43832769375625
20
12.638701707454125
0
ENDSEC
0
SECTION
2
OBJECTS
0
DICTIONARY
5
C
100
AcDbDictionary
3
ACAD_GROUP
350
D
3
ACAD_MLINESTYLE
350
17
0
DICTIONARY
5
D
100
AcDbDictionary
0
DICTIONARY
5
1A
330
C
100
AcDbDictionary
0
DICTIONARY
5
17
100
AcDbDictionary
0
ENDSEC
0
EOF
