0
SECTION
2
HEADER
9
$INSUNITS
70
4
9
$ACADVER
1
AC1014
9
$HANDSEED
5
FFFF
0
ENDSEC
0
SECTION
2
TABLES
0
TABLE
2
VPORT
5
8
100
AcDbSymbolTable
0
ENDTAB
0
TABLE
2
LTYPE
5
5
100
AcDbSymbolTable
0
LTYPE
5
14
100
AcDbSymbolTableRecord
100
AcDbLinetypeTableRecord
2
BYBLOCK
70
0
0
LTYPE
5
15
100
AcDbSymbolTableRecord
100
AcDbLinetypeTableRecord
2
BYLAYER
70
0
0
ENDTAB
0
TABLE
2
LAYER
5
2
100
AcDbSymbolTable
70
2
0
LAYER
5
50
100
AcDbSymbolTableRecord
100
AcDbLayerTableRecord
2
0
70
0
6
CONTINUOUS
0
ENDTAB
0
TABLE
2
STYLE
5
3
100
AcDbSymbolTable
70
1
0
STYLE
5
11
100
AcDbSymbolTableRecord
100
AcDbTextStyleTableRecord
2
STANDARD
70
0
0
ENDTAB
0
TABLE
2
VIEW
5
6
100
AcDbSymbolTable
70
0
0
ENDTAB
0
TABLE
2
UCS
5
7
100
AcDbSymbolTable
70
0
0
ENDTAB
0
TABLE
2
APPID
5
9
100
AcDbSymbolTable
70
2
0
APPID
5
12
100
AcDbSymbolTableRecord
100
AcDbRegAppTableRecord
2
ACAD
70
0
0
ENDTAB
0
TABLE
2
DIMSTYLE
5
A
100
AcDbSymbolTable
70
1
0
ENDTAB
0
TABLE
2
BLOCK_RECORD
5
1
100
AcDbSymbolTable
70
1
0
BLOCK_RECORD
5
1F
100
AcDbSymbolTableRecord
100
AcDbBlockTableRecord
2
*MODEL_SPACE
0
BLOCK_RECORD
5
1B
100
AcDbSymbolTableRecord
100
AcDbBlockTableRecord
2
*PAPER_SPACE
0
ENDTAB
0
ENDSEC
0
SECTION
2
BLOCKS
0
BLOCK
5
20
100
AcDbEntity
100
AcDbBlockBegin
2
*MODEL_SPACE
0
ENDBLK
5
21
100
AcDbEntity
100
AcDbBlockEnd
0
BLOCK
5
1C
100
AcDbEntity
100
AcDbBlockBegin
2
*PAPER_SPACE
0
ENDBLK
5
1D
100
AcDbEntity
100
AcDbBlockEnd
0
ENDSEC
0
SECTION
2
ENTITIES
0
LWPOLYLINE
5
100
100
AcDbEntity
8
0
100
AcDbPolyline
90
20
70
1
43
0.0
10
39.561672306243707
20
12.638701707454146
10
36.5616723062437
20
12.638701707454143
10
36.561672306243715
20
32.638701707454139
10
39.561672306243722
20
32.638701707454146
10
39.561672306247367
20
42.638701707456548
10
10.06167230624734
20
42.638701707456534
10
10.061672306247335
20
45.638701707456526
10
-9.9383276937526794
20
45.638701707456519
10
-9.938327693752683
20
42.638701707456512
10
-39.438327693752711
20
42.638701707456491
10
-39.438327693756293
20
32.638701707454132
10
-36.438327693756293
20
32.638701707454146
10
-36.438327693756307
20
12.638701707454146
10
-39.438327693756314
20
12.638701707454141
10
-39.438327693752726
20
2.6387017074565056
10
-9.9383276937670537
20
2.6387017074551409
10
-9.9383276937606908
20
-0.36129829254633761
10
10.061672306248328
20
-0.36129829254538448
10
10.061672306251083
20
2.6387017074546288
10
39.56167230624736
20
2.6387017074565522
0
LWPOLYLINE
5
101
100
AcDbEntity
8
0
100
AcDbPolyline
90
8
70
1
43
0.0
10
-23.431350594867894
20
18.820586791274629
10
-23.43135059486789
20
26.461611976859647
10
-24.449665552486604
20
27.377362838027558
10
-20.977137690891446
20
27.377362838027558
10
-21.958822614063443
20
26.381025901076875
10
-21.95882261406345
20
18.754652133224091
10
-21.035745746006207
20
17.978095402953706
10
-24.449665552486614
20
17.978095402953702
0
SPLINE
5
102
100
AcDbEntity
8
0
100
AcDbSpline
70
0
71
3
72
9
73
5
74
0
42
0.000000001
43
0.0000000001
44
0.0000000001
40
0
40
0
40
0
40
0
40
0.03719444444480742
40
0.073645476210323996
40
0.073645476210323996
40
0.073645476210323996
40
0.073645476210323996
10
-12.977138167728597
20
27.003736486671048
30
0
10
-12.851598389823323
20
27.012225865704718
30
0
10
-12.603028022254277
20
27.029034944882994
30
0
10
-12.387729510144274
20
27.154227086428769
30
0
10
-12.281166917194536
20
27.216191282508451
30
0
0
LINE
5
103
100
AcDbEntity
8
0
100
AcDbLine
10
-12.281166917194534
20
27.216191282508451
30
0
11
-12.163950806965044
21
27.150256624457914
31
0
0
LINE
5
104
100
AcDbEntity
8
0
100
AcDbLine
10
-12.163950806965044
20
27.150256624457914
30
0
11
-12.244537478794268
21
27.011062493560392
31
0
0
SPLINE
5
105
100
AcDbEntity
8
0
100
AcDbSpline
70
0
71
3
72
9
73
5
74
0
42
0.000000001
43
0.0000000001
44
0.0000000001
40
0
40
0
40
0
40
0
40
0.13044618323637897
40
0.25698262005230132
40
0.25698262005230132
40
0.25698262005230132
40
0.25698262005230132
10
-12.244537478794268
20
27.011062493560392
30
0
10
-12.455724311714258
20
26.630674436669981
30
0
10
-12.871768264077222
20
25.8812993528535
30
0
10
-13.217271290482032
20
25.096919472928505
30
0
10
-13.38739455353182
20
24.710696330306607
30
0
0
LINE
5
106
100
AcDbEntity
8
0
100
AcDbLine
10
-13.387394553531816
20
24.710696330306607
30
0
11
-13.453328019489462
21
24.542197575805265
31
0
0
LINE
5
107
100
AcDbEntity
8
0
100
AcDbLine
10
-13.453328019489462
20
24.542197575805265
30
0
11
-13.548566705097372
21
24.593480220077115
31
9.6296497219361793e-34
0
SPLINE
5
108
100
AcDbEntity
8
0
100
AcDbSpline
70
0
71
3
72
9
73
5
74
0
42
0.000000001
43
0.0000000001
44
0.0000000001
40
0
40
0
40
0
40
0
40
0.10367567625438055
40
0.19546765100184998
40
0.19546765100184998
40
0.19546765100184998
40
0.19546765100184998
10
-13.548566705097372
20
24.593480220077115
30
0
10
-13.616456625954676
20
24.937820829159413
30
0
10
-13.744454665958957
20
25.587032413144797
30
0
10
-14.144559069481558
20
26.112355279278752
30
0
10
-14.332448846210653
20
26.359047880408841
30
0
0
SPLINE
5
109
100
AcDbEntity
8
0
100
AcDbSpline
70
0
71
3
72
9
73
5
74
0
42
0.000000001
43
0.0000000001
44
0.0000000001
40
0
40
0
40
0
40
0
40
0.08371583737115891
40
0.1661135454252694
40
0.1661135454252694
40
0.1661135454252694
40
0.1661135454252694
10
-14.332448846210653
20
26.359047880408841
30
0
10
-14.547090620732277
20
26.549215285748573
30
0
10
-14.97299457489188
20
26.926555857345001
30
0
10
-15.538914297312642
20
26.983043025459772
30
0
10
-15.819628840793785
20
27.011062493560392
30
0
0
SPLINE
5
110
100
AcDbEntity
8
0
100
AcDbSpline
70
0
71
3
72
9
73
5
74
0
42
0.000000001
43
0.0000000001
44
0.0000000001
40
0
40
0
40
0
40
0
40
0.087735840238277144
40
0.18055032843161045
40
0.18055032843161045
40
0.18055032843161045
40
0.18055032843161045
10
-15.819628840793785
20
27.011062493560392
30
0
10
-16.119682633639162
20
26.973523921457925
30
0
10
-16.737159034369501
20
26.896273831830399
30
0
10
-17.1569451978304
20
26.435000108213877
30
0
10
-17.372742301334558
20
26.19787572884329
30
0
0
SPLINE
5
111
100
AcDbEntity
8
0
100
AcDbSpline
70
0
71
3
72
9
73
5
74
0
42
0.000000001
43
0.0000000001
44
0.0000000001
40
0
40
0
40
0
40
0
40
0.14840564150556265
40
0.35592630508198841
40
0.35592630508198841
40
0.35592630508198841
40
0.35592630508198841
10
-17.372742301334558
20
26.19787572884329
30
0
10
-17.599829769131873
20
25.751639920755114
30
0
10
-18.144461378304847
20
24.681417382333969
30
0
10
-18.152145471071233
20
23.473546726942057
30
0
10
-18.156625634540738
20
22.769305100677087
30
0
0
SPLINE
5
112
100
AcDbEntity
8
0
100
AcDbSpline
70
0
71
3
72
9
73
5
74
0
42
0.000000001
43
0.0000000001
44
0.0000000001
40
0
40
0
40
0
40
0
40
0.18640627756173245
40
0.33694732987883053
40
0.33694732987883053
40
0.33694732987883053
40
0.33694732987883053
10
-18.156625634540738
20
22.769305100677087
30
0
10
-18.141647471561249
20
22.140183200057969
30
0
10
-18.11457299698645
20
21.002984671367297
30
0
10
-17.644868049840497
20
19.970516654550906
30
0
10
-17.435013657917203
20
19.509231438872895
30
0
0
SPLINE
5
113
100
AcDbEntity
8
0
100
AcDbSpline
70
0
71
3
72
9
73
5
74
0
42
0.000000001
43
0.0000000001
44
0.0000000001
40
0
40
0
40
0
40
0
40
0.12349531487495144
40
0.24143511303800458
40
0.24143511303800458
40
0.24143511303800458
40
0.24143511303800458
10
-17.435013657917203
20
19.509231438872895
30
0
10
-17.176248064429782
20
19.165267157288422
30
0
10
-16.67035761524761
20
18.492812050068597
30
0
10
-15.837968721166828
20
18.383259557164312
30
0
10
-15.431351071705045
20
18.329743733642175
30
0
0
SPLINE
5
114
100
AcDbEntity
8
0
100
AcDbSpline
70
0
71
3
72
9
73
5
74
0
42
0.000000001
43
0.0000000001
44
0.0000000001
40
0
40
0
40
0
40
0
40
0.093792809451374706
40
0.18185164157814301
40
0.18185164157814301
40
0.18185164157814301
40
0.18185164157814301
10
-15.431351071705045
20
18.329743733642175
30
0
10
-15.110176192947836
20
18.354509735981964
30
0
10
-14.487461303850296
20
18.40252768327624
30
0
10
-14.020234809008453
20
18.814994454182042
30
0
10
-13.793987637867151
20
19.014725079772546
30
0
0
SPLINE
5
115
100
AcDbEntity
8
0
100
AcDbSpline
70
0
71
3
72
9
73
5
74
0
42
0.000000001
43
0.0000000001
44
0.0000000001
40
0
40
0
40
0
40
0
40
0.096496480301509091
40
0.21176948718677935
40
0.21176948718677935
40
0.21176948718677935
40
0.21176948718677935
10
-13.793987637867151
20
19.014725079772546
30
0
10
-13.609532350707809
20
19.283748978031088
30
0
10
-13.204730005082638
20
19.874144117803954
30
0
10
-13.114283318320126
20
20.586612918509992
30
0
10
-13.065050250400718
20
20.974432816741544
30
0
0
SPLINE
5
116
100
AcDbEntity
8
0
100
AcDbSpline
70
0
71
3
72
9
73
5
74
0
42
0.000000001
43
0.0000000001
44
0.0000000001
40
0
40
0
40
0
40
0
40
0.024325267866824204
40
0.04318177735960034
40
0.04318177735960034
40
0.04318177735960034
40
0.04318177735960034
10
-13.065050250400718
20
20.974432816741544
30
0
10
-13.053039137008469
20
21.063705999699465
30
0
10
-13.031717224864078
20
21.222182146057929
30
0
10
-12.881543499381268
20
21.263905470248208
30
0
10
-12.815966016163046
20
21.282125106093961
30
0
0
SPLINE
5
117
100
AcDbEntity
8
0
100
AcDbSpline
70
0
71
3
72
9
73
5
74
0
42
0.000000001
43
0.0000000001
44
0.0000000001
40
0
40
0
40
0
40
0
40
0.024513452845720138
40
0.060935012784373424
40
0.060935012784373424
40
0.060935012784373424
40
0.060935012784373424
10
-12.815966016163046
20
21.282125106093961
30
0
10
-12.733393291009399
20
21.25057697960159
30
0
10
-12.528135790381265
20
21.172155326673501
30
0
10
-12.529459784736014
20
20.942939190505285
30
0
10
-12.530251151432211
20
20.805934062240201
30
0
0
SPLINE
5
118
100
AcDbEntity
8
0
100
AcDbSpline
70
0
71
3
72
9
73
5
74
0
42
0.000000001
43
0.0000000001
44
0.0000000001
40
0
40
0
40
0
40
0
40
0.072791746722882911
40
0.15150475735584601
40
0.15150475735584601
40
0.15150475735584601
40
0.15150475735584601
10
-12.530251151432211
20
20.805934062240201
30
0
10
-12.545663107904781
20
20.562327251342669
30
0
10
-12.577740710529774
20
20.055297369015925
30
0
10
-12.758620760174464
20
19.580226375539414
30
0
10
-12.852595454563316
20
19.33340727352865
30
0
0
SPLINE
5
119
100
AcDbEntity
8
0
100
AcDbSpline
70
0
71
3
72
9
73
5
74
0
42
0.000000001
43
0.0000000001
44
0.0000000001
40
0
40
0
40
0
40
0
40
0.15971927423711638
40
0.3411725325992826
40
0.3411725325992826
40
0.3411725325992826
40
0.3411725325992826
10
-12.852595454563316
20
19.33340727352865
30
0
10
-13.160526586768867
20
18.863833956548078
30
0
10
-13.818290934512929
20
17.860789592863647
30
0
10
-15.02434248711252
20
17.769981966262055
30
0
10
-15.665783292164029
20
17.721685757873132
30
0
0
SPLINE
5
120
100
AcDbEntity
8
0
100
AcDbSpline
70
0
71
3
72
9
73
5
74
0
42
0.000000001
43
0.0000000001
44
0.0000000001
40
0
40
0
40
0
40
0
40
0.17411747886897155
40
0.33963462169958986
40
0.33963462169958986
40
0.33963462169958986
40
0.33963462169958986
10
-15.665783292164029
20
17.721685757873132
30
0
10
-16.263022919322076
20
17.771531214126835
30
0
10
-17.428002197401749
20
17.868760066670159
30
0
10
-18.277453115623626
20
18.66879367152637
30
0
10
-18.691423541416349
20
19.058681121108606
30
0
0
SPLINE
5
121
100
AcDbEntity
8
0
100
AcDbSpline
70
0
71
3
72
9
73
5
74
0
42
0.000000001
43
0.0000000001
44
0.0000000001
40
0
40
0
40
0
40
0
40
0.17829684248840452
40
0.38451370299062915
40
0.38451370299062915
40
0.38451370299062915
40
0.38451370299062915
10
-18.691423541416349
20
19.058681121108606
30
0
10
-19.01788791937836
20
19.567796440268445
30
0
10
-19.721938676042026
20
20.665750918246029
30
0
10
-19.780758037384491
20
21.972987882406048
30
0
10
-19.812303191532315
20
22.674066415069184
30
0
0
SPLINE
5
122
100
AcDbEntity
8
0
100
AcDbSpline
70
0
71
3
72
9
73
5
74
0
42
0.000000001
43
0.0000000001
44
0.0000000001
40
0
40
0
40
0
40
0
40
0.19540546018771079
40
0.3769636203418949
40
0.3769636203418949
40
0.3769636203418949
40
0.3769636203418949
10
-19.812303191532315
20
22.674066415069184
30
0
10
-19.771307622398282
20
23.337087954442936
30
0
10
-19.692221612499193
20
24.616146377922469
30
0
10
-18.987084756001479
20
25.683704427305173
30
0
10
-18.647467500080285
20
26.197875728843293
30
0
0
SPLINE
5
123
100
AcDbEntity
8
0
100
AcDbSpline
70
0
71
3
72
9
73
5
74
0
42
0.000000001
43
0.0000000001
44
0.0000000001
40
0
40
0
40
0
40
0
40
0.16856707079361802
40
0.33128492345589311
40
0.33128492345589311
40
0.33128492345589311
40
0.33128492345589311
10
-18.647467500080285
20
26.197875728843293
30
0
10
-18.24094073946533
20
26.612367935058337
30
0
10
-17.441993553997616
20
27.426969613562527
30
0
10
-16.309798027791821
20
27.555828568657745
30
0
10
-15.753695374836141
20
27.619120469329435
30
0
0
SPLINE
5
124
100
AcDbEntity
8
0
100
AcDbSpline
70
0
71
3
72
9
73
5
74
0
42
0.000000001
43
0.0000000001
44
0.0000000001
40
0
40
0
40
0
40
0
40
0.088305400159617978
40
0.19189554883462573
40
0.19189554883462573
40
0.19189554883462573
40
0.19189554883462573
10
-15.753695374836141
20
27.619120469329435
30
0
10
-15.458761625177022
20
27.597574635826874
30
0
10
-14.817844154010036
20
27.550753608600893
30
0
10
-14.212398269482833
20
27.333480753346009
30
0
10
-13.885563022007162
20
27.216191282508451
30
0
0
SPLINE
5
125
100
AcDbEntity
8
0
100
AcDbSpline
70
0
71
3
72
9
73
5
74
0
42
0.000000001
43
0.0000000001
44
0.0000000001
40
0
40
0
40
0
40
0
40
0.052652132955718224
40
0.093656888929441434
40
0.093656888929441434
40
0.093656888929441434
40
0.093656888929441434
10
-13.885563022007162
20
27.216191282508451
30
0
10
-13.720183486605448
20
27.154538007388869
30
0
10
-13.426008646787523
20
27.044870010750117
30
0
10
-13.113820178934201
20
27.016261731839517
30
0
10
-12.977138167728597
20
27.003736486671048
30
0
0
LINE
5
126
100
AcDbEntity
8
0
100
AcDbLine
10
-12.127321368564779
20
20.776630034682828
30
0
11
-12.112669354786092
21
20.945128789184171
31
0
0
LINE
5
127
100
AcDbEntity
8
0
100
AcDbLine
10
-12.112669354786092
20
20.945128789184171
30
0
11
-11.90021455894869
21
20.849890103576261
31
-1.0977800683007244e-31
0
SPLINE
5
128
100
AcDbEntity
8
0
100
AcDbSpline
70
0
71
3
72
9
73
5
74
0
42
0.000000001
43
0.0000000001
44
0.0000000001
40
0
40
0
40
0
40
0
40
0.16300087631146706
40
0.29910055971313909
40
0.29910055971313909
40
0.29910055971313909
40
0.29910055971313909
10
-11.90021455894869
20
20.849890103576261
30
0
10
-11.956262064198928
20
20.298120717828763
30
0
10
-12.059107156631669
20
19.285644368963617
30
0
10
-12.647246055206736
20
18.460010746059694
30
0
10
-12.914866811145957
20
18.0843228008724
30
0
0
SPLINE
5
129
100
AcDbEntity
8
0
100
AcDbSpline
70
0
71
3
72
9
73
5
74
0
42
0.000000001
43
0.0000000001
44
0.0000000001
40
0
40
0
40
0
40
0
40
0.1289993232458993
40
0.27426361658999893
40
0.27426361658999893
40
0.27426361658999893
40
0.27426361658999893
10
-12.914866811145957
20
18.0843228008724
30
0
10
-13.258118603377227
20
17.807875210280542
30
0
10
-13.987901330678001
20
17.22012394085111
30
0
10
-14.926757402931589
20
17.164869594025411
30
0
10
-15.424024468769256
20
17.135604014632779
30
0
0
SPLINE
5
130
100
AcDbEntity
8
0
100
AcDbSpline
70
0
71
3
72
9
73
5
74
0
42
0.000000001
43
0.0000000001
44
0.0000000001
40
0
40
0
40
0
40
0
40
0.11962863350836878
40
0.24307260541643469
40
0.24307260541643469
40
0.24307260541643469
40
0.24307260541643469
10
-15.424024468769256
20
17.135604014632779
30
0
10
-15.827489300108386
20
17.168973223745514
30
0
10
-16.647286742170156
20
17.236775892403031
30
0
10
-17.347042401394834
20
17.670113579479249
30
0
10
-17.70241201530856
20
17.890183320281587
30
0
0
LINE
5
131
100
AcDbEntity
8
0
100
AcDbLine
10
-17.70241201530856
20
17.890183320281587
30
0
11
-17.70241201530856
21
17.948791375396333
31
0
0
SPLINE
5
132
100
AcDbEntity
8
0
100
AcDbSpline
70
0
71
3
72
9
73
5
74
0
42
0.000000001
43
0.0000000001
44
0.0000000001
40
0
40
0
40
0
40
0
40
0.1133060176801832
40
0.23715894457083059
40
0.23715894457083059
40
0.23715894457083059
40
0.23715894457083059
10
-17.70241201530856
20
17.948791375396333
30
0
10
-17.364604677545767
20
17.76940160081476
30
0
10
-16.657545746940372
20
17.393923841754795
30
0
10
-15.856835933318694
20
17.354168477263162
30
0
10
-15.438676482547942
20
17.333406796691495
30
0
0
SPLINE
5
133
100
AcDbEntity
8
0
100
AcDbSpline
70
0
71
3
72
9
73
5
74
0
42
0.000000001
43
0.0000000001
44
0.0000000001
40
0
40
0
40
0
40
0
40
0.13372337188816952
40
0.25975030790436304
40
0.25975030790436304
40
0.25975030790436304
40
0.25975030790436304
10
-15.438676482547942
20
17.333406796691495
30
0
10
-14.982282534015553
20
17.367368042675221
30
0
10
-14.095762346982605
20
17.433335898380101
30
0
10
-13.40669887598982
20
17.992508261532581
30
0
10
-13.072375661243615
20
18.263810267684534
30
0
0
SPLINE
5
134
100
AcDbEntity
8
0
100
AcDbSpline
70
0
71
3
72
9
73
5
74
0
42
0.000000001
43
0.0000000001
44
0.0000000001
40
0
40
0
40
0
40
0
40
0.061869160502179714
40
0.12198962215868857
40
0.12198962215868857
40
0.12198962215868857
40
0.12198962215868857
10
-13.072375661243615
20
18.263810267684534
30
0
10
-12.933708249858588
20
18.418407830980613
30
0
10
-12.660292787562369
20
18.723233339845862
30
0
10
-12.494662865142303
20
19.097616437116901
30
0
10
-12.41303504120272
20
19.282124629256799
30
0
0
SPLINE
5
135
100
AcDbEntity
8
0
100
AcDbSpline
70
0
71
3
72
9
73
5
74
0
42
0.000000001
43
0.0000000001
44
0.0000000001
40
0
40
0
40
0
40
0
40
0.067932001777775516
40
0.15250783689352071
40
0.15250783689352071
40
0.15250783689352071
40
0.15250783689352071
10
-12.41303504120272
20
19.282124629256799
30
0
10
-12.347071163526127
20
19.49934233279086
30
0
10
-12.198981779520107
20
19.986997653317498
30
0
10
-12.152885082210345
20
20.494941221942504
30
0
10
-12.127321368564779
20
20.776630034682828
30
0
0
LINE
5
136
100
AcDbEntity
8
0
100
AcDbLine
10
-6.947833901752638
20
26.542198052642426
30
0
11
-7.7243918241159202
21
27.377362838027558
31
0
0
LINE
5
137
100
AcDbEntity
8
0
100
AcDbLine
10
-7.7243918241159202
20
27.377362838027558
30
0
11
-4.3470996678964342
21
27.377362838027558
31
0
0
LINE
5
138
100
AcDbEntity
8
0
100
AcDbLine
10
-4.3470996678964342
20
27.377362838027558
30
0
11
-5.1090067685739253
21
26.512894025085053
31
0
0
LINE
5
139
100
AcDbEntity
8
0
100
AcDbLine
10
-5.1090067685739253
20
26.512894025085053
30
0
11
-3.9075416387216313
21
23.318755021331391
31
-6.1629758220391547e-32
0
LINE
5
140
100
AcDbEntity
8
0
100
AcDbLine
10
-3.9075416387216313
20
23.318755021331391
30
-6.1629758220391547e-32
11
-3.6145013631478999
21
23.479927172896936
31
0
0
LINE
5
141
100
AcDbEntity
8
0
100
AcDbLine
10
-3.6145013631478999
20
23.479927172896936
30
0
11
-4.6987479985849117
21
26.366373887298188
31
0
0
LINE
5
142
100
AcDbEntity
8
0
100
AcDbLine
10
-4.6987479985849117
20
26.366373887298188
30
0
11
-3.9221924604074192
21
27.260146727798066
31
0
0
LINE
5
143
100
AcDbEntity
8
0
100
AcDbLine
10
-3.9221924604074192
20
27.260146727798066
30
0
11
-3.7317174733773899
21
27.17956065201529
31
1.9259299443872359e-33
0
LINE
5
144
100
AcDbEntity
8
0
100
AcDbLine
10
-3.7317174733773899
20
27.17956065201529
30
1.9259299443872359e-33
11
-4.4716423810617183
21
26.322417845962129
31
0
0
LINE
5
145
100
AcDbEntity
8
0
100
AcDbLine
10
-4.4716423810617183
20
26.322417845962129
30
0
11
-3.4460014165536617
21
23.589817872283533
31
0
0
SPLINE
5
146
100
AcDbEntity
8
0
100
AcDbSpline
70
0
71
3
72
9
73
5
74
0
42
0.000000001
43
0.0000000001
44
0.0000000001
40
0
40
0
40
0
40
0
40
0.0087547977827723365
40
0.013046103437876329
40
0.013046103437876329
40
0.013046103437876329
40
0.013046103437876329
10
-3.4460014165536617
20
23.589817872283536
30
0
10
-3.422540583246299
20
23.607193691051602
30
0
10
-3.3875800432474383
20
23.633086548270079
30
0
10
-3.3543642970584857
20
23.661166804038388
30
0
10
-3.3434385121957515
20
23.670403352019864
30
0
0
LINE
5
147
100
AcDbEntity
8
0
100
AcDbLine
10
-3.3434385121957515
20
23.670403352019864
30
0
11
-3.1016796888009757
21
23.875531544921476
31
0
0
SPLINE
5
148
100
AcDbEntity
8
0
100
AcDbSpline
70
0
71
3
72
9
73
5
74
0
42
0.000000001
43
0.0000000001
44
0.0000000001
40
0
40
0
40
0
40
0
40
0.023403257060057765
40
0.037389941619489012
40
0.037389941619489012
40
0.037389941619489012
40
0.037389941619489012
10
-3.1016796888009757
20
23.875531544921476
30
0
10
-3.0403893712629926
20
23.923996316480185
30
0
10
-2.9424696078427126
20
24.001425495441559
30
0
10
-2.8557354229125993
20
24.091078667688571
30
0
10
-2.8232902349130358
20
24.124615779159146
30
0
0
SPLINE
5
149
100
AcDbEntity
8
0
100
AcDbSpline
70
0
71
3
72
9
73
5
74
0
42
0.000000001
43
0.0000000001
44
0.0000000001
40
0
40
0
40
0
40
0
40
0.082731943803993735
40
0.16103809221943996
40
0.16103809221943996
40
0.16103809221943996
40
0.16103809221943996
10
-2.8232902349130358
20
24.124615779159146
30
0
10
-2.7531532778650036
20
23.856755697044303
30
0
10
-2.6166313827207128
20
23.33536486996892
30
0
10
-2.3613449117184602
20
22.860848172588895
30
0
10
-2.2372096837655757
20
22.630110373733121
30
0
0
SPLINE
5
150
100
AcDbEntity
8
0
100
AcDbSpline
70
0
71
3
72
9
73
5
74
0
42
0.000000001
43
0.0000000001
44
0.0000000001
40
0
40
0
40
0
40
0
40
0.018348019489952357
40
0.030807673757886306
40
0.030807673757886306
40
0.030807673757886306
40
0.030807673757886306
10
-2.2372096837655757
20
22.630110373733121
30
0
10
-2.2982351089462654
20
22.634329249635474
30
0
10
-2.4007012847061291
20
22.641413052467492
30
0
10
-2.5033774769409045
20
22.643797882454901
30
0
10
-2.5449031652108878
20
22.644762387511808
30
0
0
SPLINE
5
151
100
AcDbEntity
8
0
100
AcDbSpline
70
0
71
3
72
9
73
5
74
0
42
0.000000001
43
0.0000000001
44
0.0000000001
40
0
40
0
40
0
40
0
40
0.060506468931863365
40
0.10522988727061436
40
0.10522988727061436
40
0.10522988727061436
40
0.10522988727061436
10
-2.5449031652108878
20
22.644762387511808
30
0
10
-2.7496005704649766
20
22.642553192534798
30
0
10
-3.1056002719800606
20
22.638711068833111
30
0
10
-3.4267336537373345
20
22.488726600671598
30
0
10
-3.5632175267831552
20
22.42498218083151
30
0
0
LINE
5
152
100
AcDbEntity
8
0
100
AcDbLine
10
-3.5632175267831552
20
22.424982180831506
30
0
11
-2.2372096837655793
21
18.827912202117524
31
0
0
LINE
5
153
100
AcDbEntity
8
0
100
AcDbLine
10
-2.2372096837655793
20
18.827912202117524
30
0
11
-1.1383098424569844
21
17.978095402953699
31
0
0
LINE
5
154
100
AcDbEntity
8
0
100
AcDbLine
10
-1.1383098424569844
20
17.978095402953699
30
0
11
-4.8379439176217822
21
17.978095402953702
31
-3.6977854932234928e-31
0
LINE
5
155
100
AcDbEntity
8
0
100
AcDbLine
10
-4.8379439176217822
20
17.978095402953702
30
-3.6977854932234928e-31
11
-3.8269537747995157
21
18.827912202117517
31
-1.2325951644078309e-31
0
LINE
5
156
100
AcDbEntity
8
0
100
AcDbLine
10
-3.8269537747995157
20
18.827912202117517
30
-1.2325951644078309e-31
11
-4.6401399434701691
21
20.967106213805753
31
0
0
SPLINE
5
157
100
AcDbEntity
8
0
100
AcDbSpline
70
0
71
3
72
9
73
5
74
0
42
0.000000001
43
0.0000000001
44
0.0000000001
40
0
40
0
40
0
40
0
40
0.10660690779880283
40
0.19841796701796846
40
0.19841796701796846
40
0.19841796701796846
40
0.19841796701796846
10
-4.6401399434701691
20
20.967106213805756
30
0
10
-4.8867677697847629
20
20.710014434817069
30
0
10
-5.3457942336210165
20
20.231512345437995
30
0
10
-5.7098031525144499
20
19.677615831705719
30
0
10
-5.8782357038156308
20
19.421319356200776
30
0
0
LINE
5
158
100
AcDbEntity
8
0
100
AcDbLine
10
-5.8782357038156308
20
19.421319356200776
30
0
11
-6.046735650409869
21
19.465275397536836
31
0
0
SPLINE
5
159
100
AcDbEntity
8
0
100
AcDbSpline
70
0
71
3
72
9
73
5
74
0
42
0.000000001
43
0.0000000001
44
0.0000000001
40
0
40
0
40
0
40
0
40
0.093148001151286158
40
0.20614134783336882
40
0.20614134783336882
40
0.20614134783336882
40
0.20614134783336882
10
-6.046735650409869
20
19.465275397536836
30
0
10
-5.8733151932655536
20
19.723456411462394
30
0
10
-5.4895267454646568
20
20.294824358576605
30
0
10
-5.0165911343916783
20
20.795327097976507
30
0
10
-4.7573584378854523
20
21.069670310256562
30
0
0
LINE
5
160
100
AcDbEntity
8
0
100
AcDbLine
10
-4.7573584378854532
20
21.069670310256562
30
0
11
-4.6987479985849152
21
21.142930379149995
31
0
0
LINE
5
161
100
AcDbEntity
8
0
100
AcDbLine
10
-4.6987479985849152
20
21.142930379149995
30
0
11
-4.8379439176217804
21
21.465274682281098
31
0
0
SPLINE
5
162
100
AcDbEntity
8
0
100
AcDbSpline
70
0
71
3
72
9
73
5
74
0
42
0.000000001
43
0.0000000001
44
0.0000000001
40
0
40
0
40
0
40
0
40
0.1117680160207465
40
0.22267193294682247
40
0.22267193294682247
40
0.22267193294682247
40
0.22267193294682247
10
-4.8379439176217804
20
21.465274682281098
30
0
10
-5.1156545635723569
20
21.214373990660299
30
0
10
-5.668928823377124
20
20.714512366825723
30
0
10
-6.0776168389587371
20
20.09089284963197
30
0
10
-6.2811678708688534
20
19.780293097732148
30
0
0
LINE
5
163
100
AcDbEntity
8
0
100
AcDbLine
10
-6.2811678708688534
20
19.780293097732148
30
0
11
-6.4130348027841366
21
19.99274789356955
31
3.8518598887744717e-33
0
SPLINE
5
164
100
AcDbEntity
8
0
100
AcDbSpline
70
0
71
3
72
9
73
5
74
0
42
0.000000001
43
0.0000000001
44
0.0000000001
40
0
40
0
40
0
40
0
40
0.078176227942472684
40
0.1693521960223654
40
0.1693521960223654
40
0.1693521960223654
40
0.1693521960223654
10
-6.4130348027841366
20
19.99274789356955
30
0
10
-6.5554780384150355
20
20.211050088888488
30
0
10
-6.8640510585967505
20
20.68395543552365
30
0
10
-7.2042420320754355
20
21.134693751590689
30
0
10
-7.3873943151132373
20
21.377362599608979
30
0
0
LINE
5
165
100
AcDbEntity
8
0
100
AcDbLine
10
-7.3873943151132373
20
21.377362599608986
30
0
11
-7.4606531919137744
21
21.465274682281098
31
9.6296497219361793e-34
0
SPLINE
5
166
100
AcDbEntity
8
0
100
AcDbSpline
70
0
71
3
72
9
73
5
74
0
42
0.000000001
43
0.0000000001
44
0.0000000001
40
0
40
0
40
0
40
0
40
0.12117858312629509
40
0.21238538889289321
40
0.21238538889289321
40
0.21238538889289321
40
0.21238538889289321
10
-7.4606531919137753
20
21.465274682281098
30
0
10
-7.6240939471782765
20
21.092630100467474
30
0
10
-7.9105507407159763
20
20.439509207439443
30
0
10
-7.9904460623522429
20
19.732334118395233
30
0
10
-8.0247563184396569
20
19.428644767043671
30
0
0
SPLINE
5
167
100
AcDbEntity
8
0
100
AcDbSpline
70
0
71
3
72
9
73
5
74
0
42
0.000000001
43
0.0000000001
44
0.0000000001
40
0
40
0
40
0
40
0
40
0.042764071556457534
40
0.080120688494035655
40
0.080120688494035655
40
0.080120688494035655
40
0.080120688494035655
10
-8.0247563184396569
20
19.428644767043671
30
0
10
-8.0201575459419168
20
19.284912902669621
30
0
10
-8.0115415090367375
20
19.015623859015857
30
0
10
-7.9131315408852378
20
18.765190411483172
30
0
10
-7.8672474683420015
20
18.64842473530539
30
0
0
SPLINE
5
168
100
AcDbEntity
8
0
100
AcDbSpline
70
0
71
3
72
9
73
5
74
0
42
0.000000001
43
0.0000000001
44
0.0000000001
40
0
40
0
40
0
40
0
40
0.050330868948392005
40
0.13093907845869893
40
0.13093907845869893
40
0.13093907845869893
40
0.13093907845869893
10
-7.8672474683420015
20
18.64842473530539
30
0
10
-7.7802167670341751
20
18.504808377192649
30
0
10
-7.5538006517362968
20
18.131180939880622
30
0
10
-7.278490334733549
20
17.791564432727775
30
0
10
-7.1090048612253014
20
17.582491030929166
30
0
0
SPLINE
5
169
100
AcDbEntity
8
0
100
AcDbSpline
70
0
71
3
72
9
73
5
74
0
42
0.000000001
43
0.0000000001
44
0.0000000001
40
0
40
0
40
0
40
0
40
0.010698094162687589
40
0.026087129028015858
40
0.026087129028015858
40
0.026087129028015858
40
0.026087129028015858
10
-7.1090048612253014
20
17.582491030929166
30
0
10
-7.0870462607757094
20
17.55439332250743
30
0
10
-7.0335005698805038
20
17.485877516435554
30
0
10
-6.9796190819348354
20
17.417625389157276
30
0
10
-6.9478339017526451
20
17.377362838027555
30
0
0
LINE
5
170
100
AcDbEntity
8
0
100
AcDbLine
10
-6.9478339017526451
20
17.377362838027555
30
0
11
-10.90387762199801
21
17.377362838027555
31
0
0
LINE
5
171
100
AcDbEntity
8
0
100
AcDbLine
10
-10.90387762199801
20
17.377362838027555
30
0
11
-11.050397759784873
21
17.57516562008627
31
0
0
LINE
5
172
100
AcDbEntity
8
0
100
AcDbLine
10
-11.050397759784873
20
17.57516562008627
30
0
11
-7.3214596570627037
21
17.57516562008627
31
0
0
LINE
5
173
100
AcDbEntity
8
0
100
AcDbLine
10
-7.3214596570627037
20
17.57516562008627
30
0
11
-7.4460023702279869
21
17.729011168716035
31
-1.9259299443872359e-33
0
SPLINE
5
174
100
AcDbEntity
8
0
100
AcDbSpline
70
0
71
3
72
9
73
5
74
0
42
0.000000001
43
0.0000000001
44
0.0000000001
40
0
40
0
40
0
40
0
40
0.065700292268132288
40
0.11124488815045522
40
0.11124488815045522
40
0.11124488815045522
40
0.11124488815045522
10
-7.4460023702279878
20
17.729011168716035
30
0
10
-7.58562987641234
20
17.898465077105129
30
0
10
-7.8220496208605574
20
18.1853874093296
30
0
10
-8.0048586891121136
20
18.508723003808562
30
0
10
-8.079702264179403
20
18.641099324462495
30
0
0
SPLINE
5
175
100
AcDbEntity
8
0
100
AcDbSpline
70
0
71
3
72
9
73
5
74
0
42
0.000000001
43
0.0000000001
44
0.0000000001
40
0
40
0
40
0
40
0
40
0.037186487831573634
40
0.078474749617371303
40
0.078474749617371303
40
0.078474749617371303
40
0.078474749617371303
10
-8.079702264179403
20
18.641099324462495
30
0
10
-8.1234726381141869
20
18.757973402614748
30
0
10
-8.2158413810497368
20
19.004613097691635
30
0
10
-8.2250431464409086
20
19.268059263733754
30
0
10
-8.2298845113412682
20
19.406667342422089
30
0
0
SPLINE
5
176
100
AcDbEntity
8
0
100
AcDbSpline
70
0
71
3
72
9
73
5
74
0
42
0.000000001
43
0.0000000001
44
0.0000000001
40
0
40
0
40
0
40
0
40
0.094273997622623729
40
0.23172997013957797
40
0.23172997013957797
40
0.23172997013957797
40
0.23172997013957797
10
-8.2298845113412682
20
19.406667342422089
30
0
10
-8.1901139549358764
20
19.719585999480728
30
0
10
-8.0923560356722106
20
20.488754941977291
30
0
10
-7.7970149232144115
20
21.207458096548141
30
0
10
-7.6218265355722226
20
21.633773436782441
30
0
0
LINE
5
177
100
AcDbEntity
8
0
100
AcDbLine
10
-7.6218265355722226
20
21.633773436782441
30
0
11
-7.9441708387033261
21
21.970769753692231
31
3.8518598887744717e-33
0
SPLINE
5
178
100
AcDbEntity
8
0
100
AcDbSpline
70
0
71
3
72
9
73
5
74
0
42
0.000000001
43
0.0000000001
44
0.0000000001
40
0
40
0
40
0
40
0
40
0.030889425750941973
40
0.07299522424921262
40
0.07299522424921262
40
0.07299522424921262
40
0.07299522424921262
10
-7.9441708387033261
20
21.970769753692231
30
0
10
-7.9808938908697469
20
21.874559840071846
30
0
10
-8.0676746374468031
20
21.647204878010019
30
0
10
-8.1426685671513042
20
21.41567713669421
30
0
10
-8.1859272779123096
20
21.282125106093964
30
0
0
LINE
5
179
100
AcDbEntity
8
0
100
AcDbLine
10
-8.1859272779123096
20
21.282125106093964
30
0
11
-8.4276884854928777
21
20.534872403380952
31
1.5407439555097887e-32
0
SPLINE
5
180
100
AcDbEntity
8
0
100
AcDbSpline
70
0
71
3
72
9
73
5
74
0
42
0.000000001
43
0.0000000001
44
0.0000000001
40
0
40
0
40
0
40
0
40
0.056912502283380517
40
0.10187396880153915
40
0.10187396880153915
40
0.10187396880153915
40
0.10187396880153915
10
-8.4276884854928795
20
20.534872403380952
30
0
10
-8.4851236201535212
20
20.353232889182532
30
0
10
-8.5879331063257496
20
20.028096276660388
30
0
10
-8.6139900148192652
20
19.688440507606732
30
0
10
-8.6254900754586998
20
19.538535466430268
30
0
0
SPLINE
5
181
100
AcDbEntity
8
0
100
AcDbSpline
70
0
71
3
72
9
73
5
74
0
42
0.000000001
43
0.0000000001
44
0.0000000001
40
0
40
0
40
0
40
0
40
0.037706607729918767
40
0.070025321006804184
40
0.070025321006804184
40
0.070025321006804184
40
0.070025321006804184
10
-8.6254900754586998
20
19.538535466430268
30
0
10
-8.6216978706544936
20
19.411713607471921
30
0
10
-8.6146553289164522
20
19.176191455814905
30
0
10
-8.526830323597089
20
18.957943828974656
30
0
10
-8.4862965406076274
20
18.857216229674897
30
0
0
SPLINE
5
182
100
AcDbEntity
8
0
100
AcDbSpline
70
0
71
3
72
9
73
5
74
0
42
0.000000001
43
0.0000000001
44
0.0000000001
40
0
40
0
40
0
40
0
40
0.038656758139392122
40
0.094583606712947466
40
0.094583606712947466
40
0.094583606712947466
40
0.094583606712947466
10
-8.4862965406076274
20
18.857216229674897
30
0
10
-8.4169552110049199
20
18.748293655180809
30
0
10
-8.2472939832204855
20
18.481786828328925
30
0
10
-8.0291836307000857
20
18.25273023350989
30
0
10
-7.9002159894601656
20
18.117290129897675
30
0
0
SPLINE
5
183
100
AcDbEntity
8
0
100
AcDbSpline
70
0
71
3
72
9
73
5
74
0
42
0.000000001
43
0.0000000001
44
0.0000000001
40
0
40
0
40
0
40
0
40
0.0079009805500672107
40
0.01917488096320067
40
0.01917488096320067
40
0.01917488096320067
40
0.01917488096320067
10
-7.9002159894601656
20
18.117290129897675
30
0
10
-7.8818294948517789
20
18.098432509171477
30
0
10
-7.8372073314111548
20
18.052666970276309
30
0
10
-7.7938428727526468
20
18.005706111351369
30
0
10
-7.7683466733590913
20
17.978095402953706
30
0
0
LINE
5
184
100
AcDbEntity
8
0
100
AcDbLine
10
-7.7683466733590905
20
17.978095402953706
30
0
11
-11.431350118030725
21
17.978095402953702
31
0
0
SPLINE
5
185
100
AcDbEntity
8
0
100
AcDbSpline
70
0
71
3
72
9
73
5
74
0
42
0.000000001
43
0.0000000001
44
0.0000000001
40
0
40
0
40
0
40
0
40
0.11335576357478101
40
0.22270176035884914
40
0.22270176035884914
40
0.22270176035884914
40
0.22270176035884914
10
-11.431350118030723
20
17.978095402953699
30
0
10
-11.102221312613384
20
18.171532686367559
30
0
10
-10.455606071890394
20
18.551564739231658
30
0
10
-9.9971231874128854
20
19.144729153999261
30
0
10
-9.7720092595712487
20
19.435971369979463
30
0
0
SPLINE
5
186
100
AcDbEntity
8
0
100
AcDbSpline
70
0
71
3
72
9
73
5
74
0
42
0.000000001
43
0.0000000001
44
0.0000000001
40
0
40
0
40
0
40
0
40
0.13144155120777842
40
0.30835314934526592
40
0.30835314934526592
40
0.30835314934526592
40
0.30835314934526592
10
-9.7720092595712487
20
19.435971369979463
30
0
10
-9.5576082449475201
20
19.819223663233959
30
0
10
-9.0546377042427721
20
20.718308089223495
30
0
10
-8.7400461681330164
20
21.700370752962016
30
0
10
-8.5595554174081609
20
22.263810029265962
30
0
0
LINE
5
187
100
AcDbEntity
8
0
100
AcDbLine
10
-8.5595554174081609
20
22.263810029265962
30
0
11
-8.5302513898507879
21
22.366374125716767
31
0
0
SPLINE
5
188
100
AcDbEntity
8
0
100
AcDbSpline
70
0
71
3
72
9
73
5
74
0
42
0.000000001
43
0.0000000001
44
0.0000000001
40
0
40
0
40
0
40
0
40
0.054363902691695741
40
0.12045890318558625
40
0.12045890318558625
40
0.12045890318558625
40
0.12045890318558625
10
-8.5302513898507879
20
22.366374125716767
30
0
10
-8.6840532141927493
20
22.46637359562628
30
0
10
-9.0248455074400287
20
22.687951257788473
30
0
10
-9.4292408229118774
20
22.740481890978185
30
0
10
-9.6511298478738574
20
22.769305100677094
30
0
0
SPLINE
5
189
100
AcDbEntity
8
0
100
AcDbSpline
70
0
71
3
72
9
73
5
74
0
42
0.000000001
43
0.0000000001
44
0.0000000001
40
0
40
0
40
0
40
0
40
0.070992771658527062
40
0.14020948074202882
40
0.14020948074202882
40
0.14020948074202882
40
0.14020948074202882
10
-9.6511298478738574
20
22.769305100677094
30
0
10
-9.5249293889474789
20
22.970274556223963
30
0
10
-9.2756856926936742
20
23.367185711387325
30
0
10
-9.1101428144567151
20
23.805614247336134
30
0
10
-9.0284198583261279
20
24.022051682708344
30
0
0
SPLINE
5
190
100
AcDbEntity
8
0
100
AcDbSpline
70
0
71
3
72
9
73
5
74
0
42
0.000000001
43
0.0000000001
44
0.0000000001
40
0
40
0
40
0
40
0
40
0.01127390041313346
40
0.017103067552486501
40
0.017103067552486501
40
0.017103067552486501
40
0.017103067552486501
10
-9.0284198583261279
20
24.022051682708344
30
0
10
-9.0008425825839034
20
23.996520949083248
30
0
10
-8.9590064839269257
20
23.95778955658789
30
0
10
-8.9178905256389296
20
23.91829599743151
30
0
10
-8.9038771451608447
20
23.904835572478852
30
0
0
LINE
5
191
100
AcDbEntity
8
0
100
AcDbLine
10
-8.9038771451608447
20
23.904835572478852
30
0
11
-8.5742062390939502
21
23.597143283126435
31
0
0
SPLINE
5
192
100
AcDbEntity
8
0
100
AcDbSpline
70
0
71
3
72
9
73
5
74
0
42
0.000000001
43
0.0000000001
44
0.0000000001
40
0
40
0
40
0
40
0
40
0.024655287481018199
40
0.052092313198181132
40
0.052092313198181132
40
0.052092313198181132
40
0.052092313198181132
10
-8.5742062390939502
20
23.597143283126435
30
0
10
-8.5134030301666606
20
23.541764907848361
30
0
10
-8.3849364768833805
20
23.42476007991387
30
0
10
-8.2449875616052797
20
23.321736236233296
30
0
10
-8.1712764562265185
20
23.267473569152436
30
0
0
LINE
5
193
100
AcDbEntity
8
0
100
AcDbLine
10
-8.1712764562265185
20
23.267473569152436
30
0
11
-8.0394095243112353
21
23.58981787228354
31
0
0
LINE
5
194
100
AcDbEntity
8
0
100
AcDbLine
10
-8.0394095243112353
20
23.58981787228354
30
0
11
-8.1273192227975635
21
23.663076749084077
31
0
0
SPLINE
5
195
100
AcDbEntity
8
0
100
AcDbSpline
70
0
71
3
72
9
73
5
74
0
42
0.000000001
43
0.0000000001
44
0.0000000001
40
0
40
0
40
0
40
0
40
0.044538761927469479
40
0.080582240359484553
40
0.080582240359484553
40
0.080582240359484553
40
0.080582240359484553
10
-8.1273192227975635
20
23.663076749084077
30
0
10
-8.2390062440233738
20
23.760912156179032
30
0
10
-8.4410772042379847
20
23.937921932585319
30
0
10
-8.6494869729791368
20
24.107412650476171
30
0
10
-8.7427061856881885
20
24.183223834273896
30
0
0
LINE
5
196
100
AcDbEntity
8
0
100
AcDbLine
10
-8.7427061856881885
20
24.183223834273896
30
0
11
-8.8086384595529346
21
24.234506478545747
31
9.6296497219361793e-34
0
LINE
5
197
100
AcDbEntity
8
0
100
AcDbLine
10
-8.8086384595529346
20
24.234506478545747
30
9.6296497219361793e-34
11
-8.6914223493234424
21
24.395677438018403
31
0
0
SPLINE
5
198
100
AcDbEntity
8
0
100
AcDbSpline
70
0
71
3
72
9
73
5
74
0
42
0.000000001
43
0.0000000001
44
0.0000000001
40
0
40
0
40
0
40
0
40
0.047075251321034559
40
0.095507570894705185
40
0.095507570894705185
40
0.095507570894705185
40
0.095507570894705185
10
-8.6914223493234424
20
24.395677438018403
30
0
10
-8.5623913279381938
20
24.306072886635018
30
0
10
-8.3006096257327826
20
24.124280696395267
30
0
10
-8.0641039384555029
20
23.910619852671559
30
0
10
-7.9441708387033252
20
23.802271476028046
30
0
0
LINE
5
199
100
AcDbEntity
8
0
100
AcDbLine
10
-7.9441708387033261
20
23.802271476028046
30
0
11
-6.947833901752638
21
26.542198052642426
31
0
0
SPLINE
5
200
100
AcDbEntity
8
0
100
AcDbSpline
70
0
71
3
72
9
73
5
74
0
42
0.000000001
43
0.0000000001
44
0.0000000001
40
0
40
0
40
0
40
0
40
0.03910071856471993
40
0.077724966372223522
40
0.077724966372223522
40
0.077724966372223522
40
0.077724966372223522
10
1.3232308565481512
20
26.1319416668392
30
0
10
1.2103542444317079
20
26.19742622662562
30
0
10
0.98597650399609038
20
26.32759736910409
30
0
10
0.74634303183228301
20
26.426911388892584
30
0
10
0.62726079810698898
20
26.476263990638333
30
0
0
LINE
5
201
100
AcDbEntity
8
0
100
AcDbLine
10
0.62726079810698898
20
26.476263990638337
30
0
11
0.56865274299224289
21
26.498242607352811
31
4.8148248609680896e-34
0
SPLINE
5
202
100
AcDbEntity
8
0
100
AcDbSpline
70
0
71
3
72
9
73
5
74
0
42
0.000000001
43
0.0000000001
44
0.0000000001
40
0
40
0
40
0
40
0
40
0.19530846043075015
40
0.39033587064826714
40
0.39033587064826714
40
0.39033587064826714
40
0.39033587064826714
10
0.56865274299224278
20
26.498242607352811
30
0
10
1.158155459192769
20
26.790977316095301
30
0
10
2.3363125931446684
20
27.376025486327961
30
0
10
3.6490293021025568
20
27.459964880898458
30
0
10
4.3049150644644154
20
27.501904359099946
30
0
0
SPLINE
5
203
100
AcDbEntity
8
0
100
AcDbSpline
70
0
71
3
72
9
73
5
74
0
42
0.000000001
43
0.0000000001
44
0.0000000001
40
0
40
0
40
0
40
0
40
0.14266518928950242
40
0.26771477254750553
40
0.26771477254750553
40
0.26771477254750553
40
0.26771477254750553
10
4.3049150644644154
20
27.501904359099946
30
0
10
4.787064434781918
20
27.481993632514762
30
0
10
5.691829708296142
20
27.444630659349713
30
0
10
6.4917236672118115
20
27.024265096260191
30
0
10
6.8653541742666651
20
26.827912321326814
30
0
0
SPLINE
5
204
100
AcDbEntity
8
0
100
AcDbSpline
70
0
71
3
72
9
73
5
74
0
42
0.000000001
43
0.0000000001
44
0.0000000001
40
0
40
0
40
0
40
0
40
0.1075577854650539
40
0.20571502839083614
40
0.20571502839083614
40
0.20571502839083614
40
0.20571502839083614
10
6.8653541742666651
20
26.827912321326814
30
0
10
7.1589744975617471
20
26.596600718395539
30
0
10
7.7205527494903219
20
26.154194129617313
30
0
10
7.8235411389276184
20
25.449752645416343
30
0
10
7.8726822077139307
20
25.113627305266938
30
0
0
SPLINE
5
205
100
AcDbEntity
8
0
100
AcDbSpline
70
0
71
3
72
9
73
5
74
0
42
0.000000001
43
0.0000000001
44
0.0000000001
40
0
40
0
40
0
40
0
40
0.081806079012780308
40
0.16785565919232531
40
0.16785565919232531
40
0.16785565919232531
40
0.16785565919232531
10
7.8726822077139307
20
25.113627305266938
30
0
10
7.8425342839330252
20
24.835827941388132
30
0
10
7.7806745825441723
20
24.265819014058888
30
0
10
7.4056123972549814
20
23.831024961261548
30
0
10
7.213340395580139
20
23.608131995437226
30
0
0
SPLINE
5
206
100
AcDbEntity
8
0
100
AcDbSpline
70
0
71
3
72
9
73
5
74
0
42
0.000000001
43
0.0000000001
44
0.0000000001
40
0
40
0
40
0
40
0
40
0.096332205266272827
40
0.20549542177896069
40
0.20549542177896069
40
0.20549542177896069
40
0.20549542177896069
10
7.213340395580139
20
23.608131995437226
30
0
10
6.9627702936971092
20
23.40210227183951
30
0
10
6.4282552929315564
20
22.9626006032886
30
0
10
5.7640061330116001
20
22.764597533055341
30
0
10
5.4111438928945885
20
22.659414401290498
30
0
0
SPLINE
5
207
100
AcDbEntity
8
0
100
AcDbSpline
70
0
71
3
72
9
73
5
74
0
42
0.000000001
43
0.0000000001
44
0.0000000001
40
0
40
0
40
0
40
0
40
0.14974127036503387
40
0.30440299006190252
40
0.30440299006190252
40
0.30440299006190252
40
0.30440299006190252
10
5.4111438928945885
20
22.659414401290498
30
0
10
5.5970229909818574
20
22.195048623317909
30
0
10
5.9748891137270448
20
21.251058159281598
30
0
10
6.5119152905293243
20
20.387533367906055
30
0
10
6.7847686945303307
20
19.948791852233491
30
0
0
SPLINE
5
208
100
AcDbEntity
8
0
100
AcDbSpline
70
0
71
3
72
9
73
5
74
0
42
0.000000001
43
0.0000000001
44
0.0000000001
40
0
40
0
40
0
40
0
40
0.14533007997437031
40
0.26752355425506996
40
0.26752355425506996
40
0.26752355425506996
40
0.26752355425506996
10
6.7847686945303307
20
19.948791852233491
30
0
10
7.0593557418039596
20
19.547349469467942
30
0
10
7.5648154708015634
20
18.808374488617432
30
0
10
8.2237304610642745
20
18.203222054655878
30
0
10
8.5246950327261324
20
17.926813950774751
30
0
0
LINE
5
209
100
AcDbEntity
8
0
100
AcDbLine
10
8.5246950327261306
20
17.926813950774751
30
0
11
8.4148055254324312
21
17.890183320281587
31
0
0
SPLINE
5
210
100
AcDbEntity
8
0
100
AcDbSpline
70
0
71
3
72
9
73
5
74
0
42
0.000000001
43
0.0000000001
44
0.0000000001
40
0
40
0
40
0
40
0
40
0.1170752999245419
40
0.23897457631838742
40
0.23897457631838742
40
0.23897457631838742
40
0.23897457631838742
10
8.4148055254324312
20
17.890183320281587
30
0
10
8.0493946206426354
20
17.750609106994208
30
0
10
7.3035164020043464
20
17.465709657607171
30
0
10
6.6228266448457775
20
17.0482047104082
30
0
10
6.2756115137441952
20
16.835238328216153
30
0
0
LINE
5
211
100
AcDbEntity
8
0
100
AcDbLine
10
6.2756115137441952
20
16.835238328216153
30
0
11
6.1657220064504941
21
16.761978259322721
31
0
0
LINE
5
212
100
AcDbEntity
8
0
100
AcDbLine
10
6.1657220064504941
20
16.761978259322721
30
0
11
6.12909137595733
21
16.996410479781705
31
0
0
SPLINE
5
213
100
AcDbEntity
8
0
100
AcDbSpline
70
0
71
3
72
9
73
5
74
0
42
0.000000001
43
0.0000000001
44
0.0000000001
40
0
40
0
40
0
40
0
40
0.26787243566902541
40
0.49902773707985648
40
0.49902773707985648
40
0.49902773707985648
40
0.49902773707985648
10
6.12909137595733
20
16.996410479781705
30
0
10
5.9690253367569381
20
17.877020148869669
30
0
10
5.6708334263947879
20
19.517534781583045
30
0
10
5.0878030256954485
20
21.07898893661433
30
0
10
4.8177367388113366
20
21.802272191283784
30
0
0
LINE
5
214
100
AcDbEntity
8
0
100
AcDbLine
10
4.8177367388113366
20
21.802272191283791
30
0
11
4.7884327112539635
21
21.875531068084321
31
0
0
SPLINE
5
215
100
AcDbEntity
8
0
100
AcDbSpline
70
0
71
3
72
9
73
5
74
0
42
0.000000001
43
0.0000000001
44
0.0000000001
40
0
40
0
40
0
40
0
40
0.062795233859550506
40
0.14088891948313093
40
0.14088891948313093
40
0.14088891948313093
40
0.14088891948313093
10
4.7884327112539626
20
21.875531068084321
30
0
10
4.5929154106299741
20
21.799414106042342
30
0
10
4.154248022484194
20
21.628636232033337
30
0
10
3.6902895751685296
20
21.54710015627602
30
0
10
3.4331208406790106
20
21.501905312774259
30
0
0
LINE
5
216
100
AcDbEntity
8
0
100
AcDbLine
10
3.4331208406790106
20
21.501905312774259
30
0
11
3.3745127855642645
21
21.494578709838468
31
0
0
LINE
5
217
100
AcDbEntity
8
0
100
AcDbLine
10
3.3745127855642645
20
21.494578709838468
30
0
11
3.3745127855642618
21
18.754652133224088
31
0
0
LINE
5
218
100
AcDbEntity
8
0
100
AcDbLine
10
3.3745127855642618
20
18.754652133224088
30
0
11
4.6638899980886759
21
17.377362838027551
31
1.5407439555097887e-32
0
LINE
5
219
100
AcDbEntity
8
0
100
AcDbLine
10
4.6638899980886759
20
17.377362838027551
30
1.5407439555097887e-32
11
0.87634384025175815
21
17.377362838027555
31
0
0
LINE
5
220
100
AcDbEntity
8
0
100
AcDbLine
10
0.87634384025175815
20
17.377362838027555
30
0
11
0.75912773002226552
21
17.57516562008627
31
-3.8518598887744717e-33
0
LINE
5
221
100
AcDbEntity
8
0
100
AcDbLine
10
0.75912773002226552
20
17.57516562008627
30
-3.8518598887744717e-33
11
4.2463070093496613
21
17.57516562008627
31
0
0
LINE
5
222
100
AcDbEntity
8
0
100
AcDbLine
10
4.2463070093496613
20
17.57516562008627
30
0
11
3.1840354143484411
21
18.703369488952237
31
0
0
LINE
5
223
100
AcDbEntity
8
0
100
AcDbLine
10
3.1840354143484411
20
18.703369488952237
30
0
11
3.1840354143484433
21
21.655752053496915
31
0
0
LINE
5
224
100
AcDbEntity
8
0
100
AcDbLine
10
3.1840354143484433
20
21.655752053496915
30
0
11
3.3378821550710995
21
21.677729478118497
31
0
0
SPLINE
5
225
100
AcDbEntity
8
0
100
AcDbSpline
70
0
71
3
72
9
73
5
74
0
42
0.000000001
43
0.0000000001
44
0.0000000001
40
0
40
0
40
0
40
0
40
0.077773613489686602
40
0.14415018642464938
40
0.14415018642464938
40
0.14415018642464938
40
0.14415018642464938
10
3.3378821550711004
20
21.677729478118497
30
0
10
3.5961137871429196
20
21.70979808891677
30
0
10
4.0747354717176067
20
21.769235937018848
30
0
10
4.5282978399782037
20
21.932309978357885
30
0
10
4.7371488748892165
20
22.007400384185395
30
0
0
SPLINE
5
226
100
AcDbEntity
8
0
100
AcDbSpline
70
0
71
3
72
9
73
5
74
0
42
0.000000001
43
0.0000000001
44
0.0000000001
40
0
40
0
40
0
40
0
40
0.0079452994383105765
40
0.012129832952474636
40
0.012129832952474636
40
0.012129832952474636
40
0.012129832952474636
10
4.7371488748892165
20
22.007400384185395
30
0
10
4.7251679301793459
20
22.031034927515979
30
0
10
4.7068770074681288
20
22.067117024198911
30
0
10
4.6912562505092259
20
22.104420863125164
30
0
10
4.6858674227102615
20
22.117289891479096
30
0
0
LINE
5
227
100
AcDbEntity
8
0
100
AcDbLine
10
4.6858674227102624
20
22.117289891479096
30
0
11
4.6126085459097252
21
22.329744687316499
31
0
0
SPLINE
5
228
100
AcDbEntity
8
0
100
AcDbSpline
70
0
71
3
72
9
73
5
74
0
42
0.000000001
43
0.0000000001
44
0.0000000001
40
0
40
0
40
0
40
0
40
0.0035371070242988713
40
0.0095254408272916532
40
0.0095254408272916532
40
0.0095254408272916532
40
0.0095254408272916532
10
4.6126085459097252
20
22.329744687316499
30
0
10
4.6084123113067985
20
22.340765050657488
30
0
10
4.5971118377466089
20
22.370442925310062
30
0
10
4.5841356323162117
20
22.399432174827499
30
0
10
4.5759779154165612
20
22.417656769988618
30
0
0
SPLINE
5
229
100
AcDbEntity
8
0
100
AcDbSpline
70
0
71
3
72
9
73
5
74
0
42
0.000000001
43
0.0000000001
44
0.0000000001
40
0
40
0
40
0
40
0
40
0.066991157964828435
40
0.17388653295207368
40
0.17388653295207368
40
0.17388653295207368
40
0.17388653295207368
10
4.5759779154165612
20
22.417656769988618
30
0
10
4.3579165320720845
20
22.369018470386703
30
0
10
3.7919024628659406
20
22.242769790062319
30
0
10
3.2158282135030074
20
22.174134753052606
30
0
10
2.8616911112173398
20
22.131941905257779
30
0
0
LINE
5
230
100
AcDbEntity
8
0
100
AcDbLine
10
2.8616911112173398
20
22.131941905257779
30
0
11
2.7811056314810116
21
22.117289891479093
31
0
0
LINE
5
231
100
AcDbEntity
8
0
100
AcDbLine
10
2.7811056314810116
20
22.117289891479093
30
0
11
2.781105631481009
21
18.849890818831998
31
6.1629758220391547e-32
0
LINE
5
232
100
AcDbEntity
8
0
100
AcDbLine
10
2.781105631481009
20
18.849890818831998
30
6.1629758220391547e-32
11
3.6162716089590363
21
17.978095402953699
31
0
0
LINE
5
233
100
AcDbEntity
8
0
100
AcDbLine
10
3.6162716089590363
20
17.978095402953699
30
0
11
0.37817537177641636
21
17.978095402953699
31
0
0
LINE
5
234
100
AcDbEntity
8
0
100
AcDbLine
10
0.37817537177641636
20
17.978095402953699
30
0
11
1.3305574594839367
21
18.849890818831994
31
0
0
LINE
5
235
100
AcDbEntity
8
0
100
AcDbLine
10
1.3305574594839367
20
18.849890818831994
30
0
11
1.3305574594839387
21
21.311429133651334
31
0
0
LINE
5
236
100
AcDbEntity
8
0
100
AcDbLine
10
1.3305574594839387
20
21.311429133651334
30
0
11
1.2719494043691923
21
21.304102530715543
31
0
0
SPLINE
5
237
100
AcDbEntity
8
0
100
AcDbSpline
70
0
71
3
72
9
73
5
74
0
42
0.000000001
43
0.0000000001
44
0.0000000001
40
0
40
0
40
0
40
0
40
0.041710699005913565
40
0.079831622721087098
40
0.079831622721087098
40
0.079831622721087098
40
0.079831622721087098
10
1.2719494043691926
20
21.304102530715543
30
0
10
1.1365093534822581
20
21.272398396754262
30
0
10
0.8772857177863489
20
21.211718702541109
30
0
10
0.62377409084624447
20
21.130454115102168
30
0
10
0.50271808494170145
20
21.091648926971036
30
0
0
LINE
5
238
100
AcDbEntity
8
0
100
AcDbLine
10
0.50271808494170145
20
21.091648926971033
30
0
11
0.44411002982695519
21
21.069670310256559
31
0
0
LINE
5
239
100
AcDbEntity
8
0
100
AcDbLine
10
0.44411002982695519
20
21.069670310256559
30
0
11
0.37817537177641813
21
21.216190448043424
31
1.9259299443872359e-33
0
SPLINE
5
240
100
AcDbEntity
8
0
100
AcDbSpline
70
0
71
3
72
9
73
5
74
0
42
0.000000001
43
0.0000000001
44
0.0000000001
40
0
40
0
40
0
40
0
40
0.030590940929090118
40
0.053309099221020062
40
0.053309099221020062
40
0.053309099221020062
40
0.053309099221020062
10
0.37817537177641825
20
21.216190448043424
30
0
10
0.47345604382194406
20
21.252718383097982
30
0
10
0.63949627160357858
20
21.316373545542177
30
0
10
0.81070730256787882
20
21.364275393598184
30
0
10
0.88367044318755184
20
21.384689202544767
30
0
0
LINE
5
241
100
AcDbEntity
8
0
100
AcDbLine
10
0.88367044318755184
20
21.384689202544767
30
0
11
1.2719494043691926
21
21.479927888152677
31
0
0
LINE
5
242
100
AcDbEntity
8
0
100
AcDbLine
10
1.2719494043691926
20
21.479927888152677
30
0
11
1.3305574594839389
21
21.494578709838468
31
0
0
LINE
5
243
100
AcDbEntity
8
0
100
AcDbLine
10
1.3305574594839389
20
21.494578709838468
30
0
11
1.3305574594839389
21
21.875531068084317
31
0
0
SPLINE
5
244
100
AcDbEntity
8
0
100
AcDbSpline
70
0
71
3
72
9
73
5
74
0
42
0.000000001
43
0.0000000001
44
0.0000000001
40
0
40
0
40
0
40
0
40
0.048767916075483475
40
0.10962594894408179
40
0.10962594894408179
40
0.10962594894408179
40
0.10962594894408179
10
1.3305574594839391
20
21.875531068084317
30
0
10
1.1679370635254798
20
21.86461488566917
30
0
10
0.80238084010565658
20
21.840076276017371
30
0
10
0.44952047464461081
20
21.740393972743881
30
0
10
0.25363265861113526
20
21.685056081054288
30
0
0
LINE
5
245
100
AcDbEntity
8
0
100
AcDbLine
10
0.25363265861113538
20
21.685056081054292
30
0
11
0.17304717887480697
21
21.655752053496915
31
0
0
SPLINE
5
246
100
AcDbEntity
8
0
100
AcDbSpline
70
0
71
3
72
9
73
5
74
0
42
0.000000001
43
0.0000000001
44
0.0000000001
40
0
40
0
40
0
40
0
40
0.017590928392937497
40
0.04985084845190188
40
0.04985084845190188
40
0.04985084845190188
40
0.04985084845190188
10
0.173047178874807
20
21.655752053496915
30
0
10
0.18699566918197891
20
21.712736825792078
30
0
10
0.22652422963674587
20
21.87422570143849
30
0
10
0.28301227517443422
20
22.030689605664335
30
0
10
0.31956731666167276
20
22.131941905257779
30
0
0
SPLINE
5
247
100
AcDbEntity
8
0
100
AcDbSpline
70
0
71
3
72
9
73
5
74
0
42
0.000000001
43
0.0000000001
44
0.0000000001
40
0
40
0
40
0
40
0
40
0.010251488021386137
40
0.034530447978578883
40
0.034530447978578883
40
0.034530447978578883
40
0.034530447978578883
10
0.31956731666167276
20
22.131941905257779
30
0
10
0.33073310770861819
20
22.164241944196348
30
0
10
0.36834323475377395
20
22.273039302389392
30
0
10
0.39992612469219585
20
22.383761154648774
30
0
10
0.42213260520537432
20
22.461611619231778
30
0
0
LINE
5
248
100
AcDbEntity
8
0
100
AcDbLine
10
0.42213260520537432
20
22.461611619231782
30
0
11
0.44411002982695647
21
22.527546277282315
31
0
0
SPLINE
5
249
100
AcDbEntity
8
0
100
AcDbSpline
70
0
71
3
72
9
73
5
74
0
42
0.000000001
43
0.0000000001
44
0.0000000001
40
0
40
0
40
0
40
0
40
0.029350348320656926
40
0.051335116502871619
40
0.051335116502871619
40
0.051335116502871619
40
0.051335116502871619
10
0.44411002982695635
20
22.527546277282315
30
0
10
0.54175471812869103
20
22.521180214390988
30
0
10
0.71253979349109875
20
22.510045675999109
30
0
10
0.8836497845759137
20
22.506911215973354
30
0
10
0.95692931998808994
20
22.505568852660733
30
0
0
SPLINE
5
250
100
AcDbEntity
8
0
100
AcDbSpline
70
0
71
3
72
9
73
5
74
0
42
0.000000001
43
0.0000000001
44
0.0000000001
40
0
40
0
40
0
40
0
40
0.019055659761564737
40
0.036715169569330929
40
0.036715169569330929
40
0.036715169569330929
40
0.036715169569330929
10
0.95692931998808994
20
22.505568852660733
30
0
10
1.0204868834497969
20
22.506337032221442
30
0
10
1.1429453419397506
20
22.507817109174113
30
0
10
1.2646787170247953
20
22.521138746392992
30
0
10
1.3232308565481488
20
22.527546277282315
30
0
0
LINE
5
251
100
AcDbEntity
8
0
100
AcDbLine
10
1.3232308565481485
20
22.527546277282319
30
0
11
1.3232308565481512
21
26.1319416668392
31
0
0
SPLINE
5
252
100
AcDbEntity
8
0
100
AcDbSpline
70
0
71
3
72
9
73
5
74
0
42
0.000000001
43
0.0000000001
44
0.0000000001
40
0
40
0
40
0
40
0
40
0.094554637694311716
40
0.19121297144117222
40
0.19121297144117222
40
0.19121297144117222
40
0.19121297144117222
10
7.7261596857412753
20
26.564176073310456
30
0
10
7.9419644303141705
20
26.322379784621045
30
0
10
8.3783752449194964
20
25.833407609684244
30
0
10
8.4366360744499573
20
25.180125677573709
30
0
10
8.4660869776113916
20
24.849891057250581
30
0
0
SPLINE
5
253
100
AcDbEntity
8
0
100
AcDbSpline
70
0
71
3
72
9
73
5
74
0
42
0.000000001
43
0.0000000001
44
0.0000000001
40
0
40
0
40
0
40
0
40
0.15758693641720026
40
0.35117331850441685
40
0.35117331850441685
40
0.35117331850441685
40
0.35117331850441685
10
8.4660869776113916
20
24.849891057250581
30
0
10
8.3450895708191606
20
24.310633883447256
30
0
10
8.0754538900977355
20
23.108930648665943
30
0
10
6.9435404076096088
20
22.583023501831864
30
0
10
6.3195663629873629
20
22.293114056823335
30
0
0
SPLINE
5
254
100
AcDbEntity
8
0
100
AcDbSpline
70
0
71
3
72
9
73
5
74
0
42
0.000000001
43
0.0000000001
44
0.0000000001
40
0
40
0
40
0
40
0
40
0.16237757020849761
40
0.33900674500969119
40
0.33900674500969119
40
0.33900674500969119
40
0.33900674500969119
10
6.3195663629873629
20
22.293114056823335
30
0
10
6.5106728829631351
20
21.783521869816301
30
0
10
6.9096590188187754
20
20.719611451783798
30
0
10
7.595783402756993
20
19.813062499812325
30
0
10
7.9532676874502535
20
19.340732684371552
30
0
0
SPLINE
5
255
100
AcDbEntity
8
0
100
AcDbSpline
70
0
71
3
72
9
73
5
74
0
42
0.000000001
43
0.0000000001
44
0.0000000001
40
0
40
0
40
0
40
0
40
0.11915998462368746
40
0.24688934928293341
40
0.24688934928293341
40
0.24688934928293341
40
0.24688934928293341
10
7.9532676874502535
20
19.340732684371552
30
0
10
8.219733032453
20
19.044140839860408
30
0
10
8.7718265548039813
20
18.429627773874117
30
0
10
9.4538829476021675
20
17.963064473228368
30
0
10
9.8067480265005482
20
17.721685757873132
30
0
0
SPLINE
5
256
100
AcDbEntity
8
0
100
AcDbSpline
70
0
71
3
72
9
73
5
74
0
42
0.000000001
43
0.0000000001
44
0.0000000001
40
0
40
0
40
0
40
0
40
0.17214258834404178
40
0.34417903472774913
40
0.34417903472774913
40
0.34417903472774913
40
0.34417903472774913
10
9.8067480265005482
20
17.721685757873132
30
0
10
9.2561517461105165
20
17.553234494418231
30
0
10
8.1552986792878279
20
17.216435833422707
30
0
10
7.1560394199994439
20
16.644784703226382
30
0
10
6.6565638719900457
20
16.359047284362394
30
0
0
LINE
5
257
100
AcDbEntity
8
0
100
AcDbLine
10
6.6565638719900457
20
16.35904728436239
30
0
11
6.5906292139395086
21
16.315091243026334
31
0
0
LINE
5
258
100
AcDbEntity
8
0
100
AcDbLine
10
6.5906292139395086
20
16.315091243026334
30
0
11
6.4441090761526434
21
16.432307353255826
31
-1.9259299443872359e-33
0
SPLINE
5
259
100
AcDbEntity
8
0
100
AcDbSpline
70
0
71
3
72
9
73
5
74
0
42
0.000000001
43
0.0000000001
44
0.0000000001
40
0
40
0
40
0
40
0
40
0.16492439312306442
40
0.32823896238890998
40
0.32823896238890998
40
0.32823896238890998
40
0.32823896238890998
10
6.4441090761526425
20
16.432307353255826
30
0
10
6.9168570409568355
20
16.717053403133416
30
0
10
7.8577384866930631
20
17.283766102124027
30
0
10
8.904820129921081
20
17.615326614084221
30
0
10
9.4257932840689058
20
17.780293812987878
30
0
0
SPLINE
5
260
100
AcDbEntity
8
0
100
AcDbSpline
70
0
71
3
72
9
73
5
74
0
42
0.000000001
43
0.0000000001
44
0.0000000001
40
0
40
0
40
0
40
0
40
0.26254090989581602
40
0.56564475720512308
40
0.56564475720512308
40
0.56564475720512308
40
0.56564475720512308
10
9.4257932840689058
20
17.780293812987878
30
0
10
8.747888677101507
20
18.352045147634687
30
0
10
7.2873422541898512
20
19.583884197009244
30
0
10
6.5188921544194418
20
21.338331713322557
30
0
10
6.1071139513357515
20
22.278462043044648
30
0
0
LINE
5
261
100
AcDbEntity
8
0
100
AcDbLine
10
6.1071139513357506
20
22.278462043044648
30
0
11
6.0631567179067964
21
22.403003564117036
31
0
0
SPLINE
5
262
100
AcDbEntity
8
0
100
AcDbSpline
70
0
71
3
72
9
73
5
74
0
42
0.000000001
43
0.0000000001
44
0.0000000001
40
0
40
0
40
0
40
0
40
0.19946726188209682
40
0.36148399000542641
40
0.36148399000542641
40
0.36148399000542641
40
0.36148399000542641
10
6.0631567179067964
20
22.403003564117036
30
0
10
6.714765647424378
20
22.68734239185433
30
0
10
7.8956421157864396
20
23.202634640788386
30
0
10
8.178251017940827
20
24.441260460301887
30
0
10
8.3049160181387354
20
24.996411195037446
30
0
0
SPLINE
5
263
100
AcDbEntity
8
0
100
AcDbSpline
70
0
71
3
72
9
73
5
74
0
42
0.000000001
43
0.0000000001
44
0.0000000001
40
0
40
0
40
0
40
0
40
0.076472739311555363
40
0.16897454510688295
40
0.16897454510688295
40
0.16897454510688295
40
0.16897454510688295
10
8.3049160181387354
20
24.996411195037446
30
0
10
8.2728401413597723
20
25.252419387701583
30
0
10
8.2019651245050991
20
25.818096363425159
30
0
10
7.8944841332143518
20
26.30023740278245
30
0
10
7.7261596857412753
20
26.564176073310456
30
0
0
LINE
5
264
100
AcDbEntity
8
0
100
AcDbLine
10
17.213338011394356
20
26.139267673728543
30
0
11
18.304913633952953
21
27.033040514228421
31
0
0
LINE
5
265
100
AcDbEntity
8
0
100
AcDbLine
10
18.304913633952953
20
27.033040514228421
30
0
11
18.414805525432442
21
26.879194369552216
31
-1.9259299443872359e-33
0
LINE
5
266
100
AcDbEntity
8
0
100
AcDbLine
10
18.414805525432442
20
26.879194369552216
30
-1.9259299443872359e-33
11
17.41847335685334
21
26.051355591056428
31
0
0
LINE
5
267
100
AcDbEntity
8
0
100
AcDbLine
10
17.41847335685334
20
26.051355591056428
30
0
11
17.41847335685334
21
21.501905312774259
31
0
0
SPLINE
5
268
100
AcDbEntity
8
0
100
AcDbSpline
70
0
71
3
72
9
73
5
74
0
42
0.000000001
43
0.0000000001
44
0.0000000001
40
0
40
0
40
0
40
0
40
0.18482455822908089
40
0.29498788338888887
40
0.29498788338888887
40
0.29498788338888887
40
0.29498788338888887
10
17.41847335685334
20
21.501905312774259
30
0
10
17.426196399726205
20
20.881126517943915
30
0
10
17.438522705776744
20
19.890337066074977
30
0
10
17.16789211291232
20
18.940770519778589
30
0
10
17.06682502616486
20
18.586154570815637
30
0
0
SPLINE
5
269
100
AcDbEntity
8
0
100
AcDbSpline
70
0
71
3
72
9
73
5
74
0
42
0.000000001
43
0.0000000001
44
0.0000000001
40
0
40
0
40
0
40
0
40
0.14803922424519581
40
0.32594502831000427
40
0.32594502831000427
40
0.32594502831000427
40
0.32594502831000427
10
17.06682502616486
20
18.586154570815637
30
0
10
16.743014266086341
20
18.185327762628638
30
0
10
16.030064654934183
20
17.302808241143374
30
0
10
14.885618754439697
20
17.242035033784045
30
0
10
14.260962599407041
20
17.208864083526212
30
0
0
SPLINE
5
270
100
AcDbEntity
8
0
100
AcDbSpline
70
0
71
3
72
9
73
5
74
0
42
0.000000001
43
0.0000000001
44
0.0000000001
40
0
40
0
40
0
40
0
40
0.15947514636191357
40
0.29130326396588307
40
0.29130326396588307
40
0.29130326396588307
40
0.29130326396588307
10
14.260962599407041
20
17.208864083526212
30
0
10
13.71559248327862
20
17.229914181916204
30
0
10
12.719399041717976
20
17.268365078546147
30
0
10
11.914560518530621
20
17.847760475934454
30
0
10
11.550334089885556
20
18.109963526961884
30
0
0
LINE
5
271
100
AcDbEntity
8
0
100
AcDbLine
10
11.550334089885556
20
18.109963526961884
30
0
11
11.608946913371884
21
18.080659499404511
31
4.8148248609680896e-34
0
LINE
5
272
100
AcDbEntity
8
0
100
AcDbLine
10
11.608946913371884
20
18.080659499404511
30
4.8148248609680896e-34
11
11.865351790080869
21
17.934139361617646
31
0
0
SPLINE
5
273
100
AcDbEntity
8
0
100
AcDbSpline
70
0
71
3
72
9
73
5
74
0
42
0.000000001
43
0.0000000001
44
0.0000000001
40
0
40
0
40
0
40
0
40
0.11027114514573828
40
0.23951713265002966
40
0.23951713265002966
40
0.23951713265002966
40
0.23951713265002966
10
11.865351790080869
20
17.934139361617646
30
0
10
12.203262609105787
20
17.780548834850133
30
0
10
12.937230052332227
20
17.446938781876248
30
0
10
13.744669469809542
20
17.420781573117456
30
0
10
14.18037235129913
20
17.406666865584928
30
0
0
SPLINE
5
274
100
AcDbEntity
8
0
100
AcDbSpline
70
0
71
3
72
9
73
5
74
0
42
0.000000001
43
0.0000000001
44
0.0000000001
40
0
40
0
40
0
40
0
40
0.17112535609440499
40
0.30947341713710397
40
0.30947341713710397
40
0.30947341713710397
40
0.30947341713710397
10
14.18037235129913
20
17.406666865584928
30
0
10
14.78176746365251
20
17.433280258459298
30
0
10
15.869366664129135
20
17.481409523592284
30
0
10
16.555125632394841
20
18.31067456665496
30
0
10
16.861689680705872
20
18.681392064330652
30
0
0
SPLINE
5
275
100
AcDbEntity
8
0
100
AcDbSpline
70
0
71
3
72
9
73
5
74
0
42
0.000000001
43
0.0000000001
44
0.0000000001
40
0
40
0
40
0
40
0
40
0.10696537537808244
40
0.28044834539393454
40
0.28044834539393454
40
0.28044834539393454
40
0.28044834539393454
10
16.861689680705872
20
18.681392064330652
30
0
10
16.962922337010401
20
19.024923368507189
30
0
10
17.228340289876787
20
19.925614695086409
30
0
10
17.219071565656378
20
20.867796801361635
30
0
10
17.213338011394356
20
21.450622668502408
30
0
0
LINE
5
276
100
AcDbEntity
8
0
100
AcDbLine
10
17.213338011394356
20
21.450622668502408
30
0
11
17.213338011394356
21
26.139267673728543
31
0
0
SPLINE
5
277
100
AcDbEntity
8
0
100
AcDbSpline
70
0
71
3
72
9
73
5
74
0
42
0.000000001
43
0.0000000001
44
0.0000000001
40
0
40
0
40
0
40
0
40
0.038059038932847782
40
0.082970800201879857
40
0.082970800201879857
40
0.082970800201879857
40
0.082970800201879857
10
24.883664244304519
20
27.084322562453828
30
0
10
25.011062588771587
20
27.09773728606406
30
0
10
25.288797993585099
20
27.126982122077695
30
0
10
25.534531710395918
20
27.260911410302153
30
0
10
25.667546385417801
20
27.333406796691495
30
0
0
LINE
5
278
100
AcDbEntity
8
0
100
AcDbLine
10
25.667546385417801
20
27.333406796691492
30
0
11
25.748131865154129
21
27.296777358291227
31
-9.6296497219361793e-34
0
SPLINE
5
279
100
AcDbEntity
8
0
100
AcDbSpline
70
0
71
3
72
9
73
5
74
0
42
0.000000001
43
0.0000000001
44
0.0000000001
40
0
40
0
40
0
40
0
40
0.062583937616592575
40
0.1232806476500493
40
0.1232806476500493
40
0.1232806476500493
40
0.1232806476500493
10
25.748131865154129
20
27.296777358291227
30
0
10
25.628159319196861
20
27.125469452767376
30
0
10
25.391832016551781
20
26.788019456093558
30
0
10
25.223135620913084
20
26.412208637433249
30
0
10
25.140078657756668
20
26.227179756400666
30
0
0
SPLINE
5
280
100
AcDbEntity
8
0
100
AcDbSpline
70
0
71
3
72
9
73
5
74
0
42
0.000000001
43
0.0000000001
44
0.0000000001
40
0
40
0
40
0
40
0
40
0.0961261064416149
40
0.14732435692712603
40
0.14732435692712603
40
0.14732435692712603
40
0.14732435692712603
10
25.140078657756668
20
26.227179756400666
30
0
10
25.020959766758473
20
25.929533747919336
30
0
10
24.838396312731128
20
25.47335687345004
30
0
10
24.621908028572395
20
25.032427225370103
30
0
10
24.5466738878592
20
24.879195084807954
30
0
0
LINE
5
281
100
AcDbEntity
8
0
100
AcDbLine
10
24.5466738878592
20
24.879195084807954
30
0
11
24.510043257366036
21
24.835237851378999
31
0
0
SPLINE
5
282
100
AcDbEntity
8
0
100
AcDbSpline
70
0
71
3
72
9
73
5
74
0
42
0.000000001
43
0.0000000001
44
0.0000000001
40
0
40
0
40
0
40
0
40
0.0075892913466154063
40
0.013207423726691628
40
0.013207423726691628
40
0.013207423726691628
40
0.013207423726691628
10
24.510043257366036
20
24.835237851378999
30
0
10
24.501408064891312
20
24.859016878327932
30
0
10
24.486380489750704
20
24.90039882960367
30
0
10
24.472144197402393
20
24.942059205028372
30
0
10
24.466088408122872
20
24.959780564544282
30
0
0
SPLINE
5
283
100
AcDbEntity
8
0
100
AcDbSpline
70
0
71
3
72
9
73
5
74
0
42
0.000000001
43
0.0000000001
44
0.0000000001
40
0
40
0
40
0
40
0
40
0.058901813942000607
40
0.097645426061510887
40
0.097645426061510887
40
0.097645426061510887
40
0.097645426061510887
10
24.466088408122872
20
24.959780564544282
30
0
10
24.407989945881482
20
25.14755584606332
30
0
10
24.311676288976713
20
25.458843328411508
30
0
10
24.180955659021663
20
25.757164127049904
30
0
10
24.129088514934402
20
25.87553142571219
30
0
0
SPLINE
5
284
100
AcDbEntity
8
0
100
AcDbSpline
70
0
71
3
72
9
73
5
74
0
42
0.000000001
43
0.0000000001
44
0.0000000001
40
0
40
0
40
0
40
0
40
0.030021445987298272
40
0.063311024887550277
40
0.063311024887550277
40
0.063311024887550277
40
0.063311024887550277
10
24.129088514934402
20
25.87553142571219
30
0
10
24.077564781117921
20
25.961900090300155
30
0
10
23.968908442734531
20
26.144039507420377
30
0
10
23.814614601409776
20
26.289755133470937
30
0
10
23.733485335002761
20
26.366373887298188
30
0
0
SPLINE
5
285
100
AcDbEntity
8
0
100
AcDbSpline
70
0
71
3
72
9
73
5
74
0
42
0.000000001
43
0.0000000001
44
0.0000000001
40
0
40
0
40
0
40
0
40
0.084003692647214856
40
0.16576417153045953
40
0.16576417153045953
40
0.16576417153045953
40
0.16576417153045953
10
23.733485335002761
20
26.366373887298188
30
0
10
23.505599605422809
20
26.539441845501152
30
0
10
23.055913550238564
20
26.880956198095905
30
0
10
22.494103688516454
20
26.933743813463749
30
0
10
22.217000120769363
20
26.959780445334992
30
0
0
SPLINE
5
286
100
AcDbEntity
8
0
100
AcDbSpline
70
0
71
3
72
9
73
5
74
0
42
0.000000001
43
0.0000000001
44
0.0000000001
40
0
40
0
40
0
40
0
40
0.072616845374543285
40
0.13972636458830162
40
0.13972636458830162
40
0.13972636458830162
40
0.13972636458830162
10
22.217000120769363
20
26.959780445334992
30
0
10
21.970429278312288
20
26.944657642843573
30
0
10
21.495987745465438
20
26.915558964656526
30
0
10
21.102137684799104
20
26.650965553487275
30
0
10
20.912974470744942
20
26.523883333442292
30
0
0
SPLINE
5
287
100
AcDbEntity
8
0
100
AcDbSpline
70
0
71
3
72
9
73
5
74
0
42
0.000000001
43
0.0000000001
44
0.0000000001
40
0
40
0
40
0
40
0
40
0.062770697843896592
40
0.12450381291574861
40
0.12450381291574861
40
0.12450381291574861
40
0.12450381291574861
10
20.912974470744942
20
26.523883333442292
30
0
10
20.761266201502387
20
26.370203785297686
30
0
10
20.460357359951477
20
26.065384970653373
30
0
10
20.415207982275096
20
25.639709169625263
30
0
10
20.392821425090641
20
25.428645005462251
30
0
0
SPLINE
5
288
100
AcDbEntity
8
0
100
AcDbSpline
70
0
71
3
72
9
73
5
74
0
42
0.000000001
43
0.0000000001
44
0.0000000001
40
0
40
0
40
0
40
0
40
0.1133808241538049
40
0.26653702851878103
40
0.26653702851878103
40
0.26653702851878103
40
0.26653702851878103
10
20.392821425090641
20
25.428645005462251
30
0
10
20.507170145205393
20
25.044087942148639
30
0
10
20.775982515390385
20
24.140066493050011
30
0
10
21.709749761983268
20
23.892972674091503
30
0
10
22.24630653251252
20
23.750988831756196
30
0
0
LINE
5
289
100
AcDbEntity
8
0
100
AcDbLine
10
22.24630653251252
20
23.750988831756192
30
0
11
23.484395140300606
21
23.45062314533957
31
0
0
SPLINE
5
290
100
AcDbEntity
8
0
100
AcDbSpline
70
0
71
3
72
9
73
5
74
0
42
0.000000001
43
0.0000000001
44
0.0000000001
40
0
40
0
40
0
40
0
40
0.22288078319051033
40
0.41226931583303905
40
0.41226931583303905
40
0.41226931583303905
40
0.41226931583303905
10
23.484395140300606
20
23.45062314533957
30
0
10
24.254180350680109
20
23.208394371317848
30
0
10
25.678075302405382
20
22.760336492520608
30
0
10
25.987118262105472
20
21.320737704023365
30
0
10
26.129086607585769
20
20.659413924453336
30
0
0
SPLINE
5
291
100
AcDbEntity
8
0
100
AcDbSpline
70
0
71
3
72
9
73
5
74
0
42
0.000000001
43
0.0000000001
44
0.0000000001
40
0
40
0
40
0
40
0
40
0.11282189032927932
40
0.22657723855327508
40
0.22657723855327508
40
0.22657723855327508
40
0.22657723855327508
10
26.129086607585769
20
20.659413924453336
30
0
10
26.090769651806582
20
20.274395019695845
30
0
10
26.013818716089418
20
19.501171667594981
30
0
10
25.488212205033015
20
18.928576435653412
30
0
10
25.224326246867989
20
18.641099324462488
30
0
0
SPLINE
5
292
100
AcDbEntity
8
0
100
AcDbSpline
70
0
71
3
72
9
73
5
74
0
42
0.000000001
43
0.0000000001
44
0.0000000001
40
0
40
0
40
0
40
0
40
0.11829109857814135
40
0.24259865121826404
40
0.24259865121826404
40
0.24259865121826404
40
0.24259865121826404
10
25.224326246867989
20
18.641099324462488
30
0
10
24.899615322401537
20
18.402892067906652
30
0
10
24.233678212523753
20
17.914361993831161
30
0
10
23.408867067739642
20
17.854778992854136
30
0
10
22.986233824382634
20
17.824248662231049
30
0
0
SPLINE
5
293
100
AcDbEntity
8
0
100
AcDbSpline
70
0
71
3
72
9
73
5
74
0
42
0.000000001
43
0.0000000001
44
0.0000000001
40
0
40
0
40
0
40
0
40
0.088693834115655484
40
0.18890777556081279
40
0.18890777556081279
40
0.18890777556081279
40
0.18890777556081279
10
22.986233824382634
20
17.824248662231049
30
0
10
22.690252547342897
20
17.837314292646646
30
0
10
22.059846102399788
20
17.865142598894991
30
0
10
21.444523564897601
20
18.005958095885738
30
0
10
21.118100279460755
20
18.080659499404511
30
0
0
LINE
5
294
100
AcDbEntity
8
0
100
AcDbLine
10
21.118100279460755
20
18.080659499404511
30
0
11
20.260956877361149
21
18.293114295241914
31
0
0
SPLINE
5
295
100
AcDbEntity
8
0
100
AcDbSpline
70
0
71
3
72
9
73
5
74
0
42
0.000000001
43
0.0000000001
44
0.0000000001
40
0
40
0
40
0
40
0
40
0.048346654508584629
40
0.086751648952345578
40
0.086751648952345578
40
0.086751648952345578
40
0.086751648952345578
10
20.260956877361149
20
18.293114295241914
30
0
10
20.103535930317129
20
18.329285126071923
30
0
10
19.821064953276032
20
18.394188876918275
30
0
10
19.53184935302221
20
18.410454858756939
30
0
10
19.403813475261543
20
18.417655816314301
30
0
0
SPLINE
5
296
100
AcDbEntity
8
0
100
AcDbSpline
70
0
71
3
72
9
73
5
74
0
42
0.000000001
43
0.0000000001
44
0.0000000001
40
0
40
0
40
0
40
0
40
0.045979790292345168
40
0.097530958047547398
40
0.097530958047547398
40
0.097530958047547398
40
0.097530958047547398
10
19.403813475261543
20
18.417655816314301
30
0
10
19.249577631504035
20
18.403251661443306
30
0
10
18.922417165758169
20
18.372697998290398
30
0
10
18.633463164112001
20
18.215193206688948
30
0
10
18.480733030925602
20
18.131942143676362
30
0
0
LINE
5
297
100
AcDbEntity
8
0
100
AcDbLine
10
18.480733030925602
20
18.131942143676358
30
0
11
18.422129744182438
21
18.234506240127168
31
9.6296497219361793e-34
0
SPLINE
5
298
100
AcDbEntity
8
0
100
AcDbSpline
70
0
71
3
72
9
73
5
74
0
42
0.000000001
43
0.0000000001
44
0.0000000001
40
0
40
0
40
0
40
0
40
0.15443177031174152
40
0.29108581939618261
40
0.29108581939618261
40
0.29108581939618261
40
0.29108581939618261
10
18.422129744182438
20
18.234506240127168
30
0
10
18.697955613142145
20
18.671380010382027
30
0
10
19.21785510606853
20
19.494835955558536
30
0
10
19.543820336972772
20
20.411993210919896
30
0
10
19.696848982463692
20
20.842564692733369
30
0
0
LINE
5
299
100
AcDbEntity
8
0
100
AcDbLine
10
19.696848982463692
20
20.842564692733369
30
0
11
19.828723066936348
21
20.805934062240205
31
0
0
SPLINE
5
300
100
AcDbEntity
8
0
100
AcDbSpline
70
0
71
3
72
9
73
5
74
0
42
0.000000001
43
0.0000000001
44
0.0000000001
40
0
40
0
40
0
40
0
40
0.10672926600876471
40
0.20495267293066172
40
0.20495267293066172
40
0.20495267293066172
40
0.20495267293066172
10
19.828723066936348
20
20.805934062240205
30
0
10
19.899957993360008
20
20.448774531448052
30
0
10
20.036750731870438
20
19.762919533696056
30
0
10
20.520133272851815
20
19.25960261683991
30
0
10
20.751793974529118
20
19.018388381240449
30
0
0
SPLINE
5
301
100
AcDbEntity
8
0
100
AcDbSpline
70
0
71
3
72
9
73
5
74
0
42
0.000000001
43
0.0000000001
44
0.0000000001
40
0
40
0
40
0
40
0
40
0.10087358564513739
40
0.21463255420353561
40
0.21463255420353561
40
0.21463255420353561
40
0.21463255420353561
10
20.751793974529118
20
19.018388381240449
30
0
10
21.039231240249762
20
18.832671431273759
30
0
10
21.65082241270925
20
18.437514432785903
30
0
10
22.379982548991432
20
18.400594553133804
30
0
10
22.766450041423653
20
18.381026377914033
30
0
0
SPLINE
5
302
100
AcDbEntity
8
0
100
AcDbSpline
70
0
71
3
72
9
73
5
74
0
42
0.000000001
43
0.0000000001
44
0.0000000001
40
0
40
0
40
0
40
0
40
0.088824009014182692
40
0.16483408500172073
40
0.16483408500172073
40
0.16483408500172073
40
0.16483408500172073
10
22.766450041423653
20
18.381026377914033
30
0
10
23.067906566018802
20
18.393322709407997
30
0
10
23.627330881031522
20
18.416141478490584
30
0
10
24.10611020496146
20
18.702972282554434
30
0
10
24.326890104900215
20
18.835238805053308
30
0
0
SPLINE
5
303
100
AcDbEntity
8
0
100
AcDbSpline
70
0
71
3
72
9
73
5
74
0
42
0.000000001
43
0.0000000001
44
0.0000000001
40
0
40
0
40
0
40
0
40
0.068736160254720832
40
0.1392834717663691
40
0.1392834717663691
40
0.1392834717663691
40
0.1392834717663691
10
24.326890104900215
20
18.835238805053308
30
0
10
24.495684802957264
20
19.001397361992368
30
0
10
24.837721825014011
20
19.338092641280571
30
0
10
24.882809469779282
20
19.816411869875761
30
0
10
24.905646437297676
20
20.058681359527192
30
0
0
SPLINE
5
304
100
AcDbEntity
8
0
100
AcDbSpline
70
0
71
3
72
9
73
5
74
0
42
0.000000001
43
0.0000000001
44
0.0000000001
40
0
40
0
40
0
40
0
40
0.083421629373358702
40
0.17259633842229069
40
0.17259633842229069
40
0.17259633842229069
40
0.17259633842229069
10
24.905646437297676
20
20.058681359527192
30
0
10
24.867809621947309
20
20.344323501301286
30
0
10
24.789526617454477
20
20.935306776737686
30
0
10
24.334749900324276
20
21.323378936261545
30
0
10
24.099782103191231
20
21.523882737395844
30
0
0
SPLINE
5
305
100
AcDbEntity
8
0
100
AcDbSpline
70
0
71
3
72
9
73
5
74
0
42
0.000000001
43
0.0000000001
44
0.0000000001
40
0
40
0
40
0
40
0
40
0.09673763230120988
40
0.25025579301348277
40
0.25025579301348277
40
0.25025579301348277
40
0.25025579301348277
10
24.099782103191231
20
21.523882737395844
30
0
10
23.80916912077652
20
21.66636724654985
30
0
10
23.057366738971727
20
22.03496810003616
30
0
10
22.232291656729068
20
22.190423883456599
30
0
10
21.72615348685822
20
22.285787453887544
30
0
0
SPLINE
5
306
100
AcDbEntity
8
0
100
AcDbSpline
70
0
71
3
72
9
73
5
74
0
42
0.000000001
43
0.0000000001
44
0.0000000001
40
0
40
0
40
0
40
0
40
0.12474519607977909
40
0.22237678114047976
40
0.22237678114047976
40
0.22237678114047976
40
0.22237678114047976
10
21.72615348685822
20
22.285787453887544
30
0
10
21.313606902658826
20
22.375246682863953
30
0
10
20.578181536810742
20
22.534721003384956
30
0
10
19.981011001870264
20
22.987917130677516
30
0
10
19.718831175456856
20
23.186886897323213
30
0
0
SPLINE
5
307
100
AcDbEntity
8
0
100
AcDbSpline
70
0
71
3
72
9
73
5
74
0
42
0.000000001
43
0.0000000001
44
0.0000000001
40
0
40
0
40
0
40
0
40
0.088586021385370792
40
0.18960964710401818
40
0.18960964710401818
40
0.18960964710401818
40
0.18960964710401818
10
19.718831175456856
20
23.186886897323213
30
0
10
19.537416620124354
20
23.42826140385769
30
0
10
19.14911664595024
20
23.944899743498333
30
0
10
19.114541538939168
20
24.592671627205803
30
0
10
19.096119993816234
20
24.9378031399227
30
0
0
SPLINE
5
308
100
AcDbEntity
8
0
100
AcDbSpline
70
0
71
3
72
9
73
5
74
0
42
0.000000001
43
0.0000000001
44
0.0000000001
40
0
40
0
40
0
40
0
40
0.10689407396249456
40
0.21075861524351833
40
0.21075861524351833
40
0.21075861524351833
40
0.21075861524351833
10
19.096119993816234
20
24.9378031399227
30
0
10
19.128728954871875
20
25.303689890767668
30
0
10
19.193022691857021
20
26.025093632672892
30
0
10
19.68511145637591
20
26.555521815918738
30
0
10
19.92761909354768
20
26.816923609016023
30
0
0
SPLINE
5
309
100
AcDbEntity
8
0
100
AcDbSpline
70
0
71
3
72
9
73
5
74
0
42
0.000000001
43
0.0000000001
44
0.0000000001
40
0
40
0
40
0
40
0
40
0.10994032736027723
40
0.23206772674219378
40
0.23206772674219378
40
0.23206772674219378
40
0.23206772674219378
10
19.92761909354768
20
26.816923609016023
30
0
10
20.236312996378537
20
27.027235956801455
30
0
10
20.887920045485963
20
27.471174133340043
30
0
10
21.677131358905953
20
27.515308791411478
30
0
10
22.092459791789871
20
27.53853498959311
30
0
0
SPLINE
5
310
100
AcDbEntity
8
0
100
AcDbSpline
70
0
71
3
72
9
73
5
74
0
42
0.000000001
43
0.0000000001
44
0.0000000001
40
0
40
0
40
0
40
0
40
0.093175434054360101
40
0.20277491942856118
40
0.20277491942856118
40
0.20277491942856118
40
0.20277491942856118
10
22.092459791789871
20
27.53853498959311
30
0
10
22.403340443241451
20
27.522027507561816
30
0
10
23.079900737162014
20
27.486102766530699
30
0
10
23.737192726516909
20
27.32040308506042
30
0
10
24.092457884441238
20
27.230842700240693
30
0
0
SPLINE
5
311
100
AcDbEntity
8
0
100
AcDbSpline
70
0
71
3
72
9
73
5
74
0
42
0.000000001
43
0.0000000001
44
0.0000000001
40
0
40
0
40
0
40
0
40
0.047800513918394918
40
0.080606066736690463
40
0.080606066736690463
40
0.080606066736690463
40
0.080606066736690463
10
24.092457884441238
20
27.230842700240693
30
0
10
24.246555395254397
20
27.188627116206515
30
0
10
24.506410221538665
20
27.117438923757437
30
0
10
24.774539387272032
20
27.09390183258645
30
0
10
24.883664244304519
20
27.084322562453828
30
0
0
SPLINE
5
312
100
AcDbEntity
8
0
100
AcDbSpline
70
0
71
3
72
9
73
5
74
0
42
0.000000001
43
0.0000000001
44
0.0000000001
40
0
40
0
40
0
40
0
40
0.05204578717903062
40
0.10347836469732244
40
0.10347836469732244
40
0.10347836469732244
40
0.10347836469732244
10
23.422129744182449
20
26.311429133651338
30
0
10
23.568887241528948
20
26.213773687509438
30
0
10
23.860673121916314
20
26.019613383318244
30
0
10
24.030185934863255
20
25.712940769874489
30
0
10
24.114440077434402
20
25.560513129470429
30
0
0
LINE
5
313
100
AcDbEntity
8
0
100
AcDbLine
10
24.114440077434395
20
25.560513129470429
30
0
11
24.063151472698074
21
25.531209101913056
31
0
0
SPLINE
5
314
100
AcDbEntity
8
0
100
AcDbSpline
70
0
71
3
72
9
73
5
74
0
42
0.000000001
43
0.0000000001
44
0.0000000001
40
0
40
0
40
0
40
0
40
0.10539256664808966
40
0.19730287331020069
40
0.19730287331020069
40
0.19730287331020069
40
0.19730287331020069
10
24.063151472698074
20
25.531209101913056
30
0
10
23.801654738034863
20
25.780851019837648
30
0
10
23.312113029817798
20
26.248199612548703
30
0
10
22.644986281907151
20
26.343812304160966
30
0
10
22.334216230998855
20
26.388351907966218
30
0
0
SPLINE
5
315
100
AcDbEntity
8
0
100
AcDbSpline
70
0
71
3
72
9
73
5
74
0
42
0.000000001
43
0.0000000001
44
0.0000000001
40
0
40
0
40
0
40
0
40
0.051549505366797657
40
0.099484827270204829
40
0.099484827270204829
40
0.099484827270204829
40
0.099484827270204829
10
22.334216230998855
20
26.388351907966218
30
0
10
22.158967896954884
20
26.376983002581586
30
0
10
21.820758051531527
20
26.355042276275981
30
0
10
21.54432907967848
20
26.159990483664298
30
0
10
21.411135786662911
20
26.066007604835114
30
0
0
SPLINE
5
316
100
AcDbEntity
8
0
100
AcDbSpline
70
0
71
3
72
9
73
5
74
0
42
0.000000001
43
0.0000000001
44
0.0000000001
40
0
40
0
40
0
40
0
40
0.045787477493287682
40
0.092122713317764254
40
0.092122713317764254
40
0.092122713317764254
40
0.092122713317764254
10
21.411135786662911
20
26.066007604835114
30
0
10
21.304299114686525
20
25.95074548176067
30
0
10
21.089347677238436
20
25.718842347941141
30
0
10
21.059733932149225
20
25.403901150436102
30
0
10
21.044839018474431
20
25.245494237182221
30
0
0
SPLINE
5
317
100
AcDbEntity
8
0
100
AcDbSpline
70
0
71
3
72
9
73
5
74
0
42
0.000000001
43
0.0000000001
44
0.0000000001
40
0
40
0
40
0
40
0
40
0.05797537168515228
40
0.13710653903603026
40
0.13710653903603026
40
0.13710653903603026
40
0.13710653903603026
10
21.044839018474431
20
25.245494237182221
30
0
10
21.090883597397507
20
25.052748386211178
30
0
10
21.199774884749594
20
24.596921786535194
30
0
10
21.570691461091585
20
24.30209864317694
30
0
10
21.784766310344548
20
24.131941190002046
30
0
0
LINE
5
318
100
AcDbEntity
8
0
100
AcDbLine
10
21.784766310344548
20
24.131941190002046
30
0
11
21.843369597087712
21
24.095311751601777
31
0
0
LINE
5
319
100
AcDbEntity
8
0
100
AcDbLine
10
21.843369597087712
20
24.095311751601777
30
0
11
21.806738966594548
21
24.036703696487031
31
0
0
SPLINE
5
320
100
AcDbEntity
8
0
100
AcDbSpline
70
0
71
3
72
9
73
5
74
0
42
0.000000001
43
0.0000000001
44
0.0000000001
40
0
40
0
40
0
40
0
40
0.089787476512903461
40
0.16606434033487155
40
0.16606434033487155
40
0.16606434033487155
40
0.16606434033487155
10
21.806738966594548
20
24.036703696487031
30
0
10
21.525270428486092
20
24.18409705294922
30
0
10
21.004686835747695
20
24.456705009662624
30
0
10
20.891638637989303
20
25.027344625755813
30
0
10
20.83971320975861
20
25.289451470611176
30
0
0
SPLINE
5
321
100
AcDbEntity
8
0
100
AcDbSpline
70
0
71
3
72
9
73
5
74
0
42
0.000000001
43
0.0000000001
44
0.0000000001
40
0
40
0
40
0
40
0
40
0.052836427130024198
40
0.10426491087298795
40
0.10426491087298795
40
0.10426491087298795
40
0.10426491087298795
10
20.83971320975861
20
25.289451470611176
30
0
10
20.855864762442625
20
25.470241774041448
30
0
10
20.887737473989056
20
25.827004823660037
30
0
10
21.130314256327459
20
26.090088291918082
30
0
10
21.249964827190254
20
26.219853749511323
30
0
0
SPLINE
5
322
100
AcDbEntity
8
0
100
AcDbSpline
70
0
71
3
72
9
73
5
74
0
42
0.000000001
43
0.0000000001
44
0.0000000001
40
0
40
0
40
0
40
0
40
0.054384829257941622
40
0.11476268033812097
40
0.11476268033812097
40
0.11476268033812097
40
0.11476268033812097
10
21.249964827190254
20
26.219853749511323
30
0
10
21.402319678751866
20
26.324476996687661
30
0
10
21.72381836443861
20
26.545252614363811
30
0
10
22.114189460924347
20
26.567253296972083
30
0
10
22.319567793498855
20
26.578828087089143
30
0
0
SPLINE
5
323
100
AcDbEntity
8
0
100
AcDbSpline
70
0
71
3
72
9
73
5
74
0
42
0.000000001
43
0.0000000001
44
0.0000000001
40
0
40
0
40
0
40
0
40
0.059442910636119672
40
0.11442158921459089
40
0.11442158921459089
40
0.11442158921459089
40
0.11442158921459089
10
22.319567793498855
20
26.578828087089143
30
0
10
22.519673781248343
20
26.569531222440773
30
0
10
22.904857563210371
20
26.551635698544057
30
0
10
23.254249602399028
20
26.38938792141316
30
0
10
23.422129744182449
20
26.311429133651338
30
0
0
SPLINE
5
324
100
AcDbEntity
8
0
100
AcDbSpline
70
0
71
3
72
9
73
5
74
0
42
0.000000001
43
0.0000000001
44
0.0000000001
40
0
40
0
40
0
40
0
40
0.12825285866823394
40
0.26226129726523456
40
0.26226129726523456
40
0.26226129726523456
40
0.26226129726523456
10
21.982567900310368
20
18.586154570815644
30
0
10
21.572269184800543
20
18.769084866860059
30
0
10
20.733258853855627
20
19.143154788169387
30
0
10
20.469163652431526
20
20.025440289652202
30
0
10
20.334218138347477
20
20.476264348266206
30
0
0
LINE
5
325
100
AcDbEntity
8
0
100
AcDbLine
10
20.334218138347474
20
20.476264348266206
30
0
11
20.532019728313298
21
20.512893786666474
31
1.0400021699691074e-31
0
SPLINE
5
326
100
AcDbEntity
8
0
100
AcDbSpline
70
0
71
3
72
9
73
5
74
0
42
0.000000001
43
0.0000000001
44
0.0000000001
40
0
40
0
40
0
40
0
40
0.12316208487036256
40
0.24387778405954824
40
0.24387778405954824
40
0.24387778405954824
40
0.24387778405954824
10
20.532019728313298
20
20.512893786666474
30
0
10
20.658221939044221
20
20.106328716759347
30
0
10
20.908119588380618
20
19.301274235671848
30
0
10
21.626821609780109
20
18.862131453506745
30
0
10
21.982567900310368
20
18.64476262593039
30
0
0
LINE
5
327
100
AcDbEntity
8
0
100
AcDbLine
10
21.982567900310364
20
18.64476262593039
30
0
11
21.982567900310368
21
18.586154570815644
31
0
0
SPLINE
5
328
100
AcDbEntity
8
0
100
AcDbSpline
70
0
71
3
72
9
73
5
74
0
42
0.000000001
43
0.0000000001
44
0.0000000001
40
0
40
0
40
0
40
0
40
0.10697294837625568
40
0.21578669606433745
40
0.21578669606433745
40
0.21578669606433745
40
0.21578669606433745
10
26.539347761760574
20
20.615457883117276
30
0
10
26.505270960830593
20
20.978661061832735
30
0
10
26.436530962571794
20
21.711317449496363
30
0
10
25.978899527789373
20
22.288017761274908
30
0
10
25.748131865154122
20
22.57882772946127
30
0
0
LINE
5
329
100
AcDbEntity
8
0
100
AcDbLine
10
25.748131865154118
20
22.578827729461274
30
0
11
25.748131865154122
21
22.622784962890226
31
9.6296497219361793e-34
0
SPLINE
5
330
100
AcDbEntity
8
0
100
AcDbSpline
70
0
71
3
72
9
73
5
74
0
42
0.000000001
43
0.0000000001
44
0.0000000001
40
0
40
0
40
0
40
0
40
0.1165002615552264
40
0.23633359681309724
40
0.23633359681309724
40
0.23633359681309724
40
0.23633359681309724
10
25.748131865154122
20
22.622784962890226
30
0
10
26.038717606436418
20
22.345053446586249
30
0
10
26.628202750101011
20
21.781644512389473
30
0
10
26.705353935990015
20
20.968935338532056
30
0
10
26.744473570476394
20
20.55684982800253
30
0
0
SPLINE
5
331
100
AcDbEntity
8
0
100
AcDbSpline
70
0
71
3
72
9
73
5
74
0
42
0.000000001
43
0.0000000001
44
0.0000000001
40
0
40
0
40
0
40
0
40
0.13202507528071503
40
0.26704397233180266
40
0.26704397233180266
40
0.26704397233180266
40
0.26704397233180266
10
26.744473570476394
20
20.55684982800253
30
0
10
26.697304201504952
20
20.106515163695342
30
0
10
26.601895843390146
20
19.195633974045535
30
0
10
25.976450674433863
20
18.525639684696003
30
0
10
25.660222166667793
20
18.186886897323213
30
0
0
SPLINE
5
332
100
AcDbEntity
8
0
100
AcDbSpline
70
0
71
3
72
9
73
5
74
0
42
0.000000001
43
0.0000000001
44
0.0000000001
40
0
40
0
40
0
40
0
40
0.14048273972646413
40
0.2861079951086305
40
0.2861079951086305
40
0.2861079951086305
40
0.2861079951086305
10
25.660222166667793
20
18.186886897323213
30
0
10
25.27476753377212
20
17.903792988232027
30
0
10
24.48974830338237
20
17.327242225374967
30
0
10
23.517649915138364
20
17.253648789807986
30
0
10
23.022864454875798
20
17.216190686462003
30
0
0
SPLINE
5
333
100
AcDbEntity
8
0
100
AcDbSpline
70
0
71
3
72
9
73
5
74
0
42
0.000000001
43
0.0000000001
44
0.0000000001
40
0
40
0
40
0
40
0
40
0.075383181659129606
40
0.14403784410435871
40
0.14403784410435871
40
0.14403784410435871
40
0.14403784410435871
10
23.022864454875798
20
17.216190686462003
30
0
10
22.771013164871245
20
17.221558984023709
30
0
10
22.289790217673399
20
17.231816417980209
30
0
10
21.818788646632882
20
17.330382149800378
30
0
10
21.594288939128724
20
17.377362838027555
30
0
0
LINE
5
334
100
AcDbEntity
8
0
100
AcDbLine
10
21.594288939128724
20
17.377362838027555
30
0
11
20.422127836833802
21
17.663077702758393
31
0
0
SPLINE
5
335
100
AcDbEntity
8
0
100
AcDbSpline
70
0
71
3
72
9
73
5
74
0
42
0.000000001
43
0.0000000001
44
0.0000000001
40
0
40
0
40
0
40
0
40
0.043181635680575522
40
0.08867554334572933
40
0.08867554334572933
40
0.08867554334572933
40
0.08867554334572933
10
20.422127836833802
20
17.663077702758393
30
0
10
20.280996159670369
20
17.692986805450055
30
0
10
19.991175545918324
20
17.754406570828703
30
0
10
19.694967944549006
20
17.761831392680939
30
0
10
19.543002241741036
20
17.765640607116303
30
0
0
SPLINE
5
336
100
AcDbEntity
8
0
100
AcDbSpline
70
0
71
3
72
9
73
5
74
0
42
0.000000001
43
0.0000000001
44
0.0000000001
40
0
40
0
40
0
40
0
40
0.04033023576246577
40
0.079251710796127445
40
0.079251710796127445
40
0.079251710796127445
40
0.079251710796127445
10
19.543002241741036
20
17.765640607116303
30
0
10
19.407637348396893
20
17.759132320851649
30
0
10
19.141635943335881
20
17.74634308689172
30
0
10
18.894935600944713
20
17.646283513216886
30
0
10
18.773778074870911
20
17.597143044707853
30
0
0
LINE
5
337
100
AcDbEntity
8
0
100
AcDbLine
10
18.773778074870915
20
17.597143044707853
30
0
11
18.685868376384583
21
17.809597840545255
31
-3.8518598887744717e-33
0
SPLINE
5
338
100
AcDbEntity
8
0
100
AcDbSpline
70
0
71
3
72
9
73
5
74
0
42
0.000000001
43
0.0000000001
44
0.0000000001
40
0
40
0
40
0
40
0
40
0.040658577069269494
40
0.080098396586988252
40
0.080098396586988252
40
0.080098396586988252
40
0.080098396586988252
10
18.685868376384587
20
17.809597840545258
30
0
10
18.812425708227664
20
17.860876444135577
30
0
10
19.061746763897837
20
17.961896554106634
30
0
10
19.33022177929174
20
17.977660140248332
30
0
10
19.462416762004707
20
17.985422005889497
30
0
0
SPLINE
5
339
100
AcDbEntity
8
0
100
AcDbSpline
70
0
71
3
72
9
73
5
74
0
42
0.000000001
43
0.0000000001
44
0.0000000001
40
0
40
0
40
0
40
0
40
0.047185334934821181
40
0.1013917701698539
40
0.1013917701698539
40
0.1013917701698539
40
0.1013917701698539
10
19.462416762004707
20
17.985422005889497
30
0
10
19.619841724498176
20
17.978553285860301
30
0
10
19.958116225212933
20
17.963793791548703
30
0
10
20.289120162693454
20
17.891958646950112
30
0
10
20.466082686076966
20
17.853553881881318
30
0
0
LINE
5
340
100
AcDbEntity
8
0
100
AcDbLine
10
20.466082686076959
20
17.853553881881318
30
0
11
21.594288939128724
21
17.582491030929166
31
0
0
SPLINE
5
341
100
AcDbEntity
8
0
100
AcDbSpline
70
0
71
3
72
9
73
5
74
0
42
0.000000001
43
0.0000000001
44
0.0000000001
40
0
40
0
40
0
40
0
40
0.070277935892898574
40
0.14328283174322687
40
0.14328283174322687
40
0.14328283174322687
40
0.14328283174322687
10
21.594288939128724
20
17.582491030929166
30
0
10
21.824288823605325
20
17.535487113651222
30
0
10
22.293213164221228
20
17.439655409361109
30
0
10
22.771722523061051
20
17.427508118474023
30
0
10
23.015530699382634
20
17.421318879363614
30
0
0
SPLINE
5
342
100
AcDbEntity
8
0
100
AcDbSpline
70
0
71
3
72
9
73
5
74
0
42
0.000000001
43
0.0000000001
44
0.0000000001
40
0
40
0
40
0
40
0
40
0.13761864945677504
40
0.27127654838960652
40
0.27127654838960652
40
0.27127654838960652
40
0.27127654838960652
10
23.015530699382634
20
17.421318879363614
30
0
10
23.48318323627484
20
17.457914954558156
30
0
10
24.405028978509129
20
17.530053847088851
30
0
10
25.145304124806998
20
18.082965167324684
30
0
10
25.510037535320137
20
18.355384459731653
30
0
0
SPLINE
5
343
100
AcDbEntity
8
0
100
AcDbSpline
70
0
71
3
72
9
73
5
74
0
42
0.000000001
43
0.0000000001
44
0.0000000001
40
0
40
0
40
0
40
0
40
0.1288832757380354
40
0.25435262219374333
40
0.25435262219374333
40
0.25435262219374333
40
0.25435262219374333
10
25.510037535320137
20
18.355384459731653
30
0
10
25.810238558106896
20
18.680029397219744
30
0
10
26.402688718097053
20
19.32071990309932
30
0
10
26.49420418842621
20
20.187757693046997
30
0
10
26.539347761760574
20
20.615457883117276
30
0
0
LINE
5
344
100
AcDbEntity
8
0
100
AcDbLine
10
25.975239866863113
20
27.025714507339078
30
0
11
26.011870497356277
21
27.084322562453824
31
0
0
LINE
5
345
100
AcDbEntity
8
0
100
AcDbLine
10
26.011870497356277
20
27.084322562453824
30
0
11
26.202347868572097
21
26.989084472892362
31
-1.9259299443872359e-33
0
LINE
5
346
100
AcDbEntity
8
0
100
AcDbLine
10
26.202347868572097
20
26.989084472892362
30
-1.9259299443872359e-33
11
26.136410826335773
21
26.879194369552213
31
0
0
SPLINE
5
347
100
AcDbEntity
8
0
100
AcDbSpline
70
0
71
3
72
9
73
5
74
0
42
0.000000001
43
0.0000000001
44
0.0000000001
40
0
40
0
40
0
40
0
40
0.056747869201509642
40
0.10949662928705334
40
0.10949662928705334
40
0.10949662928705334
40
0.10949662928705334
10
26.136410826335773
20
26.879194369552213
30
0
10
26.041356100904373
20
26.715555368152735
30
0
10
25.85794530189122
20
26.399809256003294
30
0
10
25.699783966731403
20
26.070704126232258
30
0
10
25.623591536174636
20
25.912161460158902
30
0
0
SPLINE
5
348
100
AcDbEntity
8
0
100
AcDbSpline
70
0
71
3
72
9
73
5
74
0
42
0.000000001
43
0.0000000001
44
0.0000000001
40
0
40
0
40
0
40
0
40
0.092979074874886547
40
0.13336084012044269
40
0.13336084012044269
40
0.13336084012044269
40
0.13336084012044269
10
25.623591536174636
20
25.912161460158902
30
0
10
25.490818408250782
20
25.632104059875193
30
0
10
25.300380549956639
20
25.230414860084394
30
0
10
25.104229801649552
20
24.831490833295909
30
0
10
25.044835203777168
20
24.710696330306611
30
0
0
LINE
5
349
100
AcDbEntity
8
0
100
AcDbLine
10
25.044835203777168
20
24.710696330306607
30
0
11
25.008204573284004
21
24.65941368603476
31
0
0
LINE
5
350
100
AcDbEntity
8
0
100
AcDbLine
10
25.008204573284004
20
24.65941368603476
30
0
11
24.832385176311348
21
24.732674947021088
31
-1.9259299443872359e-33
0
LINE
5
351
100
AcDbEntity
8
0
100
AcDbLine
10
24.832385176311348
20
24.732674947021088
30
-1.9259299443872359e-33
11
24.861691588054512
21
24.79860841297873
31
0
0
SPLINE
5
352
100
AcDbEntity
8
0
100
AcDbSpline
70
0
71
3
72
9
73
5
74
0
42
0.000000001
43
0.0000000001
44
0.0000000001
40
0
40
0
40
0
40
0
40
0.061452210268358953
40
0.14024740772609728
40
0.14024740772609728
40
0.14024740772609728
40
0.14024740772609728
10
24.861691588054512
20
24.79860841297873
30
0
10
24.947138471192098
20
24.984805037452929
30
0
10
25.142146979527084
20
25.409746529318223
30
0
10
25.356589038021056
20
25.825243145061943
30
0
10
25.47706901420198
20
26.058681597945764
30
0
0
LINE
5
353
100
AcDbEntity
8
0
100
AcDbLine
10
25.477069014201973
20
26.058681597945764
30
0
11
25.975239866863113
21
27.025714507339078
31
0
0
LINE
5
354
100
AcDbEntity
8
0
100
AcDbLine
10
12.539346808086245
20
26.329743852851468
30
0
11
13.367188566814274
21
27.135604610679227
31
0
0
LINE
5
355
100
AcDbEntity
8
0
100
AcDbLine
10
13.367188566814274
20
27.135604610679227
30
0
11
13.469751471172184
21
26.981758466003019
31
0
0
LINE
5
356
100
AcDbEntity
8
0
100
AcDbLine
10
13.469751471172184
20
26.981758466003019
30
0
11
12.751801603923649
21
26.256483783958036
31
0
0
LINE
5
357
100
AcDbEntity
8
0
100
AcDbLine
10
12.751801603923649
20
26.256483783958036
30
0
11
12.751801603923646
21
20.813260665175992
31
0
0
LINE
5
358
100
AcDbEntity
8
0
100
AcDbLine
10
12.751801603923646
20
20.813260665175992
30
0
11
12.744477385173646
21
20.307765593764859
31
0
0
LINE
5
359
100
AcDbEntity
8
0
100
AcDbLine
10
12.744477385173646
20
20.307765593764859
30
0
11
12.971585386882627
21
19.377363314864713
31
0
0
SPLINE
5
360
100
AcDbEntity
8
0
100
AcDbSpline
70
0
71
3
72
9
73
5
74
0
42
0.000000001
43
0.0000000001
44
0.0000000001
40
0
40
0
40
0
40
0
40
0.039244032936193156
40
0.093024366607159681
40
0.093024366607159681
40
0.093024366607159681
40
0.093024366607159681
10
12.971585386882627
20
19.377363314864709
30
0
10
13.049704964361519
20
19.271958683224849
30
0
10
13.234880229768336
20
19.022106709252096
30
0
10
13.471910371277684
20
18.820136220005757
30
0
10
13.608945006023255
20
18.703370681045129
30
0
0
LINE
5
361
100
AcDbEntity
8
0
100
AcDbLine
10
13.608945006023257
20
18.703370681045129
30
0
11
13.623593443523255
21
18.637436022994592
31
0
0
SPLINE
5
362
100
AcDbEntity
8
0
100
AcDbSpline
70
0
71
3
72
9
73
5
74
0
42
0.000000001
43
0.0000000001
44
0.0000000001
40
0
40
0
40
0
40
0
40
0.06034072958898766
40
0.11368780505993964
40
0.11368780505993964
40
0.11368780505993964
40
0.11368780505993964
10
13.623593443523255
20
18.637436022994592
30
0
10
13.437186260557855
20
18.724481051708356
30
0
10
13.085976992405243
20
18.888482354365006
30
0
10
12.873487833598293
20
19.211253549682073
30
0
10
12.773779028545224
20
19.362711301086023
30
0
0
SPLINE
5
363
100
AcDbEntity
8
0
100
AcDbSpline
70
0
71
3
72
9
73
5
74
0
42
0.000000001
43
0.0000000001
44
0.0000000001
40
0
40
0
40
0
40
0
40
0.063120932895752213
40
0.14994894478017218
40
0.14994894478017218
40
0.14994894478017218
40
0.14994894478017218
10
12.773779028545224
20
19.362711301086023
30
0
10
12.705824620824615
20
19.563135217397292
30
0
10
12.544393360806719
20
20.039258642398288
30
0
10
12.54119741950452
20
20.543346032850316
30
0
10
12.539346808086243
20
20.835238089797574
30
0
0
LINE
5
364
100
AcDbEntity
8
0
100
AcDbLine
10
12.539346808086243
20
20.835238089797574
30
0
11
12.539346808086245
21
26.329743852851468
31
0
0
LINE
5
365
100
AcDbEntity
8
0
100
AcDbLine
10
16.18769943107209
20
26.329743852851468
30
0
11
15.044844740520332
21
27.377362838027555
31
0
0
LINE
5
366
100
AcDbEntity
8
0
100
AcDbLine
10
15.044844740520332
20
27.377362838027555
30
0
11
18.165724867473457
21
27.377362838027555
31
0
0
LINE
5
367
100
AcDbEntity
8
0
100
AcDbLine
10
18.165724867473457
20
27.377362838027555
30
0
11
16.854365461955879
21
26.329743852851468
31
0
0
LINE
5
368
100
AcDbEntity
8
0
100
AcDbLine
10
16.854365461955879
20
26.329743852851468
30
0
11
16.854365461955876
21
21.597142806289273
31
0
0
SPLINE
5
369
100
AcDbEntity
8
0
100
AcDbSpline
70
0
71
3
72
9
73
5
74
0
42
0.000000001
43
0.0000000001
44
0.0000000001
40
0
40
0
40
0
40
0
40
0.11210763226369201
40
0.18782964756742704
40
0.18782964756742704
40
0.18782964756742704
40
0.18782964756742704
10
16.854365461955876
20
21.597142806289273
30
0
10
16.854555422702305
20
21.223147402285569
30
0
10
16.854873690596595
20
20.596540421945264
30
0
10
16.794469384267337
20
19.973043018129026
30
0
10
16.770117872844544
20
19.721685042617395
30
0
0
SPLINE
5
370
100
AcDbEntity
8
0
100
AcDbSpline
70
0
71
3
72
9
73
5
74
0
42
0.000000001
43
0.0000000001
44
0.0000000001
40
0
40
0
40
0
40
0
40
0.053506160579076735
40
0.10015275190805406
40
0.10015275190805406
40
0.10015275190805406
40
0.10015275190805406
10
16.770117872844544
20
19.721685042617395
30
0
10
16.738360517387477
20
19.544638541836349
30
0
10
16.678917146606903
20
19.213243164612305
30
0
10
16.51372095348783
20
18.920365323036396
30
0
10
16.436780089031068
20
18.783956160781457
30
0
0
SPLINE
5
371
100
AcDbEntity
8
0
100
AcDbSpline
70
0
71
3
72
9
73
5
74
0
42
0.000000001
43
0.0000000001
44
0.0000000001
40
0
40
0
40
0
40
0
40
0.11633869161545793
40
0.27014999985484739
40
0.27014999985484739
40
0.27014999985484739
40
0.27014999985484739
10
16.436780089031068
20
18.783956160781457
30
0
10
16.14387719601061
20
18.5117722894027
30
0
10
15.463727579333566
20
17.879734299354549
30
0
10
14.524598039216571
20
17.858383479395712
30
0
10
13.989899748454896
20
17.84622727894552
30
0
0
SPLINE
5
372
100
AcDbEntity
8
0
100
AcDbSpline
70
0
71
3
72
9
73
5
74
0
42
0.000000001
43
0.0000000001
44
0.0000000001
40
0
40
0
40
0
40
0
40
0.16468109511154205
40
0.29116516103851442
40
0.29116516103851442
40
0.29116516103851442
40
0.29116516103851442
10
13.989899748454896
20
17.84622727894552
30
0
10
13.421923774228862
20
17.860152596082582
30
0
10
12.417711263439337
20
17.884773316536123
30
0
10
11.644476103111876
20
18.511640794658856
30
0
10
11.308577650676572
20
18.783956160781464
30
0
0
SPLINE
5
373
100
AcDbEntity
8
0
100
AcDbSpline
70
0
71
3
72
9
73
5
74
0
42
0.000000001
43
0.0000000001
44
0.0000000001
40
0
40
0
40
0
40
0
40
0.11711900759391727
40
0.29341668086895589
40
0.29341668086895589
40
0.29341668086895589
40
0.29341668086895589
10
11.308577650676572
20
18.783956160781464
30
0
10
11.132943207937675
20
19.137681881082905
30
0
10
10.692928591237719
20
20.023866189856211
30
0
10
10.697670516952657
20
21.020375007437494
30
0
10
10.700519674907534
20
21.619121423003755
30
0
0
LINE
5
374
100
AcDbEntity
8
0
100
AcDbLine
10
10.700519674907534
20
21.619121423003762
30
0
11
10.700519674907536
21
26.48358999752768
31
-1.2325951644078309e-31
0
LINE
5
375
100
AcDbEntity
8
0
100
AcDbLine
10
10.700519674907536
20
26.48358999752768
30
-1.2325951644078309e-31
11
9.7041827379568524
21
27.377362838027558
31
0
0
LINE
5
376
100
AcDbEntity
8
0
100
AcDbLine
10
9.7041827379568524
20
27.377362838027558
30
0
11
13.162057989726879
21
27.377362838027551
31
0
0
LINE
5
377
100
AcDbEntity
8
0
100
AcDbLine
10
13.162057989726879
20
27.377362838027551
30
0
11
12.165721052776187
21
26.403003921744901
31
0
0
LINE
5
378
100
AcDbEntity
8
0
100
AcDbLine
10
12.165721052776187
20
26.403003921744901
30
0
11
12.165721052776185
21
21.61179482006796
31
0
0
LINE
5
379
100
AcDbEntity
8
0
100
AcDbLine
10
12.165721052776185
20
21.61179482006796
30
0
11
12.180374258647767
21
20.483589759109098
31
0
0
SPLINE
5
380
100
AcDbEntity
8
0
100
AcDbSpline
70
0
71
3
72
9
73
5
74
0
42
0.000000001
43
0.0000000001
44
0.0000000001
40
0
40
0
40
0
40
0
40
0.094003379331240047
40
0.16442164201378334
40
0.16442164201378334
40
0.16442164201378334
40
0.16442164201378334
10
12.180374258647767
20
20.483589759109098
30
0
10
12.185713774303547
20
20.162016904855491
30
0
10
12.195053139951099
20
19.599552692402813
30
0
10
12.502788877683006
20
19.133668014899385
30
0
10
12.63458549369415
20
18.934139600036225
30
0
0
SPLINE
5
381
100
AcDbEntity
8
0
100
AcDbSpline
70
0
71
3
72
9
73
5
74
0
42
0.000000001
43
0.0000000001
44
0.0000000001
40
0
40
0
40
0
40
0
40
0.069992732789076278
40
0.16282516997925556
40
0.16282516997925556
40
0.16282516997925556
40
0.16282516997925556
10
12.63458549369415
20
18.934139600036225
30
0
10
12.831815746526935
20
18.801251195543561
30
0
10
13.290635514849519
20
18.49211085786029
30
0
10
13.847965462792352
20
18.48201810807711
30
0
10
14.165719145427552
20
18.47626387142904
30
0
0
SPLINE
5
382
100
AcDbEntity
8
0
100
AcDbSpline
70
0
71
3
72
9
73
5
74
0
42
0.000000001
43
0.0000000001
44
0.0000000001
40
0
40
0
40
0
40
0
40
0.10168317009570454
40
0.18364147629847954
40
0.18364147629847954
40
0.18364147629847954
40
0.18364147629847954
10
14.165719145427552
20
18.47626387142904
30
0
10
14.519772578533953
20
18.490554955098329
30
0
10
15.159198897392912
20
18.51636488707096
30
0
10
15.601862041256831
20
18.969847857055154
30
0
10
15.799420469890444
20
19.172235121963098
30
0
0
SPLINE
5
383
100
AcDbEntity
8
0
100
AcDbSpline
70
0
71
3
72
9
73
5
74
0
42
0.000000001
43
0.0000000001
44
0.0000000001
40
0
40
0
40
0
40
0
40
0.092643007950487813
40
0.2460193739026949
40
0.2460193739026949
40
0.2460193739026949
40
0.2460193739026949
10
15.799420469890444
20
19.172235121963098
30
0
10
15.902659732374962
20
19.465307373835071
30
0
10
16.176818131163042
20
20.243579296442853
30
0
10
16.165468649871222
20
21.072833645427956
30
0
10
16.158393019328923
20
21.589817395446378
30
0
0
LINE
5
384
100
AcDbEntity
8
0
100
AcDbLine
10
16.158393019328919
20
21.589817395446374
30
0
11
16.18769943107209
21
26.329743852851468
31
0
0
SPLINE
5
385
100
AcDbEntity
8
0
100
AcDbSpline
70
0
71
3
72
9
73
5
74
0
42
0.000000001
43
0.0000000001
44
0.0000000001
40
0
40
0
40
0
40
0
40
0.13657449280917905
40
0.22194765179481482
40
0.22194765179481482
40
0.22194765179481482
40
0.22194765179481482
10
22.385495298992012
20
21.523882737395844
30
0
10
21.940711433469868
20
21.6248447846835
30
0
10
21.217891729158129
20
21.78891853560858
30
0
10
20.526791628460135
20
22.05516842002892
30
0
10
20.260956877361149
20
22.15758263134726
30
0
0
SPLINE
5
386
100
AcDbEntity
8
0
100
AcDbSpline
70
0
71
3
72
9
73
5
74
0
42
0.000000001
43
0.0000000001
44
0.0000000001
40
0
40
0
40
0
40
0
40
0.053538829309439345
40
0.09998358170851912
40
0.09998358170851912
40
0.09998358170851912
40
0.09998358170851912
10
20.260956877361149
20
22.15758263134726
30
0
10
20.10016113322294
20
22.248601090299506
30
0
10
19.799875627734874
20
22.418577752938834
30
0
10
19.674502365686607
20
22.738096944697897
30
0
10
19.616263502727364
20
22.886521210906587
30
0
0
LINE
5
387
100
AcDbEntity
8
0
100
AcDbLine
10
19.616263502727364
20
22.886521210906587
30
0
11
19.865353697429512
21
22.747326483962617
31
0
0
SPLINE
5
388
100
AcDbEntity
8
0
100
AcDbSpline
70
0
71
3
72
9
73
5
74
0
42
0.000000001
43
0.0000000001
44
0.0000000001
40
0
40
0
40
0
40
0
40
0.061767139853463673
40
0.16109884295378318
40
0.16109884295378318
40
0.16109884295378318
40
0.16109884295378318
10
19.865353697429512
20
22.747326483962617
30
0
10
20.016450962736073
20
22.602987138175386
30
0
10
20.410537440952723
20
22.226526423721161
30
0
10
20.947924517123351
20
22.104572934647656
30
0
10
21.279271238933415
20
22.029377808806977
30
0
0
LINE
5
389
100
AcDbEntity
8
0
100
AcDbLine
10
21.279271238933415
20
22.029377808806984
30
0
11
22.458756559978337
21
21.736337533233247
31
0
0
SPLINE
5
390
100
AcDbEntity
8
0
100
AcDbSpline
70
0
71
3
72
9
73
5
74
0
42
0.000000001
43
0.0000000001
44
0.0000000001
40
0
40
0
40
0
40
0
40
0.10391586990506571
40
0.1684162553854518
40
0.1684162553854518
40
0.1684162553854518
40
0.1684162553854518
10
22.45875655997834
20
21.736337533233247
30
0
10
22.795951022250879
20
21.653808601506018
30
0
10
23.342441454602895
20
21.520054116698638
30
0
10
23.860921041418596
20
21.302986664931002
30
0
10
24.059489363323067
20
21.219853749511323
30
0
0
SPLINE
5
391
100
AcDbEntity
8
0
100
AcDbSpline
70
0
71
3
72
9
73
5
74
0
42
0.000000001
43
0.0000000001
44
0.0000000001
40
0
40
0
40
0
40
0
40
0.043663119305934292
40
0.088203979989156273
40
0.088203979989156273
40
0.088203979989156273
40
0.088203979989156273
10
24.059489363323067
20
21.219853749511323
30
0
10
24.183236033047443
20
21.137788441308562
30
0
10
24.433216999904491
20
20.972008100426326
30
0
10
24.562150893155469
20
20.701019215040976
30
0
10
24.627259367595528
20
20.564176430938325
30
0
0
LINE
5
392
100
AcDbEntity
8
0
100
AcDbLine
10
24.627259367595524
20
20.564176430938325
30
0
11
24.5759707628592
21
20.534872403380952
31
0
0
SPLINE
5
393
100
AcDbEntity
8
0
100
AcDbSpline
70
0
71
3
72
9
73
5
74
0
42
0.000000001
43
0.0000000001
44
0.0000000001
40
0
40
0
40
0
40
0
40
0.047603819414026083
40
0.09109229900642854
40
0.09109229900642854
40
0.09109229900642854
40
0.09109229900642854
10
24.5759707628592
20
20.534872403380952
30
0
10
24.466950257969543
20
20.651824113448271
30
0
10
24.258334047096483
20
20.875617083716257
30
0
10
23.989860188173854
20
21.02184032202382
30
0
10
23.861687773357247
20
21.09164892697104
30
0
0
SPLINE
5
394
100
AcDbEntity
8
0
100
AcDbSpline
70
0
71
3
72
9
73
5
74
0
42
0.000000001
43
0.0000000001
44
0.0000000001
40
0
40
0
40
0
40
0
40
0.059458020547628533
40
0.15394321059163271
40
0.15394321059163271
40
0.15394321059163271
40
0.15394321059163271
10
23.861687773357247
20
21.09164892697104
30
0
10
23.67549170713643
20
21.160016848807221
30
0
10
23.19341006416272
20
21.337028752197241
30
0
10
22.692770875903495
20
21.452816247989656
30
0
10
22.385495298992012
20
21.523882737395844
30
0
0
SPLINE
5
395
100
AcDbEntity
8
0
100
AcDbSpline
70
0
71
3
72
9
73
5
74
0
42
0.000000001
43
0.0000000001
44
0.0000000001
40
0
40
0
40
0
40
0
40
0.09109704558507109
40
0.16865193586093655
40
0.16865193586093655
40
0.16865193586093655
40
0.16865193586093655
10
-1.7756718457833978
20
22.351722111938077
30
0
10
-1.916425887295923
20
22.621818538970295
30
0
10
-2.1770099866909947
20
23.12185984102949
30
0
10
-2.3336694840764172
20
23.663217774523233
30
0
10
-2.4057096303598131
20
23.91216217541464
30
0
0
LINE
5
396
100
AcDbEntity
8
0
100
AcDbLine
10
-2.4057096303598131
20
23.91216217541464
30
0
11
-2.1786016286508287
21
23.77296744847067
31
0
0
SPLINE
5
397
100
AcDbEntity
8
0
100
AcDbSpline
70
0
71
3
72
9
73
5
74
0
42
0.000000001
43
0.0000000001
44
0.0000000001
40
0
40
0
40
0
40
0
40
0.083135883092341503
40
0.1984648071053704
40
0.1984648071053704
40
0.1984648071053704
40
0.1984648071053704
10
-2.1786016286508287
20
23.77296744847067
30
0
10
-2.0912557315499098
20
23.509393685483175
30
0
10
-1.8827406358441869
20
22.880181435806968
30
0
10
-1.5601823487826016
20
22.30037289004602
30
0
10
-1.3727420629159661
20
21.963443150756436
30
0
0
SPLINE
5
398
100
AcDbEntity
8
0
100
AcDbSpline
70
0
71
3
72
9
73
5
74
0
42
0.000000001
43
0.0000000001
44
0.0000000001
40
0
40
0
40
0
40
0
40
0.012744434097867527
40
0.018448656855682859
40
0.018448656855682859
40
0.018448656855682859
40
0.018448656855682859
10
-1.3727420629159661
20
21.963443150756436
30
0
10
-1.4148116180435346
20
21.969422471264856
30
0
10
-1.4757108922411779
20
21.978078048393108
30
0
10
-1.5369561392457667
20
21.983687390031825
30
0
10
-1.5558928311959954
20
21.985421767470914
30
0
0
LINE
5
399
100
AcDbEntity
8
0
100
AcDbLine
10
-1.5558928311959954
20
21.985421767470914
30
0
11
-2.149299985279248
21
22.036703219649869
31
0
0
SPLINE
5
400
100
AcDbEntity
8
0
100
AcDbSpline
70
0
71
3
72
9
73
5
74
0
42
0.000000001
43
0.0000000001
44
0.0000000001
40
0
40
0
40
0
40
0
40
0.034906901103125824
40
0.058733938810788852
40
0.058733938810788852
40
0.058733938810788852
40
0.058733938810788852
10
-2.1492999852792485
20
22.036703219649869
30
0
10
-2.2652136850896318
20
22.047253265194911
30
0
10
-2.4602487050096835
20
22.065004647010884
30
0
10
-2.6559776902129553
20
22.070930048183879
30
0
10
-2.7353805364267099
20
22.073333850143033
30
0
0
SPLINE
5
401
100
AcDbEntity
8
0
100
AcDbSpline
70
0
71
3
72
9
73
5
74
0
42
0.000000001
43
0.0000000001
44
0.0000000001
40
0
40
0
40
0
40
0
40
0.0051311748903308287
40
0.014670885728124418
40
0.014670885728124418
40
0.014670885728124418
40
0.014670885728124418
10
-2.7353805364267099
20
22.073333850143033
30
0
10
-2.7524766212176117
20
22.07278906925346
30
0
10
-2.8013571820494572
20
22.071231449731883
30
0
10
-2.8501626457376168
20
22.068065741772109
30
0
10
-2.8818982900277841
20
22.066007247207242
30
0
0
LINE
5
402
100
AcDbEntity
8
0
100
AcDbLine
10
-2.8818982900277841
20
22.066007247207242
30
0
11
-1.6584557355539085
21
18.820586791274625
31
0
0
LINE
5
403
100
AcDbEntity
8
0
100
AcDbLine
10
-1.6584557355539085
20
18.820586791274625
30
0
11
-0.024756795276807964
21
17.377362838027555
31
-3.0814879110195774e-32
0
LINE
5
404
100
AcDbEntity
8
0
100
AcDbLine
10
-0.024756795276807964
20
17.377362838027555
30
-3.0814879110195774e-32
11
-4.2665141881601123
21
17.377362838027555
31
-3.6977854932234928e-31
0
LINE
5
405
100
AcDbEntity
8
0
100
AcDbLine
10
-4.2665141881601123
20
17.377362838027555
30
-3.6977854932234928e-31
11
-4.4057077230111874
21
17.57516562008627
31
-1.9259299443872359e-33
0
LINE
5
406
100
AcDbEntity
8
0
100
AcDbLine
10
-4.4057077230111874
20
17.57516562008627
30
-1.9259299443872359e-33
11
-0.5155986608163593
21
17.57516562008627
31
3.0814879110195774e-31
0
LINE
5
407
100
AcDbEntity
8
0
100
AcDbLine
10
-0.5155986608163593
20
17.57516562008627
30
3.0814879110195774e-31
11
-1.8342799008981463
21
18.740000119445405
31
0
0
LINE
5
408
100
AcDbEntity
8
0
100
AcDbLine
10
-1.8342799008981463
20
18.740000119445405
30
0
11
-3.1383103192941419
21
22.190549960372522
31
0
0
SPLINE
5
409
100
AcDbEntity
8
0
100
AcDbSpline
70
0
71
3
72
9
73
5
74
0
42
0.000000001
43
0.0000000001
44
0.0000000001
40
0
40
0
40
0
40
0
40
0.027193451511449931
40
0.057641005817217456
40
0.057641005817217456
40
0.057641005817217456
40
0.057641005817217456
10
-3.1383103192941415
20
22.190549960372525
30
0
10
-3.0495018643866518
20
22.209763547749226
30
0
10
-2.8612576959777454
20
22.250489915319143
30
0
10
-2.6686311793893838
20
22.254411786701418
30
0
10
-2.5668805898324711
20
22.256483426330167
30
0
0
SPLINE
5
410
100
AcDbEntity
8
0
100
AcDbSpline
70
0
71
3
72
9
73
5
74
0
42
0.000000001
43
0.0000000001
44
0.0000000001
40
0
40
0
40
0
40
0
40
0.041790584124323342
40
0.088208748736186976
40
0.088208748736186976
40
0.088208748736186976
40
0.088208748736186976
10
-2.5668805898324711
20
22.256483426330167
30
0
10
-2.4275249584220751
20
22.253202374166953
30
0
10
-2.1333824827035373
20
22.246276950368262
30
0
10
-1.8414065209429946
20
22.209764131823206
30
0
10
-1.6877597631112786
20
22.190549960372525
30
0
0
LINE
5
411
100
AcDbEntity
8
0
100
AcDbLine
10
-1.6877597631112788
20
22.190549960372525
30
0
11
-1.7756718457833978
21
22.351722111938077
31
0
0
LINE
5
412
100
AcDbEntity
8
0
100
AcDbLine
10
-11.870910531391313
20
26.769304266212064
30
0
11
-11.797650462497881
21
26.901172390220243
31
0
0
LINE
5
413
100
AcDbEntity
8
0
100
AcDbLine
10
-11.797650462497881
20
26.901172390220243
30
0
11
-11.629152900089434
21
26.798608293769437
31
0
0
LINE
5
414
100
AcDbEntity
8
0
100
AcDbLine
10
-11.629152900089434
20
26.798608293769437
30
0
11
-11.709738379825762
21
26.659414162871915
31
-3.8518598887744717e-33
0
SPLINE
5
415
100
AcDbEntity
8
0
100
AcDbSpline
70
0
71
3
72
9
73
5
74
0
42
0.000000001
43
0.0000000001
44
0.0000000001
40
0
40
0
40
0
40
0
40
0.14869994195142763
40
0.27929527531965209
40
0.27929527531965209
40
0.27929527531965209
40
0.27929527531965209
10
-11.709738379825762
20
26.659414162871915
30
0
10
-11.956507072400061
20
26.229154321021213
30
0
10
-12.419999720940059
20
25.421019903403632
30
0
10
-12.804619629724582
20
24.572606841029277
30
0
10
-12.984463578571493
20
24.175898423430997
30
0
0
LINE
5
416
100
AcDbEntity
8
0
100
AcDbLine
10
-12.984463578571495
20
24.175898423430997
30
0
11
-13.182266360630209
21
24.271135916946012
31
0
0
LINE
5
417
100
AcDbEntity
8
0
100
AcDbLine
10
-13.182266360630209
20
24.271135916946012
30
0
11
-13.101679688800985
21
24.454285493133145
31
0
0
SPLINE
5
418
100
AcDbEntity
8
0
100
AcDbSpline
70
0
71
3
72
9
73
5
74
0
42
0.000000001
43
0.0000000001
44
0.0000000001
40
0
40
0
40
0
40
0
40
0.078306095997371442
40
0.14286233505233831
40
0.14286233505233831
40
0.14286233505233831
40
0.14286233505233831
10
-13.101679688800985
20
24.454285493133145
30
0
10
-12.988734080816108
20
24.68964574278397
30
0
10
-12.782675113310349
20
25.119039066705355
30
0
10
-12.558355852966702
20
25.539165645125781
30
0
10
-12.456991082538774
20
25.729011287925321
30
0
0
LINE
5
419
100
AcDbEntity
8
0
100
AcDbLine
10
-12.456991082538774
20
25.729011287925321
30
0
11
-11.870910531391313
21
26.769304266212064
31
0
0
SPLINE
5
420
100
AcDbEntity
8
0
100
AcDbSpline
70
0
71
3
72
9
73
5
74
0
42
0.000000001
43
0.0000000001
44
0.0000000001
40
0
40
0
40
0
40
0
40
0.069352233845138778
40
0.14704468902274276
40
0.14704468902274276
40
0.14704468902274276
40
0.14704468902274276
10
-15.5851966203348
20
26.600806107757169
30
0
10
-15.350363905933367
20
26.569447118920479
30
0
10
-14.852457760060231
20
26.502957944658895
30
0
10
-14.483457558735838
20
26.159542387029351
30
0
10
-14.288492804874593
20
25.978095522162992
30
0
0
LINE
5
421
100
AcDbEntity
8
0
100
AcDbLine
10
-14.28849280487459
20
25.978095522162995
30
0
11
-14.288492804874593
21
25.882857432601529
31
0
0
SPLINE
5
422
100
AcDbEntity
8
0
100
AcDbSpline
70
0
71
3
72
9
73
5
74
0
42
0.000000001
43
0.0000000001
44
0.0000000001
40
0
40
0
40
0
40
0
40
0.076239122896635036
40
0.13885541544490757
40
0.13885541544490757
40
0.13885541544490757
40
0.13885541544490757
10
-14.288492804874593
20
25.882857432601529
30
0
10
-14.495783406027014
20
26.038364625701824
30
0
10
-14.873324771237479
20
26.321592122060736
30
0
10
-15.338705575308166
20
26.387799833607303
30
0
10
-15.548567181934532
20
26.417655935523587
30
0
0
SPLINE
5
423
100
AcDbEntity
8
0
100
AcDbSpline
70
0
71
3
72
9
73
5
74
0
42
0.000000001
43
0.0000000001
44
0.0000000001
40
0
40
0
40
0
40
0
40
0.16863388758292064
40
0.44417633343692298
40
0.44417633343692298
40
0.44417633343692298
40
0.44417633343692298
10
-15.548567181934532
20
26.417655935523587
30
0
10
-16.09460271286472
20
26.163930875793913
30
0
10
-17.532843054300212
20
25.495627082605399
30
0
10
-17.479249098224265
20
23.831155374133004
30
0
10
-17.446002370227994
20
22.798609128234464
30
0
0
SPLINE
5
424
100
AcDbEntity
8
0
100
AcDbSpline
70
0
71
3
72
9
73
5
74
0
42
0.000000001
43
0.0000000001
44
0.0000000001
40
0
40
0
40
0
40
0
40
0.15140660513038415
40
0.27908772850763053
40
0.27908772850763053
40
0.27908772850763053
40
0.27908772850763053
10
-17.446002370227994
20
22.798609128234464
30
0
10
-17.434783512405073
20
22.290970562922627
30
0
10
-17.41410379672455
20
21.355240619214094
30
0
10
-17.134403381223773
20
20.463147169169716
30
0
10
-17.006441956867398
20
20.055019250152188
30
0
0
SPLINE
5
425
100
AcDbEntity
8
0
100
AcDbSpline
70
0
71
3
72
9
73
5
74
0
42
0.000000001
43
0.0000000001
44
0.0000000001
40
0
40
0
40
0
40
0
40
0.10458467415868927
40
0.19223145357477373
40
0.19223145357477373
40
0.19223145357477373
40
0.19223145357477373
10
-17.006441956867398
20
20.055019250152188
30
0
10
-16.858703129546274
20
19.728339972555265
30
0
10
-16.587152352591321
20
19.127888396926419
30
0
10
-16.024763859941622
20
18.791026284633482
30
0
10
-15.768346196521939
20
18.637436022994592
30
0
0
LINE
5
426
100
AcDbEntity
8
0
100
AcDbLine
10
-15.768346196521936
20
18.637436022994592
30
0
11
-15.768346196521939
21
18.56417595410116
31
0
0
SPLINE
5
427
100
AcDbEntity
8
0
100
AcDbSpline
70
0
71
3
72
9
73
5
74
0
42
0.000000001
43
0.0000000001
44
0.0000000001
40
0
40
0
40
0
40
0
40
0.088382233116349004
40
0.19751916593294619
40
0.19751916593294619
40
0.19751916593294619
40
0.19751916593294619
10
-15.768346196521939
20
18.56417595410116
30
0
10
-16.049038745249067
20
18.680713500955324
30
0
10
-16.676338556006161
20
18.941154974800003
30
0
10
-16.980975287342069
20
19.554789332594783
30
0
10
-17.149298793186368
20
19.893845906493745
30
0
0
SPLINE
5
428
100
AcDbEntity
8
0
100
AcDbSpline
70
0
71
3
72
9
73
5
74
0
42
0.000000001
43
0.0000000001
44
0.0000000001
40
0
40
0
40
0
40
0
40
0.13629807624175452
40
0.29807787402898123
40
0.29807787402898123
40
0.29807787402898123
40
0.29807787402898123
10
-17.149298793186368
20
19.893845906493745
30
0
10
-17.299650412130053
20
20.325486344969732
30
0
10
-17.6284627634655
20
21.26946492334417
30
0
10
-17.652653314872961
20
22.270146585652569
30
0
10
-17.665782576908292
20
22.813259949920255
30
0
0
SPLINE
5
429
100
AcDbEntity
8
0
100
AcDbSpline
70
0
71
3
72
9
73
5
74
0
42
0.000000001
43
0.0000000001
44
0.0000000001
40
0
40
0
40
0
40
0
40
0.28878885119950742
40
0.47131456418083523
40
0.47131456418083523
40
0.47131456418083523
40
0.47131456418083523
10
-17.665782576908292
20
22.813259949920255
30
0
10
-17.691410087831901
20
23.897246288659364
30
0
10
-17.733235175925955
20
25.66635387954711
30
0
10
-16.184841950494565
20
26.339944907922074
30
0
10
-15.5851966203348
20
26.600806107757169
30
0
0
LWPOLYLINE
5
430
100
AcDbEntity
8
0
100
AcDbPolyline
90
10
70
1
43
0.0
10
-21.599848872532071
20
26.285787811515412
10
-20.772009497989835
20
27.106300583121858
10
-20.647467976917447
20
26.959780445334992
10
-21.39472067963046
20
26.219853749511323
10
-21.394720679630463
20
18.754652133224091
10
-20.163951522220799
20
17.377362838027555
10
-23.973475104679302
20
17.377362838027555
10
-24.156625276912884
20
17.57516562008627
10
-20.596185332645604
20
17.57516562008627
10
-21.599848872532075
20
18.681392064330659
0
ENDSEC
0
SECTION
2
OBJECTS
0
DICTIONARY
5
C
100
AcDbDictionary
3
ACAD_GROUP
350
D
3
ACAD_MLINESTYLE
350
17
0
DICTIONARY
5
D
100
AcDbDictionary
0
DICTIONARY
5
1A
330
C
100
AcDbDictionary
0
DICTIONARY
5
17
100
AcDbDictionary
0
ENDSEC
0
EOF
