0
SECTION
2
HEADER
9
$INSUNITS
70
4
9
$ACADVER
1
AC1014
9
$HANDSEED
5
FFFF
0
ENDSEC
0
SECTION
2
TABLES
0
TABLE
2
VPORT
5
8
100
AcDbSymbolTable
0
ENDTAB
0
TABLE
2
LTYPE
5
5
100
AcDbSymbolTable
0
LTYPE
5
14
100
AcDbSymbolTableRecord
100
AcDbLinetypeTableRecord
2
BYBLOCK
70
0
0
LTYPE
5
15
100
AcDbSymbolTableRecord
100
AcDbLinetypeTableRecord
2
BYLAYER
70
0
0
ENDTAB
0
TABLE
2
LAYER
5
2
100
AcDbSymbolTable
70
2
0
LAYER
5
50
100
AcDbSymbolTableRecord
100
AcDbLayerTableRecord
2
0
70
0
6
CONTINUOUS
0
ENDTAB
0
TABLE
2
STYLE
5
3
100
AcDbSymbolTable
70
1
0
STYLE
5
11
100
AcDbSymbolTableRecord
100
AcDbTextStyleTableRecord
2
STANDARD
70
0
0
ENDTAB
0
TABLE
2
VIEW
5
6
100
AcDbSymbolTable
70
0
0
ENDTAB
0
TABLE
2
UCS
5
7
100
AcDbSymbolTable
70
0
0
ENDTAB
0
TABLE
2
APPID
5
9
100
AcDbSymbolTable
70
2
0
APPID
5
12
100
AcDbSymbolTableRecord
100
AcDbRegAppTableRecord
2
ACAD
70
0
0
ENDTAB
0
TABLE
2
DIMSTYLE
5
A
100
AcDbSymbolTable
70
1
0
ENDTAB
0
TABLE
2
BLOCK_RECORD
5
1
100
AcDbSymbolTable
70
1
0
BLOCK_RECORD
5
1F
100
AcDbSymbolTableRecord
100
AcDbBlockTableRecord
2
*MODEL_SPACE
0
BLOCK_RECORD
5
1B
100
AcDbSymbolTableRecord
100
AcDbBlockTableRecord
2
*PAPER_SPACE
0
ENDTAB
0
ENDSEC
0
SECTION
2
BLOCKS
0
BLOCK
5
20
100
AcDbEntity
100
AcDbBlockBegin
2
*MODEL_SPACE
0
ENDBLK
5
21
100
AcDbEntity
100
AcDbBlockEnd
0
BLOCK
5
1C
100
AcDbEntity
100
AcDbBlockBegin
2
*PAPER_SPACE
0
ENDBLK
5
1D
100
AcDbEntity
100
AcDbBlockEnd
0
ENDSEC
0
SECTION
2
ENTITIES
0
LWPOLYLINE
5
100
100
AcDbEntity
8
0
100
AcDbPolyline
90
36
70
1
43
0.0
10
57.549999999999983
20
43.003549282874907
10
59.999999999999993
20
43.003549282874907
10
59.999999999999986
20
63
10
54.499999999999993
20
63
10
54.499999999999993
20
65.450000000000003
10
34.499999999999993
20
65.450000000000003
10
34.499999999999993
20
63
10
10
20
63
10
9.9999999999999822
20
65.450000000000003
10
-9.9999999999999822
20
65.450000000000003
10
-10
20
63
10
-34.499999999999993
20
63
10
-34.499999999999993
20
65.450000000000003
10
-54.499999999999993
20
65.450000000000003
10
-54.499999999999993
20
63
10
-59.999999999999972
20
63
10
-59.999999999999986
20
43.07700808465448
10
-57.549999999999997
20
43.07700808465448
10
-57.549999999999997
20
23.077008084646408
10
-59.999999999999993
20
23.077008084646408
10
-60
20
2.9999999999999982
10
-54.499999999999993
20
2.9999999999999982
10
-54.499999999999993
20
0.54999999999999716
10
-34.499999999999993
20
0.54999999999999716
10
-34.499999999999993
20
2.9999999999999982
10
-10
20
2.9999999999999982
10
-9.9999999999999822
20
0.54999999999999716
10
9.9999999999999822
20
0.54999999999999716
10
10
20
2.9999999999999982
10
34.499999999999986
20
2.9999999999999982
10
34.499999999999993
20
0.54999999999999716
10
54.499999999999993
20
0.54999999999999716
10
54.499999999999986
20
2.9999999999999982
10
60
20
2.9999999999999982
10
59.999999999999993
20
22.966592259127204
10
57.54999999999999
20
22.966592259127204
0
LWPOLYLINE
5
101
100
AcDbEntity
8
0
100
AcDbPolyline
90
10
70
1
43
0.0
10
-40.945053584873676
20
37.035166501998908
10
-39.454944021999836
20
38.512089729309089
10
-39.230768568813801
20
38.248353481292732
10
-40.575823076069355
20
36.916485309600837
10
-40.575823076069355
20
23.479123592376716
10
-38.360438235104084
20
21.00000190734864
10
-45.217581279575825
20
21.00000190734864
10
-45.547251589596272
20
21.356046676635749
10
-39.138460047543049
20
21.356046676635749
10
-40.945053584873676
20
23.347254276275642
0
SPLINE
5
102
100
AcDbEntity
8
0
100
AcDbSpline
70
0
71
3
72
9
73
5
74
0
42
0.000000001
43
0.0000000001
44
0.0000000001
40
0
40
0
40
0
40
0
40
0.12483405133246782
40
0.26468032539226027
40
0.26468032539226027
40
0.26468032539226027
40
0.26468032539226027
10
-30.118679888546467
20
37.60219860076905
30
0
10
-29.695980761261836
20
37.545752824553475
30
0
10
-28.799749794161727
20
37.426073247897207
30
0
10
-28.135550324340922
20
36.807924627694021
30
0
10
-27.784614451229572
20
36.481320142745979
30
0
0
LINE
5
103
100
AcDbEntity
8
0
100
AcDbLine
10
-27.784614451229572
20
36.481320142745972
30
0
11
-27.784614451229572
21
36.309891223907478
31
0
0
SPLINE
5
104
100
AcDbEntity
8
0
100
AcDbSpline
70
0
71
3
72
9
73
5
74
0
42
0.000000001
43
0.0000000001
44
0.0000000001
40
0
40
0
40
0
40
0
40
0.13723037293060431
40
0.24993946914268395
40
0.24993946914268395
40
0.24993946914268395
40
0.24993946914268395
10
-27.784614451229572
20
36.309891223907478
30
0
10
-28.157737275355778
20
36.589804244076724
30
0
10
-28.837310744374051
20
37.099613480714183
30
0
10
-29.674995156393805
20
37.218787769354108
30
0
10
-30.05274523049593
20
37.272528886795051
30
0
0
SPLINE
5
105
100
AcDbEntity
8
0
100
AcDbSpline
70
0
71
3
72
9
73
5
74
0
42
0.000000001
43
0.0000000001
44
0.0000000001
40
0
40
0
40
0
40
0
40
0.30354126733724751
40
0.79951762700714069
40
0.79951762700714069
40
0.79951762700714069
40
0.79951762700714069
10
-30.05274523049593
20
37.272528886795051
30
0
10
-31.035609979200984
20
36.815823193619103
30
0
10
-33.624443116938913
20
35.612875550776877
30
0
10
-33.52797449431138
20
32.616825959051695
30
0
10
-33.468130715191364
20
30.758243083953865
30
0
0
SPLINE
5
106
100
AcDbEntity
8
0
100
AcDbSpline
70
0
71
3
72
9
73
5
74
0
42
0.000000001
43
0.0000000001
44
0.0000000001
40
0
40
0
40
0
40
0
40
0.27253191647451397
40
0.50235790320826634
40
0.50235790320826634
40
0.50235790320826634
40
0.50235790320826634
10
-33.468130715191364
20
30.758243083953865
30
0
10
-33.447936539377963
20
29.844493599311228
30
0
10
-33.410712628322443
20
28.160179772509828
30
0
10
-32.907252307768232
20
26.554411489757722
30
0
10
-32.676921971142292
20
25.819781303405769
30
0
0
SPLINE
5
107
100
AcDbEntity
8
0
100
AcDbSpline
70
0
71
3
72
9
73
5
74
0
42
0.000000001
43
0.0000000001
44
0.0000000001
40
0
40
0
40
0
40
0
40
0.1882522100686046
40
0.34601630787043808
40
0.34601630787043808
40
0.34601630787043808
40
0.34601630787043808
10
-32.676921971142292
20
25.819781303405769
30
0
10
-32.410990997850313
20
25.231760218445967
30
0
10
-31.922197514398782
20
24.150950146183785
30
0
10
-30.909901294448403
20
23.544596198225214
30
0
10
-30.448350794613361
20
23.268132686614997
30
0
0
LINE
5
108
100
AcDbEntity
8
0
100
AcDbLine
10
-30.448350794613361
20
23.268132686614997
30
0
11
-30.448350794613361
21
23.136265754699714
31
0
0
SPLINE
5
109
100
AcDbEntity
8
0
100
AcDbSpline
70
0
71
3
72
9
73
5
74
0
42
0.000000001
43
0.0000000001
44
0.0000000001
40
0
40
0
40
0
40
0
40
0.15908782914788927
40
0.35553437413527345
40
0.35553437413527345
40
0.35553437413527345
40
0.35553437413527345
10
-30.448350794613361
20
23.136265754699714
30
0
10
-30.95359660002665
20
23.346033331984835
30
0
10
-32.082735467369538
20
23.814828366170708
30
0
10
-32.631082003254257
20
24.919369392427193
30
0
10
-32.934064753353596
20
25.529671192169197
30
0
0
SPLINE
5
110
100
AcDbEntity
8
0
100
AcDbSpline
70
0
71
3
72
9
73
5
74
0
42
0.000000001
43
0.0000000001
44
0.0000000001
40
0
40
0
40
0
40
0
40
0.2453363594272874
40
0.53654019318221091
40
0.53654019318221091
40
0.53654019318221091
40
0.53654019318221091
10
-32.934064753353596
20
25.529671192169197
30
0
10
-33.204697012197627
20
26.306623540155453
30
0
10
-33.796558262525458
20
28.005785310775391
30
0
10
-33.840101997452969
20
29.807012277680979
30
0
10
-33.8637350872159
20
30.784616947174079
30
0
0
SPLINE
5
111
100
AcDbEntity
8
0
100
AcDbSpline
70
0
71
3
72
9
73
5
74
0
42
0.000000001
43
0.0000000001
44
0.0000000001
40
0
40
0
40
0
40
0
40
0.51981965503001226
40
0.84836603298965085
40
0.84836603298965085
40
0.84836603298965085
40
0.84836603298965085
10
-33.8637350872159
20
30.784616947174079
30
0
10
-33.90986405506721
20
32.73579102756009
30
0
10
-33.985148336997
20
35.920183534137664
30
0
10
-31.198041608599212
20
37.132647976037731
30
0
10
-30.118679888546467
20
37.60219860076905
30
0
0
LINE
5
112
100
AcDbEntity
8
0
100
AcDbLine
10
-23.43296755105257
20
37.90549564361573
30
0
11
-23.301098234951496
21
38.142858028411872
31
0
0
LINE
5
113
100
AcDbEntity
8
0
100
AcDbLine
10
-23.301098234951496
20
38.142858028411872
30
0
11
-22.997801192104816
21
37.958243370056159
31
0
0
LINE
5
114
100
AcDbEntity
8
0
100
AcDbLine
10
-22.997801192104816
20
37.958243370056159
30
0
11
-23.142855055630207
21
37.707694053649909
31
0
0
SPLINE
5
115
100
AcDbEntity
8
0
100
AcDbSpline
70
0
71
3
72
9
73
5
74
0
42
0.000000001
43
0.0000000001
44
0.0000000001
40
0
40
0
40
0
40
0
40
0.2676600408715632
40
0.50273166373801947
40
0.50273166373801947
40
0.50273166373801947
40
0.50273166373801947
10
-23.142855055630207
20
37.707694053649909
30
0
10
-23.587039613732721
20
36.933226282501252
30
0
10
-24.421327919056431
20
35.47858452935337
30
0
10
-25.113643275435727
20
33.951440154435346
30
0
10
-25.43736208230257
20
33.237364768981941
30
0
0
LINE
5
116
100
AcDbEntity
8
0
100
AcDbLine
10
-25.43736208230257
20
33.237364768981941
30
0
11
-25.79340685158968
21
33.408792495727546
31
0
0
LINE
5
117
100
AcDbEntity
8
0
100
AcDbLine
10
-25.79340685158968
20
33.408792495727546
30
0
11
-25.648350603878498
21
33.738463401794441
31
0
0
SPLINE
5
118
100
AcDbEntity
8
0
100
AcDbSpline
70
0
71
3
72
9
73
5
74
0
42
0.000000001
43
0.0000000001
44
0.0000000001
40
0
40
0
40
0
40
0
40
0.14095091948511981
40
0.25715197824680314
40
0.25715197824680314
40
0.25715197824680314
40
0.25715197824680314
10
-25.648350603878498
20
33.738463401794441
30
0
10
-25.445048546076574
20
34.162111669648986
30
0
10
-25.074142655314144
20
34.935018938062569
30
0
10
-24.67036869845289
20
35.691246306508916
30
0
10
-24.487912543118
20
36.032968044281013
30
0
0
LINE
5
119
100
AcDbEntity
8
0
100
AcDbLine
10
-24.487912543118
20
36.032968044281013
30
0
11
-23.43296755105257
21
37.90549564361573
31
0
0
SPLINE
5
120
100
AcDbEntity
8
0
100
AcDbSpline
70
0
71
3
72
9
73
5
74
0
42
0.000000001
43
0.0000000001
44
0.0000000001
40
0
40
0
40
0
40
0
40
0.16397498135248639
40
0.30357348374872828
40
0.30357348374872828
40
0.30357348374872828
40
0.30357348374872828
10
-5.2615426853299141
20
29.953847408294685
30
0
10
-5.5149004690230541
20
30.440021868637142
30
0
10
-5.9839519328268587
20
31.340096217897493
30
0
10
-6.2659378321381354
20
32.314540869260007
30
0
10
-6.3956092670559883
20
32.762639999389656
30
0
0
LINE
5
121
100
AcDbEntity
8
0
100
AcDbLine
10
-6.3956092670559883
20
32.762639999389656
30
0
11
-5.9868167713284492
21
32.512090682983406
31
0
0
SPLINE
5
122
100
AcDbEntity
8
0
100
AcDbSpline
70
0
71
3
72
9
73
5
74
0
42
0.000000001
43
0.0000000001
44
0.0000000001
40
0
40
0
40
0
40
0
40
0.14964459434535779
40
0.35723661175523885
40
0.35723661175523885
40
0.35723661175523885
40
0.35723661175523885
10
-5.9868167713284492
20
32.512090682983406
30
0
10
-5.8295920559483783
20
32.03765867717793
30
0
10
-5.454259924157947
20
30.905078626400808
30
0
10
-4.8736588470020692
20
29.861421604688442
30
0
10
-4.5362685993313789
20
29.254947185516365
30
0
0
SPLINE
5
123
100
AcDbEntity
8
0
100
AcDbSpline
70
0
71
3
72
9
73
5
74
0
42
0.000000001
43
0.0000000001
44
0.0000000001
40
0
40
0
40
0
40
0
40
0.022939738792740624
40
0.033207052688325203
40
0.033207052688325203
40
0.033207052688325203
40
0.033207052688325203
10
-4.5362685993313789
20
29.254947185516365
30
0
10
-4.6119930077446369
20
29.265709770377914
30
0
10
-4.7216099673225287
20
29.281289447452224
30
0
10
-4.8318496466642902
20
29.291386167721662
30
0
10
-4.8659347370266914
20
29.294507980346687
30
0
0
LINE
5
124
100
AcDbEntity
8
0
100
AcDbLine
10
-4.8659347370266914
20
29.294507980346687
30
0
11
-5.9340690448880196
21
29.386814117431648
31
0
0
SPLINE
5
125
100
AcDbEntity
8
0
100
AcDbSpline
70
0
71
3
72
9
73
5
74
0
42
0.000000001
43
0.0000000001
44
0.0000000001
40
0
40
0
40
0
40
0
40
0.06283222433670542
40
0.10572108463712643
40
0.10572108463712643
40
0.10572108463712643
40
0.10572108463712643
10
-5.9340690448880196
20
29.386814117431648
30
0
10
-6.1427130781718375
20
29.405803728357643
30
0
10
-6.4937761470777744
20
29.437755521965563
30
0
10
-6.8460882813232971
20
29.448421719471266
30
0
10
-6.9890140369534492
20
29.452748775482185
30
0
0
SPLINE
5
126
100
AcDbEntity
8
0
100
AcDbSpline
70
0
71
3
72
9
73
5
74
0
42
0.000000001
43
0.0000000001
44
0.0000000001
40
0
40
0
40
0
40
0
40
0.0092365011350323267
40
0.02640777649184874
40
0.02640777649184874
40
0.02640777649184874
40
0.02640777649184874
10
-6.9890140369534492
20
29.452748775482185
30
0
10
-7.0197882547740775
20
29.451767555677385
30
0
10
-7.1077738083985231
20
29.448962182418015
30
0
10
-7.1956243527866715
20
29.443265820777775
30
0
10
-7.2527479007840157
20
29.439561843872077
30
0
0
LINE
5
127
100
AcDbEntity
8
0
100
AcDbLine
10
-7.2527479007840148
20
29.439561843872077
30
0
11
-5.0505517795681953
21
23.597803592681892
31
0
0
LINE
5
128
100
AcDbEntity
8
0
100
AcDbLine
10
-5.0505517795681953
20
23.597803592681892
30
0
11
-2.1098922565579414
21
21.00000190734864
31
0
0
LINE
5
129
100
AcDbEntity
8
0
100
AcDbLine
10
-2.1098922565579414
20
21.00000190734864
30
0
11
-9.7450565174221992
21
21.00000190734864
31
0
0
LINE
5
130
100
AcDbEntity
8
0
100
AcDbLine
10
-9.7450565174221992
20
21.00000190734864
30
0
11
-9.9956058338284492
21
21.356046676635749
31
0
0
LINE
5
131
100
AcDbEntity
8
0
100
AcDbLine
10
-9.9956058338284492
20
21.356046676635749
30
0
11
-2.9934095218777657
21
21.356046676635749
31
0
0
LINE
5
132
100
AcDbEntity
8
0
100
AcDbLine
10
-2.9934095218777657
20
21.356046676635749
30
0
11
-5.3670333698391914
21
23.452749729156501
31
0
0
LINE
5
133
100
AcDbEntity
8
0
100
AcDbLine
10
-5.3670333698391914
20
23.452749729156501
30
0
11
-7.7142881229519844
21
29.663737297058113
31
0
0
SPLINE
5
134
100
AcDbEntity
8
0
100
AcDbSpline
70
0
71
3
72
9
73
5
74
0
42
0.000000001
43
0.0000000001
44
0.0000000001
40
0
40
0
40
0
40
0
40
0.048948072856658149
40
0.10375362041168781
40
0.10375362041168781
40
0.10375362041168781
40
0.10375362041168781
10
-7.7142881229519844
20
29.663737297058113
30
0
10
-7.5544335811737184
20
29.698322867240492
30
0
10
-7.2155951656692796
20
29.771632763034191
30
0
10
-6.8688679509536055
20
29.778691212339631
30
0
10
-6.6857169941067696
20
29.782419681549079
30
0
0
SPLINE
5
135
100
AcDbEntity
8
0
100
AcDbSpline
70
0
71
3
72
9
73
5
74
0
42
0.000000001
43
0.0000000001
44
0.0000000001
40
0
40
0
40
0
40
0
40
0.075223335422559767
40
0.15877577518875846
40
0.15877577518875846
40
0.15877577518875846
40
0.15877577518875846
10
-6.6857169941067696
20
29.782419681549079
30
0
10
-6.4348758778484072
20
29.776514228366715
30
0
10
-5.905419260970044
20
29.76404944065683
30
0
10
-5.3798626892274992
20
29.698323960181131
30
0
10
-5.103299506008625
20
29.663737297058113
30
0
0
LINE
5
136
100
AcDbEntity
8
0
100
AcDbLine
10
-5.1032995060086241
20
29.663737297058113
30
0
11
-5.2615426853299141
21
29.953847408294685
31
0
0
SPLINE
5
137
100
AcDbEntity
8
0
100
AcDbSpline
70
0
71
3
72
9
73
5
74
0
42
0.000000001
43
0.0000000001
44
0.0000000001
40
0
40
0
40
0
40
0
40
0.24583451296238806
40
0.39950648428485946
40
0.39950648428485946
40
0.39950648428485946
40
0.39950648428485946
10
38.228566758334637
20
28.463738441467292
30
0
10
37.427954162483061
20
28.645469436522394
30
0
10
36.126875971351389
20
28.94080108074585
30
0
10
34.882893456030075
20
29.420051472035269
30
0
10
34.404389970004559
20
29.604397296905525
30
0
0
SPLINE
5
138
100
AcDbEntity
8
0
100
AcDbSpline
70
0
71
3
72
9
73
5
74
0
42
0.000000001
43
0.0000000001
44
0.0000000001
40
0
40
0
40
0
40
0
40
0.096369373748527346
40
0.17996981716920124
40
0.17996981716920124
40
0.17996981716920124
40
0.17996981716920124
10
34.404389970004559
20
29.604397296905525
30
0
10
34.11495874716568
20
29.768229297122829
30
0
10
33.574445903393375
20
30.074185577408645
30
0
10
33.348777906363139
20
30.649319778877917
30
0
10
33.24394952505827
20
30.916483879089363
30
0
0
LINE
5
139
100
AcDbEntity
8
0
100
AcDbLine
10
33.24394952505827
20
30.916483879089363
30
0
11
33.69230043143034
21
30.665934562683113
31
0
0
SPLINE
5
140
100
AcDbEntity
8
0
100
AcDbSpline
70
0
71
3
72
9
73
5
74
0
42
0.000000001
43
0.0000000001
44
0.0000000001
40
0
40
0
40
0
40
0
40
0.11118153832795168
40
0.28997861938251884
40
0.28997861938251884
40
0.28997861938251884
40
0.28997861938251884
10
33.69230043143034
20
30.665934562683113
30
0
10
33.964278840675576
20
30.406124099444341
30
0
10
34.673640527884473
20
29.72849829426
30
0
10
35.640938236799812
20
29.508979590564866
30
0
10
36.237361542880535
20
29.37362718582154
30
0
0
LINE
5
141
100
AcDbEntity
8
0
100
AcDbLine
10
36.237361542880535
20
29.37362718582154
30
0
11
38.360431306064129
21
28.846154689788825
31
0
0
SPLINE
5
142
100
AcDbEntity
8
0
100
AcDbSpline
70
0
71
3
72
9
73
5
74
0
42
0.000000001
43
0.0000000001
44
0.0000000001
40
0
40
0
40
0
40
0
40
0.18704830521457455
40
0.30314908675001628
40
0.30314908675001628
40
0.30314908675001628
40
0.30314908675001628
10
38.360431306064129
20
28.846154689788825
30
0
10
38.967380885266252
20
28.697604087957671
30
0
10
39.951063738887136
20
28.456848208188454
30
0
10
40.88432554636347
20
28.06612463087205
30
0
10
41.241748444736004
20
27.916484355926521
30
0
0
SPLINE
5
143
100
AcDbEntity
8
0
100
AcDbSpline
70
0
71
3
72
9
73
5
74
0
42
0.000000001
43
0.0000000001
44
0.0000000001
40
0
40
0
40
0
40
0
40
0.078593928026654034
40
0.15876730407359713
40
0.15876730407359713
40
0.15876730407359713
40
0.15876730407359713
10
41.241748444736004
20
27.916484355926521
30
0
10
41.464494197911876
20
27.768767112630911
30
0
10
41.914462072193253
20
27.470364054378443
30
0
10
42.146540737780981
20
26.982582005462628
30
0
10
42.263734452426434
20
26.736264705657966
30
0
0
LINE
5
144
100
AcDbEntity
8
0
100
AcDbLine
10
42.263734452426426
20
26.736264705657966
30
0
11
42.171428315341473
21
26.683519363403327
31
0
0
SPLINE
5
145
100
AcDbEntity
8
0
100
AcDbSpline
70
0
71
3
72
9
73
5
74
0
42
0.000000001
43
0.0000000001
44
0.0000000001
40
0
40
0
40
0
40
0
40
0.085687392300590845
40
0.16396649290624737
40
0.16396649290624737
40
0.16396649290624737
40
0.16396649290624737
10
42.171428315341473
20
26.683519363403327
30
0
10
41.97518857159308
20
26.894031973989769
30
0
10
41.599675422139661
20
27.29685686506955
30
0
10
41.116422546677356
20
27.56006071040818
30
0
10
40.885713212192059
20
27.685716629028327
30
0
0
SPLINE
5
146
100
AcDbEntity
8
0
100
AcDbSpline
70
0
71
3
72
9
73
5
74
0
42
0.000000001
43
0.0000000001
44
0.0000000001
40
0
40
0
40
0
40
0
40
0.10702392392783201
40
0.27709779923695543
40
0.27709779923695543
40
0.27709779923695543
40
0.27709779923695543
10
40.885713212192059
20
27.685716629028327
30
0
10
40.550561845562463
20
27.80877812380341
30
0
10
39.682814684965528
20
28.127399121067342
30
0
10
38.781664359593577
20
28.335817701189359
30
0
10
38.228566758334637
20
28.463738441467292
30
0
0
LINE
5
147
100
AcDbEntity
8
0
100
AcDbLine
10
27.07252275198698
20
37.114286899566657
30
0
11
25.015380494296551
21
39.000001430511482
31
0
0
LINE
5
148
100
AcDbEntity
8
0
100
AcDbLine
10
25.015380494296551
20
39.000001430511482
30
0
11
30.632970444858074
21
39.000001430511482
31
0
0
LINE
5
149
100
AcDbEntity
8
0
100
AcDbLine
10
30.632970444858074
20
39.000001430511482
30
0
11
28.272526375949383
21
37.114286899566657
31
0
0
LINE
5
150
100
AcDbEntity
8
0
100
AcDbLine
10
28.272526375949383
20
37.114286899566657
30
0
11
28.272526375949383
21
28.595607757568366
31
0
0
SPLINE
5
151
100
AcDbEntity
8
0
100
AcDbSpline
70
0
71
3
72
9
73
5
74
0
42
0.000000001
43
0.0000000001
44
0.0000000001
40
0
40
0
40
0
40
0
40
0.20179400387225654
40
0.33809356810075952
40
0.33809356810075952
40
0.33809356810075952
40
0.33809356810075952
10
28.272526375949383
20
28.595607757568366
30
0
10
28.272867659395153
20
27.922415145866609
30
0
10
28.273439459030918
20
26.794521909487816
30
0
10
28.164710867263622
20
25.672225989497118
30
0
10
28.120877854526043
20
25.219781875610359
30
0
0
SPLINE
5
152
100
AcDbEntity
8
0
100
AcDbSpline
70
0
71
3
72
9
73
5
74
0
42
0.000000001
43
0.0000000001
44
0.0000000001
40
0
40
0
40
0
40
0
40
0.096311544426500181
40
0.1802746857551365
40
0.1802746857551365
40
0.1802746857551365
40
0.1802746857551365
10
28.120877854526043
20
25.219781875610359
30
0
10
28.063709845296216
20
24.901098004204314
30
0
10
27.956703515364332
20
24.30458971316763
30
0
10
27.659361187880602
20
23.777405558406439
30
0
10
27.520873658359051
20
23.531868934631355
30
0
0
SPLINE
5
153
100
AcDbEntity
8
0
100
AcDbSpline
70
0
71
3
72
9
73
5
74
0
42
0.000000001
43
0.0000000001
44
0.0000000001
40
0
40
0
40
0
40
0
40
0.20940969205020563
40
0.48627069211815577
40
0.48627069211815577
40
0.48627069211815577
40
0.48627069211815577
10
27.520873658359051
20
23.531868934631355
30
0
10
26.993648079695571
20
23.041938140772853
30
0
10
25.769376440073408
20
21.904268800413682
30
0
10
24.078940683418075
20
21.865838748001977
30
0
10
23.11648141592741
20
21.843958377838142
30
0
0
SPLINE
5
154
100
AcDbEntity
8
0
100
AcDbSpline
70
0
71
3
72
9
73
5
74
0
42
0.000000001
43
0.0000000001
44
0.0000000001
40
0
40
0
40
0
40
0
40
0.29642542518789938
40
0.52409658477346133
40
0.52409658477346133
40
0.52409658477346133
40
0.52409658477346133
10
23.11648141592741
20
21.843958377838142
30
0
10
22.094126865560533
20
21.86902514654733
30
0
10
20.286547343880699
20
21.913344583260503
30
0
10
18.894724691107143
20
23.041702498708709
30
0
10
18.290107361972332
20
23.531868934631355
30
0
0
SPLINE
5
155
100
AcDbEntity
8
0
100
AcDbSpline
70
0
71
3
72
9
73
5
74
0
42
0.000000001
43
0.0000000001
44
0.0000000001
40
0
40
0
40
0
40
0
40
0.21081425240673424
40
0.52815011819831126
40
0.52815011819831126
40
0.52815011819831126
40
0.52815011819831126
10
18.290107361972332
20
23.531868934631355
30
0
10
17.973963628775181
20
24.16857471032495
30
0
10
17.181932975489083
20
25.763705147907142
30
0
10
17.190472835205838
20
27.557422023164612
30
0
10
17.195603959262371
20
28.635166168212898
30
0
0
LINE
5
156
100
AcDbEntity
8
0
100
AcDbLine
10
17.195603959262371
20
28.635166168212898
30
0
11
17.195603959262371
21
37.391210079193122
31
0
0
LINE
5
157
100
AcDbEntity
8
0
100
AcDbLine
10
17.195603959262371
20
37.391210079193122
30
0
11
15.402195565402508
21
39.000001430511482
31
0
0
LINE
5
158
100
AcDbEntity
8
0
100
AcDbLine
10
15.402195565402508
20
39.000001430511482
30
0
11
21.626370064914227
21
39.000001430511482
31
0
0
LINE
5
159
100
AcDbEntity
8
0
100
AcDbLine
10
21.626370064914227
20
39.000001430511482
30
0
11
19.832966439425945
21
37.246155023574836
31
0
0
LINE
5
160
100
AcDbEntity
8
0
100
AcDbLine
10
19.832966439425945
20
37.246155023574836
30
0
11
19.832966439425945
21
28.62197923660279
31
0
0
LINE
5
161
100
AcDbEntity
8
0
100
AcDbLine
10
19.832966439425945
20
28.62197923660279
30
0
11
19.85934030264616
21
26.591210842132575
31
0
0
SPLINE
5
162
100
AcDbEntity
8
0
100
AcDbSpline
70
0
71
3
72
9
73
5
74
0
42
0.000000001
43
0.0000000001
44
0.0000000001
40
0
40
0
40
0
40
0
40
0.16920608467796885
40
0.29595923431872906
40
0.29595923431872906
40
0.29595923431872906
40
0.29595923431872906
10
19.85934030264616
20
26.591210842132575
30
0
10
19.868948474318753
20
26.012379108933636
30
0
10
19.885754176884561
20
24.999941542737503
30
0
10
20.439683978111709
20
24.161350740708198
30
0
10
20.676920525729656
20
23.802199840545661
30
0
0
SPLINE
5
163
100
AcDbEntity
8
0
100
AcDbSpline
70
0
71
3
72
9
73
5
74
0
42
0.000000001
43
0.0000000001
44
0.0000000001
40
0
40
0
40
0
40
0
40
0.1259860049206937
40
0.29308563393780435
40
0.29308563393780435
40
0.29308563393780435
40
0.29308563393780435
10
20.676920525729656
20
23.802199840545661
30
0
10
21.031931469934388
20
23.563000878151207
30
0
10
21.857805801790562
20
23.006543995700049
30
0
10
22.86100165565432
20
22.988379097280461
30
0
10
23.432963006198406
20
22.978022575378425
30
0
0
SPLINE
5
164
100
AcDbEntity
8
0
100
AcDbSpline
70
0
71
3
72
9
73
5
74
0
42
0.000000001
43
0.0000000001
44
0.0000000001
40
0
40
0
40
0
40
0
40
0.18302922004917888
40
0.33055442455452722
40
0.33055442455452722
40
0.33055442455452722
40
0.33055442455452722
10
23.432963006198406
20
22.978022575378425
30
0
10
24.070257436752076
20
23.003746552997278
30
0
10
25.221223898319636
20
23.050204570010994
30
0
10
26.018016823883158
20
23.866473685487804
30
0
10
26.37362252920866
20
24.230771541595466
30
0
0
SPLINE
5
165
100
AcDbEntity
8
0
100
AcDbSpline
70
0
71
3
72
9
73
5
74
0
42
0.000000001
43
0.0000000001
44
0.0000000001
40
0
40
0
40
0
40
0
40
0.16675730665752003
40
0.44283458316269364
40
0.44283458316269364
40
0.44283458316269364
40
0.44283458316269364
10
26.37362252920866
20
24.230771541595466
30
0
10
26.559449818316772
20
24.75830215598366
30
0
10
27.05292594696072
20
26.15919309390177
30
0
10
27.032505676702996
20
27.651848935369394
30
0
10
27.019775025546551
20
28.582418441772468
30
0
0
LINE
5
166
100
AcDbEntity
8
0
100
AcDbLine
10
27.019775025546551
20
28.582418441772468
30
0
11
27.07252275198698
21
37.114286899566657
31
0
0
LINE
5
167
100
AcDbEntity
8
0
100
AcDbLine
10
20.505492798984051
20
37.114286899566657
30
0
11
21.995599381625652
21
38.564836263656623
31
0
0
LINE
5
168
100
AcDbEntity
8
0
100
AcDbLine
10
21.995599381625652
20
38.564836263656623
30
0
11
22.180216424167156
21
38.287913084030158
31
0
0
LINE
5
169
100
AcDbEntity
8
0
100
AcDbLine
10
22.180216424167156
20
38.287913084030158
30
0
11
20.887911431491375
21
36.982418775558479
31
0
0
LINE
5
170
100
AcDbEntity
8
0
100
AcDbLine
10
20.887911431491375
20
36.982418775558479
30
0
11
20.887911431491375
21
27.184617996215827
31
0
0
LINE
5
171
100
AcDbEntity
8
0
100
AcDbLine
10
20.887911431491375
20
27.184617996215827
30
0
11
20.874722115695477
21
26.274726867675788
31
0
0
LINE
5
172
100
AcDbEntity
8
0
100
AcDbLine
10
20.874722115695477
20
26.274726867675788
30
0
11
21.283514611423016
21
24.600000858306892
31
0
0
SPLINE
5
173
100
AcDbEntity
8
0
100
AcDbSpline
70
0
71
3
72
9
73
5
74
0
42
0.000000001
43
0.0000000001
44
0.0000000001
40
0
40
0
40
0
40
0
40
0.070639327825940151
40
0.16744400962771869
40
0.16744400962771869
40
0.16744400962771869
40
0.16744400962771869
10
21.283514611423016
20
24.600000858306892
30
0
10
21.424131385462335
20
24.410273452706718
30
0
10
21.75745047541854
20
23.960542141442843
30
0
10
22.184103894707707
20
23.596993846957524
30
0
10
22.430765740573406
20
23.386815071105964
30
0
0
LINE
5
174
100
AcDbEntity
8
0
100
AcDbLine
10
22.430765740573403
20
23.386815071105961
30
0
11
22.457139603793621
21
23.268132686614997
31
0
0
SPLINE
5
175
100
AcDbEntity
8
0
100
AcDbSpline
70
0
71
3
72
9
73
5
74
0
42
0.000000001
43
0.0000000001
44
0.0000000001
40
0
40
0
40
0
40
0
40
0.10861394914063702
40
0.20463850818491494
40
0.20463850818491494
40
0.20463850818491494
40
0.20463850818491494
10
22.457139603793621
20
23.268132686614997
30
0
10
22.121603944676966
20
23.424813562888978
30
0
10
21.489424401738475
20
23.720014511160326
30
0
10
21.106944625274544
20
24.301005301897433
30
0
10
20.927469842135906
20
24.573629379272468
30
0
0
SPLINE
5
176
100
AcDbEntity
8
0
100
AcDbSpline
70
0
71
3
72
9
73
5
74
0
42
0.000000001
43
0.0000000001
44
0.0000000001
40
0
40
0
40
0
40
0
40
0.11361739710067846
40
0.26990794386728034
40
0.26990794386728034
40
0.26990794386728034
40
0.26990794386728034
10
20.927469842135906
20
24.573629379272468
30
0
10
20.805152740804445
20
24.934391672761336
30
0
10
20.514577897843324
20
25.791413672430465
30
0
10
20.508824380628159
20
26.698770343554472
30
0
10
20.505492798984051
20
27.224176406860359
30
0
0
LINE
5
177
100
AcDbEntity
8
0
100
AcDbLine
10
20.505492798984054
20
27.224176406860359
30
0
11
20.505492798984051
21
37.114286899566657
31
0
0
LINE
5
178
100
AcDbEntity
8
0
100
AcDbLine
10
44.690101258456707
20
38.367034673690803
30
0
11
44.756038300693035
21
38.472528934478767
31
0
0
LINE
5
179
100
AcDbEntity
8
0
100
AcDbLine
10
44.756038300693035
20
38.472528934478767
30
0
11
45.098893754184246
21
38.301100015640266
31
0
0
LINE
5
180
100
AcDbEntity
8
0
100
AcDbLine
10
45.098893754184246
20
38.301100015640266
30
0
11
44.980218522250652
21
38.103298425674446
31
0
0
SPLINE
5
181
100
AcDbEntity
8
0
100
AcDbSpline
70
0
71
3
72
9
73
5
74
0
42
0.000000001
43
0.0000000001
44
0.0000000001
40
0
40
0
40
0
40
0
40
0.10214680383987652
40
0.19709425328006019
40
0.19709425328006019
40
0.19709425328006019
40
0.19709425328006019
10
44.980218522250652
20
38.103298425674446
30
0
10
44.809115528622883
20
37.808748281918
30
0
10
44.478968960200532
20
37.240408025983854
30
0
10
44.194282074799659
20
36.648015778906313
30
0
10
44.057138077914715
20
36.362638950347907
30
0
0
SPLINE
5
182
100
AcDbEntity
8
0
100
AcDbSpline
70
0
71
3
72
9
73
5
74
0
42
0.000000001
43
0.0000000001
44
0.0000000001
40
0
40
0
40
0
40
0
40
0.16736258161518386
40
0.24004929840177791
40
0.24004929840177791
40
0.24004929840177791
40
0.24004929840177791
10
44.057138077914715
20
36.362638950347907
30
0
10
43.818141485869191
20
35.858537119897171
30
0
10
43.475347035118794
20
35.135500407897908
30
0
10
43.122288282072816
20
34.417431787538668
30
0
10
43.015382401645184
20
34.200001239776618
30
0
0
LINE
5
183
100
AcDbEntity
8
0
100
AcDbLine
10
43.015382401645184
20
34.200001239776618
30
0
11
42.949445359408855
21
34.107692718505866
31
0
0
LINE
5
184
100
AcDbEntity
8
0
100
AcDbLine
10
42.949445359408855
20
34.107692718505866
30
0
11
42.632959000766277
21
34.239562034606941
31
0
0
LINE
5
185
100
AcDbEntity
8
0
100
AcDbLine
10
42.632959000766277
20
34.239562034606941
30
0
11
42.685706727206707
21
34.358242034912116
31
0
0
SPLINE
5
186
100
AcDbEntity
8
0
100
AcDbSpline
70
0
71
3
72
9
73
5
74
0
42
0.000000001
43
0.0000000001
44
0.0000000001
40
0
40
0
40
0
40
0
40
0.11061437924905662
40
0.25244603392604659
40
0.25244603392604659
40
0.25244603392604659
40
0.25244603392604659
10
42.685706727206707
20
34.358242034912116
30
0
10
42.839515159788313
20
34.693395548388054
30
0
10
43.190539403229344
20
35.458288646444309
30
0
10
43.576535443929991
20
36.206184928273821
30
0
10
43.793399445712566
20
36.626375198364265
30
0
0
LINE
5
187
100
AcDbEntity
8
0
100
AcDbLine
10
43.793399445712566
20
36.626375198364265
30
0
11
44.690101258456707
21
38.367034673690803
31
0
0
SPLINE
5
188
100
AcDbEntity
8
0
100
AcDbSpline
70
0
71
3
72
9
73
5
74
0
42
0.000000001
43
0.0000000001
44
0.0000000001
40
0
40
0
40
0
40
0
40
0.1925508737313732
40
0.38841475517506918
40
0.38841475517506918
40
0.38841475517506918
40
0.38841475517506918
10
45.705487839877605
20
26.828573226928718
30
0
10
45.644147350833144
20
27.482336430748372
30
0
10
45.520410955496104
20
28.801111411267737
30
0
10
44.696691174444553
20
29.83917740092831
30
0
10
44.281318299472332
20
30.362637519836433
30
0
0
LINE
5
189
100
AcDbEntity
8
0
100
AcDbLine
10
44.281318299472325
20
30.362637519836429
30
0
11
44.281318299472332
21
30.441759109497077
31
0
0
SPLINE
5
190
100
AcDbEntity
8
0
100
AcDbSpline
70
0
71
3
72
9
73
5
74
0
42
0.000000001
43
0.0000000001
44
0.0000000001
40
0
40
0
40
0
40
0
40
0.20969922339576427
40
0.4253993457967582
40
0.4253993457967582
40
0.4253993457967582
40
0.4253993457967582
10
44.281318299472332
20
30.441759109497077
30
0
10
44.804365030947096
20
29.94184195746303
30
0
10
45.86542636339928
20
28.927701676044329
30
0
10
46.004303712988488
20
27.464831073025969
30
0
10
46.074721924960613
20
26.723077774047859
30
0
0
SPLINE
5
191
100
AcDbEntity
8
0
100
AcDbSpline
70
0
71
3
72
9
73
5
74
0
42
0.000000001
43
0.0000000001
44
0.0000000001
40
0
40
0
40
0
40
0
40
0.23764466050819869
40
0.48067886484734601
40
0.48067886484734601
40
0.48067886484734601
40
0.48067886484734601
10
46.074721924960613
20
26.723077774047859
30
0
10
45.98981805604577
20
25.912476985878847
30
0
10
45.818084783167414
20
24.272891792303653
30
0
10
44.692285961211851
20
23.066901089030559
30
0
10
44.123075120151043
20
22.457144737243659
30
0
0
SPLINE
5
192
100
AcDbEntity
8
0
100
AcDbSpline
70
0
71
3
72
9
73
5
74
0
42
0.000000001
43
0.0000000001
44
0.0000000001
40
0
40
0
40
0
40
0
40
0.25286859290319802
40
0.51499574520211189
40
0.51499574520211189
40
0.51499574520211189
40
0.51499574520211189
10
44.123075120151043
20
22.457144737243659
30
0
10
43.429258021702708
20
21.947575819724861
30
0
10
42.01622032672033
20
20.909780570435505
30
0
10
40.266437858335813
20
20.77731520540603
30
0
10
39.375817887485027
20
20.709891796112068
30
0
0
SPLINE
5
193
100
AcDbEntity
8
0
100
AcDbSpline
70
0
71
3
72
9
73
5
74
0
42
0.000000001
43
0.0000000001
44
0.0000000001
40
0
40
0
40
0
40
0
40
0.13568820328880066
40
0.25926753866399666
40
0.25926753866399666
40
0.25926753866399666
40
0.25926753866399666
10
39.375817887485027
20
20.709891796112068
30
0
10
38.922490713862047
20
20.719555232363376
30
0
10
38.056291459498169
20
20.738019736065148
30
0
10
37.208490332581107
20
20.915436550275746
30
0
10
36.804387681186199
20
21.00000190734864
30
0
0
LINE
5
194
100
AcDbEntity
8
0
100
AcDbLine
10
36.804387681186199
20
21.00000190734864
30
0
11
34.69449769705534
21
21.514287471771247
31
0
0
SPLINE
5
195
100
AcDbEntity
8
0
100
AcDbSpline
70
0
71
3
72
9
73
5
74
0
42
0.000000001
43
0.0000000001
44
0.0000000001
40
0
40
0
40
0
40
0
40
0.077725997310200357
40
0.15961466099379501
40
0.15961466099379501
40
0.15961466099379501
40
0.15961466099379501
10
34.69449769705534
20
21.514287471771247
30
0
10
34.440463851009198
20
21.568123509080248
30
0
10
33.918791210955703
20
21.678678807715151
30
0
10
33.385621979542641
20
21.692044829716053
30
0
10
33.112084977328777
20
21.69890213012696
30
0
0
SPLINE
5
196
100
AcDbEntity
8
0
100
AcDbSpline
70
0
71
3
72
9
73
5
74
0
42
0.000000001
43
0.0000000001
44
0.0000000001
40
0
40
0
40
0
40
0
40
0.07259498597640246
40
0.14265479311448115
40
0.14265479311448115
40
0.14265479311448115
40
0.14265479311448115
10
33.112084977328777
20
21.69890213012696
30
0
10
32.868426288104864
20
21.687187470433056
30
0
10
32.389618014581956
20
21.664167253092103
30
0
10
31.945551648158119
20
21.484058881796596
30
0
10
31.727464310824871
20
21.395605087280281
30
0
0
LINE
5
197
100
AcDbEntity
8
0
100
AcDbLine
10
31.727464310824871
20
21.395605087280281
30
0
11
31.569230668246746
21
21.778023719787605
31
0
0
SPLINE
5
198
100
AcDbEntity
8
0
100
AcDbSpline
70
0
71
3
72
9
73
5
74
0
42
0.000000001
43
0.0000000001
44
0.0000000001
40
0
40
0
40
0
40
0
40
0.073187054814601096
40
0.14417835882502958
40
0.14417835882502958
40
0.14417835882502958
40
0.14417835882502958
10
31.569230668246746
20
21.778023719787605
30
0
10
31.797039652396961
20
21.870325033005464
30
0
10
32.245822918011093
20
22.052158444540563
30
0
10
32.72908162962608
20
22.080535332059505
30
0
10
32.967031113803387
20
22.094507694244392
30
0
0
SPLINE
5
199
100
AcDbEntity
8
0
100
AcDbSpline
70
0
71
3
72
9
73
5
74
0
42
0.000000001
43
0.0000000001
44
0.0000000001
40
0
40
0
40
0
40
0
40
0.084932928613173544
40
0.18250462320291755
40
0.18250462320291755
40
0.18250462320291755
40
0.18250462320291755
10
32.967031113803387
20
22.094507694244392
30
0
10
33.250393822289709
20
22.082144407296695
30
0
10
33.859286099837163
20
22.055578067682831
30
0
10
34.455091219378303
20
21.926274397675549
30
0
10
34.773624055087566
20
21.857145309448249
30
0
0
LINE
5
200
100
AcDbEntity
8
0
100
AcDbLine
10
34.773624055087559
20
21.857145309448249
30
0
11
36.804387681186199
21
21.369233608245857
31
0
0
SPLINE
5
201
100
AcDbEntity
8
0
100
AcDbSpline
70
0
71
3
72
9
73
5
74
0
42
0.000000001
43
0.0000000001
44
0.0000000001
40
0
40
0
40
0
40
0
40
0.12650094633103226
40
0.25790966363955364
40
0.25790966363955364
40
0.25790966363955364
40
0.25790966363955364
10
36.804387681186199
20
21.369233608245857
30
0
10
37.218389700119729
20
21.284626455519238
30
0
10
38.062455492084851
20
21.112129704039457
30
0
10
38.92377419175002
20
21.090264258764464
30
0
10
39.362628571689129
20
21.079123497009284
30
0
0
SPLINE
5
202
100
AcDbEntity
8
0
100
AcDbSpline
70
0
71
3
72
9
73
5
74
0
42
0.000000001
43
0.0000000001
44
0.0000000001
40
0
40
0
40
0
40
0
40
0.24771276859957078
40
0.48829828618688997
40
0.48829828618688997
40
0.48829828618688997
40
0.48829828618688997
10
39.362628571689129
20
21.079123497009284
30
0
10
40.204400208134068
20
21.144996230376762
30
0
10
41.863723826212208
20
21.274846391075499
30
0
10
43.196222100735341
20
22.270085520641626
30
0
10
43.852746598422527
20
22.760441780090339
30
0
0
SPLINE
5
203
100
AcDbEntity
8
0
100
AcDbSpline
70
0
71
3
72
9
73
5
74
0
42
0.000000001
43
0.0000000001
44
0.0000000001
40
0
40
0
40
0
40
0
40
0.23198928737154112
40
0.45783377984709489
40
0.45783377984709489
40
0.45783377984709489
40
0.45783377984709489
10
43.852746598422527
20
22.760441780090339
30
0
10
44.393103675939614
20
23.344803813763303
30
0
10
45.459505172619821
20
24.498049645529427
30
0
10
45.624230568886844
20
26.058714161998473
30
0
10
45.705487839877605
20
26.828573226928718
30
0
0
SPLINE
5
204
100
AcDbEntity
8
0
100
AcDbSpline
70
0
71
3
72
9
73
5
74
0
42
0.000000001
43
0.0000000001
44
0.0000000001
40
0
40
0
40
0
40
0
40
0.23085550820471104
40
0.47207061087334301
40
0.47207061087334301
40
0.47207061087334301
40
0.47207061087334301
10
37.50328790396452
20
23.175826549530036
30
0
10
36.764748702614213
20
23.505101050940546
30
0
10
35.254528501906712
20
24.178426180735748
30
0
10
34.779156526770606
20
25.766540935657233
30
0
10
34.536254517734051
20
26.578023910522468
30
0
0
LINE
5
205
100
AcDbEntity
8
0
100
AcDbLine
10
34.536254517734051
20
26.578023910522464
30
0
11
34.89229928702116
21
26.643956184387214
31
0
0
SPLINE
5
206
100
AcDbEntity
8
0
100
AcDbSpline
70
0
71
3
72
9
73
5
74
0
42
0.000000001
43
0.0000000001
44
0.0000000001
40
0
40
0
40
0
40
0
40
0.22169173936449588
40
0.43898048262087369
40
0.43898048262087369
40
0.43898048262087369
40
0.43898048262087369
10
34.89229928702116
20
26.643956184387214
30
0
10
35.119460640851173
20
25.912137700158056
30
0
10
35.569271720970676
20
24.463035300949556
30
0
10
36.862941032178028
20
23.672582084086294
30
0
10
37.50328790396452
20
23.281319618225105
30
0
0
LINE
5
207
100
AcDbEntity
8
0
100
AcDbLine
10
37.50328790396452
20
23.281319618225108
30
0
11
37.50328790396452
21
23.175826549530036
31
0
0
SPLINE
5
208
100
AcDbEntity
8
0
100
AcDbSpline
70
0
71
3
72
9
73
5
74
0
42
0.000000001
43
0.0000000001
44
0.0000000001
40
0
40
0
40
0
40
0
40
0.093682703609506285
40
0.18626087631632404
40
0.18626087631632404
40
0.18626087631632404
40
0.18626087631632404
10
40.094497315585613
20
37.081319570541389
30
0
10
40.35866309092814
20
36.90554086325227
30
0
10
40.883880093771801
20
36.55605590182445
30
0
10
41.188999157466398
20
36.004043075142015
30
0
10
41.340654008090496
20
35.729673385620124
30
0
0
LINE
5
209
100
AcDbEntity
8
0
100
AcDbLine
10
41.340654008090496
20
35.729673385620117
30
0
11
41.248347871005535
21
35.676925659179695
31
0
0
SPLINE
5
210
100
AcDbEntity
8
0
100
AcDbSpline
70
0
71
3
72
9
73
5
74
0
42
0.000000001
43
0.0000000001
44
0.0000000001
40
0
40
0
40
0
40
0
40
0.1897069643285749
40
0.35514533640052848
40
0.35514533640052848
40
0.35514533640052848
40
0.35514533640052848
10
41.248347871005535
20
35.676925659179695
30
0
10
40.777651654978925
20
36.126280303618749
30
0
10
39.896473852282703
20
36.967505120679448
30
0
10
38.69564580119718
20
37.139609351983808
30
0
10
38.136260621249676
20
37.219781160354621
30
0
0
SPLINE
5
211
100
AcDbEntity
8
0
100
AcDbSpline
70
0
71
3
72
9
73
5
74
0
42
0.000000001
43
0.0000000001
44
0.0000000001
40
0
40
0
40
0
40
0
40
0.092788923133985152
40
0.17907213107407094
40
0.17907213107407094
40
0.17907213107407094
40
0.17907213107407094
10
38.136260621249676
20
37.219781160354621
30
0
10
37.820814214004429
20
37.199317126733092
30
0
10
37.21203831191211
20
37.159823855476056
30
0
10
36.714468202758241
20
36.808730953980344
30
0
10
36.474721543490887
20
36.639562129974372
30
0
0
SPLINE
5
212
100
AcDbEntity
8
0
100
AcDbSpline
70
0
71
3
72
9
73
5
74
0
42
0.000000001
43
0.0000000001
44
0.0000000001
40
0
40
0
40
0
40
0
40
0.082417869568091801
40
0.16582118246961758
40
0.16582118246961758
40
0.16582118246961758
40
0.16582118246961758
10
36.474721543490887
20
36.639562129974372
30
0
10
36.28241425658576
20
36.432089671313783
30
0
10
35.89550032785592
20
36.014664074106932
30
0
10
35.842192196840074
20
35.447769480193251
30
0
10
35.815379731357098
20
35.162637710571296
30
0
0
SPLINE
5
213
100
AcDbEntity
8
0
100
AcDbSpline
70
0
71
3
72
9
73
5
74
0
42
0.000000001
43
0.0000000001
44
0.0000000001
40
0
40
0
40
0
40
0
40
0.10435553165056691
40
0.24679219971450064
40
0.24679219971450064
40
0.24679219971450064
40
0.24679219971450064
10
35.815379731357098
20
35.162637710571296
30
0
10
35.898257529472239
20
34.815694687549396
30
0
10
36.094256666085514
20
33.995203138391446
30
0
10
36.761913209472112
20
33.464525158233357
30
0
10
37.147252671420574
20
33.158243179321296
30
0
0
LINE
5
214
100
AcDbEntity
8
0
100
AcDbLine
10
37.147252671420574
20
33.158243179321296
30
0
11
37.25273858755827
21
33.092308521270759
31
0
0
LINE
5
215
100
AcDbEntity
8
0
100
AcDbLine
10
37.25273858755827
20
33.092308521270759
30
0
11
37.186811082065105
21
32.986815452575691
31
0
0
SPLINE
5
216
100
AcDbEntity
8
0
100
AcDbSpline
70
0
71
3
72
9
73
5
74
0
42
0.000000001
43
0.0000000001
44
0.0000000001
40
0
40
0
40
0
40
0
40
0.1616189000274727
40
0.29891720968170116
40
0.29891720968170116
40
0.29891720968170116
40
0.29891720968170116
10
37.186811082065105
20
32.986815452575691
30
0
10
36.680159760182903
20
33.252121337696813
30
0
10
35.743098566270355
20
33.742809585661988
30
0
10
35.53961122041148
20
34.769966681802302
30
0
10
35.44614564627409
20
35.241759300231941
30
0
0
SPLINE
5
217
100
AcDbEntity
8
0
100
AcDbSpline
70
0
71
3
72
9
73
5
74
0
42
0.000000001
43
0.0000000001
44
0.0000000001
40
0
40
0
40
0
40
0
40
0.09510574912305414
40
0.18767798028432225
40
0.18767798028432225
40
0.18767798028432225
40
0.18767798028432225
10
35.44614564627409
20
35.241759300231941
30
0
10
35.475217179182259
20
35.567183188805615
30
0
10
35.532585809683397
20
36.209362012976946
30
0
10
35.969235968716973
20
36.68290838940181
30
0
10
36.184613816440105
20
36.916485309600837
30
0
0
SPLINE
5
218
100
AcDbEntity
8
0
100
AcDbSpline
70
0
71
3
72
9
73
5
74
0
42
0.000000001
43
0.0000000001
44
0.0000000001
40
0
40
0
40
0
40
0
40
0.097891639072370848
40
0.20657129061686913
40
0.20657129061686913
40
0.20657129061686913
40
0.20657129061686913
10
36.184613816440105
20
36.916485309600837
30
0
10
36.458848292595469
20
37.104807377044907
30
0
10
37.037538875446714
20
37.502205284488227
30
0
10
37.740202282470975
20
37.541805071622377
30
0
10
38.109881989657879
20
37.562638998031623
30
0
0
SPLINE
5
219
100
AcDbEntity
8
0
100
AcDbSpline
70
0
71
3
72
9
73
5
74
0
42
0.000000001
43
0.0000000001
44
0.0000000001
40
0
40
0
40
0
40
0
40
0.10699724584817938
40
0.20595924856489073
40
0.20595924856489073
40
0.20595924856489073
40
0.20595924856489073
10
38.109881989657879
20
37.562638998031623
30
0
10
38.470072726871933
20
37.545904287680614
30
0
10
39.163404718630886
20
37.513691604620199
30
0
10
39.792311791546013
20
37.221645645655187
30
0
10
40.094497315585613
20
37.081319570541389
30
0
0
SPLINE
5
220
100
AcDbEntity
8
0
100
AcDbSpline
70
0
71
3
72
9
73
5
74
0
42
0.000000001
43
0.0000000001
44
0.0000000001
40
0
40
0
40
0
40
0
40
0.068505335108100848
40
0.14934750147496834
40
0.14934750147496834
40
0.14934750147496834
40
0.14934750147496834
10
42.725265137851238
20
38.472528934478767
30
0
10
42.954578688552623
20
38.496676404542434
30
0
10
43.454501881360343
20
38.549319958730706
30
0
10
43.896824557232549
20
38.790388728511907
30
0
10
44.136254899203777
20
38.920879840850837
30
0
0
LINE
5
221
100
AcDbEntity
8
0
100
AcDbLine
10
44.13625489920377
20
38.920879840850837
30
0
11
44.281318299472332
21
38.854946374893196
31
0
0
SPLINE
5
222
100
AcDbEntity
8
0
100
AcDbSpline
70
0
71
3
72
9
73
5
74
0
42
0.000000001
43
0.0000000001
44
0.0000000001
40
0
40
0
40
0
40
0
40
0.11265184062612665
40
0.22190604386433033
40
0.22190604386433033
40
0.22190604386433033
40
0.22190604386433033
10
44.281318299472332
20
38.854946374893196
30
0
10
44.065362190057158
20
38.546592785219268
30
0
10
43.639963318433743
20
37.93918570855196
30
0
10
43.336308243051832
20
37.262723463285347
30
0
10
43.186805360019207
20
36.929671049118049
30
0
0
SPLINE
5
223
100
AcDbEntity
8
0
100
AcDbSpline
70
0
71
3
72
9
73
5
74
0
42
0.000000001
43
0.0000000001
44
0.0000000001
40
0
40
0
40
0
40
0
40
0.17302659756595098
40
0.26518374251134863
40
0.26518374251134863
40
0.26518374251134863
40
0.26518374251134863
10
43.186805360019207
20
36.929671049118049
30
0
10
42.972395046064108
20
36.393908080094164
30
0
10
42.643785859456443
20
35.572787909996649
30
0
10
42.254103665937031
20
34.779116455318061
30
0
10
42.118680588901043
20
34.503298282623298
30
0
0
LINE
5
224
100
AcDbEntity
8
0
100
AcDbLine
10
42.118680588901043
20
34.503298282623291
30
0
11
42.052743546664715
21
34.424176692962654
31
0
0
SPLINE
5
225
100
AcDbEntity
8
0
100
AcDbSpline
70
0
71
3
72
9
73
5
74
0
42
0.000000001
43
0.0000000001
44
0.0000000001
40
0
40
0
40
0
40
0
40
0.013660637535936914
40
0.023773699377414803
40
0.023773699377414803
40
0.023773699377414803
40
0.023773699377414803
10
42.052743546664715
20
34.424176692962654
30
0
10
42.037202049879113
20
34.466979282761443
30
0
10
42.010155078499949
20
34.54146891765398
30
0
10
41.984521445235821
20
34.616455913525989
30
0
10
41.973617188632488
20
34.64835453033448
30
0
0
SPLINE
5
226
100
AcDbEntity
8
0
100
AcDbSpline
70
0
71
3
72
9
73
5
74
0
42
0.000000001
43
0.0000000001
44
0.0000000001
40
0
40
0
40
0
40
0
40
0.10602276646995315
40
0.17576145712835772
40
0.17576145712835772
40
0.17576145712835772
40
0.17576145712835772
10
41.973617188632488
20
34.64835453033448
30
0
10
41.869045468130359
20
34.986350190924
30
0
10
41.695689512783929
20
35.546669561812237
30
0
10
41.460386651974076
20
36.083643564945817
30
0
10
41.367023102939129
20
36.29670429229737
30
0
0
SPLINE
5
227
100
AcDbEntity
8
0
100
AcDbSpline
70
0
71
3
72
9
73
5
74
0
42
0.000000001
43
0.0000000001
44
0.0000000001
40
0
40
0
40
0
40
0
40
0.054038468164000965
40
0.11395953166017993
40
0.11395953166017993
40
0.11395953166017993
40
0.11395953166017993
10
41.367023102939129
20
36.29670429229737
30
0
10
41.274280912744707
20
36.452167642351206
30
0
10
41.078700672986272
20
36.780017989786849
30
0
10
40.800974372444955
20
37.042307241314127
30
0
10
40.654943101108074
20
37.180221557617195
30
0
0
SPLINE
5
228
100
AcDbEntity
8
0
100
AcDbSpline
70
0
71
3
72
9
73
5
74
0
42
0.000000001
43
0.0000000001
44
0.0000000001
40
0
40
0
40
0
40
0
40
0.15120673905776313
40
0.29837543943494449
40
0.29837543943494449
40
0.29837543943494449
40
0.29837543943494449
10
40.654943101108074
20
37.180221557617195
30
0
10
40.24474805460148
20
37.491743208290018
30
0
10
39.435312390436508
20
38.106467194748681
30
0
10
38.424055353382265
20
38.201486698574328
30
0
10
37.925269715487957
20
38.248353481292732
30
0
0
SPLINE
5
229
100
AcDbEntity
8
0
100
AcDbSpline
70
0
71
3
72
9
73
5
74
0
42
0.000000001
43
0.0000000001
44
0.0000000001
40
0
40
0
40
0
40
0
40
0.13071163990986256
40
0.25150802874260964
40
0.25150802874260964
40
0.25150802874260964
40
0.25150802874260964
10
37.925269715487957
20
38.248353481292732
30
0
10
37.481437203872794
20
38.221133849238988
30
0
10
36.627439502021701
20
38.168759355233277
30
0
10
35.91851023463407
20
37.692485715550163
30
0
10
35.578019730746746
20
37.463737010955818
30
0
0
SPLINE
5
230
100
AcDbEntity
8
0
100
AcDbSpline
70
0
71
3
72
9
73
5
74
0
42
0.000000001
43
0.0000000001
44
0.0000000001
40
0
40
0
40
0
40
0
40
0.11298678519483411
40
0.22410642406641335
40
0.22410642406641335
40
0.22410642406641335
40
0.22410642406641335
10
35.578019730746746
20
37.463737010955818
30
0
10
35.304947710844772
20
37.187113678958582
30
0
10
34.763316282113607
20
36.638438312716978
30
0
10
34.68204637392644
20
35.872223939486538
30
0
10
34.64174997061491
20
35.492308616638191
30
0
0
SPLINE
5
231
100
AcDbEntity
8
0
100
AcDbSpline
70
0
71
3
72
9
73
5
74
0
42
0.000000001
43
0.0000000001
44
0.0000000001
40
0
40
0
40
0
40
0
40
0.20408537109568003
40
0.4797663458184408
40
0.4797663458184408
40
0.4797663458184408
40
0.4797663458184408
10
34.64174997061491
20
35.492308616638191
30
0
10
34.847576199003626
20
34.800105687855243
30
0
10
35.331434973091582
20
33.17286671465456
30
0
10
37.012215572156165
20
32.72809819829515
30
0
10
37.978017441928387
20
32.472527503967292
30
0
0
LINE
5
232
100
AcDbEntity
8
0
100
AcDbLine
10
37.97801744192838
20
32.472527503967292
30
0
11
40.206592194736004
21
31.931870460510261
31
0
0
SPLINE
5
233
100
AcDbEntity
8
0
100
AcDbSpline
70
0
71
3
72
9
73
5
74
0
42
0.000000001
43
0.0000000001
44
0.0000000001
40
0
40
0
40
0
40
0
40
0.40118498749963949
40
0.74208401156757664
40
0.74208401156757664
40
0.74208401156757664
40
0.74208401156757664
10
40.206592194736004
20
31.931870460510261
30
0
10
41.592203355318844
20
31.495857526655165
30
0
10
44.155210248788492
20
30.689351208791461
30
0
10
44.711486615959913
20
28.098076319384987
30
0
10
44.967029206454754
20
26.907694816589363
30
0
0
SPLINE
5
234
100
AcDbEntity
8
0
100
AcDbSpline
70
0
71
3
72
9
73
5
74
0
42
0.000000001
43
0.0000000001
44
0.0000000001
40
0
40
0
40
0
40
0
40
0.20307939618695983
40
0.40783940259034923
40
0.40783940259034923
40
0.40783940259034923
40
0.40783940259034923
10
44.967029206454754
20
26.907694816589363
30
0
10
44.898060492444678
20
26.214660302713874
30
0
10
44.759552304773074
20
24.822855976817316
30
0
10
43.813456081442709
20
23.792185938187743
30
0
10
43.338458649814129
20
23.274727344512947
30
0
0
SPLINE
5
235
100
AcDbEntity
8
0
100
AcDbSpline
70
0
71
3
72
9
73
5
74
0
42
0.000000001
43
0.0000000001
44
0.0000000001
40
0
40
0
40
0
40
0
40
0.21292411590659954
40
0.43667769499186176
40
0.43667769499186176
40
0.43667769499186176
40
0.43667769499186176
10
43.338458649814129
20
23.274727344512947
30
0
10
42.753978326301869
20
22.845954404549481
30
0
10
41.555290618464262
20
21.966600845649342
30
0
10
40.070630157817376
20
21.859351916607579
30
0
10
39.309890381991863
20
21.80439758300782
30
0
0
SPLINE
5
236
100
AcDbEntity
8
0
100
AcDbSpline
70
0
71
3
72
9
73
5
74
0
42
0.000000001
43
0.0000000001
44
0.0000000001
40
0
40
0
40
0
40
0
40
0.15964965201342055
40
0.34003455484944956
40
0.34003455484944956
40
0.34003455484944956
40
0.34003455484944956
10
39.309890381991863
20
21.80439758300782
30
0
10
38.777121511765372
20
21.827914961591866
30
0
10
37.642387903890793
20
21.878004149117185
30
0
10
36.53480555016845
20
22.131472837490435
30
0
10
35.94724427908659
20
22.265935420989997
30
0
0
LINE
5
237
100
AcDbEntity
8
0
100
AcDbLine
10
35.947244279086597
20
22.265935420989994
30
0
11
34.404389970004559
21
22.648354053497322
31
0
0
SPLINE
5
238
100
AcDbEntity
8
0
100
AcDbSpline
70
0
71
3
72
9
73
5
74
0
42
0.000000001
43
0.0000000001
44
0.0000000001
40
0
40
0
40
0
40
0
40
0.087024001146938854
40
0.15615260706590034
40
0.15615260706590034
40
0.15615260706590034
40
0.15615260706590034
10
34.404389970004559
20
22.648354053497322
30
0
10
34.121032291459699
20
22.713462098049561
30
0
10
33.6125858898491
20
22.830289533743162
30
0
10
33.091998976584364
20
22.859567971166381
30
0
10
32.861535660922527
20
22.872529506683357
30
0
0
SPLINE
5
239
100
AcDbEntity
8
0
100
AcDbSpline
70
0
71
3
72
9
73
5
74
0
42
0.000000001
43
0.0000000001
44
0.0000000001
40
0
40
0
40
0
40
0
40
0.082763275317790555
40
0.17555516415940986
40
0.17555516415940986
40
0.17555516415940986
40
0.17555516415940986
10
32.861535660922527
20
22.872529506683357
30
0
10
32.58391247261482
20
22.846601107126588
30
0
10
31.995025865473199
20
22.791602505112571
30
0
10
31.474910236825551
20
22.508095260331892
30
0
10
31.199996583163738
20
22.358243942260749
30
0
0
LINE
5
240
100
AcDbEntity
8
0
100
AcDbLine
10
31.199996583163738
20
22.358243942260753
30
0
11
31.094501130282879
21
22.542858600616462
31
0
0
SPLINE
5
241
100
AcDbEntity
8
0
100
AcDbSpline
70
0
71
3
72
9
73
5
74
0
42
0.000000001
43
0.0000000001
44
0.0000000001
40
0
40
0
40
0
40
0
40
0.27797778899859105
40
0.52395477973087612
40
0.52395477973087612
40
0.52395477973087612
40
0.52395477973087612
10
31.094501130282879
20
22.542858600616462
30
0
10
31.590990161735242
20
23.329232254463271
30
0
10
32.526812415918052
20
24.811452240713887
30
0
10
33.113551525147443
20
26.462335817198998
30
0
10
33.38900338858366
20
27.237363338470466
30
0
0
LINE
5
242
100
AcDbEntity
8
0
100
AcDbLine
10
33.38900338858366
20
27.237363338470466
30
0
11
33.626372925937176
21
27.171428680419929
31
0
0
SPLINE
5
243
100
AcDbEntity
8
0
100
AcDbSpline
70
0
71
3
72
9
73
5
74
0
42
0.000000001
43
0.0000000001
44
0.0000000001
40
0
40
0
40
0
40
0
40
0.19211255533948474
40
0.36891543136722321
40
0.36891543136722321
40
0.36891543136722321
40
0.36891543136722321
10
33.626372925937176
20
27.171428680419929
30
0
10
33.754594370546052
20
26.528541151997182
30
0
10
34.000819139483305
20
25.293998571219063
30
0
10
34.870917160341968
20
24.388032826909622
30
0
10
35.287912003695965
20
23.953848361969001
30
0
0
SPLINE
5
244
100
AcDbEntity
8
0
100
AcDbSpline
70
0
71
3
72
9
73
5
74
0
42
0.000000001
43
0.0000000001
44
0.0000000001
40
0
40
0
40
0
40
0
40
0.18157132364354414
40
0.3863372915520441
40
0.3863372915520441
40
0.3863372915520441
40
0.3863372915520441
10
35.287912003695965
20
23.953848361969001
30
0
10
35.805294518626098
20
23.619557553823878
30
0
10
36.906152052202813
20
22.908272297881851
30
0
10
38.218636458353572
20
22.841817258553117
30
0
10
38.914277665317059
20
22.80659484863282
30
0
0
SPLINE
5
245
100
AcDbEntity
8
0
100
AcDbSpline
70
0
71
3
72
9
73
5
74
0
42
0.000000001
43
0.0000000001
44
0.0000000001
40
0
40
0
40
0
40
0
40
0.15988313688040334
40
0.29670114566326933
40
0.29670114566326933
40
0.29670114566326933
40
0.29670114566326933
10
38.914277665317059
20
22.80659484863282
30
0
10
39.456899052599006
20
22.828728812255854
30
0
10
40.463861953185472
20
22.869803640365678
30
0
10
41.325664332558283
20
23.386098187059901
30
0
10
41.723067872226238
20
23.624177455902107
30
0
0
SPLINE
5
246
100
AcDbEntity
8
0
100
AcDbSpline
70
0
71
3
72
9
73
5
74
0
42
0.000000001
43
0.0000000001
44
0.0000000001
40
0
40
0
40
0
40
0
40
0.12372518089109091
40
0.25071048985646338
40
0.25071048985646338
40
0.25071048985646338
40
0.25071048985646338
10
41.723067872226238
20
23.624177455902107
30
0
10
42.026898022561348
20
23.923263342758037
30
0
10
42.642564172936432
20
24.529315955999387
30
0
10
42.723724988050584
20
25.390290714832943
30
0
10
42.764833085238934
20
25.826375961303718
30
0
0
SPLINE
5
247
100
AcDbEntity
8
0
100
AcDbSpline
70
0
71
3
72
9
73
5
74
0
42
0.000000001
43
0.0000000001
44
0.0000000001
40
0
40
0
40
0
40
0
40
0.15015888659973584
40
0.31067288085093808
40
0.31067288085093808
40
0.31067288085093808
40
0.31067288085093808
10
42.764833085238934
20
25.826375961303718
30
0
10
42.69672653708561
20
26.340531383120414
30
0
10
42.555816744806627
20
27.404298901100958
30
0
10
41.737223759387078
20
28.102830951726631
30
0
10
41.314284913241863
20
28.463738441467292
30
0
0
SPLINE
5
248
100
AcDbEntity
8
0
100
AcDbSpline
70
0
71
3
72
9
73
5
74
0
42
0.000000001
43
0.0000000001
44
0.0000000001
40
0
40
0
40
0
40
0
40
0.17412805700577122
40
0.45045997694061646
40
0.45045997694061646
40
0.45045997694061646
40
0.45045997694061646
10
41.314284913241863
20
28.463738441467292
30
0
10
40.791180239240994
20
28.720210252403575
30
0
10
39.437936405709038
20
29.38368911977788
30
0
10
37.952803142613746
20
29.663510381119721
30
0
10
37.041757218539715
20
29.835165023803718
30
0
0
SPLINE
5
249
100
AcDbEntity
8
0
100
AcDbSpline
70
0
71
3
72
9
73
5
74
0
42
0.000000001
43
0.0000000001
44
0.0000000001
40
0
40
0
40
0
40
0
40
0.22454212464906043
40
0.4002788320864431
40
0.4002788320864431
40
0.4002788320864431
40
0.4002788320864431
10
37.041757218539715
20
29.835165023803718
30
0
10
36.299170579699037
20
29.996191618621783
30
0
10
34.975402431594489
20
30.283244827053704
30
0
10
33.900494374595098
20
31.099000018591241
30
0
10
33.428571335971355
20
31.457145690917976
30
0
0
SPLINE
5
250
100
AcDbEntity
8
0
100
AcDbSpline
70
0
71
3
72
9
73
5
74
0
42
0.000000001
43
0.0000000001
44
0.0000000001
40
0
40
0
40
0
40
0
40
0.15945483701575483
40
0.34129721613172592
40
0.34129721613172592
40
0.34129721613172592
40
0.34129721613172592
10
33.428571335971355
20
31.457145690917976
30
0
10
33.102023433093564
20
31.891618798221298
30
0
10
32.403080131832489
20
32.821565263201052
30
0
10
32.340846982067418
20
33.987554788776194
30
0
10
32.307689301669598
20
34.608791351318366
30
0
0
SPLINE
5
251
100
AcDbEntity
8
0
100
AcDbSpline
70
0
71
3
72
9
73
5
74
0
42
0.000000001
43
0.0000000001
44
0.0000000001
40
0
40
0
40
0
40
0
40
0.19240950086242636
40
0.37936593281059838
40
0.37936593281059838
40
0.37936593281059838
40
0.37936593281059838
10
32.307689301669598
20
34.608791351318366
30
0
10
32.366386759655072
20
35.267387928737129
30
0
10
32.482118133638451
20
36.565915827923241
30
0
10
33.367880282337161
20
37.520686290357609
30
0
10
33.80439531058073
20
37.991209506988532
30
0
0
SPLINE
5
252
100
AcDbEntity
8
0
100
AcDbSpline
70
0
71
3
72
9
73
5
74
0
42
0.000000001
43
0.0000000001
44
0.0000000001
40
0
40
0
40
0
40
0
40
0.19789180021164973
40
0.4177211296646578
40
0.4177211296646578
40
0.4177211296646578
40
0.4177211296646578
10
33.80439531058073
20
37.991209506988532
30
0
10
34.360041066711524
20
38.369772005014248
30
0
10
35.532929345539074
20
39.168862993902358
30
0
10
36.95350755582291
20
39.248304675187313
30
0
10
37.701099030673504
20
39.290111541748054
30
0
0
SPLINE
5
253
100
AcDbEntity
8
0
100
AcDbSpline
70
0
71
3
72
9
73
5
74
0
42
0.000000001
43
0.0000000001
44
0.0000000001
40
0
40
0
40
0
40
0
40
0.16771444677495001
40
0.36499484072115373
40
0.36499484072115373
40
0.36499484072115373
40
0.36499484072115373
10
37.701099030673504
20
39.290111541748054
30
0
10
38.260679681138363
20
39.260397789764554
30
0
10
39.478488011395797
20
39.195732125112535
30
0
10
40.661613862494512
20
38.897474166736529
30
0
10
41.301095597445965
20
38.736265182495124
30
0
0
SPLINE
5
254
100
AcDbEntity
8
0
100
AcDbSpline
70
0
71
3
72
9
73
5
74
0
42
0.000000001
43
0.0000000001
44
0.0000000001
40
0
40
0
40
0
40
0
40
0.086040936015223154
40
0.14509073622170429
40
0.14509073622170429
40
0.14509073622170429
40
0.14509073622170429
10
41.301095597445965
20
38.736265182495124
30
0
10
41.57847109951247
20
38.660276875008854
30
0
10
42.046209105030812
20
38.532137875271879
30
0
10
42.528841028418398
20
38.489771448415198
30
0
10
42.725265137851238
20
38.472528934478767
30
0
0
LINE
5
255
100
AcDbEntity
8
0
100
AcDbLine
10
28.918678872287273
20
36.771430253982551
30
0
11
30.883519761264324
21
38.380220413208015
31
0
0
LINE
5
256
100
AcDbEntity
8
0
100
AcDbLine
10
30.883519761264324
20
38.380220413208015
30
0
11
31.08131181448698
21
38.103298425674446
31
0
0
LINE
5
257
100
AcDbEntity
8
0
100
AcDbLine
10
31.08131181448698
20
38.103298425674446
30
0
11
29.287908188998699
21
36.613188266754157
31
0
0
LINE
5
258
100
AcDbEntity
8
0
100
AcDbLine
10
29.287908188998699
20
36.613188266754157
30
0
11
29.287908188998699
21
28.42417764663697
31
0
0
SPLINE
5
259
100
AcDbEntity
8
0
100
AcDbSpline
70
0
71
3
72
9
73
5
74
0
42
0.000000001
43
0.0000000001
44
0.0000000001
40
0
40
0
40
0
40
0
40
0.33268413676961006
40
0.53097796318883017
40
0.53097796318883017
40
0.53097796318883017
40
0.53097796318883017
10
29.287908188998699
20
28.42417764663697
30
0
10
29.301805554960197
20
27.306776557820207
30
0
10
29.323986339242786
20
25.523357125904855
30
0
10
28.83686177447543
20
23.814135650826369
30
0
10
28.654945008456707
20
23.175826549530036
30
0
0
SPLINE
5
260
100
AcDbEntity
8
0
100
AcDbSpline
70
0
71
3
72
9
73
5
74
0
42
0.000000001
43
0.0000000001
44
0.0000000001
40
0
40
0
40
0
40
0
40
0.26647026384071509
40
0.58670126792830168
40
0.58670126792830168
40
0.58670126792830168
40
0.58670126792830168
10
28.654945008456707
20
23.175826549530036
30
0
10
28.072086876786031
20
22.454338719507973
30
0
10
26.788778188061517
20
20.865801902800293
30
0
10
24.72877413358048
20
20.756411764381212
30
0
10
23.604390732944012
20
20.69670486450196
30
0
0
SPLINE
5
261
100
AcDbEntity
8
0
100
AcDbSpline
70
0
71
3
72
9
73
5
74
0
42
0.000000001
43
0.0000000001
44
0.0000000001
40
0
40
0
40
0
40
0
40
0.28705386075613015
40
0.52434438688460205
40
0.52434438688460205
40
0.52434438688460205
40
0.52434438688460205
10
23.604390732944012
20
20.69670486450196
30
0
10
22.622729650204718
20
20.734596437668657
30
0
10
20.829587146559021
20
20.803810743471235
30
0
10
19.380881324218731
20
21.846718346958088
30
0
10
18.725273720920086
20
22.318683147430427
30
0
0
LINE
5
262
100
AcDbEntity
8
0
100
AcDbLine
10
18.725273720920086
20
22.318683147430431
30
0
11
18.830764405429363
21
22.265935420989997
31
0
0
LINE
5
263
100
AcDbEntity
8
0
100
AcDbLine
10
18.830764405429363
20
22.265935420989997
30
0
11
19.292304627597332
21
22.00219917297364
31
0
0
SPLINE
5
264
100
AcDbEntity
8
0
100
AcDbSpline
70
0
71
3
72
9
73
5
74
0
42
0.000000001
43
0.0000000001
44
0.0000000001
40
0
40
0
40
0
40
0
40
0.19848767952630256
40
0.43113035973171993
40
0.43113035973171993
40
0.43113035973171993
40
0.43113035973171993
10
19.292304627597332
20
22.00219917297364
30
0
10
19.900542835606014
20
21.725736510852141
30
0
10
21.221682555951304
20
21.125238549178711
30
0
10
22.675071969314267
20
21.078155931645082
30
0
10
23.459336869418621
20
21.05274963378907
30
0
0
SPLINE
5
265
100
AcDbEntity
8
0
100
AcDbSpline
70
0
71
3
72
9
73
5
74
0
42
0.000000001
43
0.0000000001
44
0.0000000001
40
0
40
0
40
0
40
0
40
0.3080259176274035
40
0.55705239455277966
40
0.55705239455277966
40
0.55705239455277966
40
0.55705239455277966
10
23.459336869418621
20
21.05274963378907
30
0
10
24.541849111516328
20
21.100653425707954
30
0
10
26.499528651075881
20
21.187285492912274
30
0
10
27.733895593440508
20
22.679962978336761
30
0
10
28.285710923373699
20
23.347254276275642
30
0
0
SPLINE
5
266
100
AcDbEntity
8
0
100
AcDbSpline
70
0
71
3
72
9
73
5
74
0
42
0.000000001
43
0.0000000001
44
0.0000000001
40
0
40
0
40
0
40
0
40
0.19253762946900158
40
0.50480700414136814
40
0.50480700414136814
40
0.50480700414136814
40
0.50480700414136814
10
28.285710923373699
20
23.347254276275642
30
0
10
28.467929664480423
20
23.965610466484971
30
0
10
28.945681972173134
20
25.586854774585781
30
0
10
28.928998888058388
20
27.282782483026399
30
0
10
28.918678872287273
20
28.331869125366218
30
0
0
LINE
5
267
100
AcDbEntity
8
0
100
AcDbLine
10
28.918678872287273
20
28.331869125366218
30
0
11
28.918678872287273
21
36.771430253982551
31
0
0
SPLINE
5
268
100
AcDbEntity
8
0
100
AcDbSpline
70
0
71
3
72
9
73
5
74
0
42
0.000000001
43
0.0000000001
44
0.0000000001
40
0
40
0
40
0
40
0
40
0.17019855922078816
40
0.34418357939086008
40
0.34418357939086008
40
0.34418357939086008
40
0.34418357939086008
10
11.841757409274578
20
37.536266326904304
30
0
10
12.230206264440273
20
37.10103227342988
30
0
10
13.015745918790582
20
36.220881377420866
30
0
10
13.120614464060916
20
35.044972996874534
30
0
10
13.173625580966473
20
34.450550556182868
30
0
0
SPLINE
5
269
100
AcDbEntity
8
0
100
AcDbSpline
70
0
71
3
72
9
73
5
74
0
42
0.000000001
43
0.0000000001
44
0.0000000001
40
0
40
0
40
0
40
0
40
0.28365636268780242
40
0.63211136141891167
40
0.63211136141891167
40
0.63211136141891167
40
0.63211136141891167
10
13.173625580966473
20
34.450550556182868
30
0
10
12.955828346762299
20
33.479888910662694
30
0
10
12.470480142612912
20
31.316827069169019
30
0
10
10.433040579453543
20
30.370192211990521
30
0
10
9.3098903819918633
20
29.848354339599616
30
0
0
SPLINE
5
270
100
AcDbEntity
8
0
100
AcDbSpline
70
0
71
3
72
9
73
5
74
0
42
0.000000001
43
0.0000000001
44
0.0000000001
40
0
40
0
40
0
40
0
40
0.29227950116653723
40
0.61021165963803137
40
0.61021165963803137
40
0.61021165963803137
40
0.61021165963803137
10
9.3098903819918633
20
29.848354339599616
30
0
10
9.653882108704579
20
28.931088940113298
30
0
10
10.372056875054394
20
27.016051999393436
30
0
10
11.607076079342917
20
25.384262626582284
30
0
10
12.250545136630535
20
24.534068584442146
30
0
0
SPLINE
5
271
100
AcDbEntity
8
0
100
AcDbSpline
70
0
71
3
72
9
73
5
74
0
42
0.000000001
43
0.0000000001
44
0.0000000001
40
0
40
0
40
0
40
0
40
0.21448788778218561
40
0.44440112576038382
40
0.44440112576038382
40
0.44440112576038382
40
0.44440112576038382
10
12.250545136630535
20
24.534068584442146
30
0
10
12.730182613188834
20
24.000203513496821
30
0
10
13.723951710098579
20
22.894079335644982
30
0
10
14.951654284232756
20
22.054265162834042
30
0
10
15.586812607944012
20
21.619782924652107
30
0
0
SPLINE
5
272
100
AcDbEntity
8
0
100
AcDbSpline
70
0
71
3
72
9
73
5
74
0
42
0.000000001
43
0.0000000001
44
0.0000000001
40
0
40
0
40
0
40
0
40
0.30985665719291344
40
0.61952192279757889
40
0.61952192279757889
40
0.61952192279757889
40
0.61952192279757889
10
15.586812607944012
20
21.619782924652107
30
0
10
14.595739026374073
20
21.31657139574839
30
0
10
12.614204027415417
20
20.710335624980765
30
0
10
10.815539097815474
20
19.681362648531781
30
0
10
9.9164844676852226
20
19.167035102844245
30
0
0
LINE
5
273
100
AcDbEntity
8
0
100
AcDbLine
10
9.9164844676852244
20
19.167035102844242
30
0
11
9.7977996990084648
21
19.087913513183601
31
0
0
LINE
5
274
100
AcDbEntity
8
0
100
AcDbLine
10
9.7977996990084648
20
19.087913513183601
30
0
11
9.5340658351778984
21
19.298902034759529
31
0
0
SPLINE
5
275
100
AcDbEntity
8
0
100
AcDbSpline
70
0
71
3
72
9
73
5
74
0
42
0.000000001
43
0.0000000001
44
0.0000000001
40
0
40
0
40
0
40
0
40
0.29686398805755176
40
0.59083005482377082
40
0.59083005482377082
40
0.59083005482377082
40
0.59083005482377082
10
9.5340658351778984
20
19.298902034759529
30
0
10
10.385012016653761
20
19.811445849164389
30
0
10
12.078597629186856
20
20.831530137413257
30
0
10
13.96334528740784
20
21.428336452647819
30
0
10
14.901096932590008
20
21.725275993347175
30
0
0
SPLINE
5
276
100
AcDbEntity
8
0
100
AcDbSpline
70
0
71
3
72
9
73
5
74
0
42
0.000000001
43
0.0000000001
44
0.0000000001
40
0
40
0
40
0
40
0
40
0.4725733504740226
40
1.0181607952987051
40
1.0181607952987051
40
1.0181607952987051
40
1.0181607952987051
10
14.901096932590008
20
21.725275993347175
30
0
10
13.680869743613489
20
22.754428045721966
30
0
10
11.051886361611007
20
24.971739434690789
30
0
10
9.6686741439869017
20
28.129744764248468
30
0
10
8.927471749484539
20
29.821980476379402
30
0
0
LINE
5
277
100
AcDbEntity
8
0
100
AcDbLine
10
8.927471749484539
20
29.821980476379402
30
0
11
8.8483501598238945
21
30.046155929565437
31
0
0
SPLINE
5
278
100
AcDbEntity
8
0
100
AcDbSpline
70
0
71
3
72
9
73
5
74
0
42
0.000000001
43
0.0000000001
44
0.0000000001
40
0
40
0
40
0
40
0
40
0.35904085930280027
40
0.65067072498669243
40
0.65067072498669243
40
0.65067072498669243
40
0.65067072498669243
10
8.8483501598238945
20
30.046155929565437
30
0
10
10.021245627585254
20
30.55796553789132
30
0
10
12.146821936153129
20
31.48549097204727
30
0
10
12.655516687075856
20
33.715016184851436
30
0
10
12.883513085544109
20
34.714286804199226
30
0
0
SPLINE
5
279
100
AcDbEntity
8
0
100
AcDbSpline
70
0
71
3
72
9
73
5
74
0
42
0.000000001
43
0.0000000001
44
0.0000000001
40
0
40
0
40
0
40
0
40
0.13765109098492964
40
0.30415421372421492
40
0.30415421372421492
40
0.30415421372421492
40
0.30415421372421492
10
12.883513085544109
20
34.714286804199226
30
0
10
12.82577694928019
20
35.175102112424213
30
0
10
12.698203030300173
20
36.193320832976134
30
0
10
12.144739768858406
20
37.061176275004023
30
0
10
11.841757409274578
20
37.536266326904304
30
0
0
SPLINE
5
280
100
AcDbEntity
8
0
100
AcDbSpline
70
0
71
3
72
9
73
5
74
0
42
0.000000001
43
0.0000000001
44
0.0000000001
40
0
40
0
40
0
40
0
40
0.070381294924210955
40
0.13990534853865466
40
0.13990534853865466
40
0.13990534853865466
40
0.13990534853865466
10
0.31648408621549606
20
36.758244514465339
30
0
10
0.11330606805714183
20
36.876116559990287
30
0
10
-0.29057526826165692
20
37.110424974319542
30
0
10
-0.72191758605408829
20
37.289188869521638
30
0
10
-0.93626726418733597
20
37.378023147583015
30
0
0
LINE
5
281
100
AcDbEntity
8
0
100
AcDbLine
10
-0.93626726418733608
20
37.378023147583015
30
0
11
-1.0417579486966133
21
37.417583942413337
31
0
0
SPLINE
5
282
100
AcDbEntity
8
0
100
AcDbSpline
70
0
71
3
72
9
73
5
74
0
42
0.000000001
43
0.0000000001
44
0.0000000001
40
0
40
0
40
0
40
0
40
0.35155509412645364
40
0.70260472544477426
40
0.70260472544477426
40
0.70260472544477426
40
0.70260472544477426
10
-1.0417579486966133
20
37.417583942413337
30
0
10
0.019346272937816877
20
37.944506805647563
30
0
10
2.1400290699323143
20
38.99759492707895
30
0
10
4.5029197769747054
20
39.148685797058171
30
0
10
5.6835151836276054
20
39.224176883697517
30
0
0
SPLINE
5
283
100
AcDbEntity
8
0
100
AcDbSpline
70
0
71
3
72
9
73
5
74
0
42
0.000000001
43
0.0000000001
44
0.0000000001
40
0
40
0
40
0
40
0
40
0.25679747291538108
40
0.48188689217310499
40
0.48188689217310499
40
0.48188689217310499
40
0.48188689217310499
10
5.6835151836276054
20
39.224176883697517
30
0
10
6.5513845567579043
20
39.188337995576738
30
0
10
8.1799631805350348
20
39.121085424048701
30
0
10
9.6197730821225136
20
38.36442654188555
30
0
10
10.292308442294598
20
38.010991096496589
30
0
0
SPLINE
5
284
100
AcDbEntity
8
0
100
AcDbSpline
70
0
71
3
72
9
73
5
74
0
42
0.000000001
43
0.0000000001
44
0.0000000001
40
0
40
0
40
0
40
0
40
0.19360343819734482
40
0.37028659495395677
40
0.37028659495395677
40
0.37028659495395677
40
0.37028659495395677
10
10.292308442294598
20
38.010991096496589
30
0
10
10.820820367064243
20
37.594628634434244
30
0
10
11.831654073519537
20
36.798292372128003
30
0
10
12.01703588647935
20
35.530300673838056
30
0
10
12.105491273105145
20
34.925275325775154
30
0
0
SPLINE
5
285
100
AcDbEntity
8
0
100
AcDbSpline
70
0
71
3
72
9
73
5
74
0
42
0.000000001
43
0.0000000001
44
0.0000000001
40
0
40
0
40
0
40
0
40
0.14725091073111482
40
0.30213992880474572
40
0.30213992880474572
40
0.30213992880474572
40
0.30213992880474572
10
12.105491273105145
20
34.925275325775154
30
0
10
12.051227731163419
20
34.425235945826103
30
0
10
11.939885922698146
20
33.399219455284609
30
0
10
11.264772096354712
20
32.616592043237446
30
0
10
10.918681733310223
20
32.215385913848884
30
0
0
SPLINE
5
286
100
AcDbEntity
8
0
100
AcDbSpline
70
0
71
3
72
9
73
5
74
0
42
0.000000001
43
0.0000000001
44
0.0000000001
40
0
40
0
40
0
40
0
40
0.17339778036672093
40
0.36989201102019348
40
0.36989201102019348
40
0.36989201102019348
40
0.36989201102019348
10
10.918681733310223
20
32.215385913848884
30
0
10
10.467655752097773
20
31.844533258174387
30
0
10
9.5055274776746579
20
31.053430659804885
30
0
10
8.3098784691339844
20
30.697024197726208
30
0
10
7.674725167453289
20
30.507693767547615
30
0
0
SPLINE
5
287
100
AcDbEntity
8
0
100
AcDbSpline
70
0
71
3
72
9
73
5
74
0
42
0.000000001
43
0.0000000001
44
0.0000000001
40
0
40
0
40
0
40
0
40
0.26953438446357619
40
0.54792526037417666
40
0.54792526037417666
40
0.54792526037417666
40
0.54792526037417666
10
7.674725167453289
20
30.507693767547615
30
0
10
8.00930834613788
20
29.671835367760487
30
0
10
8.6894685997635079
20
27.972653527748559
30
0
10
9.6561145532076598
20
26.418308736796359
30
0
10
10.147249810397625
20
25.628574371337898
30
0
0
SPLINE
5
288
100
AcDbEntity
8
0
100
AcDbSpline
70
0
71
3
72
9
73
5
74
0
42
0.000000001
43
0.0000000001
44
0.0000000001
40
0
40
0
40
0
40
0
40
0.26159455405655485
40
0.48154280936988969
40
0.48154280936988969
40
0.48154280936988969
40
0.48154280936988969
10
10.147249810397625
20
25.628574371337898
30
0
10
10.641507069275562
20
24.905976755842278
30
0
10
11.551334989240925
20
23.575820296489844
30
0
10
12.737384231772007
20
22.486546252576893
30
0
10
13.279121033847332
20
21.989012241363532
30
0
0
LINE
5
289
100
AcDbEntity
8
0
100
AcDbLine
10
13.279121033847332
20
21.989012241363529
30
0
11
13.081319443881512
21
21.923077583312995
31
0
0
SPLINE
5
290
100
AcDbEntity
8
0
100
AcDbSpline
70
0
71
3
72
9
73
5
74
0
42
0.000000001
43
0.0000000001
44
0.0000000001
40
0
40
0
40
0
40
0
40
0.21073565727740792
40
0.43015424846766148
40
0.43015424846766148
40
0.43015424846766148
40
0.43015424846766148
10
13.081319443881512
20
21.923077583312995
30
0
10
12.4235798428397
20
21.671843007745917
30
0
10
11.080999818989641
20
21.159022247185749
30
0
10
9.8557565696214233
20
20.40751629239649
30
0
10
9.2307687923312187
20
20.024178504943855
30
0
0
LINE
5
291
100
AcDbEntity
8
0
100
AcDbLine
10
9.2307687923312205
20
20.024178504943855
30
0
11
9.0329672023653984
21
19.892309188842781
31
0
0
LINE
5
292
100
AcDbEntity
8
0
100
AcDbLine
10
9.0329672023653984
20
19.892309188842781
30
0
11
8.9670301601290703
21
20.314288616180427
31
0
0
SPLINE
5
293
100
AcDbEntity
8
0
100
AcDbSpline
70
0
71
3
72
9
73
5
74
0
42
0.000000001
43
0.0000000001
44
0.0000000001
40
0
40
0
40
0
40
0
40
0.48217025421846688
40
0.89824973993524326
40
0.89824973993524326
40
0.89824973993524326
40
0.89824973993524326
10
8.9670301601290703
20
20.314288616180427
30
0
10
8.6789128730652632
20
21.899385969316938
30
0
10
8.1421703512865307
20
24.852312394723931
30
0
10
7.0927119263015115
20
27.662927993761343
30
0
10
6.6065908595919609
20
28.964837074279792
30
0
0
LINE
5
294
100
AcDbEntity
8
0
100
AcDbLine
10
6.6065908595919609
20
28.964837074279792
30
0
11
6.5538431331515312
21
29.096704006195075
31
0
0
SPLINE
5
295
100
AcDbEntity
8
0
100
AcDbSpline
70
0
71
3
72
9
73
5
74
0
42
0.000000001
43
0.0000000001
44
0.0000000001
40
0
40
0
40
0
40
0
40
0.11303122033041424
40
0.2536000260572242
40
0.2536000260572242
40
0.2536000260572242
40
0.2536000260572242
10
6.5538431331515312
20
29.096704006195075
30
0
10
6.2019128267995605
20
28.959693105406092
30
0
10
5.4123120899386024
20
28.652291593605721
30
0
10
4.5771866906813585
20
28.505527825822611
30
0
10
4.1142822429537773
20
28.42417764663697
30
0
0
LINE
5
296
100
AcDbEntity
8
0
100
AcDbLine
10
4.1142822429537782
20
28.42417764663697
30
0
11
4.0087915584445
21
28.410990715026863
31
0
0
LINE
5
297
100
AcDbEntity
8
0
100
AcDbLine
10
4.0087915584445
20
28.410990715026863
30
0
11
4.0087915584445
21
23.479123592376716
31
0
0
LINE
5
298
100
AcDbEntity
8
0
100
AcDbLine
10
4.0087915584445
20
23.479123592376716
30
0
11
6.3296676799654961
21
21.00000190734864
31
0
0
LINE
5
299
100
AcDbEntity
8
0
100
AcDbLine
10
6.3296676799654961
20
21.00000190734864
30
0
11
-0.48791158944368362
21
21.00000190734864
31
0
0
LINE
5
300
100
AcDbEntity
8
0
100
AcDbLine
10
-0.48791158944368362
20
21.00000190734864
30
0
11
-0.69890249520540237
21
21.356046676635749
31
0
0
LINE
5
301
100
AcDbEntity
8
0
100
AcDbLine
10
-0.69890249520540237
20
21.356046676635749
30
0
11
5.5780197307467461
21
21.356046676635749
31
0
0
LINE
5
302
100
AcDbEntity
8
0
100
AcDbLine
10
5.5780197307467461
20
21.356046676635749
30
0
11
3.665931336581707
21
23.386815071105964
31
0
0
LINE
5
303
100
AcDbEntity
8
0
100
AcDbLine
10
3.665931336581707
20
23.386815071105964
30
0
11
3.665931336581707
21
28.701100826263435
31
0
0
LINE
5
304
100
AcDbEntity
8
0
100
AcDbLine
10
3.665931336581707
20
28.701100826263435
30
0
11
3.9428545162081718
21
28.740661621093757
31
0
0
SPLINE
5
305
100
AcDbEntity
8
0
100
AcDbSpline
70
0
71
3
72
9
73
5
74
0
42
0.000000001
43
0.0000000001
44
0.0000000001
40
0
40
0
40
0
40
0
40
0.13999255133145025
40
0.25947054957845506
40
0.25947054957845506
40
0.25947054957845506
40
0.25947054957845506
10
3.9428545162081718
20
28.740661621093757
30
0
10
4.4076715798477473
20
28.798385220538432
30
0
10
5.2691912664948948
20
28.905373584769993
30
0
10
6.0856044801483389
20
29.198906248491351
30
0
10
6.4615369960665703
20
29.334068775177009
30
0
0
SPLINE
5
306
100
AcDbEntity
8
0
100
AcDbSpline
70
0
71
3
72
9
73
5
74
0
42
0.000000001
43
0.0000000001
44
0.0000000001
40
0
40
0
40
0
40
0
40
0.014301600541160307
40
0.021833735823440045
40
0.021833735823440045
40
0.021833735823440045
40
0.021833735823440045
10
6.4615369960665703
20
29.334068775177009
30
0
10
6.4399696926364314
20
29.37661043418089
30
0
10
6.4070436712332768
20
29.44155724495975
30
0
10
6.3789295740736218
20
29.508705697677833
30
0
10
6.3692308589816093
20
29.531870365142829
30
0
0
LINE
5
307
100
AcDbEntity
8
0
100
AcDbLine
10
6.3692308589816093
20
29.531870365142833
30
0
11
6.2373615428805351
21
29.914286613464363
31
0
0
SPLINE
5
308
100
AcDbEntity
8
0
100
AcDbSpline
70
0
71
3
72
9
73
5
74
0
42
0.000000001
43
0.0000000001
44
0.0000000001
40
0
40
0
40
0
40
0
40
0.006367224714198625
40
0.01714599367087135
40
0.01714599367087135
40
0.01714599367087135
40
0.01714599367087135
10
6.2373615428805351
20
29.914286613464363
30
0
10
6.2298070969179786
20
29.934124336461441
30
0
10
6.2094640921592514
20
29.987544388088317
30
0
10
6.1861075249411623
20
30.039726003040332
30
0
10
6.171424500644207
20
30.072529792785652
30
0
0
SPLINE
5
309
100
AcDbEntity
8
0
100
AcDbSpline
70
0
71
3
72
9
73
5
74
0
42
0.000000001
43
0.0000000001
44
0.0000000001
40
0
40
0
40
0
40
0
40
0.12058407723168106
40
0.31299544150572839
40
0.31299544150572839
40
0.31299544150572839
40
0.31299544150572839
10
6.171424500644207
20
30.072529792785652
30
0
10
5.7789138069012402
20
29.984981965475434
30
0
10
4.7600889279932623
20
29.757737444549335
30
0
10
3.7231566644958125
20
29.634192477280266
30
0
10
3.0857111141085625
20
29.558244228363044
30
0
0
LINE
5
310
100
AcDbEntity
8
0
100
AcDbLine
10
3.0857111141085625
20
29.558244228363044
30
0
11
2.9406572505831718
21
29.531870365142829
31
0
0
LINE
5
311
100
AcDbEntity
8
0
100
AcDbLine
10
2.9406572505831718
20
29.531870365142829
30
0
11
2.9406572505831718
21
23.650551319122322
31
0
0
LINE
5
312
100
AcDbEntity
8
0
100
AcDbLine
10
2.9406572505831718
20
23.650551319122322
30
0
11
4.4439531490206718
21
22.081320762634284
31
0
0
LINE
5
313
100
AcDbEntity
8
0
100
AcDbLine
10
4.4439531490206718
20
22.081320762634284
30
0
11
-1.3846181705594063
21
22.081320762634284
31
0
0
LINE
5
314
100
AcDbEntity
8
0
100
AcDbLine
10
-1.3846181705594063
20
22.081320762634284
30
0
11
0.32966863363981247
21
23.650551319122322
31
0
0
LINE
5
315
100
AcDbEntity
8
0
100
AcDbLine
10
0.32966863363981247
20
23.650551319122322
30
0
11
0.32966863363981247
21
28.081319808959968
31
0
0
LINE
5
316
100
AcDbEntity
8
0
100
AcDbLine
10
0.32966863363981247
20
28.081319808959968
30
0
11
0.22417318075895309
21
28.068132877349861
31
0
0
SPLINE
5
317
100
AcDbEntity
8
0
100
AcDbSpline
70
0
71
3
72
9
73
5
74
0
42
0.000000001
43
0.0000000001
44
0.0000000001
40
0
40
0
40
0
40
0
40
0.075079674661437029
40
0.14369687446205143
40
0.14369687446205143
40
0.14369687446205143
40
0.14369687446205143
10
0.22417318075895309
20
28.068132877349861
30
0
10
-0.019620406484994746
20
28.011065668835968
30
0
10
-0.48622307436842149
20
27.90184330559719
30
0
10
-0.94254353139507252
20
27.755566013247769
30
0
10
-1.1604427173733711
20
27.685716629028327
30
0
0
LINE
5
318
100
AcDbEntity
8
0
100
AcDbLine
10
-1.1604427173733711
20
27.685716629028324
30
0
11
-1.2659334018826485
21
27.646155834198005
31
0
0
LINE
5
319
100
AcDbEntity
8
0
100
AcDbLine
10
-1.2659334018826485
20
27.646155834198005
30
0
11
-1.3846181705594063
21
27.909892082214363
31
0
0
SPLINE
5
320
100
AcDbEntity
8
0
100
AcDbSpline
70
0
71
3
72
9
73
5
74
0
42
0.000000001
43
0.0000000001
44
0.0000000001
40
0
40
0
40
0
40
0
40
0.055063868959935564
40
0.095956345336821569
40
0.095956345336821569
40
0.095956345336821569
40
0.095956345336821569
10
-1.3846181705594063
20
27.909892082214363
30
0
10
-1.213112053182881
20
27.975641547446521
30
0
10
-0.91423911640587718
20
28.09021901014022
30
0
10
-0.60605982877003584
20
28.176443814020054
30
0
10
-0.47472704201936722
20
28.213189125061042
30
0
0
LINE
5
321
100
AcDbEntity
8
0
100
AcDbLine
10
-0.47472704201936727
20
28.213189125061046
30
0
11
0.22417318075895309
21
28.384616851806648
31
0
0
LINE
5
322
100
AcDbEntity
8
0
100
AcDbLine
10
0.22417318075895309
20
28.384616851806648
30
0
11
0.32966863363981247
21
28.410990715026863
31
0
0
LINE
5
323
100
AcDbEntity
8
0
100
AcDbLine
10
0.32966863363981247
20
28.410990715026863
30
0
11
0.32966863363981247
21
29.096704006195075
31
0
0
SPLINE
5
324
100
AcDbEntity
8
0
100
AcDbSpline
70
0
71
3
72
9
73
5
74
0
42
0.000000001
43
0.0000000001
44
0.0000000001
40
0
40
0
40
0
40
0
40
0.087782239623786076
40
0.19732650060970475
40
0.19732650060970475
40
0.19732650060970475
40
0.19732650060970475
10
0.32966863363981247
20
29.096704006195075
30
0
10
0.036951885579439292
20
29.077055385893296
30
0
10
-0.62104877391791824
20
29.032887072318985
30
0
10
-1.2561963966444001
20
28.853457483378481
30
0
10
-1.6087936237454414
20
28.753848552703865
30
0
0
LINE
5
325
100
AcDbEntity
8
0
100
AcDbLine
10
-1.6087936237454414
20
28.753848552703868
30
0
11
-1.7538474872708321
21
28.701100826263435
31
0
0
SPLINE
5
326
100
AcDbEntity
8
0
100
AcDbSpline
70
0
71
3
72
9
73
5
74
0
42
0.000000001
43
0.0000000001
44
0.0000000001
40
0
40
0
40
0
40
0
40
0.031663912387321837
40
0.08973177675009969
40
0.08973177675009969
40
0.08973177675009969
40
0.08973177675009969
10
-1.7538474872708321
20
28.701100826263435
30
0
10
-1.7287409384270624
20
28.803674446349874
30
0
10
-1.6575919531640704
20
29.09435593464665
30
0
10
-1.5559100014722294
20
29.375990724117852
30
0
10
-1.4901088550686836
20
29.558244228363044
30
0
0
SPLINE
5
327
100
AcDbEntity
8
0
100
AcDbSpline
70
0
71
3
72
9
73
5
74
0
42
0.000000001
43
0.0000000001
44
0.0000000001
40
0
40
0
40
0
40
0
40
0.018452587286366423
40
0.062154583015728231
40
0.062154583015728231
40
0.062154583015728231
40
0.062154583015728231
10
-1.4901088550686836
20
29.558244228363044
30
0
10
-1.4700108945224244
20
29.616384137781022
30
0
10
-1.4023141353723911
20
29.812219105006264
30
0
10
-1.3454668916937429
20
30.011518229618005
30
0
10
-1.3054965808987617
20
30.151648998260505
30
0
0
LINE
5
328
100
AcDbEntity
8
0
100
AcDbLine
10
-1.3054965808987615
20
30.151648998260502
30
0
11
-1.2659334018826485
21
30.270331382751472
31
0
0
SPLINE
5
329
100
AcDbEntity
8
0
100
AcDbSpline
70
0
71
3
72
9
73
5
74
0
42
0.000000001
43
0.0000000001
44
0.0000000001
40
0
40
0
40
0
40
0
40
0.052830636350106874
40
0.092403313819899219
40
0.092403313819899219
40
0.092403313819899219
40
0.092403313819899219
10
-1.2659334018826485
20
30.270331382751472
30
0
10
-1.0901729726412235
20
30.258871722575094
30
0
10
-0.78275956212146447
20
30.238828227953345
30
0
10
-0.47476121315353836
20
30.233186651532765
30
0
10
-0.342857725918293
20
30.23077058792115
30
0
0
SPLINE
5
330
100
AcDbEntity
8
0
100
AcDbSpline
70
0
71
3
72
9
73
5
74
0
42
0.000000001
43
0.0000000001
44
0.0000000001
40
0
40
0
40
0
40
0
40
0.03429981244736531
40
0.066087208278731296
40
0.066087208278731296
40
0.066087208278731296
40
0.066087208278731296
10
-0.342857725918293
20
30.23077058792115
30
0
10
-0.22845539979936547
20
30.232154351404382
30
0
10
-0.0080305690398763119
20
30.234820519496857
30
0
10
0.21108927115113474
20
30.258798279993595
30
0
10
0.31648408621549606
20
30.270331382751472
30
0
0
LINE
5
331
100
AcDbEntity
8
0
100
AcDbLine
10
0.31648408621549612
20
30.270331382751472
30
0
11
0.31648408621549606
21
36.758244514465339
31
0
0
LINE
5
332
100
AcDbEntity
8
0
100
AcDbLine
10
-14.571430571377277
20
37.496704339981086
30
0
11
-15.969231016933918
21
39.000001430511482
31
0
0
LINE
5
333
100
AcDbEntity
8
0
100
AcDbLine
10
-15.969231016933918
20
39.000001430511482
30
0
11
-9.8901103809475899
21
39.000001430511482
31
0
0
LINE
5
334
100
AcDbEntity
8
0
100
AcDbLine
10
-9.8901103809475899
20
39.000001430511482
30
0
11
-11.261541731655598
21
37.443957805633552
31
0
0
LINE
5
335
100
AcDbEntity
8
0
100
AcDbLine
10
-11.261541731655598
20
37.443957805633552
30
0
11
-9.0989040210843086
21
31.694505691528327
31
0
0
LINE
5
336
100
AcDbEntity
8
0
100
AcDbLine
10
-9.0989040210843086
20
31.694505691528327
30
0
11
-8.5714315250515938
21
31.984618186950691
31
0
0
LINE
5
337
100
AcDbEntity
8
0
100
AcDbLine
10
-8.5714315250515938
20
31.984618186950691
30
0
11
-10.523078329861164
21
37.180221557617195
31
0
0
LINE
5
338
100
AcDbEntity
8
0
100
AcDbLine
10
-10.523078329861164
20
37.180221557617195
30
0
11
-9.1252778843045235
21
38.789012908935554
31
0
0
LINE
5
339
100
AcDbEntity
8
0
100
AcDbLine
10
-9.1252778843045235
20
38.789012908935554
30
0
11
-8.7824176624417305
21
38.643957853317268
31
0
0
LINE
5
340
100
AcDbEntity
8
0
100
AcDbLine
10
-8.7824176624417305
20
38.643957853317268
30
0
11
-10.114290602505207
21
37.10109996795655
31
0
0
LINE
5
341
100
AcDbEntity
8
0
100
AcDbLine
10
-10.114290602505207
20
37.10109996795655
30
0
11
-8.2681344822049141
21
32.182419776916511
31
0
0
SPLINE
5
342
100
AcDbEntity
8
0
100
AcDbSpline
70
0
71
3
72
9
73
5
74
0
42
0.000000001
43
0.0000000001
44
0.0000000001
40
0
40
0
40
0
40
0
40
0.015758731771818333
40
0.023483277318986001
40
0.023483277318986001
40
0.023483277318986001
40
0.023483277318986001
10
-8.2681344822049141
20
32.182419776916511
30
0
10
-8.2259052743889338
20
32.213697113404216
30
0
10
-8.1629763399757671
20
32.260305836566417
30
0
10
-8.1031850690659191
20
32.310848297412861
30
0
10
-8.0835174396634102
20
32.327473640441902
30
0
0
LINE
5
343
100
AcDbEntity
8
0
100
AcDbLine
10
-8.0835174396634102
20
32.327473640441909
30
0
11
-7.6483558490872383
21
32.696705341339118
31
0
0
SPLINE
5
344
100
AcDbEntity
8
0
100
AcDbSpline
70
0
71
3
72
9
73
5
74
0
42
0.000000001
43
0.0000000001
44
0.0000000001
40
0
40
0
40
0
40
0
40
0.042125499616128763
40
0.067301666693020248
40
0.067301666693020248
40
0.067301666693020248
40
0.067301666693020248
10
-7.6483558490872383
20
32.696705341339118
30
0
10
-7.5380344842553271
20
32.783941482591416
30
0
10
-7.3617799165304376
20
32.923314018363058
30
0
10
-7.2056588799302723
20
33.084689139329726
30
0
10
-7.1472572162747383
20
33.145056247711189
30
0
0
SPLINE
5
345
100
AcDbEntity
8
0
100
AcDbSpline
70
0
71
3
72
9
73
5
74
0
42
0.000000001
43
0.0000000001
44
0.0000000001
40
0
40
0
40
0
40
0
40
0.14891750138045828
40
0.28986853016267905
40
0.28986853016267905
40
0.28986853016267905
40
0.28986853016267905
10
-7.1472572162747383
20
33.145056247711189
30
0
10
-7.0210082833445142
20
32.662908903847196
30
0
10
-6.7752642150929621
20
31.724407111968258
30
0
10
-6.315753300003708
20
30.870275011720921
30
0
10
-6.0923122242093086
20
30.454946041107185
30
0
0
SPLINE
5
346
100
AcDbEntity
8
0
100
AcDbSpline
70
0
71
3
72
9
73
5
74
0
42
0.000000001
43
0.0000000001
44
0.0000000001
40
0
40
0
40
0
40
0
40
0.033025895794985646
40
0.055453615529816765
40
0.055453615529816765
40
0.055453615529816765
40
0.055453615529816765
10
-6.0923122242093086
20
30.454946041107185
30
0
10
-6.2021562679947717
20
30.462538482684987
30
0
10
-6.3865948494682812
20
30.475286913153042
30
0
10
-6.5714112430428617
20
30.479582565916839
30
0
10
-6.6461585834622383
20
30.4813199043274
30
0
0
SPLINE
5
347
100
AcDbEntity
8
0
100
AcDbSpline
70
0
71
3
72
9
73
5
74
0
42
0.000000001
43
0.0000000001
44
0.0000000001
40
0
40
0
40
0
40
0
40
0.10891136132216009
40
0.18941337295443395
40
0.18941337295443395
40
0.18941337295443395
40
0.18941337295443395
10
-6.6461585834622383
20
30.4813199043274
30
0
10
-7.0146128877437341
20
30.477343022916997
30
0
10
-7.6554107963025864
20
30.470426623079202
30
0
10
-8.2334499332877797
20
30.200456092758504
30
0
10
-8.4791206195950508
20
30.085716724395759
30
0
0
LINE
5
348
100
AcDbEntity
8
0
100
AcDbLine
10
-8.479120619595049
20
30.085716724395759
30
0
11
-6.0923122242093086
21
23.610990524291999
31
0
0
LINE
5
349
100
AcDbEntity
8
0
100
AcDbLine
10
-6.0923122242093086
20
23.610990524291999
30
0
11
-4.1142867878079414
21
22.081320762634284
31
0
0
LINE
5
350
100
AcDbEntity
8
0
100
AcDbLine
10
-4.1142867878079414
20
22.081320762634284
30
0
11
-10.773627646267414
21
22.081320762634284
31
0
0
LINE
5
351
100
AcDbEntity
8
0
100
AcDbLine
10
-10.773627646267414
20
22.081320762634284
30
0
11
-8.953850157558918
21
23.610990524291999
31
0
0
LINE
5
352
100
AcDbEntity
8
0
100
AcDbLine
10
-8.953850157558918
20
23.610990524291999
30
0
11
-10.417582876980305
21
27.461541175842292
31
0
0
SPLINE
5
353
100
AcDbEntity
8
0
100
AcDbSpline
70
0
71
3
72
9
73
5
74
0
42
0.000000001
43
0.0000000001
44
0.0000000001
40
0
40
0
40
0
40
0
40
0.19189243403784509
40
0.35715253610872422
40
0.35715253610872422
40
0.35715253610872422
40
0.35715253610872422
10
-10.417582876980305
20
27.461541175842292
30
0
10
-10.861513071706534
20
26.998776047774431
30
0
10
-11.687761358652779
20
26.137471953421667
30
0
10
-12.342976761763644
20
25.14045697648541
30
0
10
-12.646155245602131
20
24.679122447967536
30
0
0
LINE
5
354
100
AcDbEntity
8
0
100
AcDbLine
10
-12.646155245602131
20
24.679122447967536
30
0
11
-12.949452288448811
21
24.758244037628181
31
0
0
SPLINE
5
355
100
AcDbEntity
8
0
100
AcDbSpline
70
0
71
3
72
9
73
5
74
0
42
0.000000001
43
0.0000000001
44
0.0000000001
40
0
40
0
40
0
40
0
40
0.16766613130133423
40
0.37105448798550966
40
0.37105448798550966
40
0.37105448798550966
40
0.37105448798550966
10
-12.949452288448811
20
24.758244037628181
30
0
10
-12.637296714982407
20
25.222969645794326
30
0
10
-11.946479043068496
20
26.251433303024744
30
0
10
-11.095193895866364
20
27.152337647971247
30
0
10
-10.628573782742023
20
27.646155834198005
30
0
0
LINE
5
356
100
AcDbEntity
8
0
100
AcDbLine
10
-10.628573782742022
20
27.646155834198005
30
0
11
-10.523078329861164
21
27.778022766113288
31
0
0
LINE
5
357
100
AcDbEntity
8
0
100
AcDbLine
10
-10.523078329861164
20
27.778022766113288
30
0
11
-10.773627646267414
21
28.358242988586433
31
0
0
SPLINE
5
358
100
AcDbEntity
8
0
100
AcDbSpline
70
0
71
3
72
9
73
5
74
0
42
0.000000001
43
0.0000000001
44
0.0000000001
40
0
40
0
40
0
40
0
40
0.20118246337428775
40
0.40080931673917847
40
0.40080931673917847
40
0.40080931673917847
40
0.40080931673917847
10
-10.773627646267414
20
28.358242988586433
30
0
10
-11.273507306560703
20
27.906622051495059
30
0
10
-12.269401390635082
20
27.006872261256461
30
0
10
-13.005038395929652
20
25.884356747381133
30
0
10
-13.371429331600666
20
25.325277328491218
30
0
0
LINE
5
359
100
AcDbEntity
8
0
100
AcDbLine
10
-13.371429331600666
20
25.325277328491218
30
0
11
-13.608791716396809
21
25.707693576812751
31
0
0
SPLINE
5
360
100
AcDbEntity
8
0
100
AcDbSpline
70
0
71
3
72
9
73
5
74
0
42
0.000000001
43
0.0000000001
44
0.0000000001
40
0
40
0
40
0
40
0
40
0.14071716387960559
40
0.30483416293513832
40
0.30483416293513832
40
0.30483416293513832
40
0.30483416293513832
10
-13.608791716396809
20
25.707693576812751
30
0
10
-13.865188726281641
20
26.100637889648617
30
0
10
-14.420618964729218
20
26.951869163652454
30
0
10
-15.032964147655408
20
27.763197971870419
30
0
10
-15.36263931542635
20
28.200002193450935
30
0
0
LINE
5
361
100
AcDbEntity
8
0
100
AcDbLine
10
-15.36263931542635
20
28.200002193450935
30
0
11
-15.494506247341633
21
28.358242988586433
31
0
0
SPLINE
5
362
100
AcDbEntity
8
0
100
AcDbSpline
70
0
71
3
72
9
73
5
74
0
42
0.000000001
43
0.0000000001
44
0.0000000001
40
0
40
0
40
0
40
0
40
0.21812130419134426
40
0.38229371945715768
40
0.38229371945715768
40
0.38229371945715768
40
0.38229371945715768
10
-15.494506247341633
20
28.358242988586433
30
0
10
-15.788700040037572
20
27.687483419308307
30
0
10
-16.304323397727913
20
26.511866156466944
30
0
10
-16.448134509530405
20
25.238950812219446
30
0
10
-16.509892828762531
20
24.692309379577644
30
0
0
SPLINE
5
363
100
AcDbEntity
8
0
100
AcDbSpline
70
0
71
3
72
9
73
5
74
0
42
0.000000001
43
0.0000000001
44
0.0000000001
40
0
40
0
40
0
40
0
40
0.076975283924807292
40
0.1442171416363805
40
0.1442171416363805
40
0.1442171416363805
40
0.1442171416363805
10
-16.509892828762531
20
24.692309379577644
30
0
10
-16.501613738781362
20
24.433592314281348
30
0
10
-16.486102439159509
20
23.948872625737803
30
0
10
-16.308965735310363
20
23.498092454564819
30
0
10
-16.226374991238117
20
23.287914276123054
30
0
0
SPLINE
5
364
100
AcDbEntity
8
0
100
AcDbSpline
70
0
71
3
72
9
73
5
74
0
42
0.000000001
43
0.0000000001
44
0.0000000001
40
0
40
0
40
0
40
0
40
0.090595376491012514
40
0.23569021040802832
40
0.23569021040802832
40
0.23569021040802832
40
0.23569021040802832
10
-16.226374991238117
20
23.287914276123054
30
0
10
-16.069720582921001
20
23.029405035454058
30
0
10
-15.662173179425508
20
22.356875159365515
30
0
10
-15.166614741810074
20
21.745565843360971
30
0
10
-14.86154068261385
20
21.369233608245857
30
0
0
SPLINE
5
365
100
AcDbEntity
8
0
100
AcDbSpline
70
0
71
3
72
9
73
5
74
0
42
0.000000001
43
0.0000000001
44
0.0000000001
40
0
40
0
40
0
40
0
40
0.019256890309275493
40
0.046957053754123131
40
0.046957053754123131
40
0.046957053754123131
40
0.046957053754123131
10
-14.86154068261385
20
21.369233608245857
30
0
10
-14.822013552653424
20
21.318657666097558
30
0
10
-14.725628438728595
20
21.195330524696168
30
0
10
-14.62864280468481
20
21.072474935797615
30
0
10
-14.571430571377277
20
21.00000190734864
30
0
0
LINE
5
366
100
AcDbEntity
8
0
100
AcDbLine
10
-14.571430571377277
20
21.00000190734864
30
0
11
-21.692309267818928
21
21.00000190734864
31
0
0
LINE
5
367
100
AcDbEntity
8
0
100
AcDbLine
10
-21.692309267818928
20
21.00000190734864
30
0
11
-21.956045515835285
21
21.356046676635749
31
0
0
LINE
5
368
100
AcDbEntity
8
0
100
AcDbLine
10
-21.956045515835285
20
21.356046676635749
30
0
11
-15.243956930935383
21
21.356046676635749
31
0
0
LINE
5
369
100
AcDbEntity
8
0
100
AcDbLine
10
-15.243956930935383
20
21.356046676635749
30
0
11
-15.468132384121418
21
21.632969856262214
31
0
0
SPLINE
5
370
100
AcDbEntity
8
0
100
AcDbSpline
70
0
71
3
72
9
73
5
74
0
42
0.000000001
43
0.0000000001
44
0.0000000001
40
0
40
0
40
0
40
0
40
0.11826047812954658
40
0.20024076663355334
40
0.20024076663355334
40
0.20024076663355334
40
0.20024076663355334
10
-15.468132384121418
20
21.632969856262214
30
0
10
-15.719461451575754
20
21.937986985634875
30
0
10
-16.145016344810852
20
22.454447470049974
30
0
10
-16.474074422479148
20
23.036450364328999
30
0
10
-16.608793623745441
20
23.274727344512947
30
0
0
SPLINE
5
371
100
AcDbEntity
8
0
100
AcDbSpline
70
0
71
3
72
9
73
5
74
0
42
0.000000001
43
0.0000000001
44
0.0000000001
40
0
40
0
40
0
40
0
40
0.066935471486231066
40
0.14125447648679237
40
0.14125447648679237
40
0.14125447648679237
40
0.14125447648679237
10
-16.608793623745441
20
23.274727344512947
30
0
10
-16.687580949161863
20
23.485099765195983
30
0
10
-16.853846490561413
20
23.929050416338463
30
0
10
-16.870408357901955
20
24.403253482539998
30
0
10
-16.879122145473957
20
24.652748584747322
30
0
0
SPLINE
5
372
100
AcDbEntity
8
0
100
AcDbSpline
70
0
71
3
72
9
73
5
74
0
42
0.000000001
43
0.0000000001
44
0.0000000001
40
0
40
0
40
0
40
0
40
0.16969320294624796
40
0.41711400513076524
40
0.41711400513076524
40
0.41711400513076524
40
0.41711400513076524
10
-16.879122145473957
20
24.652748584747322
30
0
10
-16.807534348381598
20
25.216002056096833
30
0
10
-16.631568120829499
20
26.60050601535572
30
0
10
-16.099954971576377
20
27.894172116353374
30
0
10
-15.784616358578205
20
28.661540031433113
30
0
0
LINE
5
373
100
AcDbEntity
8
0
100
AcDbLine
10
-15.784616358578205
20
28.661540031433113
30
0
11
-16.36483658105135
21
29.268134117126472
31
0
0
SPLINE
5
374
100
AcDbEntity
8
0
100
AcDbSpline
70
0
71
3
72
9
73
5
74
0
42
0.000000001
43
0.0000000001
44
0.0000000001
40
0
40
0
40
0
40
0
40
0.055601089338107555
40
0.13139163262228734
40
0.13139163262228734
40
0.13139163262228734
40
0.13139163262228734
10
-16.36483658105135
20
29.268134117126472
30
0
10
-16.430937507559491
20
29.094955629053946
30
0
10
-16.587141437287151
20
28.685715368588159
30
0
10
-16.722133296404991
20
28.26896557413523
30
0
10
-16.800000555813313
20
28.028572082519538
30
0
0
LINE
5
375
100
AcDbEntity
8
0
100
AcDbLine
10
-16.800000555813316
20
28.028572082519542
30
0
11
-17.235166914761066
21
26.683519363403327
31
0
0
SPLINE
5
376
100
AcDbEntity
8
0
100
AcDbSpline
70
0
71
3
72
9
73
5
74
0
42
0.000000001
43
0.0000000001
44
0.0000000001
40
0
40
0
40
0
40
0
40
0.10244281761009918
40
0.18337334157633686
40
0.18337334157633686
40
0.18337334157633686
40
0.18337334157633686
10
-17.235166914761066
20
26.683519363403327
30
0
10
-17.338550973355034
20
26.356567336513805
30
0
10
-17.523609142706178
20
25.771320980502036
30
0
10
-17.570509957733506
20
25.159939743196738
30
0
10
-17.591209299862385
20
24.890110969543464
30
0
0
SPLINE
5
377
100
AcDbEntity
8
0
100
AcDbSpline
70
0
71
3
72
9
73
5
74
0
42
0.000000001
43
0.0000000001
44
0.0000000001
40
0
40
0
40
0
40
0
40
0.067872018751786972
40
0.12604547917330755
40
0.12604547917330755
40
0.12604547917330755
40
0.12604547917330755
10
-17.591209299862385
20
24.890110969543464
30
0
10
-17.584384586365303
20
24.661830988304885
30
0
10
-17.571710375419769
20
24.237891047368151
30
0
10
-17.413622084214261
20
23.845046725661525
30
0
10
-17.340659983456135
20
23.663738250732429
30
0
0
SPLINE
5
378
100
AcDbEntity
8
0
100
AcDbSpline
70
0
71
3
72
9
73
5
74
0
42
0.000000001
43
0.0000000001
44
0.0000000001
40
0
40
0
40
0
40
0
40
0.06958209247018643
40
0.17025056715737513
40
0.17025056715737513
40
0.17025056715737513
40
0.17025056715737513
10
-17.340659983456135
20
23.663738250732429
30
0
10
-17.215845290726783
20
23.467678124145763
30
0
10
-16.910453896585402
20
22.987966368385795
30
0
10
-16.517856343417844
20
22.575663251519735
30
0
10
-16.285714991390705
20
22.331870079040534
30
0
0
SPLINE
5
379
100
AcDbEntity
8
0
100
AcDbSpline
70
0
71
3
72
9
73
5
74
0
42
0.000000001
43
0.0000000001
44
0.0000000001
40
0
40
0
40
0
40
0
40
0.014221415147743581
40
0.034514531173495538
40
0.034514531173495538
40
0.034514531173495538
40
0.034514531173495538
10
-16.285714991390705
20
22.331870079040534
30
0
10
-16.252620925109255
20
22.29792641506549
30
0
10
-16.172303588862292
20
22.215547155600916
30
0
10
-16.094246780002894
20
22.131019516464889
30
0
10
-16.048352606594563
20
22.081320762634284
30
0
0
LINE
5
380
100
AcDbEntity
8
0
100
AcDbLine
10
-16.048352606594559
20
22.081320762634284
30
0
11
-22.641758807003498
21
22.081320762634284
31
0
0
SPLINE
5
381
100
AcDbEntity
8
0
100
AcDbSpline
70
0
71
3
72
9
73
5
74
0
42
0.000000001
43
0.0000000001
44
0.0000000001
40
0
40
0
40
0
40
0
40
0.20404044065314514
40
0.40086301506667665
40
0.40086301506667665
40
0.40086301506667665
40
0.40086301506667665
10
-22.641758807003498
20
22.081320762634284
30
0
10
-22.049326775782248
20
22.429508007884156
30
0
10
-20.885419809608152
20
23.113565484391437
30
0
10
-20.060150866211291
20
24.181260945414916
30
0
10
-19.654946215450764
20
24.705496311187751
30
0
0
SPLINE
5
382
100
AcDbEntity
8
0
100
AcDbSpline
70
0
71
3
72
9
73
5
74
0
42
0.000000001
43
0.0000000001
44
0.0000000001
40
0
40
0
40
0
40
0
40
0.23659492087266334
40
0.55503574257662025
40
0.55503574257662025
40
0.55503574257662025
40
0.55503574257662025
10
-19.654946215450764
20
24.705496311187751
30
0
10
-19.269023985783637
20
25.395350720345039
30
0
10
-18.363676438464989
20
27.013702681765412
30
0
10
-17.797412231484127
20
28.781415952481151
30
0
10
-17.472529299557209
20
29.795606613159187
30
0
0
LINE
5
383
100
AcDbEntity
8
0
100
AcDbLine
10
-17.472529299557209
20
29.795606613159187
30
0
11
-17.419781573116779
21
29.9802212715149
31
0
0
SPLINE
5
384
100
AcDbEntity
8
0
100
AcDbSpline
70
0
71
3
72
9
73
5
74
0
42
0.000000001
43
0.0000000001
44
0.0000000001
40
0
40
0
40
0
40
0
40
0.097854905003711953
40
0.21682606127966947
40
0.21682606127966947
40
0.21682606127966947
40
0.21682606127966947
10
-17.419781573116779
20
29.9802212715149
30
0
10
-17.696624137931991
20
30.160220879256112
30
0
10
-18.310049524438334
20
30.559062470047422
30
0
10
-19.037961894628729
20
30.653614969505835
30
0
10
-19.437363035976887
20
30.705495357513435
30
0
0
SPLINE
5
385
100
AcDbEntity
8
0
100
AcDbSpline
70
0
71
3
72
9
73
5
74
0
42
0.000000001
43
0.0000000001
44
0.0000000001
40
0
40
0
40
0
40
0
40
0.12778733404623502
40
0.25237724542541973
40
0.25237724542541973
40
0.25237724542541973
40
0.25237724542541973
10
-19.437363035976887
20
30.705495357513435
30
0
10
-19.210201928243059
20
31.067241561112553
30
0
10
-18.76156361001264
20
31.78168255864065
30
0
10
-18.463586671643132
20
32.570854643853224
30
0
10
-18.316485770046711
20
32.960441589355476
30
0
0
SPLINE
5
386
100
AcDbEntity
8
0
100
AcDbSpline
70
0
71
3
72
9
73
5
74
0
42
0.000000001
43
0.0000000001
44
0.0000000001
40
0
40
0
40
0
40
0
40
0.020292953348753525
40
0.030785722375291105
40
0.030785722375291105
40
0.030785722375291105
40
0.030785722375291105
10
-18.316485770046711
20
32.960441589355476
30
0
10
-18.2668467255716
20
32.914486539739777
30
0
10
-18.191541085435219
20
32.844769758012752
30
0
10
-18.117532462843716
20
32.773680276239617
30
0
10
-18.092307932674885
20
32.749450683593757
30
0
0
LINE
5
387
100
AcDbEntity
8
0
100
AcDbLine
10
-18.092307932674885
20
32.749450683593764
30
0
11
-17.498900778591633
21
32.195604324340827
31
0
0
SPLINE
5
388
100
AcDbEntity
8
0
100
AcDbSpline
70
0
71
3
72
9
73
5
74
0
42
0.000000001
43
0.0000000001
44
0.0000000001
40
0
40
0
40
0
40
0
40
0.044379362850903763
40
0.093766160653524486
40
0.093766160653524486
40
0.093766160653524486
40
0.093766160653524486
10
-17.498900778591633
20
32.195604324340827
30
0
10
-17.38945553988243
20
32.095923410837685
30
0
10
-17.15821608135197
20
31.885314336051572
30
0
10
-16.906307418052826
20
31.699872230055593
30
0
10
-16.773626692593098
20
31.602199554443366
30
0
0
LINE
5
389
100
AcDbEntity
8
0
100
AcDbLine
10
-16.773626692593101
20
31.602199554443366
30
0
11
-16.536264307796955
21
32.182419776916511
31
0
0
LINE
5
390
100
AcDbEntity
8
0
100
AcDbLine
10
-16.536264307796955
20
32.182419776916511
30
0
11
-16.694507487118244
21
32.314289093017585
31
0
0
SPLINE
5
391
100
AcDbEntity
8
0
100
AcDbSpline
70
0
71
3
72
9
73
5
74
0
42
0.000000001
43
0.0000000001
44
0.0000000001
40
0
40
0
40
0
40
0
40
0.080169233417117541
40
0.14504726501616899
40
0.14504726501616899
40
0.14504726501616899
40
0.14504726501616899
10
-16.694507487118244
20
32.314289093017585
30
0
10
-16.895542956374836
20
32.490391431111277
30
0
10
-17.25926908601356
20
32.809006957475887
30
0
10
-17.634404095666028
20
33.114089349089831
30
0
10
-17.802197821438313
20
33.250549316406257
30
0
0
LINE
5
392
100
AcDbEntity
8
0
100
AcDbLine
10
-17.802197821438313
20
33.25054931640625
30
0
11
-17.920880205929279
21
33.3428602218628
31
0
0
LINE
5
393
100
AcDbEntity
8
0
100
AcDbLine
10
-17.920880205929279
20
33.3428602218628
30
0
11
-17.709891684353352
21
33.632967948913581
31
0
0
SPLINE
5
394
100
AcDbEntity
8
0
100
AcDbSpline
70
0
71
3
72
9
73
5
74
0
42
0.000000001
43
0.0000000001
44
0.0000000001
40
0
40
0
40
0
40
0
40
0.084735403215714281
40
0.17191372171179373
40
0.17191372171179373
40
0.17191372171179373
40
0.17191372171179373
10
-17.709891684353352
20
33.632967948913581
30
0
10
-17.47763639570751
20
33.471679318551004
30
0
10
-17.00642991597072
20
33.144452118783725
30
0
10
-16.580717501405701
20
32.759864657697342
30
0
10
-16.36483658105135
20
32.564838409423835
30
0
0
LINE
5
395
100
AcDbEntity
8
0
100
AcDbLine
10
-16.36483658105135
20
32.564838409423828
30
0
11
-14.571430571377277
21
37.496704339981086
31
0
0
LINE
5
396
100
AcDbEntity
8
0
100
AcDbLine
10
-23.894503004848957
20
27.11868333816529
30
0
11
-23.868131525814533
21
27.42198038101197
31
0
0
LINE
5
397
100
AcDbEntity
8
0
100
AcDbLine
10
-23.868131525814533
20
27.42198038101197
30
0
11
-23.485715277493
21
27.250550270080574
31
0
0
SPLINE
5
398
100
AcDbEntity
8
0
100
AcDbSpline
70
0
71
3
72
9
73
5
74
0
42
0.000000001
43
0.0000000001
44
0.0000000001
40
0
40
0
40
0
40
0
40
0.2934014004188833
40
0.53838087138496715
40
0.53838087138496715
40
0.53838087138496715
40
0.53838087138496715
10
-23.485715277493
20
27.250550270080574
30
0
10
-23.586600114080085
20
26.257365870323142
30
0
10
-23.771720110623178
20
24.434908711550321
30
0
10
-24.830369944738258
20
22.948768515809739
30
0
10
-25.312087424099445
20
22.272530078887947
30
0
0
SPLINE
5
399
100
AcDbEntity
8
0
100
AcDbSpline
70
0
71
3
72
9
73
5
74
0
42
0.000000001
43
0.0000000001
44
0.0000000001
40
0
40
0
40
0
40
0
40
0.23219837929666956
40
0.49367421680945156
40
0.49367421680945156
40
0.49367421680945156
40
0.49367421680945156
10
-25.312087424099445
20
22.272530078887947
30
0
10
-25.929940135021976
20
21.77492626717207
30
0
10
-27.243549446560571
20
20.716976712251302
30
0
10
-28.933488922714837
20
20.617517018820315
30
0
10
-29.828569777309895
20
20.564837932586677
30
0
0
SPLINE
5
400
100
AcDbEntity
8
0
100
AcDbSpline
70
0
71
3
72
9
73
5
74
0
42
0.000000001
43
0.0000000001
44
0.0000000001
40
0
40
0
40
0
40
0
40
0.21533153852660228
40
0.43753085747064258
40
0.43753085747064258
40
0.43753085747064258
40
0.43753085747064258
10
-29.828569777309895
20
20.564837932586677
30
0
10
-30.554806634383624
20
20.624901304860952
30
0
10
-32.030442934465128
20
20.746943709580485
30
0
10
-33.290003834918487
20
21.526951780563437
30
0
10
-33.929669745266438
20
21.923077583312995
30
0
0
LINE
5
401
100
AcDbEntity
8
0
100
AcDbLine
10
-33.929669745266438
20
21.923077583312995
30
0
11
-33.929669745266438
21
22.028573036193855
31
0
0
SPLINE
5
402
100
AcDbEntity
8
0
100
AcDbSpline
70
0
71
3
72
9
73
5
74
0
42
0.000000001
43
0.0000000001
44
0.0000000001
40
0
40
0
40
0
40
0
40
0.20395093364292463
40
0.42688635580026246
40
0.42688635580026246
40
0.42688635580026246
40
0.42688635580026246
10
-33.929669745266438
20
22.028573036193855
30
0
10
-33.321616429988907
20
21.705670782461318
30
0
10
-32.04891000371903
20
21.029809368573865
30
0
10
-30.607631275767282
20
20.958250785665797
30
0
10
-29.854943640530109
20
20.920880317687995
30
0
0
SPLINE
5
403
100
AcDbEntity
8
0
100
AcDbSpline
70
0
71
3
72
9
73
5
74
0
42
0.000000001
43
0.0000000001
44
0.0000000001
40
0
40
0
40
0
40
0
40
0.24070217715775077
40
0.46755021231840943
40
0.46755021231840943
40
0.46755021231840943
40
0.46755021231840943
10
-29.854943640530109
20
20.920880317687995
30
0
10
-29.033434266963908
20
20.982011306552106
30
0
10
-27.437699294526531
20
21.100754756071957
30
0
10
-26.197385887456647
20
22.107263876646286
30
0
10
-25.595605261623859
20
22.595606327056892
30
0
0
SPLINE
5
404
100
AcDbEntity
8
0
100
AcDbSpline
70
0
71
3
72
9
73
5
74
0
42
0.000000001
43
0.0000000001
44
0.0000000001
40
0
40
0
40
0
40
0
40
0.11136461523949279
40
0.21958144665713308
40
0.21958144665713308
40
0.21958144665713308
40
0.21958144665713308
10
-25.595605261623859
20
22.595606327056892
30
0
10
-25.346003943171226
20
22.873882479262882
30
0
10
-24.8538564286713
20
23.422569150879049
30
0
10
-24.555721485807656
20
24.09645862558413
30
0
10
-24.408790953457355
20
24.428573131561286
30
0
0
SPLINE
5
405
100
AcDbEntity
8
0
100
AcDbSpline
70
0
71
3
72
9
73
5
74
0
42
0.000000001
43
0.0000000001
44
0.0000000001
40
0
40
0
40
0
40
0
40
0.12227749199619353
40
0.27451422629967748
40
0.27451422629967748
40
0.27451422629967748
40
0.27451422629967748
10
-24.408790953457355
20
24.428573131561286
30
0
10
-24.29005526974872
20
24.819564411564802
30
0
10
-24.023492439457321
20
25.697343853781582
30
0
10
-23.940517969306626
20
26.611642695226031
30
0
10
-23.894503004848957
20
27.11868333816529
30
0
0
SPLINE
5
406
100
AcDbEntity
8
0
100
AcDbSpline
70
0
71
3
72
9
73
5
74
0
42
0.000000001
43
0.0000000001
44
0.0000000001
40
0
40
0
40
0
40
0
40
0.066950047195685453
40
0.13256187370612182
40
0.13256187370612182
40
0.13256187370612182
40
0.13256187370612182
10
-25.424175150692463
20
38.327473878860481
30
0
10
-25.198203428323403
20
38.342754825006466
30
0
10
-24.750776784481214
20
38.373011276464865
30
0
10
-24.363238978073962
20
38.598356262405467
30
0
10
-24.171426184475422
20
38.709891319274909
30
0
0
LINE
5
407
100
AcDbEntity
8
0
100
AcDbLine
10
-24.171426184475422
20
38.709891319274902
30
0
11
-23.960440047085285
21
38.591210126876838
31
0
0
LINE
5
408
100
AcDbEntity
8
0
100
AcDbLine
10
-23.960440047085285
20
38.591210126876838
30
0
11
-24.105493910610676
21
38.340660810470588
31
0
0
SPLINE
5
409
100
AcDbEntity
8
0
100
AcDbSpline
70
0
71
3
72
9
73
5
74
0
42
0.000000001
43
0.0000000001
44
0.0000000001
40
0
40
0
40
0
40
0
40
0.23480313129836189
40
0.46256874282757432
40
0.46256874282757432
40
0.46256874282757432
40
0.46256874282757432
10
-24.105493910610676
20
38.340660810470588
30
0
10
-24.485630500430673
20
37.655962450920562
30
0
10
-25.234510225685952
20
36.307087511979887
30
0
10
-25.856414738697143
20
34.895203195617789
30
0
10
-26.162636168301105
20
34.200001239776618
30
0
0
LINE
5
410
100
AcDbEntity
8
0
100
AcDbLine
10
-26.162636168301105
20
34.200001239776618
30
0
11
-26.281316168606281
21
33.896704196929939
31
0
0
LINE
5
411
100
AcDbEntity
8
0
100
AcDbLine
10
-26.281316168606281
20
33.896704196929939
30
0
11
-26.452746279537678
21
33.989012718200691
31
0
0
SPLINE
5
412
100
AcDbEntity
8
0
100
AcDbSpline
70
0
71
3
72
9
73
5
74
0
42
0.000000001
43
0.0000000001
44
0.0000000001
40
0
40
0
40
0
40
0
40
0.18661613470599175
40
0.35184183812491199
40
0.35184183812491199
40
0.35184183812491199
40
0.35184183812491199
10
-26.452746279537678
20
33.989012718200691
30
0
10
-26.574948718988139
20
34.608825352961901
30
0
10
-26.805346433458741
20
35.777406071081479
30
0
10
-27.525534252286327
20
36.722987500571463
30
0
10
-27.863736040890217
20
37.167034626007087
30
0
0
SPLINE
5
413
100
AcDbEntity
8
0
100
AcDbSpline
70
0
71
3
72
9
73
5
74
0
42
0.000000001
43
0.0000000001
44
0.0000000001
40
0
40
0
40
0
40
0
40
0.15068843836442575
40
0.29900434781186563
40
0.29900434781186563
40
0.29900434781186563
40
0.29900434781186563
10
-27.863736040890217
20
37.167034626007087
30
0
10
-28.250090790144551
20
37.509336206025765
30
0
10
-29.016717288359558
20
38.188549965218982
30
0
10
-30.035372903991401
20
38.290226120817728
30
0
10
-30.540659315884113
20
38.340660810470588
30
0
0
SPLINE
5
414
100
AcDbEntity
8
0
100
AcDbSpline
70
0
71
3
72
9
73
5
74
0
42
0.000000001
43
0.0000000001
44
0.0000000001
40
0
40
0
40
0
40
0
40
0.1579243175034149
40
0.32499045477783783
40
0.32499045477783783
40
0.32499045477783783
40
0.32499045477783783
10
-30.540659315884113
20
38.340660810470588
30
0
10
-31.080755292662548
20
38.273090919725298
30
0
10
-32.192211969454007
20
38.134039696520695
30
0
10
-32.947827355671905
20
37.303748138142943
30
0
10
-33.336262591183186
20
36.876924514770515
30
0
0
SPLINE
5
415
100
AcDbEntity
8
0
100
AcDbSpline
70
0
71
3
72
9
73
5
74
0
42
0.000000001
43
0.0000000001
44
0.0000000001
40
0
40
0
40
0
40
0
40
0.26713009353813288
40
0.64066752983178588
40
0.64066752983178588
40
0.64066752983178588
40
0.64066752983178588
10
-33.336262591183186
20
36.876924514770515
30
0
10
-33.745019708140205
20
36.073700153445031
30
0
10
-34.725356325978552
20
34.147298823459153
30
0
10
-34.739187921874901
20
31.973131077941332
30
0
10
-34.747252352535725
20
30.705495357513435
30
0
0
SPLINE
5
416
100
AcDbEntity
8
0
100
AcDbSpline
70
0
71
3
72
9
73
5
74
0
42
0.000000001
43
0.0000000001
44
0.0000000001
40
0
40
0
40
0
40
0
40
0.33553103396696748
40
0.60650516265366594
40
0.60650516265366594
40
0.60650516265366594
40
0.60650516265366594
10
-34.747252352535725
20
30.705495357513435
30
0
10
-34.720291726472695
20
29.573076833232026
30
0
10
-34.671557757807335
20
27.52611958715822
30
0
10
-33.826088657058506
20
25.667677319767179
30
0
10
-33.448350317776203
20
24.837363243103034
30
0
0
SPLINE
5
417
100
AcDbEntity
8
0
100
AcDbSpline
70
0
71
3
72
9
73
5
74
0
42
0.000000001
43
0.0000000001
44
0.0000000001
40
0
40
0
40
0
40
0
40
0.22229129175444751
40
0.43458296421342357
40
0.43458296421342357
40
0.43458296421342357
40
0.43458296421342357
10
-33.448350317776203
20
24.837363243103034
30
0
10
-32.982571557187406
20
24.218229653989425
30
0
10
-32.071966769898047
20
23.007813770049591
30
0
10
-30.573668267881988
20
22.810617925966426
30
0
10
-29.841756708920002
20
22.714288711547859
30
0
0
SPLINE
5
418
100
AcDbEntity
8
0
100
AcDbSpline
70
0
71
3
72
9
73
5
74
0
42
0.000000001
43
0.0000000001
44
0.0000000001
40
0
40
0
40
0
40
0
40
0.16882669401280126
40
0.32733269711567003
40
0.32733269711567003
40
0.32733269711567003
40
0.32733269711567003
10
-29.841756708920002
20
22.714288711547859
30
0
10
-29.26364311612253
20
22.758866989907688
30
0
10
-28.142757093469747
20
22.845298393268514
30
0
10
-27.301750082310406
20
23.587738227360941
30
0
10
-26.89450491219759
20
23.947253704071052
30
0
0
SPLINE
5
419
100
AcDbEntity
8
0
100
AcDbSpline
70
0
71
3
72
9
73
5
74
0
42
0.000000001
43
0.0000000001
44
0.0000000001
40
0
40
0
40
0
40
0
40
0.17369356881248388
40
0.38118520599100053
40
0.38118520599100053
40
0.38118520599100053
40
0.38118520599100053
10
-26.89450491219759
20
23.947253704071052
30
0
10
-26.562485040260519
20
24.431496125844173
30
0
10
-25.833839390667848
20
25.494207016956338
30
0
10
-25.671035470784997
20
26.77665144909254
30
0
10
-25.582415945827961
20
27.4747281074524
30
0
0
SPLINE
5
420
100
AcDbEntity
8
0
100
AcDbSpline
70
0
71
3
72
9
73
5
74
0
42
0.000000001
43
0.0000000001
44
0.0000000001
40
0
40
0
40
0
40
0
40
0.043785173042119228
40
0.077726740532574279
40
0.077726740532574279
40
0.077726740532574279
40
0.077726740532574279
10
-25.582415945827961
20
27.4747281074524
30
0
10
-25.560794811991421
20
27.635418023659359
30
0
10
-25.522413320199302
20
27.920672198884485
30
0
10
-25.252103448150471
20
27.995775927124612
30
0
10
-25.134065039455891
20
28.028572082519538
30
0
0
SPLINE
5
421
100
AcDbEntity
8
0
100
AcDbSpline
70
0
71
3
72
9
73
5
74
0
42
0.000000001
43
0.0000000001
44
0.0000000001
40
0
40
0
40
0
40
0
40
0.044124073862914427
40
0.10968271342467401
40
0.10968271342467401
40
0.10968271342467401
40
0.10968271342467401
10
-25.134065039455891
20
28.028572082519538
30
0
10
-24.985434509175661
20
27.971785832877885
30
0
10
-24.615971800235158
20
27.830627743866021
30
0
10
-24.618355005435188
20
27.418039737498585
30
0
10
-24.619779475033283
20
27.17143106460572
30
0
0
SPLINE
5
422
100
AcDbEntity
8
0
100
AcDbSpline
70
0
71
3
72
9
73
5
74
0
42
0.000000001
43
0.0000000001
44
0.0000000001
40
0
40
0
40
0
40
0
40
0.13102509671058057
40
0.27270868932161546
40
0.27270868932161546
40
0.27270868932161546
40
0.27270868932161546
10
-24.619779475033283
20
27.17143106460572
30
0
10
-24.647521029466507
20
26.732938970989835
30
0
10
-24.705260830002125
20
25.820284776259356
30
0
10
-25.030845050548699
20
24.96515658459127
30
0
10
-25.199999697506428
20
24.520881652832038
30
0
0
SPLINE
5
423
100
AcDbEntity
8
0
100
AcDbSpline
70
0
71
3
72
9
73
5
74
0
42
0.000000001
43
0.0000000001
44
0.0000000001
40
0
40
0
40
0
40
0
40
0.28749439918051073
40
0.61411028127034617
40
0.61411028127034617
40
0.61411028127034617
40
0.61411028127034617
10
-25.199999697506428
20
24.520881652832038
30
0
10
-25.754275554535624
20
23.67565107071993
30
0
10
-26.938251671746322
20
21.870173148371759
30
0
10
-29.109142925122995
20
21.706717281292885
30
0
10
-30.263736136257648
20
21.619782924652107
30
0
0
SPLINE
5
424
100
AcDbEntity
8
0
100
AcDbSpline
70
0
71
3
72
9
73
5
74
0
42
0.000000001
43
0.0000000001
44
0.0000000001
40
0
40
0
40
0
40
0
40
0.31341140601357692
40
0.61134239223436204
40
0.61134239223436204
40
0.61134239223436204
40
0.61134239223436204
10
-30.263736136257648
20
21.619782924652107
30
0
10
-31.338767316699204
20
21.709504571397723
30
0
10
-33.435730353038728
20
21.884516217764837
30
0
10
-34.964741883003725
20
23.324577350485058
30
0
10
-35.709888823330402
20
24.026375293731697
30
0
0
SPLINE
5
425
100
AcDbEntity
8
0
100
AcDbSpline
70
0
71
3
72
9
73
5
74
0
42
0.000000001
43
0.0000000001
44
0.0000000001
40
0
40
0
40
0
40
0
40
0.32093424070441157
40
0.69212451874627678
40
0.69212451874627678
40
0.69212451874627678
40
0.69212451874627678
10
-35.709888823330402
20
24.026375293731697
30
0
10
-36.297524409472317
20
24.942782731976902
30
0
10
-37.564815167740932
20
26.919100546426456
30
0
10
-37.670690136278289
20
29.27212653749795
30
0
10
-37.727471478283405
20
30.534067630767829
30
0
0
SPLINE
5
426
100
AcDbEntity
8
0
100
AcDbSpline
70
0
71
3
72
9
73
5
74
0
42
0.000000001
43
0.0000000001
44
0.0000000001
40
0
40
0
40
0
40
0
40
0.35172994266284613
40
0.67853449100006213
40
0.67853449100006213
40
0.67853449100006213
40
0.67853449100006213
10
-37.727471478283405
20
30.534067630767829
30
0
10
-37.653679611993219
20
31.727506813474847
30
0
10
-37.511325150914104
20
34.029811934975029
30
0
10
-36.242079105183564
20
35.95141649777495
30
0
10
-35.630768425762653
20
36.876924514770515
30
0
0
SPLINE
5
427
100
AcDbEntity
8
0
100
AcDbSpline
70
0
71
3
72
9
73
5
74
0
42
0.000000001
43
0.0000000001
44
0.0000000001
40
0
40
0
40
0
40
0
40
0.30342072742851239
40
0.59631303289536031
40
0.59631303289536031
40
0.59631303289536031
40
0.59631303289536031
10
-35.630768425762653
20
36.876924514770515
30
0
10
-34.899020242134874
20
37.623010456791029
30
0
10
-33.460914868145366
20
39.089293840452306
30
0
10
-31.422962305711106
20
39.32123995336098
30
0
10
-30.421976931393147
20
39.435165405273445
30
0
0
SPLINE
5
428
100
AcDbEntity
8
0
100
AcDbSpline
70
0
71
3
72
9
73
5
74
0
42
0.000000001
43
0.0000000001
44
0.0000000001
40
0
40
0
40
0
40
0
40
0.15894957952980288
40
0.34541186607144281
40
0.34541186607144281
40
0.34541186607144281
40
0.34541186607144281
10
-30.421976931393147
20
39.435165405273445
30
0
10
-29.891096640276761
20
39.396382902972789
30
0
10
-28.737445573331456
20
39.312105004722177
30
0
10
-27.647643693419774
20
38.921012954390072
30
0
10
-27.059340365231037
20
38.709891319274909
30
0
0
SPLINE
5
429
100
AcDbEntity
8
0
100
AcDbSpline
70
0
71
3
72
9
73
5
74
0
42
0.000000001
43
0.0000000001
44
0.0000000001
40
0
40
0
40
0
40
0
40
0.094773735072434959
40
0.16858241403014063
40
0.16858241403014063
40
0.16858241403014063
40
0.16858241403014063
10
-27.059340365231037
20
38.709891319274909
30
0
10
-26.761657408455889
20
38.59891592022646
30
0
10
-26.232142438612939
20
38.401514175373336
30
0
10
-25.67020316033323
20
38.350019329717966
30
0
10
-25.424175150692463
20
38.327473878860481
30
0
0
LWPOLYLINE
5
430
100
AcDbEntity
8
0
100
AcDbPolyline
90
8
70
1
43
0.0
10
-44.241757281124592
20
23.597803592681892
10
-44.241757281124592
20
37.3516492843628
10
-46.074724085628986
20
39.000001430511482
10
-39.824174530804157
20
39.000001430511482
10
-41.59120786935091
20
37.206595420837409
10
-41.59120786935091
20
23.479123592376716
10
-39.929668791592121
20
22.081320762634284
10
-46.074724085628986
20
22.081320762634284
0
ENDSEC
0
SECTION
2
OBJECTS
0
DICTIONARY
5
C
100
AcDbDictionary
3
ACAD_GROUP
350
D
3
ACAD_MLINESTYLE
350
17
0
DICTIONARY
5
D
100
AcDbDictionary
0
DICTIONARY
5
1A
330
C
100
AcDbDictionary
0
DICTIONARY
5
17
100
AcDbDictionary
0
ENDSEC
0
EOF
