0
SECTION
2
HEADER
9
$INSUNITS
70
4
9
$ACADVER
1
AC1014
9
$HANDSEED
5
FFFF
0
ENDSEC
0
SECTION
2
TABLES
0
TABLE
2
VPORT
5
8
100
AcDbSymbolTable
0
ENDTAB
0
TABLE
2
LTYPE
5
5
100
AcDbSymbolTable
0
LTYPE
5
14
100
AcDbSymbolTableRecord
100
AcDbLinetypeTableRecord
2
BYBLOCK
70
0
0
LTYPE
5
15
100
AcDbSymbolTableRecord
100
AcDbLinetypeTableRecord
2
BYLAYER
70
0
0
ENDTAB
0
TABLE
2
LAYER
5
2
100
AcDbSymbolTable
70
2
0
LAYER
5
50
100
AcDbSymbolTableRecord
100
AcDbLayerTableRecord
2
0
70
0
6
CONTINUOUS
0
ENDTAB
0
TABLE
2
STYLE
5
3
100
AcDbSymbolTable
70
1
0
STYLE
5
11
100
AcDbSymbolTableRecord
100
AcDbTextStyleTableRecord
2
STANDARD
70
0
0
ENDTAB
0
TABLE
2
VIEW
5
6
100
AcDbSymbolTable
70
0
0
ENDTAB
0
TABLE
2
UCS
5
7
100
AcDbSymbolTable
70
0
0
ENDTAB
0
TABLE
2
APPID
5
9
100
AcDbSymbolTable
70
2
0
APPID
5
12
100
AcDbSymbolTableRecord
100
AcDbRegAppTableRecord
2
ACAD
70
0
0
ENDTAB
0
TABLE
2
DIMSTYLE
5
A
100
AcDbSymbolTable
70
1
0
ENDTAB
0
TABLE
2
BLOCK_RECORD
5
1
100
AcDbSymbolTable
70
1
0
BLOCK_RECORD
5
1F
100
AcDbSymbolTableRecord
100
AcDbBlockTableRecord
2
*MODEL_SPACE
0
BLOCK_RECORD
5
1B
100
AcDbSymbolTableRecord
100
AcDbBlockTableRecord
2
*PAPER_SPACE
0
ENDTAB
0
ENDSEC
0
SECTION
2
BLOCKS
0
BLOCK
5
20
100
AcDbEntity
100
AcDbBlockBegin
2
*MODEL_SPACE
0
ENDBLK
5
21
100
AcDbEntity
100
AcDbBlockEnd
0
BLOCK
5
1C
100
AcDbEntity
100
AcDbBlockBegin
2
*PAPER_SPACE
0
ENDBLK
5
1D
100
AcDbEntity
100
AcDbBlockEnd
0
ENDSEC
0
SECTION
2
ENTITIES
0
ARC
5
100
100
AcDbEntity
8
0
100
AcDbCircle
10
21.675086310983854
20
12.259038434267751
30
-1.7105694144590052e-48
40
1.8374999999991286
210
-8.4025225986801962e-33
220
-9.0192253681432531e-33
230
1
100
AcDbArc
50
-133.62553781189106
51
46.374462188108993
0
LINE
5
101
100
AcDbEntity
8
0
100
AcDbLine
10
20.407317422365505
20
10.928937575291936
30
-2.2648936145983134e-32
11
-23.024793163186477
21
52.325706997572254
31
0
0
ARC
5
102
100
AcDbEntity
8
0
100
AcDbCircle
10
-21.757024274567534
20
53.655807856548705
30
0
40
1.837499999999991
210
-8.9596730457477675e-33
220
8.5397995670326009e-33
230
1
100
AcDbArc
50
46.374462188109163
51
226.3744607093299
0
LINE
5
103
100
AcDbEntity
8
0
100
AcDbLine
10
-20.489255385948596
20
54.985908715525149
30
0
11
22.942855199602199
21
13.589139293243564
31
2.2648936145983134e-32
0
ARC
5
104
100
AcDbEntity
8
0
100
AcDbCircle
10
24.904848911704569
20
29.268072266474423
30
-3.4211388289180104e-48
40
2.2500000000101257
210
-1.3143303282901589e-32
220
-4.1419450655261451e-33
230
1
100
AcDbArc
50
-135.94614869567076
51
44.053851304329257
0
LINE
5
105
100
AcDbEntity
8
0
100
AcDbLine
10
23.287804094508061
20
27.703570409900426
30
-2.773339119930101e-32
11
-4.5250640511355522
21
56.450518901716279
31
0
0
ARC
5
106
100
AcDbEntity
8
0
100
AcDbCircle
10
-2.908019233939422
20
58.015020758289907
30
3.4211388289180104e-48
40
2.2500000000095941
210
4.4282072665140315e-33
220
4.2864033440952996e-33
230
1
100
AcDbArc
50
44.053851304332092
51
224.05385130433223
0
LINE
5
107
100
AcDbEntity
8
0
100
AcDbLine
10
-1.2909744167433754
20
59.579522614863613
30
-1.3866695599647226e-32
11
26.521893728901077
21
30.83257412304842
31
2.7733391199301005e-32
0
LWPOLYLINE
5
108
100
AcDbEntity
8
0
100
AcDbPolyline
90
4
70
1
43
0.0
10
3.039738252458859
20
6.5700675994412974
42
1.0009600671107455
10
6.0612821331269684
20
9.904423152212809
10
-23.646216656198909
20
36.690206353916224
42
0.97249366166719653
10
-26.701346151799918
20
33.318582446109502
0
LWPOLYLINE
5
109
100
AcDbEntity
8
0
100
AcDbPolyline
90
20
70
1
43
0.0
10
-33.920110200244622
20
23.07345895777576
10
-31.470128222052757
20
23.064061802084886
10
-31.470128222052736
20
2.9964506662420654
10
-12.994223176974124
20
2.9964506662421106
10
-12.993777773559112
20
0.54645070672868168
10
13.006222226440428
20
0.54645069391800205
10
13.005853983095175
20
2.9964506662428332
10
31.479871777947213
20
2.9964506662428896
10
31.479871777947221
20
22.96304297625224
10
33.92987177794722
20
22.96304297625224
10
33.929871777947227
20
42.999999999999936
10
31.479871777947231
20
42.999999999999943
10
31.479871777947231
20
62.996450666242048
10
13.000000055433237
20
62.996450666242055
10
13.000000055433238
20
65.446450666242058
10
-12.999999944566765
20
65.446450666242072
10
-12.999999944566767
20
62.996450666242048
10
-31.470128222052772
20
62.996450666242055
10
-31.470128222052768
20
43.072935346823456
10
-33.920128166100028
20
43.073458957767691
0
ENDSEC
0
SECTION
2
OBJECTS
0
DICTIONARY
5
C
100
AcDbDictionary
3
ACAD_GROUP
350
D
3
ACAD_MLINESTYLE
350
17
0
DICTIONARY
5
D
100
AcDbDictionary
0
DICTIONARY
5
1A
330
C
100
AcDbDictionary
0
DICTIONARY
5
17
100
AcDbDictionary
0
ENDSEC
0
EOF
