0
SECTION
2
HEADER
9
$INSUNITS
70
4
9
$ACADVER
1
AC1014
9
$HANDSEED
5
FFFF
0
ENDSEC
0
SECTION
2
TABLES
0
TABLE
2
VPORT
5
8
100
AcDbSymbolTable
0
ENDTAB
0
TABLE
2
LTYPE
5
5
100
AcDbSymbolTable
0
LTYPE
5
14
100
AcDbSymbolTableRecord
100
AcDbLinetypeTableRecord
2
BYBLOCK
70
0
0
LTYPE
5
15
100
AcDbSymbolTableRecord
100
AcDbLinetypeTableRecord
2
BYLAYER
70
0
0
ENDTAB
0
TABLE
2
LAYER
5
2
100
AcDbSymbolTable
70
2
0
LAYER
5
50
100
AcDbSymbolTableRecord
100
AcDbLayerTableRecord
2
0
70
0
6
CONTINUOUS
0
ENDTAB
0
TABLE
2
STYLE
5
3
100
AcDbSymbolTable
70
1
0
STYLE
5
11
100
AcDbSymbolTableRecord
100
AcDbTextStyleTableRecord
2
STANDARD
70
0
0
ENDTAB
0
TABLE
2
VIEW
5
6
100
AcDbSymbolTable
70
0
0
ENDTAB
0
TABLE
2
UCS
5
7
100
AcDbSymbolTable
70
0
0
ENDTAB
0
TABLE
2
APPID
5
9
100
AcDbSymbolTable
70
2
0
APPID
5
12
100
AcDbSymbolTableRecord
100
AcDbRegAppTableRecord
2
ACAD
70
0
0
ENDTAB
0
TABLE
2
DIMSTYLE
5
A
100
AcDbSymbolTable
70
1
0
ENDTAB
0
TABLE
2
BLOCK_RECORD
5
1
100
AcDbSymbolTable
70
1
0
BLOCK_RECORD
5
1F
100
AcDbSymbolTableRecord
100
AcDbBlockTableRecord
2
*MODEL_SPACE
0
BLOCK_RECORD
5
1B
100
AcDbSymbolTableRecord
100
AcDbBlockTableRecord
2
*PAPER_SPACE
0
ENDTAB
0
ENDSEC
0
SECTION
2
BLOCKS
0
BLOCK
5
20
100
AcDbEntity
100
AcDbBlockBegin
2
*MODEL_SPACE
0
ENDBLK
5
21
100
AcDbEntity
100
AcDbBlockEnd
0
BLOCK
5
1C
100
AcDbEntity
100
AcDbBlockBegin
2
*PAPER_SPACE
0
ENDBLK
5
1D
100
AcDbEntity
100
AcDbBlockEnd
0
ENDSEC
0
SECTION
2
ENTITIES
0
LWPOLYLINE
5
100
100
AcDbEntity
8
0
100
AcDbPolyline
90
4
70
1
43
0.0
10
-17.326742681566824
20
32.808164325269274
10
18.315443367488289
20
14.652322975861944
42
-0.9999999925494194
10
17.203398069079338
20
12.469239089638936
10
-18.438787947445316
20
30.625080422475577
42
-1.0000000074505806
0
LWPOLYLINE
5
101
100
AcDbEntity
8
0
100
AcDbPolyline
90
4
70
1
43
0.0
10
2.7243637104436953
20
34.125572118088243
10
20.545456726838633
20
25.047651447527276
42
-0.99999999999999989
10
19.183768626254487
20
22.374487495068006
10
1.3626756098595494
20
31.452408165629009
42
-0.99999999999999989
0
LWPOLYLINE
5
102
100
AcDbEntity
8
0
100
AcDbPolyline
90
4
70
1
43
0.0
10
-19.30868096854795
20
22.903714508725788
10
-1.4844524925410112
20
13.82419666039365
42
-0.99999999999999989
10
-2.8461405931251611
20
11.151032707934402
10
-20.670369069132093
20
20.230550556266557
42
-0.99999999999999989
0
LWPOLYLINE
5
103
100
AcDbEntity
8
0
100
AcDbPolyline
90
4
70
1
43
0.0
10
18.19537543913524
20
37.467420049571999
10
27.105921947332696
20
32.928459714291506
42
-0.99999999999999989
10
25.744233846748592
20
30.255295761832258
10
16.833687358467728
20
34.794256086967422
42
-1.0000000074505806
0
LWPOLYLINE
5
104
100
AcDbEntity
8
0
100
AcDbPolyline
90
4
70
1
43
0.0
10
-18.318720051622709
20
7.8099833653362261
10
-27.229266559820179
20
12.348943700616719
42
-0.99999999999999989
10
-25.86757845923605
20
15.022107653075974
10
-16.957031970955182
20
10.483147327940836
42
-1.0000000074505806
0
LWPOLYLINE
5
105
100
AcDbEntity
8
0
100
AcDbPolyline
90
4
70
1
43
0.0
10
36.713327693756213
20
32.638701707454132
10
39.163327693756202
20
32.638701707454132
10
39.163327693756209
20
12.638701707454132
10
36.713327693756213
20
12.638701707454132
0
LINE
5
106
100
AcDbEntity
8
0
100
AcDbLine
10
39.200827693756175
20
2.6387017074541053
30
0
11
39.200827693756196
21
42.638701707454061
31
-4.9303806576313238e-31
0
LINE
5
107
100
AcDbEntity
8
0
100
AcDbLine
10
39.200827693756196
20
42.638701707454061
30
-4.9303806576313238e-31
11
9.9383276937599128
21
42.638701707456505
31
0
0
LINE
5
108
100
AcDbEntity
8
0
100
AcDbLine
10
9.9383276937599128
20
42.638701707456505
30
0
11
9.9383276937562606
21
45.088701707454106
31
-2.311115933264683e-32
0
LINE
5
109
100
AcDbEntity
8
0
100
AcDbLine
10
9.9383276937562606
20
45.088701707454106
30
-2.311115933264683e-32
11
-10.061672306243706
21
45.088701707454113
31
0
0
LINE
5
110
100
AcDbEntity
8
0
100
AcDbLine
10
-10.061672306243706
20
45.088701707454113
30
0
11
-10.06167230624005
21
42.638701707456505
31
5.3926038442842604e-32
0
LINE
5
111
100
AcDbEntity
8
0
100
AcDbLine
10
-10.06167230624005
20
42.638701707456505
30
5.3926038442842604e-32
11
-39.324172306243653
21
42.638701707454132
31
0
0
LINE
5
112
100
AcDbEntity
8
0
100
AcDbLine
10
-39.324172306243653
20
42.638701707454132
30
0
11
-39.324172306243653
21
32.638701707454132
31
-1.6640034719505718e-30
0
LINE
5
113
100
AcDbEntity
8
0
100
AcDbLine
10
-39.324172306243653
20
32.638701707454132
30
-1.6640034719505718e-30
11
-37.111672306243676
21
32.638701707454132
31
-4.9303806576313238e-31
0
LINE
5
114
100
AcDbEntity
8
0
100
AcDbLine
10
-37.111672306243676
20
32.638701707454132
30
-4.9303806576313238e-31
11
-37.111672306243676
21
12.638701707454132
31
0
0
LINE
5
115
100
AcDbEntity
8
0
100
AcDbLine
10
-37.111672306243676
20
12.638701707454132
30
0
11
-39.324172306243668
21
12.638701707454132
31
0
0
LINE
5
116
100
AcDbEntity
8
0
100
AcDbLine
10
-39.324172306243668
20
12.638701707454132
30
0
11
-39.324172306243675
21
2.6387017074541408
31
-1.8488927466117464e-30
0
LINE
5
117
100
AcDbEntity
8
0
100
AcDbLine
10
-39.324172306243675
20
2.6387017074541408
30
-1.8488927466117464e-30
11
-10.061672306254428
21
2.6387017074551204
31
0
0
LINE
5
118
100
AcDbEntity
8
0
100
AcDbLine
10
-10.061672306254428
20
2.6387017074551204
30
0
11
-10.061672306243727
21
0.18870170745411308
31
3.0814879110195774e-32
0
LINE
5
119
100
AcDbEntity
8
0
100
AcDbLine
10
-10.061672306243727
20
0.18870170745411308
30
3.0814879110195774e-32
11
9.9383276937562393
21
0.18870170745410308
31
0
0
LINE
5
120
100
AcDbEntity
8
0
100
AcDbLine
10
9.9383276937562393
20
0.18870170745410308
30
0
11
9.9383276937636449
21
2.638701707454576
31
-6.1629758220391547e-32
0
LINE
5
121
100
AcDbEntity
8
0
100
AcDbLine
10
9.9383276937636449
20
2.638701707454576
30
-6.1629758220391547e-32
11
39.200827693756175
21
2.6387017074540999
31
0
0
ENDSEC
0
SECTION
2
OBJECTS
0
DICTIONARY
5
C
100
AcDbDictionary
3
ACAD_GROUP
350
D
3
ACAD_MLINESTYLE
350
17
0
DICTIONARY
5
D
100
AcDbDictionary
0
DICTIONARY
5
1A
330
C
100
AcDbDictionary
0
DICTIONARY
5
17
100
AcDbDictionary
0
ENDSEC
0
EOF
