0
SECTION
2
HEADER
9
$INSUNITS
70
4
9
$ACADVER
1
AC1014
9
$HANDSEED
5
FFFF
0
ENDSEC
0
SECTION
2
TABLES
0
TABLE
2
VPORT
5
8
100
AcDbSymbolTable
0
ENDTAB
0
TABLE
2
LTYPE
5
5
100
AcDbSymbolTable
0
LTYPE
5
14
100
AcDbSymbolTableRecord
100
AcDbLinetypeTableRecord
2
BYBLOCK
70
0
0
LTYPE
5
15
100
AcDbSymbolTableRecord
100
AcDbLinetypeTableRecord
2
BYLAYER
70
0
0
ENDTAB
0
TABLE
2
LAYER
5
2
100
AcDbSymbolTable
70
2
0
LAYER
5
50
100
AcDbSymbolTableRecord
100
AcDbLayerTableRecord
2
0
70
0
6
CONTINUOUS
0
ENDTAB
0
TABLE
2
STYLE
5
3
100
AcDbSymbolTable
70
1
0
STYLE
5
11
100
AcDbSymbolTableRecord
100
AcDbTextStyleTableRecord
2
STANDARD
70
0
0
ENDTAB
0
TABLE
2
VIEW
5
6
100
AcDbSymbolTable
70
0
0
ENDTAB
0
TABLE
2
UCS
5
7
100
AcDbSymbolTable
70
0
0
ENDTAB
0
TABLE
2
APPID
5
9
100
AcDbSymbolTable
70
2
0
APPID
5
12
100
AcDbSymbolTableRecord
100
AcDbRegAppTableRecord
2
ACAD
70
0
0
ENDTAB
0
TABLE
2
DIMSTYLE
5
A
100
AcDbSymbolTable
70
1
0
ENDTAB
0
TABLE
2
BLOCK_RECORD
5
1
100
AcDbSymbolTable
70
1
0
BLOCK_RECORD
5
1F
100
AcDbSymbolTableRecord
100
AcDbBlockTableRecord
2
*MODEL_SPACE
0
BLOCK_RECORD
5
1B
100
AcDbSymbolTableRecord
100
AcDbBlockTableRecord
2
*PAPER_SPACE
0
ENDTAB
0
ENDSEC
0
SECTION
2
BLOCKS
0
BLOCK
5
20
100
AcDbEntity
100
AcDbBlockBegin
2
*MODEL_SPACE
0
ENDBLK
5
21
100
AcDbEntity
100
AcDbBlockEnd
0
BLOCK
5
1C
100
AcDbEntity
100
AcDbBlockBegin
2
*PAPER_SPACE
0
ENDBLK
5
1D
100
AcDbEntity
100
AcDbBlockEnd
0
ENDSEC
0
SECTION
2
ENTITIES
0
LINE
5
100
100
AcDbEntity
8
0
100
AcDbLine
10
39.324172306243732
20
12.638701707454143
30
0
11
37.111672306243698
21
12.638701707454143
31
0
0
LINE
5
101
100
AcDbEntity
8
0
100
AcDbLine
10
37.111672306243698
20
12.638701707454143
30
0
11
37.111672306243719
21
32.638701707454139
31
-4.9303806576313238e-31
0
LINE
5
102
100
AcDbEntity
8
0
100
AcDbLine
10
37.111672306243719
20
32.638701707454139
30
-4.9303806576313238e-31
11
39.324172306243732
21
32.638701707454146
31
0
0
LINE
5
103
100
AcDbEntity
8
0
100
AcDbLine
10
39.324172306243732
20
32.638701707454146
30
0
11
39.324172306243732
21
42.638701707454146
31
-4.9303806576313238e-31
0
LINE
5
104
100
AcDbEntity
8
0
100
AcDbLine
10
39.324172306243732
20
42.638701707454146
30
-4.9303806576313238e-31
11
10.06167230624734
21
42.638701707456534
31
0
0
LINE
5
105
100
AcDbEntity
8
0
100
AcDbLine
10
10.06167230624734
20
42.638701707456534
30
0
11
10.061672306243707
21
45.088701707454142
31
0
0
LINE
5
106
100
AcDbEntity
8
0
100
AcDbLine
10
10.061672306243707
20
45.088701707454142
30
0
11
-9.9383276937563174
21
45.088701707454135
31
0
0
LINE
5
107
100
AcDbEntity
8
0
100
AcDbLine
10
-9.9383276937563174
20
45.088701707454135
30
0
11
-9.938327693752683
21
42.638701707456512
31
0
0
LINE
5
108
100
AcDbEntity
8
0
100
AcDbLine
10
-9.938327693752683
20
42.638701707456512
30
0
11
-39.200827693756352
21
42.638701707454125
31
0
0
LWPOLYLINE
5
109
100
AcDbEntity
8
0
100
AcDbPolyline
90
4
70
1
43
0.0
10
-39.163327693756273
20
32.638701707454146
10
-36.713327693756263
20
32.638701707454146
10
-36.713327693756284
20
12.638701707454146
10
-39.16332769375628
20
12.638701707454143
0
LINE
5
110
100
AcDbEntity
8
0
100
AcDbLine
10
-39.200827693756352
20
42.638701707454125
30
0
11
-39.200827693756366
21
2.638701707454123
31
0
0
LINE
5
111
100
AcDbEntity
8
0
100
AcDbLine
10
-39.200827693756366
20
2.638701707454131
30
0
11
-9.9383276937670537
21
2.6387017074551409
31
0
0
LINE
5
112
100
AcDbEntity
8
0
100
AcDbLine
10
-9.9383276937670537
20
2.6387017074551409
30
0
11
-9.9383276937563245
21
0.18870170745413195
31
0
0
LINE
5
113
100
AcDbEntity
8
0
100
AcDbLine
10
-9.9383276937563245
20
0.18870170745413195
30
0
11
10.061672306243704
21
0.188701707454145
31
0
0
LINE
5
114
100
AcDbEntity
8
0
100
AcDbLine
10
10.061672306243704
20
0.188701707454145
30
0
11
10.061672306251083
21
2.6387017074546288
31
0
0
LINE
5
115
100
AcDbEntity
8
0
100
AcDbLine
10
10.061672306251083
20
2.6387017074546288
30
0
11
39.324172306243725
21
2.6387017074541816
31
0
0
LINE
5
116
100
AcDbEntity
8
0
100
AcDbLine
10
39.324172306243725
20
2.6387017074541816
30
0
11
39.324172306243732
21
12.638701707454143
31
0
0
LWPOLYLINE
5
117
100
AcDbEntity
8
0
100
AcDbPolyline
90
8
70
1
43
0.0
10
-23.431350594867894
20
18.820586791274629
10
-23.43135059486789
20
26.461611976859647
10
-24.449665552486604
20
27.377362838027558
10
-20.977137690891446
20
27.377362838027558
10
-21.958822614063443
20
26.381025901076875
10
-21.95882261406345
20
18.754652133224091
10
-21.035745746006207
20
17.978095402953706
10
-24.449665552486614
20
17.978095402953702
0
SPLINE
5
118
100
AcDbEntity
8
0
100
AcDbSpline
70
0
71
3
72
9
73
5
74
0
42
0.000000001
43
0.0000000001
44
0.0000000001
40
0
40
0
40
0
40
0
40
0.03719444444480742
40
0.073645476210323996
40
0.073645476210323996
40
0.073645476210323996
40
0.073645476210323996
10
-12.977138167732232
20
27.003736486668657
30
0
10
-12.851598389826957
20
27.012225865702327
30
0
10
-12.603028022257911
20
27.029034944880603
30
0
10
-12.38772951014791
20
27.154227086426381
30
0
10
-12.281166917198172
20
27.21619128250606
30
0
0
LINE
5
119
100
AcDbEntity
8
0
100
AcDbLine
10
-12.281166917194534
20
27.216191282508451
30
0
11
-12.163950806965044
21
27.150256624457914
31
0
0
LINE
5
120
100
AcDbEntity
8
0
100
AcDbLine
10
-12.163950806965044
20
27.150256624457914
30
0
11
-12.244537478794268
21
27.011062493560392
31
0
0
SPLINE
5
121
100
AcDbEntity
8
0
100
AcDbSpline
70
0
71
3
72
9
73
5
74
0
42
0.000000001
43
0.0000000001
44
0.0000000001
40
0
40
0
40
0
40
0
40
0.13044618323637897
40
0.25698262005230132
40
0.25698262005230132
40
0.25698262005230132
40
0.25698262005230132
10
-12.244537478797904
20
27.011062493558001
30
0
10
-12.455724311717892
20
26.63067443666759
30
0
10
-12.871768264080856
20
25.881299352851109
30
0
10
-13.217271290485666
20
25.096919472926118
30
0
10
-13.387394553535454
20
24.710696330304216
30
0
0
LINE
5
122
100
AcDbEntity
8
0
100
AcDbLine
10
-13.387394553531816
20
24.710696330306607
30
0
11
-13.453328019489462
21
24.542197575805265
31
0
0
LINE
5
123
100
AcDbEntity
8
0
100
AcDbLine
10
-13.453328019489462
20
24.542197575805265
30
0
11
-13.548566705097372
21
24.593480220077115
31
9.6296497219361793e-34
0
SPLINE
5
124
100
AcDbEntity
8
0
100
AcDbSpline
70
0
71
3
72
9
73
5
74
0
42
0.000000001
43
0.0000000001
44
0.0000000001
40
0
40
0
40
0
40
0
40
0.10367567625438055
40
0.19546765100184998
40
0.19546765100184998
40
0.19546765100184998
40
0.19546765100184998
10
-13.548566705101006
20
24.593480220074724
30
0
10
-13.61645662595831
20
24.937820829157022
30
0
10
-13.744454665962591
20
25.58703241314241
30
0
10
-14.144559069485192
20
26.112355279276361
30
0
10
-14.332448846214287
20
26.35904788040645
30
0
0
SPLINE
5
125
100
AcDbEntity
8
0
100
AcDbSpline
70
0
71
3
72
9
73
5
74
0
42
0.000000001
43
0.0000000001
44
0.0000000001
40
0
40
0
40
0
40
0
40
0.08371583737115891
40
0.1661135454252694
40
0.1661135454252694
40
0.1661135454252694
40
0.1661135454252694
10
-14.332448846214287
20
26.35904788040645
30
0
10
-14.547090620735911
20
26.549215285746183
30
0
10
-14.972994574895516
20
26.926555857342613
30
0
10
-15.538914297316278
20
26.983043025457381
30
0
10
-15.819628840797419
20
27.011062493558001
30
0
0
SPLINE
5
126
100
AcDbEntity
8
0
100
AcDbSpline
70
0
71
3
72
9
73
5
74
0
42
0.000000001
43
0.0000000001
44
0.0000000001
40
0
40
0
40
0
40
0
40
0.087735840238277144
40
0.18055032843161045
40
0.18055032843161045
40
0.18055032843161045
40
0.18055032843161045
10
-15.819628840797419
20
27.011062493558001
30
0
10
-16.119682633642796
20
26.973523921455538
30
0
10
-16.737159034373136
20
26.896273831828008
30
0
10
-17.156945197834034
20
26.435000108211483
30
0
10
-17.372742301338192
20
26.197875728840899
30
0
0
SPLINE
5
127
100
AcDbEntity
8
0
100
AcDbSpline
70
0
71
3
72
9
73
5
74
0
42
0.000000001
43
0.0000000001
44
0.0000000001
40
0
40
0
40
0
40
0
40
0.14840564150556265
40
0.35592630508198841
40
0.35592630508198841
40
0.35592630508198841
40
0.35592630508198841
10
-17.372742301338192
20
26.197875728840899
30
0
10
-17.599829769135507
20
25.751639920752723
30
0
10
-18.144461378308481
20
24.681417382331578
30
0
10
-18.152145471074867
20
23.47354672693967
30
0
10
-18.156625634544373
20
22.769305100674696
30
0
0
SPLINE
5
128
100
AcDbEntity
8
0
100
AcDbSpline
70
0
71
3
72
9
73
5
74
0
42
0.000000001
43
0.0000000001
44
0.0000000001
40
0
40
0
40
0
40
0
40
0.18640627756173245
40
0.33694732987883053
40
0.33694732987883053
40
0.33694732987883053
40
0.33694732987883053
10
-18.156625634544373
20
22.769305100674696
30
0
10
-18.141647471564884
20
22.140183200055574
30
0
10
-18.114572996990084
20
21.002984671364906
30
0
10
-17.644868049844131
20
19.970516654548518
30
0
10
-17.435013657920841
20
19.509231438870508
30
0
0
SPLINE
5
129
100
AcDbEntity
8
0
100
AcDbSpline
70
0
71
3
72
9
73
5
74
0
42
0.000000001
43
0.0000000001
44
0.0000000001
40
0
40
0
40
0
40
0
40
0.12349531487495144
40
0.24143511303800458
40
0.24143511303800458
40
0.24143511303800458
40
0.24143511303800458
10
-17.435013657920841
20
19.509231438870508
30
0
10
-17.176248064433416
20
19.165267157286038
30
0
10
-16.670357615251245
20
18.49281205006621
30
0
10
-15.837968721170464
20
18.383259557161931
30
0
10
-15.431351071708679
20
18.329743733639788
30
0
0
SPLINE
5
130
100
AcDbEntity
8
0
100
AcDbSpline
70
0
71
3
72
9
73
5
74
0
42
0.000000001
43
0.0000000001
44
0.0000000001
40
0
40
0
40
0
40
0
40
0.093792809451374706
40
0.18185164157814301
40
0.18185164157814301
40
0.18185164157814301
40
0.18185164157814301
10
-15.431351071708679
20
18.329743733639788
30
0
10
-15.110176192951473
20
18.354509735979576
30
0
10
-14.48746130385393
20
18.402527683273853
30
0
10
-14.020234809012088
20
18.814994454179654
30
0
10
-13.793987637870785
20
19.014725079770159
30
0
0
SPLINE
5
131
100
AcDbEntity
8
0
100
AcDbSpline
70
0
71
3
72
9
73
5
74
0
42
0.000000001
43
0.0000000001
44
0.0000000001
40
0
40
0
40
0
40
0
40
0.096496480301509091
40
0.21176948718677935
40
0.21176948718677935
40
0.21176948718677935
40
0.21176948718677935
10
-13.793987637870785
20
19.014725079770159
30
0
10
-13.609532350711444
20
19.283748978028701
30
0
10
-13.204730005086274
20
19.874144117801571
30
0
10
-13.114283318323761
20
20.586612918507598
30
0
10
-13.065050250404353
20
20.974432816739153
30
0
0
SPLINE
5
132
100
AcDbEntity
8
0
100
AcDbSpline
70
0
71
3
72
9
73
5
74
0
42
0.000000001
43
0.0000000001
44
0.0000000001
40
0
40
0
40
0
40
0
40
0.024325267866824204
40
0.04318177735960034
40
0.04318177735960034
40
0.04318177735960034
40
0.04318177735960034
10
-13.065050250404353
20
20.974432816739153
30
0
10
-13.053039137012103
20
21.063705999697074
30
0
10
-13.031717224867714
20
21.222182146055538
30
0
10
-12.881543499384902
20
21.263905470245817
30
0
10
-12.81596601616668
20
21.28212510609157
30
0
0
SPLINE
5
133
100
AcDbEntity
8
0
100
AcDbSpline
70
0
71
3
72
9
73
5
74
0
42
0.000000001
43
0.0000000001
44
0.0000000001
40
0
40
0
40
0
40
0
40
0.024513452845720138
40
0.060935012784373424
40
0.060935012784373424
40
0.060935012784373424
40
0.060935012784373424
10
-12.81596601616668
20
21.28212510609157
30
0
10
-12.733393291013034
20
21.250576979599195
30
0
10
-12.5281357903849
20
21.17215532667111
30
0
10
-12.52945978473965
20
20.942939190502891
30
0
10
-12.530251151435845
20
20.80593406223781
30
0
0
SPLINE
5
134
100
AcDbEntity
8
0
100
AcDbSpline
70
0
71
3
72
9
73
5
74
0
42
0.000000001
43
0.0000000001
44
0.0000000001
40
0
40
0
40
0
40
0
40
0.072791746722882911
40
0.15150475735584601
40
0.15150475735584601
40
0.15150475735584601
40
0.15150475735584601
10
-12.530251151435845
20
20.80593406223781
30
0
10
-12.545663107908416
20
20.562327251340278
30
0
10
-12.577740710533408
20
20.055297369013534
30
0
10
-12.758620760178099
20
19.580226375537034
30
0
10
-12.85259545456695
20
19.333407273526262
30
0
0
SPLINE
5
135
100
AcDbEntity
8
0
100
AcDbSpline
70
0
71
3
72
9
73
5
74
0
42
0.000000001
43
0.0000000001
44
0.0000000001
40
0
40
0
40
0
40
0
40
0.15971927423711638
40
0.3411725325992826
40
0.3411725325992826
40
0.3411725325992826
40
0.3411725325992826
10
-12.85259545456695
20
19.333407273526262
30
0
10
-13.160526586772503
20
18.863833956545694
30
0
10
-13.818290934516565
20
17.860789592861259
30
0
10
-15.024342487116156
20
17.769981966259675
30
0
10
-15.665783292167664
20
17.721685757870745
30
0
0
SPLINE
5
136
100
AcDbEntity
8
0
100
AcDbSpline
70
0
71
3
72
9
73
5
74
0
42
0.000000001
43
0.0000000001
44
0.0000000001
40
0
40
0
40
0
40
0
40
0.17411747886897155
40
0.33963462169958986
40
0.33963462169958986
40
0.33963462169958986
40
0.33963462169958986
10
-15.665783292167664
20
17.721685757870745
30
0
10
-16.26302291932571
20
17.771531214124444
30
0
10
-17.428002197405384
20
17.868760066667772
30
0
10
-18.27745311562726
20
18.668793671523982
30
0
10
-18.691423541419987
20
19.058681121106218
30
0
0
SPLINE
5
137
100
AcDbEntity
8
0
100
AcDbSpline
70
0
71
3
72
9
73
5
74
0
42
0.000000001
43
0.0000000001
44
0.0000000001
40
0
40
0
40
0
40
0
40
0.17829684248840452
40
0.38451370299062915
40
0.38451370299062915
40
0.38451370299062915
40
0.38451370299062915
10
-18.691423541419987
20
19.058681121106218
30
0
10
-19.017887919381995
20
19.567796440266058
30
0
10
-19.72193867604566
20
20.665750918243635
30
0
10
-19.780758037388125
20
21.972987882403654
30
0
10
-19.81230319153595
20
22.67406641506679
30
0
0
SPLINE
5
138
100
AcDbEntity
8
0
100
AcDbSpline
70
0
71
3
72
9
73
5
74
0
42
0.000000001
43
0.0000000001
44
0.0000000001
40
0
40
0
40
0
40
0
40
0.19540546018771079
40
0.3769636203418949
40
0.3769636203418949
40
0.3769636203418949
40
0.3769636203418949
10
-19.81230319153595
20
22.67406641506679
30
0
10
-19.77130762240192
20
23.337087954440541
30
0
10
-19.692221612502827
20
24.616146377920082
30
0
10
-18.987084756005114
20
25.683704427302786
30
0
10
-18.64746750008392
20
26.197875728840899
30
0
0
SPLINE
5
139
100
AcDbEntity
8
0
100
AcDbSpline
70
0
71
3
72
9
73
5
74
0
42
0.000000001
43
0.0000000001
44
0.0000000001
40
0
40
0
40
0
40
0
40
0.16856707079361802
40
0.33128492345589311
40
0.33128492345589311
40
0.33128492345589311
40
0.33128492345589311
10
-18.64746750008392
20
26.197875728840899
30
0
10
-18.240940739468964
20
26.612367935055946
30
0
10
-17.44199355400125
20
27.426969613560136
30
0
10
-16.309798027795456
20
27.555828568655354
30
0
10
-15.753695374839776
20
27.619120469327044
30
0
0
SPLINE
5
140
100
AcDbEntity
8
0
100
AcDbSpline
70
0
71
3
72
9
73
5
74
0
42
0.000000001
43
0.0000000001
44
0.0000000001
40
0
40
0
40
0
40
0
40
0.088305400159617978
40
0.19189554883462573
40
0.19189554883462573
40
0.19189554883462573
40
0.19189554883462573
10
-15.753695374839776
20
27.619120469327044
30
0
10
-15.458761625180657
20
27.597574635824479
30
0
10
-14.81784415401367
20
27.550753608598502
30
0
10
-14.212398269486467
20
27.333480753343622
30
0
10
-13.885563022010796
20
27.21619128250606
30
0
0
SPLINE
5
141
100
AcDbEntity
8
0
100
AcDbSpline
70
0
71
3
72
9
73
5
74
0
42
0.000000001
43
0.0000000001
44
0.0000000001
40
0
40
0
40
0
40
0
40
0.052652132955718224
40
0.093656888929441434
40
0.093656888929441434
40
0.093656888929441434
40
0.093656888929441434
10
-13.885563022010796
20
27.21619128250606
30
0
10
-13.720183486609084
20
27.154538007386478
30
0
10
-13.426008646791157
20
27.044870010747726
30
0
10
-13.113820178937836
20
27.016261731837126
30
0
10
-12.977138167732232
20
27.003736486668657
30
0
0
LINE
5
142
100
AcDbEntity
8
0
100
AcDbLine
10
-12.127321368564779
20
20.776630034682828
30
0
11
-12.112669354786092
21
20.945128789184171
31
0
0
LINE
5
143
100
AcDbEntity
8
0
100
AcDbLine
10
-12.112669354786092
20
20.945128789184171
30
0
11
-11.90021455894869
21
20.849890103576261
31
-1.0977800683007244e-31
0
SPLINE
5
144
100
AcDbEntity
8
0
100
AcDbSpline
70
0
71
3
72
9
73
5
74
0
42
0.000000001
43
0.0000000001
44
0.0000000001
40
0
40
0
40
0
40
0
40
0.16300087631146706
40
0.29910055971313909
40
0.29910055971313909
40
0.29910055971313909
40
0.29910055971313909
10
-11.900214558952324
20
20.84989010357387
30
0
10
-11.956262064202562
20
20.298120717826372
30
0
10
-12.059107156635303
20
19.285644368961229
30
0
10
-12.64724605521037
20
18.460010746057307
30
0
10
-12.914866811149592
20
18.084322800870012
30
0
0
SPLINE
5
145
100
AcDbEntity
8
0
100
AcDbSpline
70
0
71
3
72
9
73
5
74
0
42
0.000000001
43
0.0000000001
44
0.0000000001
40
0
40
0
40
0
40
0
40
0.1289993232458993
40
0.27426361658999893
40
0.27426361658999893
40
0.27426361658999893
40
0.27426361658999893
10
-12.914866811149592
20
18.084322800870012
30
0
10
-13.258118603380861
20
17.807875210278151
30
0
10
-13.987901330681636
20
17.220123940848723
30
0
10
-14.926757402935225
20
17.164869594023024
30
0
10
-15.42402446877289
20
17.135604014630388
30
0
0
SPLINE
5
146
100
AcDbEntity
8
0
100
AcDbSpline
70
0
71
3
72
9
73
5
74
0
42
0.000000001
43
0.0000000001
44
0.0000000001
40
0
40
0
40
0
40
0
40
0.11962863350836878
40
0.24307260541643469
40
0.24307260541643469
40
0.24307260541643469
40
0.24307260541643469
10
-15.42402446877289
20
17.135604014630388
30
0
10
-15.82748930011202
20
17.168973223743127
30
0
10
-16.64728674217379
20
17.236775892400644
30
0
10
-17.347042401398468
20
17.670113579476862
30
0
10
-17.702412015312198
20
17.890183320279199
30
0
0
LINE
5
147
100
AcDbEntity
8
0
100
AcDbLine
10
-17.70241201530856
20
17.890183320281587
30
0
11
-17.70241201530856
21
17.948791375396333
31
0
0
SPLINE
5
148
100
AcDbEntity
8
0
100
AcDbSpline
70
0
71
3
72
9
73
5
74
0
42
0.000000001
43
0.0000000001
44
0.0000000001
40
0
40
0
40
0
40
0
40
0.1133060176801832
40
0.23715894457083059
40
0.23715894457083059
40
0.23715894457083059
40
0.23715894457083059
10
-17.702412015312198
20
17.948791375393945
30
0
10
-17.364604677549401
20
17.769401600812373
30
0
10
-16.657545746944006
20
17.393923841752404
30
0
10
-15.856835933322328
20
17.354168477260771
30
0
10
-15.438676482551577
20
17.333406796689104
30
0
0
SPLINE
5
149
100
AcDbEntity
8
0
100
AcDbSpline
70
0
71
3
72
9
73
5
74
0
42
0.000000001
43
0.0000000001
44
0.0000000001
40
0
40
0
40
0
40
0
40
0.13372337188816952
40
0.25975030790436304
40
0.25975030790436304
40
0.25975030790436304
40
0.25975030790436304
10
-15.438676482551577
20
17.333406796689104
30
0
10
-14.982282534019189
20
17.367368042672833
30
0
10
-14.095762346986241
20
17.433335898377713
30
0
10
-13.406698875993454
20
17.99250826153019
30
0
10
-13.07237566124725
20
18.263810267682146
30
0
0
SPLINE
5
150
100
AcDbEntity
8
0
100
AcDbSpline
70
0
71
3
72
9
73
5
74
0
42
0.000000001
43
0.0000000001
44
0.0000000001
40
0
40
0
40
0
40
0
40
0.061869160502179714
40
0.12198962215868857
40
0.12198962215868857
40
0.12198962215868857
40
0.12198962215868857
10
-13.07237566124725
20
18.263810267682146
30
0
10
-12.933708249862224
20
18.418407830978229
30
0
10
-12.660292787566004
20
18.723233339843475
30
0
10
-12.494662865145937
20
19.097616437114514
30
0
10
-12.413035041206355
20
19.282124629254412
30
0
0
SPLINE
5
151
100
AcDbEntity
8
0
100
AcDbSpline
70
0
71
3
72
9
73
5
74
0
42
0.000000001
43
0.0000000001
44
0.0000000001
40
0
40
0
40
0
40
0
40
0.067932001777775516
40
0.15250783689352071
40
0.15250783689352071
40
0.15250783689352071
40
0.15250783689352071
10
-12.413035041206355
20
19.282124629254412
30
0
10
-12.347071163529762
20
19.499342332788473
30
0
10
-12.198981779523741
20
19.986997653315115
30
0
10
-12.152885082213981
20
20.494941221940117
30
0
10
-12.127321368568413
20
20.776630034680437
30
0
0
LINE
5
152
100
AcDbEntity
8
0
100
AcDbLine
10
-6.947833901752638
20
26.542198052642426
30
0
11
-7.7243918241159202
21
27.377362838027558
31
0
0
LINE
5
153
100
AcDbEntity
8
0
100
AcDbLine
10
-7.7243918241159202
20
27.377362838027558
30
0
11
-4.3470996678964342
21
27.377362838027558
31
0
0
LINE
5
154
100
AcDbEntity
8
0
100
AcDbLine
10
-4.3470996678964342
20
27.377362838027558
30
0
11
-5.1090067685739253
21
26.512894025085053
31
0
0
LINE
5
155
100
AcDbEntity
8
0
100
AcDbLine
10
-5.1090067685739253
20
26.512894025085053
30
0
11
-3.9075416387216313
21
23.318755021331391
31
-6.1629758220391547e-32
0
LINE
5
156
100
AcDbEntity
8
0
100
AcDbLine
10
-3.9075416387216313
20
23.318755021331391
30
-6.1629758220391547e-32
11
-3.6145013631478999
21
23.479927172896936
31
0
0
LINE
5
157
100
AcDbEntity
8
0
100
AcDbLine
10
-3.6145013631478999
20
23.479927172896936
30
0
11
-4.6987479985849117
21
26.366373887298188
31
0
0
LINE
5
158
100
AcDbEntity
8
0
100
AcDbLine
10
-4.6987479985849117
20
26.366373887298188
30
0
11
-3.9221924604074192
21
27.260146727798066
31
0
0
LINE
5
159
100
AcDbEntity
8
0
100
AcDbLine
10
-3.9221924604074192
20
27.260146727798066
30
0
11
-3.7317174733773899
21
27.17956065201529
31
1.9259299443872359e-33
0
LINE
5
160
100
AcDbEntity
8
0
100
AcDbLine
10
-3.7317174733773899
20
27.17956065201529
30
1.9259299443872359e-33
11
-4.4716423810617183
21
26.322417845962129
31
0
0
LINE
5
161
100
AcDbEntity
8
0
100
AcDbLine
10
-4.4716423810617183
20
26.322417845962129
30
0
11
-3.4460014165536617
21
23.589817872283533
31
0
0
SPLINE
5
162
100
AcDbEntity
8
0
100
AcDbSpline
70
0
71
3
72
9
73
5
74
0
42
0.000000001
43
0.0000000001
44
0.0000000001
40
0
40
0
40
0
40
0
40
0.0087547977827723365
40
0.013046103437876329
40
0.013046103437876329
40
0.013046103437876329
40
0.013046103437876329
10
-3.4460014165572952
20
23.589817872281145
30
0
10
-3.4225405832499325
20
23.607193691049208
30
0
10
-3.3875800432510719
20
23.633086548267688
30
0
10
-3.3543642970621192
20
23.661166804036
30
0
10
-3.343438512199385
20
23.670403352017473
30
0
0
LINE
5
163
100
AcDbEntity
8
0
100
AcDbLine
10
-3.3434385121957515
20
23.670403352019864
30
0
11
-3.1016796888009757
21
23.875531544921476
31
0
0
SPLINE
5
164
100
AcDbEntity
8
0
100
AcDbSpline
70
0
71
3
72
9
73
5
74
0
42
0.000000001
43
0.0000000001
44
0.0000000001
40
0
40
0
40
0
40
0
40
0.023403257060057765
40
0.037389941619489012
40
0.037389941619489012
40
0.037389941619489012
40
0.037389941619489012
10
-3.1016796888046083
20
23.875531544919085
30
0
10
-3.0403893712666252
20
23.923996316477798
30
0
10
-2.9424696078463453
20
24.001425495439168
30
0
10
-2.8557354229162324
20
24.091078667686183
30
0
10
-2.8232902349166689
20
24.124615779156755
30
0
0
SPLINE
5
165
100
AcDbEntity
8
0
100
AcDbSpline
70
0
71
3
72
9
73
5
74
0
42
0.000000001
43
0.0000000001
44
0.0000000001
40
0
40
0
40
0
40
0
40
0.082731943803993735
40
0.16103809221943996
40
0.16103809221943996
40
0.16103809221943996
40
0.16103809221943996
10
-2.8232902349166689
20
24.124615779156755
30
0
10
-2.7531532778686363
20
23.856755697041908
30
0
10
-2.6166313827243459
20
23.335364869966533
30
0
10
-2.3613449117220933
20
22.860848172586508
30
0
10
-2.2372096837692088
20
22.63011037373073
30
0
0
SPLINE
5
166
100
AcDbEntity
8
0
100
AcDbSpline
70
0
71
3
72
9
73
5
74
0
42
0.000000001
43
0.0000000001
44
0.0000000001
40
0
40
0
40
0
40
0
40
0.018348019489952357
40
0.030807673757886306
40
0.030807673757886306
40
0.030807673757886306
40
0.030807673757886306
10
-2.2372096837692088
20
22.63011037373073
30
0
10
-2.2982351089498985
20
22.634329249633083
30
0
10
-2.4007012847097622
20
22.641413052465097
30
0
10
-2.5033774769445372
20
22.64379788245251
30
0
10
-2.5449031652145204
20
22.644762387509417
30
0
0
SPLINE
5
167
100
AcDbEntity
8
0
100
AcDbSpline
70
0
71
3
72
9
73
5
74
0
42
0.000000001
43
0.0000000001
44
0.0000000001
40
0
40
0
40
0
40
0
40
0.060506468931863365
40
0.10522988727061436
40
0.10522988727061436
40
0.10522988727061436
40
0.10522988727061436
10
-2.5449031652145204
20
22.644762387509417
30
0
10
-2.7496005704686102
20
22.642553192532411
30
0
10
-3.1056002719836941
20
22.638711068830716
30
0
10
-3.4267336537409676
20
22.488726600669203
30
0
10
-3.5632175267867883
20
22.424982180829119
30
0
0
LINE
5
168
100
AcDbEntity
8
0
100
AcDbLine
10
-3.5632175267831552
20
22.424982180831506
30
0
11
-2.2372096837655793
21
18.827912202117524
31
0
0
LINE
5
169
100
AcDbEntity
8
0
100
AcDbLine
10
-2.2372096837655793
20
18.827912202117524
30
0
11
-1.1383098424569844
21
17.978095402953699
31
0
0
LINE
5
170
100
AcDbEntity
8
0
100
AcDbLine
10
-1.1383098424569844
20
17.978095402953699
30
0
11
-4.8379439176217822
21
17.978095402953702
31
-3.6977854932234928e-31
0
LINE
5
171
100
AcDbEntity
8
0
100
AcDbLine
10
-4.8379439176217822
20
17.978095402953702
30
-3.6977854932234928e-31
11
-3.8269537747995157
21
18.827912202117517
31
-1.2325951644078309e-31
0
LINE
5
172
100
AcDbEntity
8
0
100
AcDbLine
10
-3.8269537747995157
20
18.827912202117517
30
-1.2325951644078309e-31
11
-4.6401399434701691
21
20.967106213805753
31
0
0
SPLINE
5
173
100
AcDbEntity
8
0
100
AcDbSpline
70
0
71
3
72
9
73
5
74
0
42
0.000000001
43
0.0000000001
44
0.0000000001
40
0
40
0
40
0
40
0
40
0.10660690779880283
40
0.19841796701796846
40
0.19841796701796846
40
0.19841796701796846
40
0.19841796701796846
10
-4.6401399434738018
20
20.967106213803362
30
0
10
-4.8867677697883956
20
20.710014434814674
30
0
10
-5.3457942336246491
20
20.231512345435601
30
0
10
-5.7098031525180826
20
19.677615831703331
30
0
10
-5.8782357038192634
20
19.421319356198381
30
0
0
LINE
5
174
100
AcDbEntity
8
0
100
AcDbLine
10
-5.8782357038156308
20
19.421319356200776
30
0
11
-6.046735650409869
21
19.465275397536836
31
0
0
SPLINE
5
175
100
AcDbEntity
8
0
100
AcDbSpline
70
0
71
3
72
9
73
5
74
0
42
0.000000001
43
0.0000000001
44
0.0000000001
40
0
40
0
40
0
40
0
40
0.093148001151286158
40
0.20614134783336882
40
0.20614134783336882
40
0.20614134783336882
40
0.20614134783336882
10
-6.0467356504135017
20
19.465275397534441
30
0
10
-5.8733151932691863
20
19.72345641146001
30
0
10
-5.4895267454682894
20
20.294824358574214
30
0
10
-5.0165911343953109
20
20.79532709797412
30
0
10
-4.757358437889085
20
21.069670310254168
30
0
0
LINE
5
176
100
AcDbEntity
8
0
100
AcDbLine
10
-4.7573584378854532
20
21.069670310256562
30
0
11
-4.6987479985849152
21
21.142930379149995
31
0
0
LINE
5
177
100
AcDbEntity
8
0
100
AcDbLine
10
-4.6987479985849152
20
21.142930379149995
30
0
11
-4.8379439176217804
21
21.465274682281098
31
0
0
SPLINE
5
178
100
AcDbEntity
8
0
100
AcDbSpline
70
0
71
3
72
9
73
5
74
0
42
0.000000001
43
0.0000000001
44
0.0000000001
40
0
40
0
40
0
40
0
40
0.1117680160207465
40
0.22267193294682247
40
0.22267193294682247
40
0.22267193294682247
40
0.22267193294682247
10
-4.8379439176254131
20
21.465274682278704
30
0
10
-5.1156545635759896
20
21.214373990657904
30
0
10
-5.6689288233807567
20
20.714512366823335
30
0
10
-6.0776168389623697
20
20.090892849629576
30
0
10
-6.2811678708724861
20
19.780293097729754
30
0
0
LINE
5
179
100
AcDbEntity
8
0
100
AcDbLine
10
-6.2811678708688534
20
19.780293097732148
30
0
11
-6.4130348027841366
21
19.99274789356955
31
3.8518598887744717e-33
0
SPLINE
5
180
100
AcDbEntity
8
0
100
AcDbSpline
70
0
71
3
72
9
73
5
74
0
42
0.000000001
43
0.0000000001
44
0.0000000001
40
0
40
0
40
0
40
0
40
0.078176227942472684
40
0.1693521960223654
40
0.1693521960223654
40
0.1693521960223654
40
0.1693521960223654
10
-6.4130348027877693
20
19.992747893567156
30
0
10
-6.5554780384186682
20
20.211050088886093
30
0
10
-6.8640510586003831
20
20.683955435521256
30
0
10
-7.2042420320790681
20
21.134693751588301
30
0
10
-7.3873943151168699
20
21.377362599606585
30
0
0
LINE
5
181
100
AcDbEntity
8
0
100
AcDbLine
10
-7.3873943151132373
20
21.377362599608986
30
0
11
-7.4606531919137744
21
21.465274682281098
31
9.6296497219361793e-34
0
SPLINE
5
182
100
AcDbEntity
8
0
100
AcDbSpline
70
0
71
3
72
9
73
5
74
0
42
0.000000001
43
0.0000000001
44
0.0000000001
40
0
40
0
40
0
40
0
40
0.12117858312629509
40
0.21238538889289321
40
0.21238538889289321
40
0.21238538889289321
40
0.21238538889289321
10
-7.4606531919174079
20
21.465274682278704
30
0
10
-7.6240939471819091
20
21.09263010046508
30
0
10
-7.910550740719609
20
20.439509207437055
30
0
10
-7.9904460623558755
20
19.732334118392842
30
0
10
-8.0247563184432895
20
19.428644767041277
30
0
0
SPLINE
5
183
100
AcDbEntity
8
0
100
AcDbSpline
70
0
71
3
72
9
73
5
74
0
42
0.000000001
43
0.0000000001
44
0.0000000001
40
0
40
0
40
0
40
0
40
0.042764071556457534
40
0.080120688494035655
40
0.080120688494035655
40
0.080120688494035655
40
0.080120688494035655
10
-8.0247563184432895
20
19.428644767041277
30
0
10
-8.0201575459455494
20
19.284912902667237
30
0
10
-8.0115415090403701
20
19.01562385901347
30
0
10
-7.9131315408888705
20
18.765190411480784
30
0
10
-7.8672474683456342
20
18.648424735302996
30
0
0
SPLINE
5
184
100
AcDbEntity
8
0
100
AcDbSpline
70
0
71
3
72
9
73
5
74
0
42
0.000000001
43
0.0000000001
44
0.0000000001
40
0
40
0
40
0
40
0
40
0.050330868948392005
40
0.13093907845869893
40
0.13093907845869893
40
0.13093907845869893
40
0.13093907845869893
10
-7.8672474683456342
20
18.648424735302996
30
0
10
-7.7802167670378077
20
18.504808377190265
30
0
10
-7.5538006517399294
20
18.131180939878231
30
0
10
-7.2784903347371817
20
17.791564432725387
30
0
10
-7.109004861228934
20
17.582491030926775
30
0
0
SPLINE
5
185
100
AcDbEntity
8
0
100
AcDbSpline
70
0
71
3
72
9
73
5
74
0
42
0.000000001
43
0.0000000001
44
0.0000000001
40
0
40
0
40
0
40
0
40
0.010698094162687589
40
0.026087129028015858
40
0.026087129028015858
40
0.026087129028015858
40
0.026087129028015858
10
-7.109004861228934
20
17.582491030926775
30
0
10
-7.0870462607793421
20
17.554393322505039
30
0
10
-7.0335005698841364
20
17.485877516433167
30
0
10
-6.979619081938468
20
17.417625389154889
30
0
10
-6.9478339017562778
20
17.377362838025164
30
0
0
LINE
5
186
100
AcDbEntity
8
0
100
AcDbLine
10
-6.9478339017526451
20
17.377362838027555
30
0
11
-10.90387762199801
21
17.377362838027555
31
0
0
LINE
5
187
100
AcDbEntity
8
0
100
AcDbLine
10
-10.90387762199801
20
17.377362838027555
30
0
11
-11.050397759784873
21
17.57516562008627
31
0
0
LINE
5
188
100
AcDbEntity
8
0
100
AcDbLine
10
-11.050397759784873
20
17.57516562008627
30
0
11
-7.3214596570627037
21
17.57516562008627
31
0
0
LINE
5
189
100
AcDbEntity
8
0
100
AcDbLine
10
-7.3214596570627037
20
17.57516562008627
30
0
11
-7.4460023702279869
21
17.729011168716035
31
-1.9259299443872359e-33
0
SPLINE
5
190
100
AcDbEntity
8
0
100
AcDbSpline
70
0
71
3
72
9
73
5
74
0
42
0.000000001
43
0.0000000001
44
0.0000000001
40
0
40
0
40
0
40
0
40
0.065700292268132288
40
0.11124488815045522
40
0.11124488815045522
40
0.11124488815045522
40
0.11124488815045522
10
-7.4460023702316205
20
17.72901116871364
30
0
10
-7.5856298764159726
20
17.898465077102735
30
0
10
-7.8220496208641901
20
18.185387409327213
30
0
10
-8.0048586891157463
20
18.508723003806175
30
0
10
-8.0797022641830356
20
18.6410993244601
30
0
0
SPLINE
5
191
100
AcDbEntity
8
0
100
AcDbSpline
70
0
71
3
72
9
73
5
74
0
42
0.000000001
43
0.0000000001
44
0.0000000001
40
0
40
0
40
0
40
0
40
0.037186487831573634
40
0.078474749617371303
40
0.078474749617371303
40
0.078474749617371303
40
0.078474749617371303
10
-8.0797022641830356
20
18.6410993244601
30
0
10
-8.1234726381178195
20
18.757973402612365
30
0
10
-8.2158413810533695
20
19.004613097689248
30
0
10
-8.2250431464445413
20
19.268059263731363
30
0
10
-8.2298845113449008
20
19.406667342419695
30
0
0
SPLINE
5
192
100
AcDbEntity
8
0
100
AcDbSpline
70
0
71
3
72
9
73
5
74
0
42
0.000000001
43
0.0000000001
44
0.0000000001
40
0
40
0
40
0
40
0
40
0.094273997622623729
40
0.23172997013957797
40
0.23172997013957797
40
0.23172997013957797
40
0.23172997013957797
10
-8.2298845113449008
20
19.406667342419695
30
0
10
-8.190113954939509
20
19.71958599947834
30
0
10
-8.0923560356758433
20
20.488754941974904
30
0
10
-7.7970149232180441
20
21.20745809654575
30
0
10
-7.6218265355758552
20
21.633773436780046
30
0
0
LINE
5
193
100
AcDbEntity
8
0
100
AcDbLine
10
-7.6218265355722226
20
21.633773436782441
30
0
11
-7.9441708387033261
21
21.970769753692231
31
3.8518598887744717e-33
0
SPLINE
5
194
100
AcDbEntity
8
0
100
AcDbSpline
70
0
71
3
72
9
73
5
74
0
42
0.000000001
43
0.0000000001
44
0.0000000001
40
0
40
0
40
0
40
0
40
0.030889425750941973
40
0.07299522424921262
40
0.07299522424921262
40
0.07299522424921262
40
0.07299522424921262
10
-7.9441708387069587
20
21.970769753689837
30
0
10
-7.9808938908733795
20
21.874559840069455
30
0
10
-8.067674637450434
20
21.647204878007624
30
0
10
-8.142668567154935
20
21.415677136691823
30
0
10
-8.185927277915944
20
21.28212510609157
30
0
0
LINE
5
195
100
AcDbEntity
8
0
100
AcDbLine
10
-8.1859272779123096
20
21.282125106093964
30
0
11
-8.4276884854928777
21
20.534872403380952
31
1.5407439555097887e-32
0
SPLINE
5
196
100
AcDbEntity
8
0
100
AcDbSpline
70
0
71
3
72
9
73
5
74
0
42
0.000000001
43
0.0000000001
44
0.0000000001
40
0
40
0
40
0
40
0
40
0.056912502283380517
40
0.10187396880153915
40
0.10187396880153915
40
0.10187396880153915
40
0.10187396880153915
10
-8.4276884854965122
20
20.534872403378557
30
0
10
-8.4851236201571538
20
20.353232889180141
30
0
10
-8.5879331063293822
20
20.028096276657998
30
0
10
-8.6139900148228978
20
19.688440507604348
30
0
10
-8.6254900754623325
20
19.538535466427874
30
0
0
SPLINE
5
197
100
AcDbEntity
8
0
100
AcDbSpline
70
0
71
3
72
9
73
5
74
0
42
0.000000001
43
0.0000000001
44
0.0000000001
40
0
40
0
40
0
40
0
40
0.037706607729918767
40
0.070025321006804184
40
0.070025321006804184
40
0.070025321006804184
40
0.070025321006804184
10
-8.6254900754623325
20
19.538535466427874
30
0
10
-8.6216978706581262
20
19.411713607469533
30
0
10
-8.6146553289200849
20
19.176191455812518
30
0
10
-8.5268303236007235
20
18.957943828972269
30
0
10
-8.48629654061126
20
18.857216229672503
30
0
0
SPLINE
5
198
100
AcDbEntity
8
0
100
AcDbSpline
70
0
71
3
72
9
73
5
74
0
42
0.000000001
43
0.0000000001
44
0.0000000001
40
0
40
0
40
0
40
0
40
0.038656758139392122
40
0.094583606712947466
40
0.094583606712947466
40
0.094583606712947466
40
0.094583606712947466
10
-8.48629654061126
20
18.857216229672503
30
0
10
-8.4169552110085526
20
18.748293655178422
30
0
10
-8.2472939832241181
20
18.481786828326538
30
0
10
-8.0291836307037183
20
18.252730233507499
30
0
10
-7.9002159894637982
20
18.117290129895281
30
0
0
SPLINE
5
199
100
AcDbEntity
8
0
100
AcDbSpline
70
0
71
3
72
9
73
5
74
0
42
0.000000001
43
0.0000000001
44
0.0000000001
40
0
40
0
40
0
40
0
40
0.0079009805500672107
40
0.01917488096320067
40
0.01917488096320067
40
0.01917488096320067
40
0.01917488096320067
10
-7.9002159894637982
20
18.117290129895281
30
0
10
-7.8818294948554115
20
18.098432509169086
30
0
10
-7.8372073314147874
20
18.052666970273922
30
0
10
-7.7938428727562794
20
18.005706111348982
30
0
10
-7.768346673362724
20
17.978095402951311
30
0
0
LINE
5
200
100
AcDbEntity
8
0
100
AcDbLine
10
-7.7683466733590905
20
17.978095402953706
30
0
11
-11.431350118030725
21
17.978095402953702
31
0
0
SPLINE
5
201
100
AcDbEntity
8
0
100
AcDbSpline
70
0
71
3
72
9
73
5
74
0
42
0.000000001
43
0.0000000001
44
0.0000000001
40
0
40
0
40
0
40
0
40
0.11335576357478101
40
0.22270176035884914
40
0.22270176035884914
40
0.22270176035884914
40
0.22270176035884914
10
-11.431350118034358
20
17.978095402951311
30
0
10
-11.10222131261702
20
18.171532686365172
30
0
10
-10.455606071894028
20
18.551564739229271
30
0
10
-9.9971231874165163
20
19.144729153996877
30
0
10
-9.7720092595748813
20
19.435971369977075
30
0
0
SPLINE
5
202
100
AcDbEntity
8
0
100
AcDbSpline
70
0
71
3
72
9
73
5
74
0
42
0.000000001
43
0.0000000001
44
0.0000000001
40
0
40
0
40
0
40
0
40
0.13144155120777842
40
0.30835314934526592
40
0.30835314934526592
40
0.30835314934526592
40
0.30835314934526592
10
-9.7720092595748813
20
19.435971369977075
30
0
10
-9.5576082449511528
20
19.819223663231572
30
0
10
-9.0546377042464048
20
20.718308089221104
30
0
10
-8.740046168136649
20
21.700370752959621
30
0
10
-8.5595554174117936
20
22.263810029263567
30
0
0
LINE
5
203
100
AcDbEntity
8
0
100
AcDbLine
10
-8.5595554174081609
20
22.263810029265962
30
0
11
-8.5302513898507879
21
22.366374125716767
31
0
0
SPLINE
5
204
100
AcDbEntity
8
0
100
AcDbSpline
70
0
71
3
72
9
73
5
74
0
42
0.000000001
43
0.0000000001
44
0.0000000001
40
0
40
0
40
0
40
0
40
0.054363902691695741
40
0.12045890318558625
40
0.12045890318558625
40
0.12045890318558625
40
0.12045890318558625
10
-8.5302513898544206
20
22.366374125714373
30
0
10
-8.684053214196382
20
22.466373595623885
30
0
10
-9.0248455074436613
20
22.687951257786082
30
0
10
-9.42924082291551
20
22.740481890975794
30
0
10
-9.6511298478774901
20
22.7693051006747
30
0
0
SPLINE
5
205
100
AcDbEntity
8
0
100
AcDbSpline
70
0
71
3
72
9
73
5
74
0
42
0.000000001
43
0.0000000001
44
0.0000000001
40
0
40
0
40
0
40
0
40
0.070992771658527062
40
0.14020948074202882
40
0.14020948074202882
40
0.14020948074202882
40
0.14020948074202882
10
-9.6511298478774901
20
22.7693051006747
30
0
10
-9.5249293889511115
20
22.970274556221572
30
0
10
-9.2756856926973068
20
23.367185711384934
30
0
10
-9.110142814460346
20
23.80561424733374
30
0
10
-9.0284198583297623
20
24.02205168270595
30
0
0
SPLINE
5
206
100
AcDbEntity
8
0
100
AcDbSpline
70
0
71
3
72
9
73
5
74
0
42
0.000000001
43
0.0000000001
44
0.0000000001
40
0
40
0
40
0
40
0
40
0.01127390041313346
40
0.017103067552486501
40
0.017103067552486501
40
0.017103067552486501
40
0.017103067552486501
10
-9.0284198583297623
20
24.02205168270595
30
0
10
-9.000842582587536
20
23.996520949080853
30
0
10
-8.9590064839305583
20
23.957789556585499
30
0
10
-8.9178905256425622
20
23.918295997429119
30
0
10
-8.9038771451644791
20
23.904835572476458
30
0
0
LINE
5
207
100
AcDbEntity
8
0
100
AcDbLine
10
-8.9038771451608447
20
23.904835572478852
30
0
11
-8.5742062390939502
21
23.597143283126435
31
0
0
SPLINE
5
208
100
AcDbEntity
8
0
100
AcDbSpline
70
0
71
3
72
9
73
5
74
0
42
0.000000001
43
0.0000000001
44
0.0000000001
40
0
40
0
40
0
40
0
40
0.024655287481018199
40
0.052092313198181132
40
0.052092313198181132
40
0.052092313198181132
40
0.052092313198181132
10
-8.5742062390975846
20
23.597143283124041
30
0
10
-8.5134030301702914
20
23.541764907845966
30
0
10
-8.3849364768870132
20
23.424760079911479
30
0
10
-8.2449875616089123
20
23.321736236230905
30
0
10
-8.1712764562301512
20
23.267473569150042
30
0
0
LINE
5
209
100
AcDbEntity
8
0
100
AcDbLine
10
-8.1712764562265185
20
23.267473569152436
30
0
11
-8.0394095243112353
21
23.58981787228354
31
0
0
LINE
5
210
100
AcDbEntity
8
0
100
AcDbLine
10
-8.0394095243112353
20
23.58981787228354
30
0
11
-8.1273192227975635
21
23.663076749084077
31
0
0
SPLINE
5
211
100
AcDbEntity
8
0
100
AcDbSpline
70
0
71
3
72
9
73
5
74
0
42
0.000000001
43
0.0000000001
44
0.0000000001
40
0
40
0
40
0
40
0
40
0.044538761927469479
40
0.080582240359484553
40
0.080582240359484553
40
0.080582240359484553
40
0.080582240359484553
10
-8.1273192228011961
20
23.663076749081682
30
0
10
-8.2390062440270064
20
23.760912156176644
30
0
10
-8.4410772042416191
20
23.937921932582928
30
0
10
-8.6494869729827695
20
24.107412650473776
30
0
10
-8.7427061856918229
20
24.183223834271502
30
0
0
LINE
5
212
100
AcDbEntity
8
0
100
AcDbLine
10
-8.7427061856881885
20
24.183223834273896
30
0
11
-8.8086384595529346
21
24.234506478545747
31
9.6296497219361793e-34
0
LINE
5
213
100
AcDbEntity
8
0
100
AcDbLine
10
-8.8086384595529346
20
24.234506478545747
30
9.6296497219361793e-34
11
-8.6914223493234424
21
24.395677438018403
31
0
0
SPLINE
5
214
100
AcDbEntity
8
0
100
AcDbSpline
70
0
71
3
72
9
73
5
74
0
42
0.000000001
43
0.0000000001
44
0.0000000001
40
0
40
0
40
0
40
0
40
0.047075251321034559
40
0.095507570894705185
40
0.095507570894705185
40
0.095507570894705185
40
0.095507570894705185
10
-8.6914223493270768
20
24.395677438016008
30
0
10
-8.5623913279418282
20
24.306072886632624
30
0
10
-8.3006096257364153
20
24.124280696392873
30
0
10
-8.0641039384591355
20
23.910619852669164
30
0
10
-7.9441708387069578
20
23.802271476025652
30
0
0
LINE
5
215
100
AcDbEntity
8
0
100
AcDbLine
10
-7.9441708387033261
20
23.802271476028046
30
0
11
-6.947833901752638
21
26.542198052642426
31
0
0
SPLINE
5
216
100
AcDbEntity
8
0
100
AcDbSpline
70
0
71
3
72
9
73
5
74
0
42
0.000000001
43
0.0000000001
44
0.0000000001
40
0
40
0
40
0
40
0
40
0.03910071856471993
40
0.077724966372223522
40
0.077724966372223522
40
0.077724966372223522
40
0.077724966372223522
10
1.3232308565445183
20
26.131941666836809
30
0
10
1.2103542444280748
20
26.197426226623225
30
0
10
0.9859765039924574
20
26.327597369101703
30
0
10
0.74634303182865014
20
26.426911388890197
30
0
10
0.62726079810335611
20
26.476263990635942
30
0
0
LINE
5
217
100
AcDbEntity
8
0
100
AcDbLine
10
0.62726079810698898
20
26.476263990638337
30
0
11
0.56865274299224289
21
26.498242607352811
31
4.8148248609680896e-34
0
SPLINE
5
218
100
AcDbEntity
8
0
100
AcDbSpline
70
0
71
3
72
9
73
5
74
0
42
0.000000001
43
0.0000000001
44
0.0000000001
40
0
40
0
40
0
40
0
40
0.19530846043075015
40
0.39033587064826714
40
0.39033587064826714
40
0.39033587064826714
40
0.39033587064826714
10
0.5686527429886099
20
26.49824260735042
30
0
10
1.1581554591891361
20
26.79097731609291
30
0
10
2.3363125931410353
20
27.376025486325567
30
0
10
3.6490293020989242
20
27.459964880896063
30
0
10
4.3049150644607828
20
27.501904359097551
30
0
0
SPLINE
5
219
100
AcDbEntity
8
0
100
AcDbSpline
70
0
71
3
72
9
73
5
74
0
42
0.000000001
43
0.0000000001
44
0.0000000001
40
0
40
0
40
0
40
0
40
0.14266518928950242
40
0.26771477254750553
40
0.26771477254750553
40
0.26771477254750553
40
0.26771477254750553
10
4.3049150644607828
20
27.501904359097551
30
0
10
4.7870644347782854
20
27.481993632512367
30
0
10
5.6918297082925093
20
27.444630659347325
30
0
10
6.4917236672081788
20
27.0242650962578
30
0
10
6.8653541742630324
20
26.827912321324419
30
0
0
SPLINE
5
220
100
AcDbEntity
8
0
100
AcDbSpline
70
0
71
3
72
9
73
5
74
0
42
0.000000001
43
0.0000000001
44
0.0000000001
40
0
40
0
40
0
40
0
40
0.1075577854650539
40
0.20571502839083614
40
0.20571502839083614
40
0.20571502839083614
40
0.20571502839083614
10
6.8653541742630324
20
26.827912321324419
30
0
10
7.1589744975581144
20
26.596600718393152
30
0
10
7.7205527494866892
20
26.154194129614918
30
0
10
7.8235411389239857
20
25.449752645413952
30
0
10
7.872682207710298
20
25.113627305264544
30
0
0
SPLINE
5
221
100
AcDbEntity
8
0
100
AcDbSpline
70
0
71
3
72
9
73
5
74
0
42
0.000000001
43
0.0000000001
44
0.0000000001
40
0
40
0
40
0
40
0
40
0.081806079012780308
40
0.16785565919232531
40
0.16785565919232531
40
0.16785565919232531
40
0.16785565919232531
10
7.872682207710298
20
25.113627305264544
30
0
10
7.8425342839293926
20
24.835827941385737
30
0
10
7.7806745825405397
20
24.265819014056493
30
0
10
7.4056123972513488
20
23.831024961259153
30
0
10
7.2133403955765063
20
23.608131995434832
30
0
0
SPLINE
5
222
100
AcDbEntity
8
0
100
AcDbSpline
70
0
71
3
72
9
73
5
74
0
42
0.000000001
43
0.0000000001
44
0.0000000001
40
0
40
0
40
0
40
0
40
0.096332205266272827
40
0.20549542177896069
40
0.20549542177896069
40
0.20549542177896069
40
0.20549542177896069
10
7.2133403955765063
20
23.608131995434832
30
0
10
6.9627702936934766
20
23.402102271837116
30
0
10
6.4282552929279237
20
22.962600603286205
30
0
10
5.7640061330079675
20
22.76459753305295
30
0
10
5.4111438928909559
20
22.659414401288103
30
0
0
SPLINE
5
223
100
AcDbEntity
8
0
100
AcDbSpline
70
0
71
3
72
9
73
5
74
0
42
0.000000001
43
0.0000000001
44
0.0000000001
40
0
40
0
40
0
40
0
40
0.14974127036503387
40
0.30440299006190252
40
0.30440299006190252
40
0.30440299006190252
40
0.30440299006190252
10
5.4111438928909559
20
22.659414401288103
30
0
10
5.5970229909782248
20
22.195048623315522
30
0
10
5.9748891137234121
20
21.251058159279204
30
0
10
6.5119152905256916
20
20.387533367903664
30
0
10
6.7847686945266981
20
19.948791852231096
30
0
0
SPLINE
5
224
100
AcDbEntity
8
0
100
AcDbSpline
70
0
71
3
72
9
73
5
74
0
42
0.000000001
43
0.0000000001
44
0.0000000001
40
0
40
0
40
0
40
0
40
0.14533007997437031
40
0.26752355425506996
40
0.26752355425506996
40
0.26752355425506996
40
0.26752355425506996
10
6.7847686945266981
20
19.948791852231096
30
0
10
7.059355741800327
20
19.547349469465551
30
0
10
7.5648154707979307
20
18.808374488615044
30
0
10
8.2237304610606419
20
18.203222054653491
30
0
10
8.5246950327224997
20
17.926813950772356
30
0
0
LINE
5
225
100
AcDbEntity
8
0
100
AcDbLine
10
8.5246950327261306
20
17.926813950774751
30
0
11
8.4148055254324312
21
17.890183320281587
31
0
0
SPLINE
5
226
100
AcDbEntity
8
0
100
AcDbSpline
70
0
71
3
72
9
73
5
74
0
42
0.000000001
43
0.0000000001
44
0.0000000001
40
0
40
0
40
0
40
0
40
0.1170752999245419
40
0.23897457631838742
40
0.23897457631838742
40
0.23897457631838742
40
0.23897457631838742
10
8.4148055254287986
20
17.890183320279192
30
0
10
8.0493946206390028
20
17.750609106991817
30
0
10
7.3035164020007137
20
17.465709657604783
30
0
10
6.6228266448421449
20
17.048204710405813
30
0
10
6.2756115137405626
20
16.835238328213762
30
0
0
LINE
5
227
100
AcDbEntity
8
0
100
AcDbLine
10
6.2756115137441952
20
16.835238328216153
30
0
11
6.1657220064504941
21
16.761978259322721
31
0
0
LINE
5
228
100
AcDbEntity
8
0
100
AcDbLine
10
6.1657220064504941
20
16.761978259322721
30
0
11
6.12909137595733
21
16.996410479781705
31
0
0
SPLINE
5
229
100
AcDbEntity
8
0
100
AcDbSpline
70
0
71
3
72
9
73
5
74
0
42
0.000000001
43
0.0000000001
44
0.0000000001
40
0
40
0
40
0
40
0
40
0.26787243566902541
40
0.49902773707985648
40
0.49902773707985648
40
0.49902773707985648
40
0.49902773707985648
10
6.1290913759536974
20
16.996410479779314
30
0
10
5.9690253367533055
20
17.877020148867281
30
0
10
5.6708334263911553
20
19.51753478158065
30
0
10
5.0878030256918159
20
21.078988936611935
30
0
10
4.817736738807703
20
21.802272191281389
30
0
0
LINE
5
230
100
AcDbEntity
8
0
100
AcDbLine
10
4.8177367388113366
20
21.802272191283791
30
0
11
4.7884327112539635
21
21.875531068084321
31
0
0
SPLINE
5
231
100
AcDbEntity
8
0
100
AcDbSpline
70
0
71
3
72
9
73
5
74
0
42
0.000000001
43
0.0000000001
44
0.0000000001
40
0
40
0
40
0
40
0
40
0.062795233859550506
40
0.14088891948313093
40
0.14088891948313093
40
0.14088891948313093
40
0.14088891948313093
10
4.78843271125033
20
21.875531068081926
30
0
10
4.5929154106263415
20
21.799414106039951
30
0
10
4.1542480224805614
20
21.628636232030946
30
0
10
3.690289575164897
20
21.547100156273626
30
0
10
3.4331208406753779
20
21.501905312771868
30
0
0
LINE
5
232
100
AcDbEntity
8
0
100
AcDbLine
10
3.4331208406790106
20
21.501905312774259
30
0
11
3.3745127855642645
21
21.494578709838468
31
0
0
LINE
5
233
100
AcDbEntity
8
0
100
AcDbLine
10
3.3745127855642645
20
21.494578709838468
30
0
11
3.3745127855642618
21
18.754652133224088
31
0
0
LINE
5
234
100
AcDbEntity
8
0
100
AcDbLine
10
3.3745127855642618
20
18.754652133224088
30
0
11
4.6638899980886759
21
17.377362838027551
31
1.5407439555097887e-32
0
LINE
5
235
100
AcDbEntity
8
0
100
AcDbLine
10
4.6638899980886759
20
17.377362838027551
30
1.5407439555097887e-32
11
0.87634384025175815
21
17.377362838027555
31
0
0
LINE
5
236
100
AcDbEntity
8
0
100
AcDbLine
10
0.87634384025175815
20
17.377362838027555
30
0
11
0.75912773002226552
21
17.57516562008627
31
-3.8518598887744717e-33
0
LINE
5
237
100
AcDbEntity
8
0
100
AcDbLine
10
0.75912773002226552
20
17.57516562008627
30
-3.8518598887744717e-33
11
4.2463070093496613
21
17.57516562008627
31
0
0
LINE
5
238
100
AcDbEntity
8
0
100
AcDbLine
10
4.2463070093496613
20
17.57516562008627
30
0
11
3.1840354143484411
21
18.703369488952237
31
0
0
LINE
5
239
100
AcDbEntity
8
0
100
AcDbLine
10
3.1840354143484411
20
18.703369488952237
30
0
11
3.1840354143484433
21
21.655752053496915
31
0
0
LINE
5
240
100
AcDbEntity
8
0
100
AcDbLine
10
3.1840354143484433
20
21.655752053496915
30
0
11
3.3378821550710995
21
21.677729478118497
31
0
0
SPLINE
5
241
100
AcDbEntity
8
0
100
AcDbSpline
70
0
71
3
72
9
73
5
74
0
42
0.000000001
43
0.0000000001
44
0.0000000001
40
0
40
0
40
0
40
0
40
0.077773613489686602
40
0.14415018642464938
40
0.14415018642464938
40
0.14415018642464938
40
0.14415018642464938
10
3.3378821550674678
20
21.677729478116106
30
0
10
3.596113787139287
20
21.709798088914379
30
0
10
4.0747354717139741
20
21.769235937016461
30
0
10
4.528297839974571
20
21.932309978355491
30
0
10
4.7371488748855839
20
22.007400384183001
30
0
0
SPLINE
5
242
100
AcDbEntity
8
0
100
AcDbSpline
70
0
71
3
72
9
73
5
74
0
42
0.000000001
43
0.0000000001
44
0.0000000001
40
0
40
0
40
0
40
0
40
0.0079452994383105765
40
0.012129832952474636
40
0.012129832952474636
40
0.012129832952474636
40
0.012129832952474636
10
4.7371488748855839
20
22.007400384183001
30
0
10
4.7251679301757132
20
22.031034927513584
30
0
10
4.7068770074644961
20
22.067117024196516
30
0
10
4.6912562505055933
20
22.104420863122769
30
0
10
4.6858674227066288
20
22.117289891476702
30
0
0
LINE
5
243
100
AcDbEntity
8
0
100
AcDbLine
10
4.6858674227102624
20
22.117289891479096
30
0
11
4.6126085459097252
21
22.329744687316499
31
0
0
SPLINE
5
244
100
AcDbEntity
8
0
100
AcDbSpline
70
0
71
3
72
9
73
5
74
0
42
0.000000001
43
0.0000000001
44
0.0000000001
40
0
40
0
40
0
40
0
40
0.0035371070242988713
40
0.0095254408272916532
40
0.0095254408272916532
40
0.0095254408272916532
40
0.0095254408272916532
10
4.6126085459060917
20
22.329744687314104
30
0
10
4.608412311303165
20
22.340765050655097
30
0
10
4.5971118377429754
20
22.370442925307671
30
0
10
4.5841356323125781
20
22.399432174825105
30
0
10
4.5759779154129276
20
22.417656769986223
30
0
0
SPLINE
5
245
100
AcDbEntity
8
0
100
AcDbSpline
70
0
71
3
72
9
73
5
74
0
42
0.000000001
43
0.0000000001
44
0.0000000001
40
0
40
0
40
0
40
0
40
0.066991157964828435
40
0.17388653295207368
40
0.17388653295207368
40
0.17388653295207368
40
0.17388653295207368
10
4.5759779154129276
20
22.417656769986223
30
0
10
4.357916532068451
20
22.369018470384312
30
0
10
3.7919024628623079
20
22.242769790059928
30
0
10
3.2158282134993743
20
22.174134753050218
30
0
10
2.8616911112137067
20
22.131941905255388
30
0
0
LINE
5
246
100
AcDbEntity
8
0
100
AcDbLine
10
2.8616911112173398
20
22.131941905257779
30
0
11
2.7811056314810116
21
22.117289891479093
31
0
0
LINE
5
247
100
AcDbEntity
8
0
100
AcDbLine
10
2.7811056314810116
20
22.117289891479093
30
0
11
2.781105631481009
21
18.849890818831998
31
6.1629758220391547e-32
0
LINE
5
248
100
AcDbEntity
8
0
100
AcDbLine
10
2.781105631481009
20
18.849890818831998
30
6.1629758220391547e-32
11
3.6162716089590363
21
17.978095402953699
31
0
0
LINE
5
249
100
AcDbEntity
8
0
100
AcDbLine
10
3.6162716089590363
20
17.978095402953699
30
0
11
0.37817537177641636
21
17.978095402953699
31
0
0
LINE
5
250
100
AcDbEntity
8
0
100
AcDbLine
10
0.37817537177641636
20
17.978095402953699
30
0
11
1.3305574594839367
21
18.849890818831994
31
0
0
LINE
5
251
100
AcDbEntity
8
0
100
AcDbLine
10
1.3305574594839367
20
18.849890818831994
30
0
11
1.3305574594839387
21
21.311429133651334
31
0
0
LINE
5
252
100
AcDbEntity
8
0
100
AcDbLine
10
1.3305574594839387
20
21.311429133651334
30
0
11
1.2719494043691923
21
21.304102530715543
31
0
0
SPLINE
5
253
100
AcDbEntity
8
0
100
AcDbSpline
70
0
71
3
72
9
73
5
74
0
42
0.000000001
43
0.0000000001
44
0.0000000001
40
0
40
0
40
0
40
0
40
0.041710699005913565
40
0.079831622721087098
40
0.079831622721087098
40
0.079831622721087098
40
0.079831622721087098
10
1.2719494043655597
20
21.304102530713152
30
0
10
1.136509353478625
20
21.272398396751875
30
0
10
0.87728571778271591
20
21.211718702538718
30
0
10
0.62377409084261159
20
21.130454115099777
30
0
10
0.50271808493806858
20
21.091648926968645
30
0
0
LINE
5
254
100
AcDbEntity
8
0
100
AcDbLine
10
0.50271808494170145
20
21.091648926971033
30
0
11
0.44411002982695519
21
21.069670310256559
31
0
0
LINE
5
255
100
AcDbEntity
8
0
100
AcDbLine
10
0.44411002982695519
20
21.069670310256559
30
0
11
0.37817537177641813
21
21.216190448043424
31
1.9259299443872359e-33
0
SPLINE
5
256
100
AcDbEntity
8
0
100
AcDbSpline
70
0
71
3
72
9
73
5
74
0
42
0.000000001
43
0.0000000001
44
0.0000000001
40
0
40
0
40
0
40
0
40
0.030590940929090118
40
0.053309099221020062
40
0.053309099221020062
40
0.053309099221020062
40
0.053309099221020062
10
0.37817537177278537
20
21.216190448041033
30
0
10
0.47345604381831119
20
21.252718383095587
30
0
10
0.63949627159994571
20
21.316373545539786
30
0
10
0.81070730256424584
20
21.364275393595797
30
0
10
0.88367044318391885
20
21.384689202542376
30
0
0
LINE
5
257
100
AcDbEntity
8
0
100
AcDbLine
10
0.88367044318755184
20
21.384689202544767
30
0
11
1.2719494043691926
21
21.479927888152677
31
0
0
LINE
5
258
100
AcDbEntity
8
0
100
AcDbLine
10
1.2719494043691926
20
21.479927888152677
30
0
11
1.3305574594839389
21
21.494578709838468
31
0
0
LINE
5
259
100
AcDbEntity
8
0
100
AcDbLine
10
1.3305574594839389
20
21.494578709838468
30
0
11
1.3305574594839389
21
21.875531068084317
31
0
0
SPLINE
5
260
100
AcDbEntity
8
0
100
AcDbSpline
70
0
71
3
72
9
73
5
74
0
42
0.000000001
43
0.0000000001
44
0.0000000001
40
0
40
0
40
0
40
0
40
0.048767916075483475
40
0.10962594894408179
40
0.10962594894408179
40
0.10962594894408179
40
0.10962594894408179
10
1.3305574594803062
20
21.875531068081926
30
0
10
1.1679370635218469
20
21.864614885666779
30
0
10
0.80238084010202371
20
21.840076276014983
30
0
10
0.449520474640978
20
21.740393972741487
30
0
10
0.25363265860750239
20
21.685056081051897
30
0
0
LINE
5
261
100
AcDbEntity
8
0
100
AcDbLine
10
0.25363265861113538
20
21.685056081054292
30
0
11
0.17304717887480697
21
21.655752053496915
31
0
0
SPLINE
5
262
100
AcDbEntity
8
0
100
AcDbSpline
70
0
71
3
72
9
73
5
74
0
42
0.000000001
43
0.0000000001
44
0.0000000001
40
0
40
0
40
0
40
0
40
0.017590928392937497
40
0.04985084845190188
40
0.04985084845190188
40
0.04985084845190188
40
0.04985084845190188
10
0.17304717887117418
20
21.655752053494524
30
0
10
0.18699566917834604
20
21.712736825789687
30
0
10
0.22652422963311303
20
21.874225701436103
30
0
10
0.28301227517080141
20
22.030689605661948
30
0
10
0.31956731665803995
20
22.131941905255388
30
0
0
SPLINE
5
263
100
AcDbEntity
8
0
100
AcDbSpline
70
0
71
3
72
9
73
5
74
0
42
0.000000001
43
0.0000000001
44
0.0000000001
40
0
40
0
40
0
40
0
40
0.010251488021386137
40
0.034530447978578883
40
0.034530447978578883
40
0.034530447978578883
40
0.034530447978578883
10
0.31956731665803995
20
22.131941905255388
30
0
10
0.33073310770498532
20
22.164241944193961
30
0
10
0.36834323475014114
20
22.273039302386998
30
0
10
0.39992612468856298
20
22.383761154646386
30
0
10
0.42213260520174151
20
22.461611619229387
30
0
0
LINE
5
264
100
AcDbEntity
8
0
100
AcDbLine
10
0.42213260520537432
20
22.461611619231782
30
0
11
0.44411002982695647
21
22.527546277282315
31
0
0
SPLINE
5
265
100
AcDbEntity
8
0
100
AcDbSpline
70
0
71
3
72
9
73
5
74
0
42
0.000000001
43
0.0000000001
44
0.0000000001
40
0
40
0
40
0
40
0
40
0.029350348320656926
40
0.051335116502871619
40
0.051335116502871619
40
0.051335116502871619
40
0.051335116502871619
10
0.44411002982332354
20
22.527546277279924
30
0
10
0.54175471812505827
20
22.521180214388593
30
0
10
0.71253979348746577
20
22.510045675996722
30
0
10
0.88364978457228072
20
22.506911215970966
30
0
10
0.95692931998445696
20
22.505568852658342
30
0
0
SPLINE
5
266
100
AcDbEntity
8
0
100
AcDbSpline
70
0
71
3
72
9
73
5
74
0
42
0.000000001
43
0.0000000001
44
0.0000000001
40
0
40
0
40
0
40
0
40
0.019055659761564737
40
0.036715169569330929
40
0.036715169569330929
40
0.036715169569330929
40
0.036715169569330929
10
0.95692931998445696
20
22.505568852658342
30
0
10
1.020486883446164
20
22.506337032219047
30
0
10
1.1429453419361177
20
22.507817109171718
30
0
10
1.2646787170211624
20
22.521138746390598
30
0
10
1.3232308565445159
20
22.527546277279924
30
0
0
LINE
5
267
100
AcDbEntity
8
0
100
AcDbLine
10
1.3232308565481485
20
22.527546277282319
30
0
11
1.3232308565481512
21
26.1319416668392
31
0
0
SPLINE
5
268
100
AcDbEntity
8
0
100
AcDbSpline
70
0
71
3
72
9
73
5
74
0
42
0.000000001
43
0.0000000001
44
0.0000000001
40
0
40
0
40
0
40
0
40
0.094554637694311716
40
0.19121297144117222
40
0.19121297144117222
40
0.19121297144117222
40
0.19121297144117222
10
7.7261596857376427
20
26.564176073308062
30
0
10
7.9419644303105379
20
26.322379784618654
30
0
10
8.3783752449158637
20
25.833407609681849
30
0
10
8.4366360744463247
20
25.180125677571318
30
0
10
8.466086977607759
20
24.849891057248186
30
0
0
SPLINE
5
269
100
AcDbEntity
8
0
100
AcDbSpline
70
0
71
3
72
9
73
5
74
0
42
0.000000001
43
0.0000000001
44
0.0000000001
40
0
40
0
40
0
40
0
40
0.15758693641720026
40
0.35117331850441685
40
0.35117331850441685
40
0.35117331850441685
40
0.35117331850441685
10
8.466086977607759
20
24.849891057248186
30
0
10
8.3450895708155279
20
24.310633883444865
30
0
10
8.0754538900941029
20
23.108930648663552
30
0
10
6.9435404076059761
20
22.583023501829476
30
0
10
6.3195663629837302
20
22.29311405682094
30
0
0
SPLINE
5
270
100
AcDbEntity
8
0
100
AcDbSpline
70
0
71
3
72
9
73
5
74
0
42
0.000000001
43
0.0000000001
44
0.0000000001
40
0
40
0
40
0
40
0
40
0.16237757020849761
40
0.33900674500969119
40
0.33900674500969119
40
0.33900674500969119
40
0.33900674500969119
10
6.3195663629837302
20
22.29311405682094
30
0
10
6.5106728829595024
20
21.783521869813907
30
0
10
6.9096590188151428
20
20.719611451781404
30
0
10
7.5957834027533604
20
19.813062499809938
30
0
10
7.9532676874466208
20
19.340732684369158
30
0
0
SPLINE
5
271
100
AcDbEntity
8
0
100
AcDbSpline
70
0
71
3
72
9
73
5
74
0
42
0.000000001
43
0.0000000001
44
0.0000000001
40
0
40
0
40
0
40
0
40
0.11915998462368746
40
0.24688934928293341
40
0.24688934928293341
40
0.24688934928293341
40
0.24688934928293341
10
7.9532676874466208
20
19.340732684369158
30
0
10
8.2197330324493674
20
19.04414083985802
30
0
10
8.7718265548003487
20
18.429627773871729
30
0
10
9.4538829475985349
20
17.96306447322598
30
0
10
9.8067480264969156
20
17.721685757870745
30
0
0
SPLINE
5
272
100
AcDbEntity
8
0
100
AcDbSpline
70
0
71
3
72
9
73
5
74
0
42
0.000000001
43
0.0000000001
44
0.0000000001
40
0
40
0
40
0
40
0
40
0.17214258834404178
40
0.34417903472774913
40
0.34417903472774913
40
0.34417903472774913
40
0.34417903472774913
10
9.8067480264969156
20
17.721685757870745
30
0
10
9.2561517461068838
20
17.553234494415843
30
0
10
8.1552986792841953
20
17.21643583342032
30
0
10
7.1560394199958113
20
16.644784703223994
30
0
10
6.6565638719864131
20
16.359047284360003
30
0
0
LINE
5
273
100
AcDbEntity
8
0
100
AcDbLine
10
6.6565638719900457
20
16.35904728436239
30
0
11
6.5906292139395086
21
16.315091243026334
31
0
0
LINE
5
274
100
AcDbEntity
8
0
100
AcDbLine
10
6.5906292139395086
20
16.315091243026334
30
0
11
6.4441090761526434
21
16.432307353255826
31
-1.9259299443872359e-33
0
SPLINE
5
275
100
AcDbEntity
8
0
100
AcDbSpline
70
0
71
3
72
9
73
5
74
0
42
0.000000001
43
0.0000000001
44
0.0000000001
40
0
40
0
40
0
40
0
40
0.16492439312306442
40
0.32823896238890998
40
0.32823896238890998
40
0.32823896238890998
40
0.32823896238890998
10
6.4441090761490099
20
16.432307353253435
30
0
10
6.9168570409532029
20
16.717053403131029
30
0
10
7.8577384866894304
20
17.283766102121639
30
0
10
8.9048201299174483
20
17.61532661408183
30
0
10
9.4257932840652732
20
17.780293812985491
30
0
0
SPLINE
5
276
100
AcDbEntity
8
0
100
AcDbSpline
70
0
71
3
72
9
73
5
74
0
42
0.000000001
43
0.0000000001
44
0.0000000001
40
0
40
0
40
0
40
0
40
0.26254090989581602
40
0.56564475720512308
40
0.56564475720512308
40
0.56564475720512308
40
0.56564475720512308
10
9.4257932840652732
20
17.780293812985491
30
0
10
8.7478886770978743
20
18.352045147632296
30
0
10
7.2873422541862185
20
19.583884197006856
30
0
10
6.5188921544158092
20
21.338331713320166
30
0
10
6.1071139513321189
20
22.278462043042254
30
0
0
LINE
5
277
100
AcDbEntity
8
0
100
AcDbLine
10
6.1071139513357506
20
22.278462043044648
30
0
11
6.0631567179067964
21
22.403003564117036
31
0
0
SPLINE
5
278
100
AcDbEntity
8
0
100
AcDbSpline
70
0
71
3
72
9
73
5
74
0
42
0.000000001
43
0.0000000001
44
0.0000000001
40
0
40
0
40
0
40
0
40
0.19946726188209682
40
0.36148399000542641
40
0.36148399000542641
40
0.36148399000542641
40
0.36148399000542641
10
6.0631567179031638
20
22.403003564114641
30
0
10
6.7147656474207453
20
22.687342391851942
30
0
10
7.8956421157828069
20
23.202634640785995
30
0
10
8.1782510179371943
20
24.441260460299496
30
0
10
8.3049160181351027
20
24.996411195035051
30
0
0
SPLINE
5
279
100
AcDbEntity
8
0
100
AcDbSpline
70
0
71
3
72
9
73
5
74
0
42
0.000000001
43
0.0000000001
44
0.0000000001
40
0
40
0
40
0
40
0
40
0.076472739311555363
40
0.16897454510688295
40
0.16897454510688295
40
0.16897454510688295
40
0.16897454510688295
10
8.3049160181351027
20
24.996411195035051
30
0
10
8.2728401413561397
20
25.252419387699192
30
0
10
8.2019651245014664
20
25.818096363422764
30
0
10
7.8944841332107192
20
26.300237402780056
30
0
10
7.7261596857376427
20
26.564176073308062
30
0
0
LINE
5
280
100
AcDbEntity
8
0
100
AcDbLine
10
17.213338011394356
20
26.139267673728543
30
0
11
18.304913633952953
21
27.033040514228421
31
0
0
LINE
5
281
100
AcDbEntity
8
0
100
AcDbLine
10
18.304913633952953
20
27.033040514228421
30
0
11
18.414805525432442
21
26.879194369552216
31
-1.9259299443872359e-33
0
LINE
5
282
100
AcDbEntity
8
0
100
AcDbLine
10
18.414805525432442
20
26.879194369552216
30
-1.9259299443872359e-33
11
17.41847335685334
21
26.051355591056428
31
0
0
LINE
5
283
100
AcDbEntity
8
0
100
AcDbLine
10
17.41847335685334
20
26.051355591056428
30
0
11
17.41847335685334
21
21.501905312774259
31
0
0
SPLINE
5
284
100
AcDbEntity
8
0
100
AcDbSpline
70
0
71
3
72
9
73
5
74
0
42
0.000000001
43
0.0000000001
44
0.0000000001
40
0
40
0
40
0
40
0
40
0.18482455822908089
40
0.29498788338888887
40
0.29498788338888887
40
0.29498788338888887
40
0.29498788338888887
10
17.418473356849702
20
21.501905312771868
30
0
10
17.426196399722571
20
20.881126517941521
30
0
10
17.43852270577311
20
19.89033706607259
30
0
10
17.167892112908685
20
18.940770519776201
30
0
10
17.066825026161226
20
18.58615457081325
30
0
0
SPLINE
5
285
100
AcDbEntity
8
0
100
AcDbSpline
70
0
71
3
72
9
73
5
74
0
42
0.000000001
43
0.0000000001
44
0.0000000001
40
0
40
0
40
0
40
0
40
0.14803922424519581
40
0.32594502831000427
40
0.32594502831000427
40
0.32594502831000427
40
0.32594502831000427
10
17.066825026161226
20
18.58615457081325
30
0
10
16.743014266082707
20
18.185327762626251
30
0
10
16.030064654930548
20
17.302808241140987
30
0
10
14.885618754436063
20
17.242035033781658
30
0
10
14.260962599403406
20
17.208864083523821
30
0
0
SPLINE
5
286
100
AcDbEntity
8
0
100
AcDbSpline
70
0
71
3
72
9
73
5
74
0
42
0.000000001
43
0.0000000001
44
0.0000000001
40
0
40
0
40
0
40
0
40
0.15947514636191357
40
0.29130326396588307
40
0.29130326396588307
40
0.29130326396588307
40
0.29130326396588307
10
14.260962599403406
20
17.208864083523821
30
0
10
13.715592483274985
20
17.229914181913813
30
0
10
12.719399041714341
20
17.268365078543759
30
0
10
11.914560518526986
20
17.847760475932066
30
0
10
11.550334089881922
20
18.109963526959497
30
0
0
LINE
5
287
100
AcDbEntity
8
0
100
AcDbLine
10
11.550334089885556
20
18.109963526961884
30
0
11
11.608946913371884
21
18.080659499404511
31
4.8148248609680896e-34
0
LINE
5
288
100
AcDbEntity
8
0
100
AcDbLine
10
11.608946913371884
20
18.080659499404511
30
4.8148248609680896e-34
11
11.865351790080869
21
17.934139361617646
31
0
0
SPLINE
5
289
100
AcDbEntity
8
0
100
AcDbSpline
70
0
71
3
72
9
73
5
74
0
42
0.000000001
43
0.0000000001
44
0.0000000001
40
0
40
0
40
0
40
0
40
0.11027114514573828
40
0.23951713265002966
40
0.23951713265002966
40
0.23951713265002966
40
0.23951713265002966
10
11.865351790077234
20
17.934139361615259
30
0
10
12.203262609102152
20
17.780548834847746
30
0
10
12.937230052328593
20
17.446938781873857
30
0
10
13.744669469805908
20
17.420781573115068
30
0
10
14.180372351295496
20
17.406666865582537
30
0
0
SPLINE
5
290
100
AcDbEntity
8
0
100
AcDbSpline
70
0
71
3
72
9
73
5
74
0
42
0.000000001
43
0.0000000001
44
0.0000000001
40
0
40
0
40
0
40
0
40
0.17112535609440499
40
0.30947341713710397
40
0.30947341713710397
40
0.30947341713710397
40
0.30947341713710397
10
14.180372351295496
20
17.406666865582537
30
0
10
14.781767463648876
20
17.433280258456911
30
0
10
15.869366664125499
20
17.481409523589893
30
0
10
16.555125632391206
20
18.310674566652573
30
0
10
16.861689680702238
20
18.681392064328264
30
0
0
SPLINE
5
291
100
AcDbEntity
8
0
100
AcDbSpline
70
0
71
3
72
9
73
5
74
0
42
0.000000001
43
0.0000000001
44
0.0000000001
40
0
40
0
40
0
40
0
40
0.10696537537808244
40
0.28044834539393454
40
0.28044834539393454
40
0.28044834539393454
40
0.28044834539393454
10
16.861689680702238
20
18.681392064328264
30
0
10
16.962922337006766
20
19.024923368504801
30
0
10
17.228340289873152
20
19.925614695084022
30
0
10
17.219071565652744
20
20.867796801359244
30
0
10
17.213338011390718
20
21.450622668500017
30
0
0
LINE
5
292
100
AcDbEntity
8
0
100
AcDbLine
10
17.213338011394356
20
21.450622668502408
30
0
11
17.213338011394356
21
26.139267673728543
31
0
0
SPLINE
5
293
100
AcDbEntity
8
0
100
AcDbSpline
70
0
71
3
72
9
73
5
74
0
42
0.000000001
43
0.0000000001
44
0.0000000001
40
0
40
0
40
0
40
0
40
0.038059038932847782
40
0.082970800201879857
40
0.082970800201879857
40
0.082970800201879857
40
0.082970800201879857
10
24.883664244300888
20
27.084322562451433
30
0
10
25.01106258876796
20
27.097737286061665
30
0
10
25.288797993581472
20
27.126982122075304
30
0
10
25.534531710392287
20
27.260911410299762
30
0
10
25.66754638541417
20
27.333406796689104
30
0
0
LINE
5
294
100
AcDbEntity
8
0
100
AcDbLine
10
25.667546385417801
20
27.333406796691492
30
0
11
25.748131865154129
21
27.296777358291227
31
-9.6296497219361793e-34
0
SPLINE
5
295
100
AcDbEntity
8
0
100
AcDbSpline
70
0
71
3
72
9
73
5
74
0
42
0.000000001
43
0.0000000001
44
0.0000000001
40
0
40
0
40
0
40
0
40
0.062583937616592575
40
0.1232806476500493
40
0.1232806476500493
40
0.1232806476500493
40
0.1232806476500493
10
25.748131865150498
20
27.296777358288836
30
0
10
25.62815931919323
20
27.125469452764985
30
0
10
25.391832016548154
20
26.788019456091163
30
0
10
25.223135620909453
20
26.412208637430858
30
0
10
25.140078657753037
20
26.227179756398272
30
0
0
SPLINE
5
296
100
AcDbEntity
8
0
100
AcDbSpline
70
0
71
3
72
9
73
5
74
0
42
0.000000001
43
0.0000000001
44
0.0000000001
40
0
40
0
40
0
40
0
40
0.0961261064416149
40
0.14732435692712603
40
0.14732435692712603
40
0.14732435692712603
40
0.14732435692712603
10
25.140078657753037
20
26.227179756398272
30
0
10
25.020959766754846
20
25.929533747916942
30
0
10
24.838396312727497
20
25.473356873447649
30
0
10
24.621908028568768
20
25.032427225367712
30
0
10
24.546673887855572
20
24.879195084805559
30
0
0
LINE
5
297
100
AcDbEntity
8
0
100
AcDbLine
10
24.5466738878592
20
24.879195084807954
30
0
11
24.510043257366036
21
24.835237851378999
31
0
0
SPLINE
5
298
100
AcDbEntity
8
0
100
AcDbSpline
70
0
71
3
72
9
73
5
74
0
42
0.000000001
43
0.0000000001
44
0.0000000001
40
0
40
0
40
0
40
0
40
0.0075892913466154063
40
0.013207423726691628
40
0.013207423726691628
40
0.013207423726691628
40
0.013207423726691628
10
24.510043257362408
20
24.835237851376604
30
0
10
24.501408064887684
20
24.859016878325541
30
0
10
24.486380489747077
20
24.900398829601276
30
0
10
24.472144197398762
20
24.942059205025981
30
0
10
24.466088408119244
20
24.959780564541887
30
0
0
SPLINE
5
299
100
AcDbEntity
8
0
100
AcDbSpline
70
0
71
3
72
9
73
5
74
0
42
0.000000001
43
0.0000000001
44
0.0000000001
40
0
40
0
40
0
40
0
40
0.058901813942000607
40
0.097645426061510887
40
0.097645426061510887
40
0.097645426061510887
40
0.097645426061510887
10
24.466088408119244
20
24.959780564541887
30
0
10
24.407989945877855
20
25.147555846060925
30
0
10
24.311676288973082
20
25.458843328409113
30
0
10
24.180955659018032
20
25.75716412704751
30
0
10
24.129088514930771
20
25.875531425709795
30
0
0
SPLINE
5
300
100
AcDbEntity
8
0
100
AcDbSpline
70
0
71
3
72
9
73
5
74
0
42
0.000000001
43
0.0000000001
44
0.0000000001
40
0
40
0
40
0
40
0
40
0.030021445987298272
40
0.063311024887550277
40
0.063311024887550277
40
0.063311024887550277
40
0.063311024887550277
10
24.129088514930771
20
25.875531425709795
30
0
10
24.07756478111429
20
25.96190009029776
30
0
10
23.9689084427309
20
26.14403950741799
30
0
10
23.814614601406149
20
26.28975513346855
30
0
10
23.733485334999131
20
26.366373887295794
30
0
0
SPLINE
5
301
100
AcDbEntity
8
0
100
AcDbSpline
70
0
71
3
72
9
73
5
74
0
42
0.000000001
43
0.0000000001
44
0.0000000001
40
0
40
0
40
0
40
0
40
0.084003692647214856
40
0.16576417153045953
40
0.16576417153045953
40
0.16576417153045953
40
0.16576417153045953
10
23.733485334999131
20
26.366373887295794
30
0
10
23.505599605419182
20
26.539441845498757
30
0
10
23.055913550234933
20
26.880956198093511
30
0
10
22.494103688512826
20
26.933743813461358
30
0
10
22.217000120765732
20
26.959780445332598
30
0
0
SPLINE
5
302
100
AcDbEntity
8
0
100
AcDbSpline
70
0
71
3
72
9
73
5
74
0
42
0.000000001
43
0.0000000001
44
0.0000000001
40
0
40
0
40
0
40
0
40
0.072616845374543285
40
0.13972636458830162
40
0.13972636458830162
40
0.13972636458830162
40
0.13972636458830162
10
22.217000120765732
20
26.959780445332598
30
0
10
21.970429278308661
20
26.944657642841182
30
0
10
21.495987745461811
20
26.915558964654132
30
0
10
21.102137684795473
20
26.650965553484887
30
0
10
20.912974470741315
20
26.523883333439898
30
0
0
SPLINE
5
303
100
AcDbEntity
8
0
100
AcDbSpline
70
0
71
3
72
9
73
5
74
0
42
0.000000001
43
0.0000000001
44
0.0000000001
40
0
40
0
40
0
40
0
40
0.062770697843896592
40
0.12450381291574861
40
0.12450381291574861
40
0.12450381291574861
40
0.12450381291574861
10
20.912974470741315
20
26.523883333439898
30
0
10
20.761266201498756
20
26.370203785295292
30
0
10
20.460357359947849
20
26.065384970650982
30
0
10
20.415207982271468
20
25.639709169622872
30
0
10
20.392821425087014
20
25.428645005459856
30
0
0
SPLINE
5
304
100
AcDbEntity
8
0
100
AcDbSpline
70
0
71
3
72
9
73
5
74
0
42
0.000000001
43
0.0000000001
44
0.0000000001
40
0
40
0
40
0
40
0
40
0.1133808241538049
40
0.26653702851878103
40
0.26653702851878103
40
0.26653702851878103
40
0.26653702851878103
10
20.392821425087014
20
25.428645005459856
30
0
10
20.507170145201762
20
25.044087942146245
30
0
10
20.775982515386758
20
24.14006649304762
30
0
10
21.709749761979641
20
23.892972674089108
30
0
10
22.246306532508893
20
23.750988831753801
30
0
0
LINE
5
305
100
AcDbEntity
8
0
100
AcDbLine
10
22.24630653251252
20
23.750988831756192
30
0
11
23.484395140300606
21
23.45062314533957
31
0
0
SPLINE
5
306
100
AcDbEntity
8
0
100
AcDbSpline
70
0
71
3
72
9
73
5
74
0
42
0.000000001
43
0.0000000001
44
0.0000000001
40
0
40
0
40
0
40
0
40
0.22288078319051033
40
0.41226931583303905
40
0.41226931583303905
40
0.41226931583303905
40
0.41226931583303905
10
23.484395140296979
20
23.450623145337175
30
0
10
24.254180350676478
20
23.20839437131546
30
0
10
25.678075302401755
20
22.760336492518217
30
0
10
25.987118262101845
20
21.320737704020974
30
0
10
26.129086607582138
20
20.659413924450945
30
0
0
SPLINE
5
307
100
AcDbEntity
8
0
100
AcDbSpline
70
0
71
3
72
9
73
5
74
0
42
0.000000001
43
0.0000000001
44
0.0000000001
40
0
40
0
40
0
40
0
40
0.11282189032927932
40
0.22657723855327508
40
0.22657723855327508
40
0.22657723855327508
40
0.22657723855327508
10
26.129086607582138
20
20.659413924450945
30
0
10
26.090769651802951
20
20.274395019693451
30
0
10
26.01381871608579
20
19.501171667592594
30
0
10
25.488212205029388
20
18.928576435651024
30
0
10
25.224326246864361
20
18.6410993244601
30
0
0
SPLINE
5
308
100
AcDbEntity
8
0
100
AcDbSpline
70
0
71
3
72
9
73
5
74
0
42
0.000000001
43
0.0000000001
44
0.0000000001
40
0
40
0
40
0
40
0
40
0.11829109857814135
40
0.24259865121826404
40
0.24259865121826404
40
0.24259865121826404
40
0.24259865121826404
10
25.224326246864361
20
18.6410993244601
30
0
10
24.89961532239791
20
18.402892067904265
30
0
10
24.233678212520125
20
17.914361993828773
30
0
10
23.408867067736011
20
17.854778992851745
30
0
10
22.986233824379006
20
17.824248662228655
30
0
0
SPLINE
5
309
100
AcDbEntity
8
0
100
AcDbSpline
70
0
71
3
72
9
73
5
74
0
42
0.000000001
43
0.0000000001
44
0.0000000001
40
0
40
0
40
0
40
0
40
0.088693834115655484
40
0.18890777556081279
40
0.18890777556081279
40
0.18890777556081279
40
0.18890777556081279
10
22.986233824379006
20
17.824248662228655
30
0
10
22.69025254733927
20
17.837314292644258
30
0
10
22.059846102396161
20
17.865142598892604
30
0
10
21.444523564893974
20
18.005958095883354
30
0
10
21.118100279457124
20
18.080659499402117
30
0
0
LINE
5
310
100
AcDbEntity
8
0
100
AcDbLine
10
21.118100279460755
20
18.080659499404511
30
0
11
20.260956877361149
21
18.293114295241914
31
0
0
SPLINE
5
311
100
AcDbEntity
8
0
100
AcDbSpline
70
0
71
3
72
9
73
5
74
0
42
0.000000001
43
0.0000000001
44
0.0000000001
40
0
40
0
40
0
40
0
40
0.048346654508584629
40
0.086751648952345578
40
0.086751648952345578
40
0.086751648952345578
40
0.086751648952345578
10
20.260956877357522
20
18.293114295239519
30
0
10
20.103535930313502
20
18.329285126069536
30
0
10
19.821064953272398
20
18.394188876915891
30
0
10
19.531849353018575
20
18.410454858754552
30
0
10
19.403813475257905
20
18.417655816311914
30
0
0
SPLINE
5
312
100
AcDbEntity
8
0
100
AcDbSpline
70
0
71
3
72
9
73
5
74
0
42
0.000000001
43
0.0000000001
44
0.0000000001
40
0
40
0
40
0
40
0
40
0.045979790292345168
40
0.097530958047547398
40
0.097530958047547398
40
0.097530958047547398
40
0.097530958047547398
10
19.403813475257905
20
18.417655816311914
30
0
10
19.249577631500401
20
18.403251661440919
30
0
10
18.922417165754531
20
18.372697998288011
30
0
10
18.633463164108367
20
18.215193206686561
30
0
10
18.480733030921968
20
18.131942143673974
30
0
0
LINE
5
313
100
AcDbEntity
8
0
100
AcDbLine
10
18.480733030925602
20
18.131942143676358
30
0
11
18.422129744182438
21
18.234506240127168
31
9.6296497219361793e-34
0
SPLINE
5
314
100
AcDbEntity
8
0
100
AcDbSpline
70
0
71
3
72
9
73
5
74
0
42
0.000000001
43
0.0000000001
44
0.0000000001
40
0
40
0
40
0
40
0
40
0.15443177031174152
40
0.29108581939618261
40
0.29108581939618261
40
0.29108581939618261
40
0.29108581939618261
10
18.422129744178804
20
18.23450624012478
30
0
10
18.697955613138511
20
18.671380010379643
30
0
10
19.217855106064896
20
19.494835955556148
30
0
10
19.543820336969137
20
20.411993210917501
30
0
10
19.696848982460057
20
20.842564692730974
30
0
0
LINE
5
315
100
AcDbEntity
8
0
100
AcDbLine
10
19.696848982463692
20
20.842564692733369
30
0
11
19.828723066936348
21
20.805934062240205
31
0
0
SPLINE
5
316
100
AcDbEntity
8
0
100
AcDbSpline
70
0
71
3
72
9
73
5
74
0
42
0.000000001
43
0.0000000001
44
0.0000000001
40
0
40
0
40
0
40
0
40
0.10672926600876471
40
0.20495267293066172
40
0.20495267293066172
40
0.20495267293066172
40
0.20495267293066172
10
19.828723066932714
20
20.80593406223781
30
0
10
19.899957993356374
20
20.448774531445657
30
0
10
20.036750731866807
20
19.762919533693672
30
0
10
20.520133272848188
20
19.259602616837523
30
0
10
20.751793974525491
20
19.018388381238054
30
0
0
SPLINE
5
317
100
AcDbEntity
8
0
100
AcDbSpline
70
0
71
3
72
9
73
5
74
0
42
0.000000001
43
0.0000000001
44
0.0000000001
40
0
40
0
40
0
40
0
40
0.10087358564513739
40
0.21463255420353561
40
0.21463255420353561
40
0.21463255420353561
40
0.21463255420353561
10
20.751793974525491
20
19.018388381238054
30
0
10
21.039231240246131
20
18.832671431271368
30
0
10
21.650822412705622
20
18.437514432783516
30
0
10
22.379982548987805
20
18.400594553131416
30
0
10
22.766450041420025
20
18.381026377911638
30
0
0
SPLINE
5
318
100
AcDbEntity
8
0
100
AcDbSpline
70
0
71
3
72
9
73
5
74
0
42
0.000000001
43
0.0000000001
44
0.0000000001
40
0
40
0
40
0
40
0
40
0.088824009014182692
40
0.16483408500172073
40
0.16483408500172073
40
0.16483408500172073
40
0.16483408500172073
10
22.766450041420025
20
18.381026377911638
30
0
10
23.067906566015175
20
18.393322709405602
30
0
10
23.627330881027895
20
18.416141478488193
30
0
10
24.10611020495783
20
18.702972282552047
30
0
10
24.326890104896588
20
18.835238805050921
30
0
0
SPLINE
5
319
100
AcDbEntity
8
0
100
AcDbSpline
70
0
71
3
72
9
73
5
74
0
42
0.000000001
43
0.0000000001
44
0.0000000001
40
0
40
0
40
0
40
0
40
0.068736160254720832
40
0.1392834717663691
40
0.1392834717663691
40
0.1392834717663691
40
0.1392834717663691
10
24.326890104896588
20
18.835238805050921
30
0
10
24.495684802953637
20
19.00139736198998
30
0
10
24.837721825010384
20
19.338092641278184
30
0
10
24.882809469775651
20
19.816411869873374
30
0
10
24.905646437294049
20
20.058681359524797
30
0
0
SPLINE
5
320
100
AcDbEntity
8
0
100
AcDbSpline
70
0
71
3
72
9
73
5
74
0
42
0.000000001
43
0.0000000001
44
0.0000000001
40
0
40
0
40
0
40
0
40
0.083421629373358702
40
0.17259633842229069
40
0.17259633842229069
40
0.17259633842229069
40
0.17259633842229069
10
24.905646437294049
20
20.058681359524797
30
0
10
24.867809621943682
20
20.344323501298895
30
0
10
24.78952661745085
20
20.935306776735292
30
0
10
24.334749900320645
20
21.323378936259154
30
0
10
24.099782103187604
20
21.52388273739345
30
0
0
SPLINE
5
321
100
AcDbEntity
8
0
100
AcDbSpline
70
0
71
3
72
9
73
5
74
0
42
0.000000001
43
0.0000000001
44
0.0000000001
40
0
40
0
40
0
40
0
40
0.09673763230120988
40
0.25025579301348277
40
0.25025579301348277
40
0.25025579301348277
40
0.25025579301348277
10
24.099782103187604
20
21.52388273739345
30
0
10
23.809169120772893
20
21.666367246547455
30
0
10
23.057366738968099
20
22.034968100033772
30
0
10
22.23229165672544
20
22.190423883454212
30
0
10
21.726153486854592
20
22.285787453885149
30
0
0
SPLINE
5
322
100
AcDbEntity
8
0
100
AcDbSpline
70
0
71
3
72
9
73
5
74
0
42
0.000000001
43
0.0000000001
44
0.0000000001
40
0
40
0
40
0
40
0
40
0.12474519607977909
40
0.22237678114047976
40
0.22237678114047976
40
0.22237678114047976
40
0.22237678114047976
10
21.726153486854592
20
22.285787453885149
30
0
10
21.313606902655199
20
22.375246682861558
30
0
10
20.578181536807115
20
22.534721003382565
30
0
10
19.98101100186663
20
22.987917130675122
30
0
10
19.718831175453222
20
23.186886897320818
30
0
0
SPLINE
5
323
100
AcDbEntity
8
0
100
AcDbSpline
70
0
71
3
72
9
73
5
74
0
42
0.000000001
43
0.0000000001
44
0.0000000001
40
0
40
0
40
0
40
0
40
0.088586021385370792
40
0.18960964710401818
40
0.18960964710401818
40
0.18960964710401818
40
0.18960964710401818
10
19.718831175453222
20
23.186886897320818
30
0
10
19.53741662012072
20
23.428261403855295
30
0
10
19.149116645946606
20
23.944899743495938
30
0
10
19.114541538935534
20
24.592671627203408
30
0
10
19.0961199938126
20
24.937803139920305
30
0
0
SPLINE
5
324
100
AcDbEntity
8
0
100
AcDbSpline
70
0
71
3
72
9
73
5
74
0
42
0.000000001
43
0.0000000001
44
0.0000000001
40
0
40
0
40
0
40
0
40
0.10689407396249456
40
0.21075861524351833
40
0.21075861524351833
40
0.21075861524351833
40
0.21075861524351833
10
19.0961199938126
20
24.937803139920305
30
0
10
19.12872895486824
20
25.303689890765281
30
0
10
19.193022691853386
20
26.025093632670501
30
0
10
19.685111456372276
20
26.555521815916343
30
0
10
19.927619093544045
20
26.816923609013628
30
0
0
SPLINE
5
325
100
AcDbEntity
8
0
100
AcDbSpline
70
0
71
3
72
9
73
5
74
0
42
0.000000001
43
0.0000000001
44
0.0000000001
40
0
40
0
40
0
40
0
40
0.10994032736027723
40
0.23206772674219378
40
0.23206772674219378
40
0.23206772674219378
40
0.23206772674219378
10
19.927619093544045
20
26.816923609013628
30
0
10
20.236312996374906
20
27.027235956799061
30
0
10
20.887920045482335
20
27.471174133337652
30
0
10
21.677131358902322
20
27.515308791409087
30
0
10
22.09245979178624
20
27.538534989590715
30
0
0
SPLINE
5
326
100
AcDbEntity
8
0
100
AcDbSpline
70
0
71
3
72
9
73
5
74
0
42
0.000000001
43
0.0000000001
44
0.0000000001
40
0
40
0
40
0
40
0
40
0.093175434054360101
40
0.20277491942856118
40
0.20277491942856118
40
0.20277491942856118
40
0.20277491942856118
10
22.09245979178624
20
27.538534989590715
30
0
10
22.403340443237823
20
27.522027507559422
30
0
10
23.079900737158386
20
27.486102766528305
30
0
10
23.737192726513282
20
27.320403085058025
30
0
10
24.092457884437607
20
27.230842700238298
30
0
0
SPLINE
5
327
100
AcDbEntity
8
0
100
AcDbSpline
70
0
71
3
72
9
73
5
74
0
42
0.000000001
43
0.0000000001
44
0.0000000001
40
0
40
0
40
0
40
0
40
0.047800513918394918
40
0.080606066736690463
40
0.080606066736690463
40
0.080606066736690463
40
0.080606066736690463
10
24.092457884437607
20
27.230842700238298
30
0
10
24.24655539525077
20
27.18862711620412
30
0
10
24.506410221535035
20
27.117438923755049
30
0
10
24.774539387268405
20
27.093901832584059
30
0
10
24.883664244300888
20
27.084322562451433
30
0
0
SPLINE
5
328
100
AcDbEntity
8
0
100
AcDbSpline
70
0
71
3
72
9
73
5
74
0
42
0.000000001
43
0.0000000001
44
0.0000000001
40
0
40
0
40
0
40
0
40
0.05204578717903062
40
0.10347836469732244
40
0.10347836469732244
40
0.10347836469732244
40
0.10347836469732244
10
23.422129744178818
20
26.311429133648943
30
0
10
23.568887241525317
20
26.21377368750705
30
0
10
23.860673121912686
20
26.019613383315857
30
0
10
24.030185934859624
20
25.712940769872095
30
0
10
24.114440077430771
20
25.560513129468035
30
0
0
LINE
5
329
100
AcDbEntity
8
0
100
AcDbLine
10
24.114440077434395
20
25.560513129470429
30
0
11
24.063151472698074
21
25.531209101913056
31
0
0
SPLINE
5
330
100
AcDbEntity
8
0
100
AcDbSpline
70
0
71
3
72
9
73
5
74
0
42
0.000000001
43
0.0000000001
44
0.0000000001
40
0
40
0
40
0
40
0
40
0.10539256664808966
40
0.19730287331020069
40
0.19730287331020069
40
0.19730287331020069
40
0.19730287331020069
10
24.063151472694443
20
25.531209101910662
30
0
10
23.801654738031232
20
25.780851019835254
30
0
10
23.312113029814171
20
26.248199612546308
30
0
10
22.644986281903524
20
26.343812304158579
30
0
10
22.334216230995224
20
26.388351907963823
30
0
0
SPLINE
5
331
100
AcDbEntity
8
0
100
AcDbSpline
70
0
71
3
72
9
73
5
74
0
42
0.000000001
43
0.0000000001
44
0.0000000001
40
0
40
0
40
0
40
0
40
0.051549505366797657
40
0.099484827270204829
40
0.099484827270204829
40
0.099484827270204829
40
0.099484827270204829
10
22.334216230995224
20
26.388351907963823
30
0
10
22.158967896951257
20
26.376983002579195
30
0
10
21.8207580515279
20
26.355042276273593
30
0
10
21.544329079674853
20
26.159990483661907
30
0
10
21.411135786659283
20
26.06600760483272
30
0
0
SPLINE
5
332
100
AcDbEntity
8
0
100
AcDbSpline
70
0
71
3
72
9
73
5
74
0
42
0.000000001
43
0.0000000001
44
0.0000000001
40
0
40
0
40
0
40
0
40
0.045787477493287682
40
0.092122713317764254
40
0.092122713317764254
40
0.092122713317764254
40
0.092122713317764254
10
21.411135786659283
20
26.06600760483272
30
0
10
21.304299114682898
20
25.950745481758275
30
0
10
21.089347677234809
20
25.718842347938754
30
0
10
21.059733932145598
20
25.403901150433708
30
0
10
21.044839018470803
20
25.245494237179827
30
0
0
SPLINE
5
333
100
AcDbEntity
8
0
100
AcDbSpline
70
0
71
3
72
9
73
5
74
0
42
0.000000001
43
0.0000000001
44
0.0000000001
40
0
40
0
40
0
40
0
40
0.05797537168515228
40
0.13710653903603026
40
0.13710653903603026
40
0.13710653903603026
40
0.13710653903603026
10
21.044839018470803
20
25.245494237179827
30
0
10
21.09088359739388
20
25.052748386208783
30
0
10
21.199774884745967
20
24.596921786532807
30
0
10
21.570691461087957
20
24.302098643174546
30
0
10
21.78476631034092
20
24.131941189999651
30
0
0
LINE
5
334
100
AcDbEntity
8
0
100
AcDbLine
10
21.784766310344548
20
24.131941190002046
30
0
11
21.843369597087712
21
24.095311751601777
31
0
0
LINE
5
335
100
AcDbEntity
8
0
100
AcDbLine
10
21.843369597087712
20
24.095311751601777
30
0
11
21.806738966594548
21
24.036703696487031
31
0
0
SPLINE
5
336
100
AcDbEntity
8
0
100
AcDbSpline
70
0
71
3
72
9
73
5
74
0
42
0.000000001
43
0.0000000001
44
0.0000000001
40
0
40
0
40
0
40
0
40
0.089787476512903461
40
0.16606434033487155
40
0.16606434033487155
40
0.16606434033487155
40
0.16606434033487155
10
21.80673896659092
20
24.036703696484636
30
0
10
21.525270428482465
20
24.184097052946825
30
0
10
21.004686835744067
20
24.456705009660237
30
0
10
20.891638637985675
20
25.027344625753422
30
0
10
20.839713209754983
20
25.289451470608782
30
0
0
SPLINE
5
337
100
AcDbEntity
8
0
100
AcDbSpline
70
0
71
3
72
9
73
5
74
0
42
0.000000001
43
0.0000000001
44
0.0000000001
40
0
40
0
40
0
40
0
40
0.052836427130024198
40
0.10426491087298795
40
0.10426491087298795
40
0.10426491087298795
40
0.10426491087298795
10
20.839713209754983
20
25.289451470608782
30
0
10
20.855864762438998
20
25.470241774039057
30
0
10
20.887737473985428
20
25.827004823657646
30
0
10
21.130314256323828
20
26.090088291915695
30
0
10
21.249964827186627
20
26.219853749508928
30
0
0
SPLINE
5
338
100
AcDbEntity
8
0
100
AcDbSpline
70
0
71
3
72
9
73
5
74
0
42
0.000000001
43
0.0000000001
44
0.0000000001
40
0
40
0
40
0
40
0
40
0.054384829257941622
40
0.11476268033812097
40
0.11476268033812097
40
0.11476268033812097
40
0.11476268033812097
10
21.249964827186627
20
26.219853749508928
30
0
10
21.402319678748238
20
26.324476996685267
30
0
10
21.723818364434983
20
26.545252614361416
30
0
10
22.11418946092072
20
26.567253296969689
30
0
10
22.319567793495224
20
26.578828087086748
30
0
0
SPLINE
5
339
100
AcDbEntity
8
0
100
AcDbSpline
70
0
71
3
72
9
73
5
74
0
42
0.000000001
43
0.0000000001
44
0.0000000001
40
0
40
0
40
0
40
0
40
0.059442910636119672
40
0.11442158921459089
40
0.11442158921459089
40
0.11442158921459089
40
0.11442158921459089
10
22.319567793495224
20
26.578828087086748
30
0
10
22.519673781244713
20
26.569531222438382
30
0
10
22.904857563206743
20
26.55163569854167
30
0
10
23.254249602395397
20
26.389387921410773
30
0
10
23.422129744178818
20
26.311429133648943
30
0
0
SPLINE
5
340
100
AcDbEntity
8
0
100
AcDbSpline
70
0
71
3
72
9
73
5
74
0
42
0.000000001
43
0.0000000001
44
0.0000000001
40
0
40
0
40
0
40
0
40
0.12825285866823394
40
0.26226129726523456
40
0.26226129726523456
40
0.26226129726523456
40
0.26226129726523456
10
21.982567900306741
20
18.58615457081325
30
0
10
21.572269184796916
20
18.769084866857671
30
0
10
20.733258853852
20
19.143154788166999
30
0
10
20.469163652427898
20
20.025440289649815
30
0
10
20.33421813834385
20
20.476264348263811
30
0
0
LINE
5
341
100
AcDbEntity
8
0
100
AcDbLine
10
20.334218138347474
20
20.476264348266206
30
0
11
20.532019728313298
21
20.512893786666474
31
1.0400021699691074e-31
0
SPLINE
5
342
100
AcDbEntity
8
0
100
AcDbSpline
70
0
71
3
72
9
73
5
74
0
42
0.000000001
43
0.0000000001
44
0.0000000001
40
0
40
0
40
0
40
0
40
0.12316208487036256
40
0.24387778405954824
40
0.24387778405954824
40
0.24387778405954824
40
0.24387778405954824
10
20.53201972830967
20
20.51289378666408
30
0
10
20.658221939040594
20
20.106328716756959
30
0
10
20.908119588376991
20
19.30127423566946
30
0
10
21.626821609776478
20
18.862131453504357
30
0
10
21.982567900306741
20
18.644762625927996
30
0
0
LINE
5
343
100
AcDbEntity
8
0
100
AcDbLine
10
21.982567900310364
20
18.64476262593039
30
0
11
21.982567900310368
21
18.586154570815644
31
0
0
SPLINE
5
344
100
AcDbEntity
8
0
100
AcDbSpline
70
0
71
3
72
9
73
5
74
0
42
0.000000001
43
0.0000000001
44
0.0000000001
40
0
40
0
40
0
40
0
40
0.10697294837625568
40
0.21578669606433745
40
0.21578669606433745
40
0.21578669606433745
40
0.21578669606433745
10
26.539347761756943
20
20.615457883114885
30
0
10
26.505270960826962
20
20.978661061830344
30
0
10
26.436530962568167
20
21.711317449493972
30
0
10
25.978899527785746
20
22.288017761272521
30
0
10
25.748131865150494
20
22.57882772945888
30
0
0
LINE
5
345
100
AcDbEntity
8
0
100
AcDbLine
10
25.748131865154118
20
22.578827729461274
30
0
11
25.748131865154122
21
22.622784962890226
31
9.6296497219361793e-34
0
SPLINE
5
346
100
AcDbEntity
8
0
100
AcDbSpline
70
0
71
3
72
9
73
5
74
0
42
0.000000001
43
0.0000000001
44
0.0000000001
40
0
40
0
40
0
40
0
40
0.1165002615552264
40
0.23633359681309724
40
0.23633359681309724
40
0.23633359681309724
40
0.23633359681309724
10
25.748131865150494
20
22.622784962887835
30
0
10
26.03871760643279
20
22.345053446583854
30
0
10
26.62820275009738
20
21.781644512387079
30
0
10
26.705353935986388
20
20.968935338529665
30
0
10
26.744473570472763
20
20.556849828000139
30
0
0
SPLINE
5
347
100
AcDbEntity
8
0
100
AcDbSpline
70
0
71
3
72
9
73
5
74
0
42
0.000000001
43
0.0000000001
44
0.0000000001
40
0
40
0
40
0
40
0
40
0.13202507528071503
40
0.26704397233180266
40
0.26704397233180266
40
0.26704397233180266
40
0.26704397233180266
10
26.744473570472763
20
20.556849828000139
30
0
10
26.697304201501325
20
20.106515163692947
30
0
10
26.601895843386515
20
19.195633974043147
30
0
10
25.976450674430236
20
18.525639684693616
30
0
10
25.660222166664166
20
18.186886897320825
30
0
0
SPLINE
5
348
100
AcDbEntity
8
0
100
AcDbSpline
70
0
71
3
72
9
73
5
74
0
42
0.000000001
43
0.0000000001
44
0.0000000001
40
0
40
0
40
0
40
0
40
0.14048273972646413
40
0.2861079951086305
40
0.2861079951086305
40
0.2861079951086305
40
0.2861079951086305
10
25.660222166664166
20
18.186886897320825
30
0
10
25.274767533768493
20
17.90379298822964
30
0
10
24.489748303378743
20
17.327242225372576
30
0
10
23.517649915134736
20
17.253648789805599
30
0
10
23.02286445487217
20
17.216190686459612
30
0
0
SPLINE
5
349
100
AcDbEntity
8
0
100
AcDbSpline
70
0
71
3
72
9
73
5
74
0
42
0.000000001
43
0.0000000001
44
0.0000000001
40
0
40
0
40
0
40
0
40
0.075383181659129606
40
0.14403784410435871
40
0.14403784410435871
40
0.14403784410435871
40
0.14403784410435871
10
23.02286445487217
20
17.216190686459612
30
0
10
22.771013164867618
20
17.221558984021321
30
0
10
22.289790217669768
20
17.231816417977818
30
0
10
21.818788646629255
20
17.330382149797991
30
0
10
21.594288939125093
20
17.377362838025164
30
0
0
LINE
5
350
100
AcDbEntity
8
0
100
AcDbLine
10
21.594288939128724
20
17.377362838027555
30
0
11
20.422127836833802
21
17.663077702758393
31
0
0
SPLINE
5
351
100
AcDbEntity
8
0
100
AcDbSpline
70
0
71
3
72
9
73
5
74
0
42
0.000000001
43
0.0000000001
44
0.0000000001
40
0
40
0
40
0
40
0
40
0.043181635680575522
40
0.08867554334572933
40
0.08867554334572933
40
0.08867554334572933
40
0.08867554334572933
10
20.422127836830171
20
17.663077702755999
30
0
10
20.280996159666742
20
17.692986805447667
30
0
10
19.991175545914686
20
17.754406570826315
30
0
10
19.694967944545372
20
17.761831392678552
30
0
10
19.543002241737398
20
17.765640607113916
30
0
0
SPLINE
5
352
100
AcDbEntity
8
0
100
AcDbSpline
70
0
71
3
72
9
73
5
74
0
42
0.000000001
43
0.0000000001
44
0.0000000001
40
0
40
0
40
0
40
0
40
0.04033023576246577
40
0.079251710796127445
40
0.079251710796127445
40
0.079251710796127445
40
0.079251710796127445
10
19.543002241737398
20
17.765640607113916
30
0
10
19.407637348393258
20
17.759132320849261
30
0
10
19.141635943332247
20
17.746343086889333
30
0
10
18.894935600941075
20
17.646283513214499
30
0
10
18.773778074867277
20
17.597143044705462
30
0
0
LINE
5
353
100
AcDbEntity
8
0
100
AcDbLine
10
18.773778074870915
20
17.597143044707853
30
0
11
18.685868376384583
21
17.809597840545255
31
-3.8518598887744717e-33
0
SPLINE
5
354
100
AcDbEntity
8
0
100
AcDbSpline
70
0
71
3
72
9
73
5
74
0
42
0.000000001
43
0.0000000001
44
0.0000000001
40
0
40
0
40
0
40
0
40
0.040658577069269494
40
0.080098396586988252
40
0.080098396586988252
40
0.080098396586988252
40
0.080098396586988252
10
18.685868376380952
20
17.809597840542871
30
0
10
18.812425708224026
20
17.86087644413319
30
0
10
19.061746763894199
20
17.961896554104246
30
0
10
19.330221779288106
20
17.977660140245945
30
0
10
19.46241676200107
20
17.985422005887109
30
0
0
SPLINE
5
355
100
AcDbEntity
8
0
100
AcDbSpline
70
0
71
3
72
9
73
5
74
0
42
0.000000001
43
0.0000000001
44
0.0000000001
40
0
40
0
40
0
40
0
40
0.047185334934821181
40
0.1013917701698539
40
0.1013917701698539
40
0.1013917701698539
40
0.1013917701698539
10
19.46241676200107
20
17.985422005887109
30
0
10
19.619841724494542
20
17.978553285857913
30
0
10
19.958116225209295
20
17.963793791546316
30
0
10
20.289120162689827
20
17.891958646947721
30
0
10
20.466082686073335
20
17.853553881878923
30
0
0
LINE
5
356
100
AcDbEntity
8
0
100
AcDbLine
10
20.466082686076959
20
17.853553881881318
30
0
11
21.594288939128724
21
17.582491030929166
31
0
0
SPLINE
5
357
100
AcDbEntity
8
0
100
AcDbSpline
70
0
71
3
72
9
73
5
74
0
42
0.000000001
43
0.0000000001
44
0.0000000001
40
0
40
0
40
0
40
0
40
0.070277935892898574
40
0.14328283174322687
40
0.14328283174322687
40
0.14328283174322687
40
0.14328283174322687
10
21.594288939125093
20
17.582491030926775
30
0
10
21.824288823601698
20
17.535487113648834
30
0
10
22.293213164217601
20
17.439655409358721
30
0
10
22.771722523057424
20
17.427508118471632
30
0
10
23.015530699379006
20
17.421318879361223
30
0
0
SPLINE
5
358
100
AcDbEntity
8
0
100
AcDbSpline
70
0
71
3
72
9
73
5
74
0
42
0.000000001
43
0.0000000001
44
0.0000000001
40
0
40
0
40
0
40
0
40
0.13761864945677504
40
0.27127654838960652
40
0.27127654838960652
40
0.27127654838960652
40
0.27127654838960652
10
23.015530699379006
20
17.421318879361223
30
0
10
23.483183236271209
20
17.457914954555768
30
0
10
24.405028978505502
20
17.530053847086464
30
0
10
25.145304124803371
20
18.0829651673223
30
0
10
25.51003753531651
20
18.355384459729265
30
0
0
SPLINE
5
359
100
AcDbEntity
8
0
100
AcDbSpline
70
0
71
3
72
9
73
5
74
0
42
0.000000001
43
0.0000000001
44
0.0000000001
40
0
40
0
40
0
40
0
40
0.1288832757380354
40
0.25435262219374333
40
0.25435262219374333
40
0.25435262219374333
40
0.25435262219374333
10
25.51003753531651
20
18.355384459729265
30
0
10
25.810238558103265
20
18.680029397217357
30
0
10
26.402688718093422
20
19.320719903096936
30
0
10
26.494204188422582
20
20.18775769304461
30
0
10
26.539347761756943
20
20.615457883114885
30
0
0
LINE
5
360
100
AcDbEntity
8
0
100
AcDbLine
10
25.975239866863113
20
27.025714507339078
30
0
11
26.011870497356277
21
27.084322562453824
31
0
0
LINE
5
361
100
AcDbEntity
8
0
100
AcDbLine
10
26.011870497356277
20
27.084322562453824
30
0
11
26.202347868572097
21
26.989084472892362
31
-1.9259299443872359e-33
0
LINE
5
362
100
AcDbEntity
8
0
100
AcDbLine
10
26.202347868572097
20
26.989084472892362
30
-1.9259299443872359e-33
11
26.136410826335773
21
26.879194369552213
31
0
0
SPLINE
5
363
100
AcDbEntity
8
0
100
AcDbSpline
70
0
71
3
72
9
73
5
74
0
42
0.000000001
43
0.0000000001
44
0.0000000001
40
0
40
0
40
0
40
0
40
0.056747869201509642
40
0.10949662928705334
40
0.10949662928705334
40
0.10949662928705334
40
0.10949662928705334
10
26.136410826332146
20
26.879194369549822
30
0
10
26.041356100900742
20
26.715555368150348
30
0
10
25.85794530188759
20
26.399809256000903
30
0
10
25.699783966727775
20
26.070704126229863
30
0
10
25.623591536171006
20
25.912161460156511
30
0
0
SPLINE
5
364
100
AcDbEntity
8
0
100
AcDbSpline
70
0
71
3
72
9
73
5
74
0
42
0.000000001
43
0.0000000001
44
0.0000000001
40
0
40
0
40
0
40
0
40
0.092979074874886547
40
0.13336084012044269
40
0.13336084012044269
40
0.13336084012044269
40
0.13336084012044269
10
25.623591536171006
20
25.912161460156511
30
0
10
25.490818408247154
20
25.632104059872802
30
0
10
25.300380549953012
20
25.230414860082
30
0
10
25.104229801645921
20
24.831490833293515
30
0
10
25.044835203773541
20
24.710696330304216
30
0
0
LINE
5
365
100
AcDbEntity
8
0
100
AcDbLine
10
25.044835203777168
20
24.710696330306607
30
0
11
25.008204573284004
21
24.65941368603476
31
0
0
LINE
5
366
100
AcDbEntity
8
0
100
AcDbLine
10
25.008204573284004
20
24.65941368603476
30
0
11
24.832385176311348
21
24.732674947021088
31
-1.9259299443872359e-33
0
LINE
5
367
100
AcDbEntity
8
0
100
AcDbLine
10
24.832385176311348
20
24.732674947021088
30
-1.9259299443872359e-33
11
24.861691588054512
21
24.79860841297873
31
0
0
SPLINE
5
368
100
AcDbEntity
8
0
100
AcDbSpline
70
0
71
3
72
9
73
5
74
0
42
0.000000001
43
0.0000000001
44
0.0000000001
40
0
40
0
40
0
40
0
40
0.061452210268358953
40
0.14024740772609728
40
0.14024740772609728
40
0.14024740772609728
40
0.14024740772609728
10
24.861691588050885
20
24.798608412976336
30
0
10
24.94713847118847
20
24.984805037450538
30
0
10
25.142146979523456
20
25.409746529315832
30
0
10
25.356589038017429
20
25.825243145059549
30
0
10
25.477069014198349
20
26.058681597943373
30
0
0
LINE
5
369
100
AcDbEntity
8
0
100
AcDbLine
10
25.477069014201973
20
26.058681597945764
30
0
11
25.975239866863113
21
27.025714507339078
31
0
0
LINE
5
370
100
AcDbEntity
8
0
100
AcDbLine
10
12.539346808086245
20
26.329743852851468
30
0
11
13.367188566814274
21
27.135604610679227
31
0
0
LINE
5
371
100
AcDbEntity
8
0
100
AcDbLine
10
13.367188566814274
20
27.135604610679227
30
0
11
13.469751471172184
21
26.981758466003019
31
0
0
LINE
5
372
100
AcDbEntity
8
0
100
AcDbLine
10
13.469751471172184
20
26.981758466003019
30
0
11
12.751801603923649
21
26.256483783958036
31
0
0
LINE
5
373
100
AcDbEntity
8
0
100
AcDbLine
10
12.751801603923649
20
26.256483783958036
30
0
11
12.751801603923646
21
20.813260665175992
31
0
0
LINE
5
374
100
AcDbEntity
8
0
100
AcDbLine
10
12.751801603923646
20
20.813260665175992
30
0
11
12.744477385173646
21
20.307765593764859
31
0
0
LINE
5
375
100
AcDbEntity
8
0
100
AcDbLine
10
12.744477385173646
20
20.307765593764859
30
0
11
12.971585386882627
21
19.377363314864713
31
0
0
SPLINE
5
376
100
AcDbEntity
8
0
100
AcDbSpline
70
0
71
3
72
9
73
5
74
0
42
0.000000001
43
0.0000000001
44
0.0000000001
40
0
40
0
40
0
40
0
40
0.039244032936193156
40
0.093024366607159681
40
0.093024366607159681
40
0.093024366607159681
40
0.093024366607159681
10
12.971585386878992
20
19.377363314862322
30
0
10
13.049704964357884
20
19.271958683222458
30
0
10
13.2348802297647
20
19.022106709249705
30
0
10
13.471910371274049
20
18.82013622000337
30
0
10
13.608945006019619
20
18.703370681042742
30
0
0
LINE
5
377
100
AcDbEntity
8
0
100
AcDbLine
10
13.608945006023257
20
18.703370681045129
30
0
11
13.623593443523255
21
18.637436022994592
31
0
0
SPLINE
5
378
100
AcDbEntity
8
0
100
AcDbSpline
70
0
71
3
72
9
73
5
74
0
42
0.000000001
43
0.0000000001
44
0.0000000001
40
0
40
0
40
0
40
0
40
0.06034072958898766
40
0.11368780505993964
40
0.11368780505993964
40
0.11368780505993964
40
0.11368780505993964
10
13.623593443519619
20
18.637436022992205
30
0
10
13.437186260554219
20
18.724481051705972
30
0
10
13.085976992401608
20
18.888482354362619
30
0
10
12.873487833594659
20
19.211253549679693
30
0
10
12.77377902854159
20
19.362711301083635
30
0
0
SPLINE
5
379
100
AcDbEntity
8
0
100
AcDbSpline
70
0
71
3
72
9
73
5
74
0
42
0.000000001
43
0.0000000001
44
0.0000000001
40
0
40
0
40
0
40
0
40
0.063120932895752213
40
0.14994894478017218
40
0.14994894478017218
40
0.14994894478017218
40
0.14994894478017218
10
12.77377902854159
20
19.362711301083635
30
0
10
12.70582462082098
20
19.563135217394905
30
0
10
12.544393360803083
20
20.0392586423959
30
0
10
12.541197419500884
20
20.543346032847928
30
0
10
12.539346808082607
20
20.835238089795183
30
0
0
LINE
5
380
100
AcDbEntity
8
0
100
AcDbLine
10
12.539346808086243
20
20.835238089797574
30
0
11
12.539346808086245
21
26.329743852851468
31
0
0
LINE
5
381
100
AcDbEntity
8
0
100
AcDbLine
10
16.18769943107209
20
26.329743852851468
30
0
11
15.044844740520332
21
27.377362838027555
31
0
0
LINE
5
382
100
AcDbEntity
8
0
100
AcDbLine
10
15.044844740520332
20
27.377362838027555
30
0
11
18.165724867473457
21
27.377362838027555
31
0
0
LINE
5
383
100
AcDbEntity
8
0
100
AcDbLine
10
18.165724867473457
20
27.377362838027555
30
0
11
16.854365461955879
21
26.329743852851468
31
0
0
LINE
5
384
100
AcDbEntity
8
0
100
AcDbLine
10
16.854365461955879
20
26.329743852851468
30
0
11
16.854365461955876
21
21.597142806289273
31
0
0
SPLINE
5
385
100
AcDbEntity
8
0
100
AcDbSpline
70
0
71
3
72
9
73
5
74
0
42
0.000000001
43
0.0000000001
44
0.0000000001
40
0
40
0
40
0
40
0
40
0.11210763226369201
40
0.18782964756742704
40
0.18782964756742704
40
0.18782964756742704
40
0.18782964756742704
10
16.854365461952241
20
21.597142806286882
30
0
10
16.85455542269867
20
21.223147402283182
30
0
10
16.85487369059296
20
20.596540421942873
30
0
10
16.794469384263703
20
19.973043018126639
30
0
10
16.77011787284091
20
19.721685042615007
30
0
0
SPLINE
5
386
100
AcDbEntity
8
0
100
AcDbSpline
70
0
71
3
72
9
73
5
74
0
42
0.000000001
43
0.0000000001
44
0.0000000001
40
0
40
0
40
0
40
0
40
0.053506160579076735
40
0.10015275190805406
40
0.10015275190805406
40
0.10015275190805406
40
0.10015275190805406
10
16.77011787284091
20
19.721685042615007
30
0
10
16.738360517383843
20
19.544638541833962
30
0
10
16.678917146603268
20
19.213243164609921
30
0
10
16.513720953484196
20
18.920365323034009
30
0
10
16.436780089027433
20
18.78395616077907
30
0
0
SPLINE
5
387
100
AcDbEntity
8
0
100
AcDbSpline
70
0
71
3
72
9
73
5
74
0
42
0.000000001
43
0.0000000001
44
0.0000000001
40
0
40
0
40
0
40
0
40
0.11633869161545793
40
0.27014999985484739
40
0.27014999985484739
40
0.27014999985484739
40
0.27014999985484739
10
16.436780089027433
20
18.78395616077907
30
0
10
16.143877196006976
20
18.511772289400309
30
0
10
15.46372757932993
20
17.879734299352165
30
0
10
14.524598039212934
20
17.858383479393321
30
0
10
13.989899748451259
20
17.846227278943132
30
0
0
SPLINE
5
388
100
AcDbEntity
8
0
100
AcDbSpline
70
0
71
3
72
9
73
5
74
0
42
0.000000001
43
0.0000000001
44
0.0000000001
40
0
40
0
40
0
40
0
40
0.16468109511154205
40
0.29116516103851442
40
0.29116516103851442
40
0.29116516103851442
40
0.29116516103851442
10
13.989899748451259
20
17.846227278943132
30
0
10
13.421923774225226
20
17.860152596080194
30
0
10
12.417711263435702
20
17.884773316533735
30
0
10
11.644476103108241
20
18.511640794656469
30
0
10
11.308577650672937
20
18.783956160779077
30
0
0
SPLINE
5
389
100
AcDbEntity
8
0
100
AcDbSpline
70
0
71
3
72
9
73
5
74
0
42
0.000000001
43
0.0000000001
44
0.0000000001
40
0
40
0
40
0
40
0
40
0.11711900759391727
40
0.29341668086895589
40
0.29341668086895589
40
0.29341668086895589
40
0.29341668086895589
10
11.308577650672937
20
18.783956160779077
30
0
10
11.132943207934041
20
19.137681881080518
30
0
10
10.692928591234082
20
20.023866189853816
30
0
10
10.697670516949023
20
21.020375007435099
30
0
10
10.700519674903898
20
21.61912142300136
30
0
0
LINE
5
390
100
AcDbEntity
8
0
100
AcDbLine
10
10.700519674907534
20
21.619121423003762
30
0
11
10.700519674907536
21
26.48358999752768
31
-1.2325951644078309e-31
0
LINE
5
391
100
AcDbEntity
8
0
100
AcDbLine
10
10.700519674907536
20
26.48358999752768
30
-1.2325951644078309e-31
11
9.7041827379568524
21
27.377362838027558
31
0
0
LINE
5
392
100
AcDbEntity
8
0
100
AcDbLine
10
9.7041827379568524
20
27.377362838027558
30
0
11
13.162057989726879
21
27.377362838027551
31
0
0
LINE
5
393
100
AcDbEntity
8
0
100
AcDbLine
10
13.162057989726879
20
27.377362838027551
30
0
11
12.165721052776187
21
26.403003921744901
31
0
0
LINE
5
394
100
AcDbEntity
8
0
100
AcDbLine
10
12.165721052776187
20
26.403003921744901
30
0
11
12.165721052776185
21
21.61179482006796
31
0
0
LINE
5
395
100
AcDbEntity
8
0
100
AcDbLine
10
12.165721052776185
20
21.61179482006796
30
0
11
12.180374258647767
21
20.483589759109098
31
0
0
SPLINE
5
396
100
AcDbEntity
8
0
100
AcDbSpline
70
0
71
3
72
9
73
5
74
0
42
0.000000001
43
0.0000000001
44
0.0000000001
40
0
40
0
40
0
40
0
40
0.094003379331240047
40
0.16442164201378334
40
0.16442164201378334
40
0.16442164201378334
40
0.16442164201378334
10
12.180374258644131
20
20.483589759106707
30
0
10
12.185713774299913
20
20.162016904853104
30
0
10
12.195053139947465
20
19.599552692400426
30
0
10
12.502788877679372
20
19.133668014896998
30
0
10
12.634585493690516
20
18.934139600033838
30
0
0
SPLINE
5
397
100
AcDbEntity
8
0
100
AcDbSpline
70
0
71
3
72
9
73
5
74
0
42
0.000000001
43
0.0000000001
44
0.0000000001
40
0
40
0
40
0
40
0
40
0.069992732789076278
40
0.16282516997925556
40
0.16282516997925556
40
0.16282516997925556
40
0.16282516997925556
10
12.634585493690516
20
18.934139600033838
30
0
10
12.831815746523301
20
18.801251195541173
30
0
10
13.290635514845885
20
18.492110857857902
30
0
10
13.847965462788718
20
18.482018108074726
30
0
10
14.165719145423916
20
18.476263871426653
30
0
0
SPLINE
5
398
100
AcDbEntity
8
0
100
AcDbSpline
70
0
71
3
72
9
73
5
74
0
42
0.000000001
43
0.0000000001
44
0.0000000001
40
0
40
0
40
0
40
0
40
0.10168317009570454
40
0.18364147629847954
40
0.18364147629847954
40
0.18364147629847954
40
0.18364147629847954
10
14.165719145423916
20
18.476263871426653
30
0
10
14.519772578530318
20
18.490554955095938
30
0
10
15.159198897389278
20
18.516364887068573
30
0
10
15.601862041253195
20
18.969847857052766
30
0
10
15.799420469886808
20
19.172235121960711
30
0
0
SPLINE
5
399
100
AcDbEntity
8
0
100
AcDbSpline
70
0
71
3
72
9
73
5
74
0
42
0.000000001
43
0.0000000001
44
0.0000000001
40
0
40
0
40
0
40
0
40
0.092643007950487813
40
0.2460193739026949
40
0.2460193739026949
40
0.2460193739026949
40
0.2460193739026949
10
15.799420469886808
20
19.172235121960711
30
0
10
15.902659732371326
20
19.465307373832683
30
0
10
16.176818131159408
20
20.243579296440465
30
0
10
16.165468649867588
20
21.072833645425568
30
0
10
16.158393019325288
20
21.589817395443987
30
0
0
LINE
5
400
100
AcDbEntity
8
0
100
AcDbLine
10
16.158393019328919
20
21.589817395446374
30
0
11
16.18769943107209
21
26.329743852851468
31
0
0
SPLINE
5
401
100
AcDbEntity
8
0
100
AcDbSpline
70
0
71
3
72
9
73
5
74
0
42
0.000000001
43
0.0000000001
44
0.0000000001
40
0
40
0
40
0
40
0
40
0.13657449280917905
40
0.22194765179481482
40
0.22194765179481482
40
0.22194765179481482
40
0.22194765179481482
10
22.385495298988385
20
21.52388273739345
30
0
10
21.940711433466241
20
21.624844784681109
30
0
10
21.217891729154502
20
21.788918535606186
30
0
10
20.526791628456508
20
22.055168420026526
30
0
10
20.260956877357522
20
22.157582631344866
30
0
0
SPLINE
5
402
100
AcDbEntity
8
0
100
AcDbSpline
70
0
71
3
72
9
73
5
74
0
42
0.000000001
43
0.0000000001
44
0.0000000001
40
0
40
0
40
0
40
0
40
0.053538829309439345
40
0.09998358170851912
40
0.09998358170851912
40
0.09998358170851912
40
0.09998358170851912
10
20.260956877357522
20
22.157582631344866
30
0
10
20.100161133219313
20
22.248601090297111
30
0
10
19.79987562773124
20
22.418577752936439
30
0
10
19.674502365682972
20
22.738096944695503
30
0
10
19.616263502723729
20
22.886521210904192
30
0
0
LINE
5
403
100
AcDbEntity
8
0
100
AcDbLine
10
19.616263502727364
20
22.886521210906587
30
0
11
19.865353697429512
21
22.747326483962617
31
0
0
SPLINE
5
404
100
AcDbEntity
8
0
100
AcDbSpline
70
0
71
3
72
9
73
5
74
0
42
0.000000001
43
0.0000000001
44
0.0000000001
40
0
40
0
40
0
40
0
40
0.061767139853463673
40
0.16109884295378318
40
0.16109884295378318
40
0.16109884295378318
40
0.16109884295378318
10
19.865353697425878
20
22.747326483960222
30
0
10
20.016450962732439
20
22.602987138172992
30
0
10
20.410537440949096
20
22.226526423718767
30
0
10
20.947924517119723
20
22.104572934645262
30
0
10
21.279271238929788
20
22.029377808804583
30
0
0
LINE
5
405
100
AcDbEntity
8
0
100
AcDbLine
10
21.279271238933415
20
22.029377808806984
30
0
11
22.458756559978337
21
21.736337533233247
31
0
0
SPLINE
5
406
100
AcDbEntity
8
0
100
AcDbSpline
70
0
71
3
72
9
73
5
74
0
42
0.000000001
43
0.0000000001
44
0.0000000001
40
0
40
0
40
0
40
0
40
0.10391586990506571
40
0.1684162553854518
40
0.1684162553854518
40
0.1684162553854518
40
0.1684162553854518
10
22.458756559974713
20
21.736337533230852
30
0
10
22.795951022247252
20
21.653808601503624
30
0
10
23.342441454599268
20
21.520054116696251
30
0
10
23.860921041414969
20
21.302986664928607
30
0
10
24.05948936331944
20
21.219853749508928
30
0
0
SPLINE
5
407
100
AcDbEntity
8
0
100
AcDbSpline
70
0
71
3
72
9
73
5
74
0
42
0.000000001
43
0.0000000001
44
0.0000000001
40
0
40
0
40
0
40
0
40
0.043663119305934292
40
0.088203979989156273
40
0.088203979989156273
40
0.088203979989156273
40
0.088203979989156273
10
24.05948936331944
20
21.219853749508928
30
0
10
24.183236033043816
20
21.137788441306174
30
0
10
24.433216999900864
20
20.972008100423935
30
0
10
24.562150893151838
20
20.701019215038585
30
0
10
24.6272593675919
20
20.56417643093593
30
0
0
LINE
5
408
100
AcDbEntity
8
0
100
AcDbLine
10
24.627259367595524
20
20.564176430938325
30
0
11
24.5759707628592
21
20.534872403380952
31
0
0
SPLINE
5
409
100
AcDbEntity
8
0
100
AcDbSpline
70
0
71
3
72
9
73
5
74
0
42
0.000000001
43
0.0000000001
44
0.0000000001
40
0
40
0
40
0
40
0
40
0.047603819414026083
40
0.09109229900642854
40
0.09109229900642854
40
0.09109229900642854
40
0.09109229900642854
10
24.575970762855572
20
20.534872403378557
30
0
10
24.466950257965916
20
20.651824113445883
30
0
10
24.258334047092855
20
20.87561708371387
30
0
10
23.989860188170226
20
21.021840322021426
30
0
10
23.861687773353619
20
21.091648926968645
30
0
0
SPLINE
5
410
100
AcDbEntity
8
0
100
AcDbSpline
70
0
71
3
72
9
73
5
74
0
42
0.000000001
43
0.0000000001
44
0.0000000001
40
0
40
0
40
0
40
0
40
0.059458020547628533
40
0.15394321059163271
40
0.15394321059163271
40
0.15394321059163271
40
0.15394321059163271
10
23.861687773353619
20
21.091648926968645
30
0
10
23.675491707132803
20
21.16001684880483
30
0
10
23.193410064159092
20
21.337028752194854
30
0
10
22.692770875899868
20
21.452816247987265
30
0
10
22.385495298988385
20
21.52388273739345
30
0
0
SPLINE
5
411
100
AcDbEntity
8
0
100
AcDbSpline
70
0
71
3
72
9
73
5
74
0
42
0.000000001
43
0.0000000001
44
0.0000000001
40
0
40
0
40
0
40
0
40
0.09109704558507109
40
0.16865193586093655
40
0.16865193586093655
40
0.16865193586093655
40
0.16865193586093655
10
-1.7756718457870306
20
22.351722111935686
30
0
10
-1.9164258872995559
20
22.621818538967901
30
0
10
-2.1770099866946273
20
23.121859841027099
30
0
10
-2.3336694840800503
20
23.663217774520842
30
0
10
-2.4057096303634462
20
23.912162175412249
30
0
0
LINE
5
412
100
AcDbEntity
8
0
100
AcDbLine
10
-2.4057096303598131
20
23.91216217541464
30
0
11
-2.1786016286508287
21
23.77296744847067
31
0
0
SPLINE
5
413
100
AcDbEntity
8
0
100
AcDbSpline
70
0
71
3
72
9
73
5
74
0
42
0.000000001
43
0.0000000001
44
0.0000000001
40
0
40
0
40
0
40
0
40
0.083135883092341503
40
0.1984648071053704
40
0.1984648071053704
40
0.1984648071053704
40
0.1984648071053704
10
-2.1786016286544618
20
23.772967448468279
30
0
10
-2.0912557315535429
20
23.509393685480788
30
0
10
-1.8827406358478198
20
22.88018143580458
30
0
10
-1.5601823487862345
20
22.300372890043629
30
0
10
-1.372742062919599
20
21.963443150754046
30
0
0
SPLINE
5
414
100
AcDbEntity
8
0
100
AcDbSpline
70
0
71
3
72
9
73
5
74
0
42
0.000000001
43
0.0000000001
44
0.0000000001
40
0
40
0
40
0
40
0
40
0.012744434097867527
40
0.018448656855682859
40
0.018448656855682859
40
0.018448656855682859
40
0.018448656855682859
10
-1.372742062919599
20
21.963443150754046
30
0
10
-1.4148116180471675
20
21.969422471262465
30
0
10
-1.4757108922448108
20
21.978078048390714
30
0
10
-1.5369561392493996
20
21.983687390029438
30
0
10
-1.5558928311996283
20
21.985421767468523
30
0
0
LINE
5
415
100
AcDbEntity
8
0
100
AcDbLine
10
-1.5558928311959954
20
21.985421767470914
30
0
11
-2.149299985279248
21
22.036703219649869
31
0
0
SPLINE
5
416
100
AcDbEntity
8
0
100
AcDbSpline
70
0
71
3
72
9
73
5
74
0
42
0.000000001
43
0.0000000001
44
0.0000000001
40
0
40
0
40
0
40
0
40
0.034906901103125824
40
0.058733938810788852
40
0.058733938810788852
40
0.058733938810788852
40
0.058733938810788852
10
-2.1492999852828811
20
22.036703219647478
30
0
10
-2.2652136850932649
20
22.047253265192523
30
0
10
-2.4602487050133166
20
22.065004647008493
30
0
10
-2.6559776902165879
20
22.070930048181488
30
0
10
-2.735380536430343
20
22.073333850140642
30
0
0
SPLINE
5
417
100
AcDbEntity
8
0
100
AcDbSpline
70
0
71
3
72
9
73
5
74
0
42
0.000000001
43
0.0000000001
44
0.0000000001
40
0
40
0
40
0
40
0
40
0.0051311748903308287
40
0.014670885728124418
40
0.014670885728124418
40
0.014670885728124418
40
0.014670885728124418
10
-2.735380536430343
20
22.073333850140642
30
0
10
-2.7524766212212448
20
22.072789069251073
30
0
10
-2.8013571820530903
20
22.071231449729495
30
0
10
-2.8501626457412499
20
22.068065741769722
30
0
10
-2.8818982900314172
20
22.066007247204851
30
0
0
LINE
5
418
100
AcDbEntity
8
0
100
AcDbLine
10
-2.8818982900277841
20
22.066007247207242
30
0
11
-1.6584557355539085
21
18.820586791274625
31
0
0
LINE
5
419
100
AcDbEntity
8
0
100
AcDbLine
10
-1.6584557355539085
20
18.820586791274625
30
0
11
-0.024756795276807964
21
17.377362838027555
31
-3.0814879110195774e-32
0
LINE
5
420
100
AcDbEntity
8
0
100
AcDbLine
10
-0.024756795276807964
20
17.377362838027555
30
-3.0814879110195774e-32
11
-4.2665141881601123
21
17.377362838027555
31
-3.6977854932234928e-31
0
LINE
5
421
100
AcDbEntity
8
0
100
AcDbLine
10
-4.2665141881601123
20
17.377362838027555
30
-3.6977854932234928e-31
11
-4.4057077230111874
21
17.57516562008627
31
-1.9259299443872359e-33
0
LINE
5
422
100
AcDbEntity
8
0
100
AcDbLine
10
-4.4057077230111874
20
17.57516562008627
30
-1.9259299443872359e-33
11
-0.5155986608163593
21
17.57516562008627
31
3.0814879110195774e-31
0
LINE
5
423
100
AcDbEntity
8
0
100
AcDbLine
10
-0.5155986608163593
20
17.57516562008627
30
3.0814879110195774e-31
11
-1.8342799008981463
21
18.740000119445405
31
0
0
LINE
5
424
100
AcDbEntity
8
0
100
AcDbLine
10
-1.8342799008981463
20
18.740000119445405
30
0
11
-3.1383103192941419
21
22.190549960372522
31
0
0
SPLINE
5
425
100
AcDbEntity
8
0
100
AcDbSpline
70
0
71
3
72
9
73
5
74
0
42
0.000000001
43
0.0000000001
44
0.0000000001
40
0
40
0
40
0
40
0
40
0.027193451511449931
40
0.057641005817217456
40
0.057641005817217456
40
0.057641005817217456
40
0.057641005817217456
10
-3.1383103192977746
20
22.190549960370134
30
0
10
-3.0495018643902849
20
22.209763547746839
30
0
10
-2.8612576959813785
20
22.250489915316756
30
0
10
-2.6686311793930164
20
22.254411786699031
30
0
10
-2.5668805898361038
20
22.256483426327776
30
0
0
SPLINE
5
426
100
AcDbEntity
8
0
100
AcDbSpline
70
0
71
3
72
9
73
5
74
0
42
0.000000001
43
0.0000000001
44
0.0000000001
40
0
40
0
40
0
40
0
40
0.041790584124323342
40
0.088208748736186976
40
0.088208748736186976
40
0.088208748736186976
40
0.088208748736186976
10
-2.5668805898361038
20
22.256483426327776
30
0
10
-2.4275249584257077
20
22.253202374164562
30
0
10
-2.1333824827071703
20
22.246276950365875
30
0
10
-1.8414065209466277
20
22.209764131820819
30
0
10
-1.6877597631149115
20
22.190549960370134
30
0
0
LINE
5
427
100
AcDbEntity
8
0
100
AcDbLine
10
-1.6877597631112788
20
22.190549960372525
30
0
11
-1.7756718457833978
21
22.351722111938077
31
0
0
LINE
5
428
100
AcDbEntity
8
0
100
AcDbLine
10
-11.870910531391313
20
26.769304266212064
30
0
11
-11.797650462497881
21
26.901172390220243
31
0
0
LINE
5
429
100
AcDbEntity
8
0
100
AcDbLine
10
-11.797650462497881
20
26.901172390220243
30
0
11
-11.629152900089434
21
26.798608293769437
31
0
0
LINE
5
430
100
AcDbEntity
8
0
100
AcDbLine
10
-11.629152900089434
20
26.798608293769437
30
0
11
-11.709738379825762
21
26.659414162871915
31
-3.8518598887744717e-33
0
SPLINE
5
431
100
AcDbEntity
8
0
100
AcDbSpline
70
0
71
3
72
9
73
5
74
0
42
0.000000001
43
0.0000000001
44
0.0000000001
40
0
40
0
40
0
40
0
40
0.14869994195142763
40
0.27929527531965209
40
0.27929527531965209
40
0.27929527531965209
40
0.27929527531965209
10
-11.709738379829398
20
26.659414162869524
30
0
10
-11.956507072403697
20
26.229154321018818
30
0
10
-12.419999720943693
20
25.421019903401245
30
0
10
-12.804619629728219
20
24.572606841026889
30
0
10
-12.984463578575127
20
24.175898423428606
30
0
0
LINE
5
432
100
AcDbEntity
8
0
100
AcDbLine
10
-12.984463578571495
20
24.175898423430997
30
0
11
-13.182266360630209
21
24.271135916946012
31
0
0
LINE
5
433
100
AcDbEntity
8
0
100
AcDbLine
10
-13.182266360630209
20
24.271135916946012
30
0
11
-13.101679688800985
21
24.454285493133145
31
0
0
SPLINE
5
434
100
AcDbEntity
8
0
100
AcDbSpline
70
0
71
3
72
9
73
5
74
0
42
0.000000001
43
0.0000000001
44
0.0000000001
40
0
40
0
40
0
40
0
40
0.078306095997371442
40
0.14286233505233831
40
0.14286233505233831
40
0.14286233505233831
40
0.14286233505233831
10
-13.101679688804619
20
24.454285493130755
30
0
10
-12.988734080819743
20
24.689645742781579
30
0
10
-12.782675113313983
20
25.11903906670296
30
0
10
-12.558355852970337
20
25.53916564512339
30
0
10
-12.456991082542411
20
25.72901128792293
30
0
0
LINE
5
435
100
AcDbEntity
8
0
100
AcDbLine
10
-12.456991082538774
20
25.729011287925321
30
0
11
-11.870910531391313
21
26.769304266212064
31
0
0
SPLINE
5
436
100
AcDbEntity
8
0
100
AcDbSpline
70
0
71
3
72
9
73
5
74
0
42
0.000000001
43
0.0000000001
44
0.0000000001
40
0
40
0
40
0
40
0
40
0.069352233845138778
40
0.14704468902274276
40
0.14704468902274276
40
0.14704468902274276
40
0.14704468902274276
10
-15.585196620338435
20
26.600806107754778
30
0
10
-15.350363905937002
20
26.569447118918088
30
0
10
-14.852457760063867
20
26.502957944656504
30
0
10
-14.483457558739472
20
26.15954238702696
30
0
10
-14.288492804878228
20
25.978095522160601
30
0
0
LINE
5
437
100
AcDbEntity
8
0
100
AcDbLine
10
-14.28849280487459
20
25.978095522162995
30
0
11
-14.288492804874593
21
25.882857432601529
31
0
0
SPLINE
5
438
100
AcDbEntity
8
0
100
AcDbSpline
70
0
71
3
72
9
73
5
74
0
42
0.000000001
43
0.0000000001
44
0.0000000001
40
0
40
0
40
0
40
0
40
0.076239122896635036
40
0.13885541544490757
40
0.13885541544490757
40
0.13885541544490757
40
0.13885541544490757
10
-14.288492804878228
20
25.882857432599138
30
0
10
-14.495783406030649
20
26.038364625699437
30
0
10
-14.873324771241114
20
26.321592122058348
30
0
10
-15.338705575311803
20
26.387799833604912
30
0
10
-15.548567181938166
20
26.417655935521196
30
0
0
SPLINE
5
439
100
AcDbEntity
8
0
100
AcDbSpline
70
0
71
3
72
9
73
5
74
0
42
0.000000001
43
0.0000000001
44
0.0000000001
40
0
40
0
40
0
40
0
40
0.16863388758292064
40
0.44417633343692298
40
0.44417633343692298
40
0.44417633343692298
40
0.44417633343692298
10
-15.548567181938166
20
26.417655935521196
30
0
10
-16.094602712868355
20
26.163930875791522
30
0
10
-17.532843054303846
20
25.495627082603008
30
0
10
-17.4792490982279
20
23.831155374130617
30
0
10
-17.446002370231628
20
22.798609128232073
30
0
0
SPLINE
5
440
100
AcDbEntity
8
0
100
AcDbSpline
70
0
71
3
72
9
73
5
74
0
42
0.000000001
43
0.0000000001
44
0.0000000001
40
0
40
0
40
0
40
0
40
0.15140660513038415
40
0.27908772850763053
40
0.27908772850763053
40
0.27908772850763053
40
0.27908772850763053
10
-17.446002370231628
20
22.798609128232073
30
0
10
-17.434783512408707
20
22.290970562920233
30
0
10
-17.414103796728185
20
21.355240619211706
30
0
10
-17.134403381227408
20
20.463147169167328
30
0
10
-17.006441956871033
20
20.055019250149797
30
0
0
SPLINE
5
441
100
AcDbEntity
8
0
100
AcDbSpline
70
0
71
3
72
9
73
5
74
0
42
0.000000001
43
0.0000000001
44
0.0000000001
40
0
40
0
40
0
40
0
40
0.10458467415868927
40
0.19223145357477373
40
0.19223145357477373
40
0.19223145357477373
40
0.19223145357477373
10
-17.006441956871033
20
20.055019250149797
30
0
10
-16.858703129549909
20
19.728339972552877
30
0
10
-16.587152352594956
20
19.127888396924032
30
0
10
-16.024763859945256
20
18.791026284631101
30
0
10
-15.768346196525574
20
18.637436022992205
30
0
0
LINE
5
442
100
AcDbEntity
8
0
100
AcDbLine
10
-15.768346196521936
20
18.637436022994592
30
0
11
-15.768346196521939
21
18.56417595410116
31
0
0
SPLINE
5
443
100
AcDbEntity
8
0
100
AcDbSpline
70
0
71
3
72
9
73
5
74
0
42
0.000000001
43
0.0000000001
44
0.0000000001
40
0
40
0
40
0
40
0
40
0.088382233116349004
40
0.19751916593294619
40
0.19751916593294619
40
0.19751916593294619
40
0.19751916593294619
10
-15.768346196525574
20
18.564175954098772
30
0
10
-16.049038745252702
20
18.680713500952937
30
0
10
-16.676338556009796
20
18.941154974797616
30
0
10
-16.980975287345707
20
19.554789332592396
30
0
10
-17.149298793190006
20
19.893845906491357
30
0
0
SPLINE
5
444
100
AcDbEntity
8
0
100
AcDbSpline
70
0
71
3
72
9
73
5
74
0
42
0.000000001
43
0.0000000001
44
0.0000000001
40
0
40
0
40
0
40
0
40
0.13629807624175452
40
0.29807787402898123
40
0.29807787402898123
40
0.29807787402898123
40
0.29807787402898123
10
-17.149298793190006
20
19.893845906491357
30
0
10
-17.299650412133687
20
20.325486344967345
30
0
10
-17.628462763469134
20
21.269464923341779
30
0
10
-17.652653314876595
20
22.270146585650181
30
0
10
-17.665782576911926
20
22.813259949917864
30
0
0
SPLINE
5
445
100
AcDbEntity
8
0
100
AcDbSpline
70
0
71
3
72
9
73
5
74
0
42
0.000000001
43
0.0000000001
44
0.0000000001
40
0
40
0
40
0
40
0
40
0.28878885119950742
40
0.47131456418083523
40
0.47131456418083523
40
0.47131456418083523
40
0.47131456418083523
10
-17.665782576911926
20
22.813259949917864
30
0
10
-17.691410087835536
20
23.897246288656973
30
0
10
-17.733235175929593
20
25.666353879544719
30
0
10
-16.1848419504982
20
26.339944907919683
30
0
10
-15.585196620338435
20
26.600806107754778
30
0
0
LWPOLYLINE
5
446
100
AcDbEntity
8
0
100
AcDbPolyline
90
10
70
1
43
0.0
10
-21.599848872532071
20
26.285787811515412
10
-20.772009497989835
20
27.106300583121858
10
-20.647467976917447
20
26.959780445334992
10
-21.39472067963046
20
26.219853749511323
10
-21.394720679630463
20
18.754652133224091
10
-20.163951522220799
20
17.377362838027555
10
-23.973475104679302
20
17.377362838027555
10
-24.156625276912884
20
17.57516562008627
10
-20.596185332645604
20
17.57516562008627
10
-21.599848872532075
20
18.681392064330659
0
ENDSEC
0
SECTION
2
OBJECTS
0
DICTIONARY
5
C
100
AcDbDictionary
3
ACAD_GROUP
350
D
3
ACAD_MLINESTYLE
350
17
0
DICTIONARY
5
D
100
AcDbDictionary
0
DICTIONARY
5
1A
330
C
100
AcDbDictionary
0
DICTIONARY
5
17
100
AcDbDictionary
0
ENDSEC
0
EOF
